<svg data-name="Layer 1" xmlns="http://www.w3.org/2000/svg" viewBox="0 0 288 108"><title>isotonix-us-au-gb-hk-sg-logo</title><path d="M274.4 40.25c0-1.2-1-1.46-2-1.46H270v5.53h.78v-2.57h.93l1.7 2.56h.92l-1.68-2.56c1 0 1.75-.42 1.75-1.5zm-2.7.74h-.92v-1.44h1.48c.6 0 1.35.1 1.35.67 0 .9-1.2.77-1.9.77z" fill="#0c0b0b"/><path d="M271.9 36.5a5.07 5.07 0 1 0 5.1 5.08 5.05 5.05 0 0 0-5.1-5.07zm0 9.36a4.3 4.3 0 1 1 4.32-4.28 4.3 4.3 0 0 1-4.32 4.3zM11.15 14.2h8.15v60.84h-8.15zM44.78 51.93l-1.55-.63c-3.5-1.42-6.55-2.65-6.55-5.1 0-1.9 2-3.32 3.78-3.32 2 0 3.6 1.67 4.33 3.32l.32.76 6.64-3.5-.28-.65a12 12 0 0 0-10.55-7.3c-6.7 0-11.78 4.83-11.78 11.24 0 6.83 5.25 9 9.88 11 3.64 1.52 6.8 2.84 6.8 6.1a4.72 4.72 0 0 1-1.37 3.42 5.55 5.55 0 0 1-3.84 1.46c-3.66 0-5.28-2-6.84-5.44l-.3-.7-6.95 2.93.23.7a14 14 0 0 0 13.8 9.9A12.9 12.9 0 0 0 53.8 63.24c0-6.66-4.57-9.46-9.04-11.32zM78.06 35.5a20.28 20.28 0 1 0 20.2 20.36 20.06 20.06 0 0 0-20.2-20.36zm12.36 20.28c0 7.36-5.3 12.92-12.36 12.92S65.7 63.15 65.7 55.78s5.3-12.9 12.36-12.9 12.36 5.55 12.36 12.9zM113.5 23.23h-7.83v13.3h-3.86v7.36h3.87v31.14h7.83V43.9h6.6v-7.37h-6.6v-13.3M141.1 35.5a20.28 20.28 0 1 0 20.2 20.36 20.06 20.06 0 0 0-20.2-20.36zm12.37 20.28c0 7.36-5.3 12.92-12.36 12.92s-12.35-5.55-12.35-12.92 5.3-12.9 12.36-12.9 12.37 5.55 12.37 12.9zM186.17 35.5a12.83 12.83 0 0 0-9.9 4.3v-3.27h-7.85V75h7.84V56.72c0-7 .65-13.84 8.42-13.84 6.5 0 7 4.37 7 10.54V75h7.84V52.32c0-11.32-4.37-16.82-13.35-16.82zM211.1 36.53h7.85v38.5h-7.84zM215 18.12a5.33 5.33 0 0 0-5.26 5.26 5.25 5.25 0 1 0 10.5 0 5.32 5.32 0 0 0-5.24-5.26zM264.2 36.53h-9.84l-9.3 12.1-9.3-12.1h-9.66l14.05 18.07-16.36 20.44h9.85l11.4-14.54 11.35 14.54h9.6L250.05 54.6l14.13-18.07" fill="#0c0b0b"/><path fill="#8c8c8c" d="M14.98 96.5h-1.2v-9.66h-2.6v-1.1h6.43v1.1H15v9.66M20 84.7v5.87a2.25 2.25 0 0 1 1.9-1c1.87 0 2.3 1.34 2.3 2.9v4h-1.14v-3.76c0-1.08-.08-2.05-1.4-2.05-1.58 0-1.68 1.46-1.68 2.66v3.2h-1.14V84.7zM27 93.38a2.18 2.18 0 0 0 2.2 2.24 2.3 2.3 0 0 0 2-1.38l1 .56a3.4 3.4 0 0 1-3.1 1.88 3.25 3.25 0 0 1-3.3-3.46c0-2 1.17-3.63 3.27-3.63s3.3 1.78 3.18 3.78zm4.07-1a2 2 0 0 0-2-1.76 2.12 2.12 0 0 0-2 1.76zM40.44 94.33l2.08-5.06 2.1 5.06 2-4.55h1.3l-3.33 7.2-2.08-5-2.07 5-3.3-7.2h1.3l2 4.55M48.45 93.15A3.53 3.53 0 1 1 52 96.68a3.52 3.52 0 0 1-3.55-3.53zm1.14 0a2.4 2.4 0 1 0 2.4-2.5 2.38 2.38 0 0 0-2.4 2.5zM58.17 90.5a1.73 1.73 0 0 1 1.5-.9 2 2 0 0 1 1 .3l-.55 1a1.1 1.1 0 0 0-.7-.3c-1.25 0-1.3 1.63-1.3 2.5v3.4H57v-6.72h1.14zM61.84 84.7h1.14v11.8h-1.14zM70.1 95.57a2.86 2.86 0 0 1-2.3 1.1 3.56 3.56 0 0 1 0-7.07 2.9 2.9 0 0 1 2.3 1.14v-6h1.13V96.5H70.1zm-4.4-2.5a2.32 2.32 0 0 0 2.2 2.56 2.3 2.3 0 0 0 2.25-2.54 2.24 2.24 0 0 0-2.26-2.44 2.28 2.28 0 0 0-2.2 2.4zM75.52 85.93l-1.62 3.64-.77-.3 1.34-3.73 1.05.4M79.48 91.34a1.07 1.07 0 0 0-.9-.7.8.8 0 0 0-.84.75c0 .6.77.83 1.56 1.16a2 2 0 0 1 1.56 1.93 2.2 2.2 0 0 1-2.27 2.18A2.4 2.4 0 0 1 76.2 95l1-.43c.3.63.62 1.07 1.38 1.07a1 1 0 0 0 1.08-1c0-1.5-3-1-3-3.1a1.9 1.9 0 0 1 2-1.9 2 2 0 0 1 1.8 1.24zM88 90.5a1.9 1.9 0 0 1 1.62-.9 2.06 2.06 0 0 1 1.86 1.1 2.24 2.24 0 0 1 2-1.1c1.72 0 2.14 1.4 2.14 2.8v4.1h-1.1v-3.9c0-.87-.05-1.94-1.22-1.94s-1.45 1.27-1.45 2.3v3.54H90.7v-3.82c0-.83-.1-2-1.2-2C88.16 90.65 88 92 88 93v3.5h-1.13v-6.72H88zM97.24 93.15a3.53 3.53 0 1 1 3.53 3.53 3.52 3.52 0 0 1-3.53-3.53zm1.14 0a2.4 2.4 0 1 0 2.4-2.5 2.38 2.38 0 0 0-2.4 2.5zM108.6 91.34a1.07 1.07 0 0 0-.92-.7.8.8 0 0 0-.83.75c0 .6.77.83 1.56 1.16a2 2 0 0 1 1.6 1.94 2.2 2.2 0 0 1-2.27 2.2 2.4 2.4 0 0 1-2.37-1.7l1-.44c.3.63.6 1.07 1.37 1.07a1 1 0 0 0 1.1-1c0-1.5-3-1-3-3.1a1.9 1.9 0 0 1 2-1.9 2 2 0 0 1 1.78 1.24zM112.77 96.5h-1.14v-5.66h-.7v-1.06h.7v-2.4h1.14v2.4h1.2v1.06h-1.2v5.66M125.53 96.5h-1.14v-.93a2.82 2.82 0 0 1-2.4 1.1 3.56 3.56 0 0 1 0-7.07 2.9 2.9 0 0 1 2.3 1.14v-1h1.14zM120 93.07a2.32 2.32 0 0 0 2.2 2.56 2.3 2.3 0 0 0 2.24-2.54 2.24 2.24 0 0 0-2.26-2.44 2.28 2.28 0 0 0-2.18 2.4zM132.63 95.57a2.86 2.86 0 0 1-2.3 1.1 3.56 3.56 0 0 1 0-7.07 2.9 2.9 0 0 1 2.3 1.14v-6h1.13V96.5h-1.14zm-4.4-2.5a2.32 2.32 0 0 0 2.2 2.56 2.3 2.3 0 0 0 2.25-2.54 2.24 2.24 0 0 0-2.26-2.44 2.28 2.28 0 0 0-2.18 2.4zM138.12 94.3l2-4.52h1.28l-3.28 7.16-3.3-7.16h1.3l2 4.52M148.63 96.5h-1.14v-.93a2.82 2.82 0 0 1-2.32 1.1 3.56 3.56 0 0 1 0-7.07 2.9 2.9 0 0 1 2.3 1.14v-1h1.14zm-5.53-3.43a2.32 2.32 0 0 0 2.2 2.56 2.3 2.3 0 0 0 2.24-2.54 2.24 2.24 0 0 0-2.26-2.44 2.28 2.28 0 0 0-2.18 2.4zM151.9 90.6a2.26 2.26 0 0 1 1.9-1c1.86 0 2.3 1.34 2.3 2.9v4H155v-3.8c0-1.08-.1-2.05-1.4-2.05-1.58 0-1.68 1.46-1.68 2.66v3.2h-1.14v-6.72h1.14zM163.28 91.78a2.58 2.58 0 0 0-2.08-1.13 2.4 2.4 0 0 0-2.37 2.5 2.35 2.35 0 0 0 2.3 2.47 2.6 2.6 0 0 0 2.2-1.16V96a3.67 3.67 0 0 1-2.13.7 3.48 3.48 0 0 1-3.57-3.55 3.54 3.54 0 0 1 3.6-3.54 3.6 3.6 0 0 1 2.06.68zM165.66 93.38a2.18 2.18 0 0 0 2.2 2.24 2.3 2.3 0 0 0 2-1.38l1 .56a3.4 3.4 0 0 1-3.1 1.88 3.25 3.25 0 0 1-3.3-3.46c0-2 1.17-3.63 3.27-3.63s3.3 1.78 3.2 3.78zm4.07-1a2 2 0 0 0-2-1.76 2.13 2.13 0 0 0-2 1.76zM177.5 95.57a2.86 2.86 0 0 1-2.32 1.1 3.56 3.56 0 0 1 0-7.07 2.9 2.9 0 0 1 2.3 1.14v-6h1.14V96.5h-1.14zm-4.4-2.5a2.32 2.32 0 0 0 2.2 2.56 2.3 2.3 0 0 0 2.24-2.54 2.24 2.24 0 0 0-2.26-2.44 2.28 2.28 0 0 0-2.17 2.4zM186.3 90.6a2.26 2.26 0 0 1 1.9-1c1.86 0 2.3 1.34 2.3 2.9v4h-1.15v-3.8c0-1.08-.1-2.05-1.4-2.05-1.58 0-1.68 1.46-1.68 2.66v3.2h-1.14v-6.72h1.14zM193.75 93.53c0 1.13.13 2.1 1.5 2.1s1.52-1 1.52-2.1v-3.75h1.14v3.87c0 1.8-.66 3-2.65 3s-2.66-1.24-2.66-3v-3.87h1.13zM201.2 96.5h-1.14v-5.66h-.7v-1.06h.7v-2.4h1.15v2.4h1.2v1.06h-1.2v5.66M204.52 90.5a1.73 1.73 0 0 1 1.48-.9 2 2 0 0 1 1 .3l-.54 1a1.1 1.1 0 0 0-.7-.3c-1.25 0-1.3 1.63-1.3 2.5v3.4h-1.14v-6.72h1.14zM214.35 96.5h-1.14v-.93a2.82 2.82 0 0 1-2.3 1.1 3.56 3.56 0 0 1 0-7.07 2.9 2.9 0 0 1 2.3 1.14v-1h1.14zm-5.53-3.43a2.32 2.32 0 0 0 2.2 2.56 2.3 2.3 0 0 0 2.24-2.54 2.24 2.24 0 0 0-2.26-2.45 2.28 2.28 0 0 0-2.18 2.42zM221.45 91.78a2.58 2.58 0 0 0-2.08-1.13 2.4 2.4 0 0 0-2.37 2.5 2.35 2.35 0 0 0 2.3 2.47 2.6 2.6 0 0 0 2.2-1.16V96a3.67 3.67 0 0 1-2.13.7 3.48 3.48 0 0 1-3.57-3.55 3.54 3.54 0 0 1 3.6-3.54 3.6 3.6 0 0 1 2.06.68zM223.83 93.38a2.18 2.18 0 0 0 2.2 2.24 2.3 2.3 0 0 0 2-1.38l1 .56a3.4 3.4 0 0 1-3.1 1.88 3.25 3.25 0 0 1-3.3-3.46c0-2 1.17-3.63 3.27-3.63s3.3 1.78 3.2 3.78zm4.07-1a2 2 0 0 0-2-1.76 2.13 2.13 0 0 0-2 1.76zM231.74 93.53c0 1.13.13 2.1 1.5 2.1s1.52-1 1.52-2.1v-3.75h1.14v3.87c0 1.8-.67 3-2.66 3s-2.66-1.24-2.66-3v-3.87h1.14zM239.2 96.5h-1.15v-5.66h-.7v-1.06h.7v-2.4h1.14v2.4h1.2v1.06h-1.2v5.66M243 87.26a.8.8 0 0 1-1.63 0 .8.8 0 0 1 1.63 0zm-.24 9.24h-1.14v-6.72h1.14zM250.15 91.78a2.58 2.58 0 0 0-2.15-1.13 2.4 2.4 0 0 0-2.37 2.5 2.35 2.35 0 0 0 2.37 2.48 2.6 2.6 0 0 0 2.2-1.16V96a3.67 3.67 0 0 1-2.14.7 3.48 3.48 0 0 1-3.57-3.55 3.54 3.54 0 0 1 3.58-3.54 3.6 3.6 0 0 1 2.07.68zM258.1 96.5H257v-.93a2.82 2.82 0 0 1-2.3 1.1 3.56 3.56 0 0 1 0-7.07 2.9 2.9 0 0 1 2.3 1.14v-1h1.13zm-5.54-3.43a2.32 2.32 0 0 0 2.2 2.56 2.3 2.3 0 0 0 2.24-2.55 2.24 2.24 0 0 0-2.26-2.43 2.28 2.28 0 0 0-2.17 2.42zM260.18 84.7h1.14v11.8h-1.14zM266.17 91.34a1.07 1.07 0 0 0-.9-.7.8.8 0 0 0-.84.75c0 .6.77.83 1.56 1.16a2 2 0 0 1 1.55 1.93 2.2 2.2 0 0 1-2.27 2.18A2.4 2.4 0 0 1 262.9 95l1-.43c.3.63.6 1.07 1.37 1.07a1 1 0 0 0 1.08-1c0-1.5-3-1-3-3.1a1.9 1.9 0 0 1 2-1.9 2 2 0 0 1 1.8 1.24z"/></svg>