<svg data-name="Layer 1" xmlns="http://www.w3.org/2000/svg" viewBox="0 0 288 108"><title>prime-usca-logo</title><path d="M266.22 25.25h-1.88v4.88h-1.5v-4.88H261V24h5.25zm8.2 4.88H273v-4.6l-1.7 4.6h-.64l-1.74-4.55v4.56h-1.47V24h2.13l1.42 3.72 1.32-3.72h2.1zM51.36 30q6.1 0 9.73 3.3a11.42 11.42 0 0 1 3.6 8.86q0 5.8-3.76 9T50.1 54.3H27.85v14.1h-7.5V30zm-1.13 17.57q6.8 0 6.8-5.24 0-5.55-7.24-5.55h-22v10.8zM117.67 68.4h-8.58L99 54.3H80v14.1h-7.5V30h31q6.12 0 9.73 3.3a11.42 11.42 0 0 1 3.62 8.86q0 9.54-9.54 11.67zM102.4 47.58q6.8 0 6.8-5.24 0-5.55-7.25-5.55H80v10.8zM135.76 68.4h-7.5V30h7.5zM202.7 68.4h-7.5l-.2-31.56L175.75 63l-19.2-26.4-.2.24V68.4h-7.5V30h11.25l15.64 21.7 15.7-21.7h11.26zM257.1 68.4h-41.3V30h39.86v6.74h-32.38v8.3h22.52v6.74h-22.52v9.85h33.82zM32.05 83.3H30.5l-1-1.93h-5.82l-1 1.93h-1.55l4.56-8.63h1.8zm-3.25-3.22l-2.2-4.18-2.22 4.18zM42.37 83.3h-2.13l-5-6.1v6.1h-1.4V76H36l5 6.12V76h1.43zM52.7 77.26h-3.5v6h-1.43v-6h-3.5V76h8.44zM56 83.3h-1.4V76H56zM63.24 80.14h-4.9v-1.3h4.9zM74.22 83.3h-1.57l-.84-1.57H66.9L66 83.3h-1.54l4-7.33h1.78zm-3.13-2.86l-1.75-3.25-1.75 3.24zM85.13 79.3v.2a3.6 3.6 0 0 1-1.3 2.9 5.2 5.2 0 0 1-3.48 1.1 5.4 5.4 0 0 1-3.28-1 3.54 3.54 0 0 1 0-5.83 5.54 5.54 0 0 1 3.36-1 5.28 5.28 0 0 1 4 1.7l-1.35.68A3.82 3.82 0 0 0 80.34 77a3.76 3.76 0 0 0-2.4.74 2.35 2.35 0 0 0 0 3.75 3.78 3.78 0 0 0 2.42.72 3 3 0 0 0 3-1.65H80V79.3zM89 83.3h-1.47V76H89zM100.36 83.3h-2.13l-5-6.1v6.1H91.8V76h2.14l5 6.12V76h1.43zM112.36 79.3v.2a3.6 3.6 0 0 1-1.3 2.9 5.2 5.2 0 0 1-3.48 1.1 5.4 5.4 0 0 1-3.28-1 3.54 3.54 0 0 1 0-5.83 5.54 5.54 0 0 1 3.36-1 5.28 5.28 0 0 1 4 1.7l-1.35.68a3.82 3.82 0 0 0-2.73-1.05 3.76 3.76 0 0 0-2.4.74 2.36 2.36 0 0 0 0 3.75 3.78 3.78 0 0 0 2.42.72 3 3 0 0 0 3-1.65h-3.3V79.3zM127.23 83.3h-2.13l-5-6.1v6.1h-1.43V76h2.13l5 6.12V76h1.43zM138.52 80.9a2.17 2.17 0 0 1-1.16 1.88 6.94 6.94 0 0 1-6.2 0 2.18 2.18 0 0 1-1.16-1.9V76h1.43v4.6q0 1.62 2.84 1.62t2.82-1.62V76h1.42zM148.77 77.26h-3.5v6h-1.43v-6h-3.5V76h8.44zM159.3 83.3h-1.64l-1.92-2.7h-3.64v2.7h-1.43V76h5.92a2.64 2.64 0 0 1 1.85.63 2.18 2.18 0 0 1 .7 1.7 2.1 2.1 0 0 1-1.83 2.22zm-2.92-4c.87 0 1.3-.33 1.3-1s-.46-1.06-1.4-1.06h-4.18v2.06zM170.33 83.3h-1.58l-.84-1.57H163l-.84 1.57h-1.58l4-7.33h1.78zm-3.13-2.86l-1.74-3.25-1.75 3.24zM180.85 77.73l-1.3.45a4.1 4.1 0 0 0-3-1.17 4 4 0 0 0-2.5.73 2.35 2.35 0 0 0 0 3.75 4 4 0 0 0 2.5.7 4 4 0 0 0 3-1.18l1.24.66a6.06 6.06 0 0 1-7.8.73 3.53 3.53 0 0 1 .17-5.7 5.9 5.9 0 0 1 7.68 1zM191.1 83.3h-7.9V76h7.6v1.3h-6.18v1.57h4.3v1.3h-4.3V82h6.46zM201.72 80.9a2.18 2.18 0 0 1-1.15 1.88 6.94 6.94 0 0 1-6.2 0 2.18 2.18 0 0 1-1.17-1.9V76h1.43v4.6q0 1.62 2.84 1.62t2.82-1.62V76h1.42zM212 77.26h-3.5v6H207v-6h-3.5V76h8.5zM215.3 83.3h-1.44V76h1.43zM226.9 77.73l-1.3.45a4.08 4.08 0 0 0-3-1.17 4 4 0 0 0-2.5.73 2.35 2.35 0 0 0 0 3.75 4 4 0 0 0 2.53.7 4 4 0 0 0 3-1.18l1.23.66a6.06 6.06 0 0 1-7.8.73 3.53 3.53 0 0 1 .18-5.7 5.9 5.9 0 0 1 7.68 1zM237.93 83.3h-1.57l-.85-1.57h-4.9l-.86 1.57h-1.57l4-7.33h1.78zm-3.13-2.86l-1.75-3.25-1.75 3.24zM246.77 83.3h-7.1V76h1.44v6h5.68zM255.3 77.78a6.57 6.57 0 0 0-3.1-.78q-2.44 0-2.45.87c0 .34.3.56.92.67l2.5.23a6.48 6.48 0 0 1 2.56.64 1.7 1.7 0 0 1 .84 1.57 2 2 0 0 1-1.05 1.82 5.92 5.92 0 0 1-3.06.63 7.25 7.25 0 0 1-4.46-1.25l.78-1a6.3 6.3 0 0 0 3.7 1.06 4.7 4.7 0 0 0 1.93-.32c.46-.2.7-.5.7-.84s-.3-.66-.85-.82a7.14 7.14 0 0 0-1.44-.18l-1.9-.08a4.28 4.28 0 0 1-2-.58 1.5 1.5 0 0 1-.65-1.32 1.86 1.86 0 0 1 1-1.66 5.62 5.62 0 0 1 2.88-.62 6.9 6.9 0 0 1 4 1.07z" fill="#070606"/></svg>