<svg data-name="Layer 1" xmlns="http://www.w3.org/2000/svg" viewBox="0 0 288 108"><title>ultimate-aloe-usca-hk-logo</title><path d="M51.1 50.76v1.4a2.12 2.12 0 0 1-1.68-.9 3.18 3.18 0 0 1-.6-1.9V42.9A17.66 17.66 0 0 1 46.3 47a17.1 17.1 0 0 1-3.37 3.12 16.5 16.5 0 0 1-3.94 2 12.7 12.7 0 0 1-4.24.74 9.45 9.45 0 0 1-5.52-1.47A9.92 9.92 0 0 1 26 47.52a16.88 16.88 0 0 1-1.54-5.36 47.23 47.23 0 0 1-.38-6V15.8h1.22v20.38a43 43 0 0 0 .38 5.82 15.65 15.65 0 0 0 1.42 4.87 7.8 7.8 0 0 0 7.66 4.56 11.25 11.25 0 0 0 4.8-1.05 15.47 15.47 0 0 0 4.12-2.8 18.37 18.37 0 0 0 5.14-8.7V15.8h1.26v33.58c.1.93.42 1.4 1 1.4zM60.87 46.76V1h1.26v45.76a5.2 5.2 0 0 0 1 3 3.18 3.18 0 0 0 2.8 1.44 8.57 8.57 0 0 0 1.3-.1l1.24-.2c.38-.08.82-.18 1.32-.32l.56 1.33c-.55.15-1 .26-1.45.32l-1.4.2a12.1 12.1 0 0 1-1.62.1 4.34 4.34 0 0 1-3.7-1.7 6.5 6.5 0 0 1-1.3-4.06zM88 50.48a9.15 9.15 0 0 1-1.73 1.05 15.06 15.06 0 0 1-1.86.67 8.48 8.48 0 0 1-2.4.3 5.74 5.74 0 0 1-4-1.5 5.23 5.23 0 0 1-1.7-4.07V17.2h-4.7v-1.4h4.72V3.1h1.26v12.7h7.88v1.4h-7.88v29.7A4.16 4.16 0 0 0 79 50a4.55 4.55 0 0 0 3 1.1 7.1 7.1 0 0 0 2-.3 14.27 14.27 0 0 0 1.67-.6 6.86 6.86 0 0 0 1.14-.6 2 2 0 0 1 .48-.27zM94.3 6.4V1.9h1.26v4.5zm0 45.76V15.93h1.26v36.23zM150.8 31.9v20.26h-1.25V31.9a54.9 54.9 0 0 0-.28-5.56 16.22 16.22 0 0 0-1.27-4.9 8.65 8.65 0 0 0-2.68-3.44 7.58 7.58 0 0 0-4.67-1.33 10.1 10.1 0 0 0-5.7 1.65 15.1 15.1 0 0 0-4.27 4.3 19 19 0 0 0-1.26 2.32c-.34.75-.6 1.44-.82 2.07s-.37 1.17-.47 1.6a3 3 0 0 1-.22.7v22.86h-1.25V31.9a47.12 47.12 0 0 0-.38-6.2 15.15 15.15 0 0 0-1.4-4.83 7.28 7.28 0 0 0-7.12-4.24 9.85 9.85 0 0 0-4.57 1.1 13.17 13.17 0 0 0-3.72 2.83 17.63 17.63 0 0 0-2.74 4 20.83 20.83 0 0 0-1.7 4.63v23h-1.26V15.8H105v9.38a19.3 19.3 0 0 1 5.4-7.3 11.46 11.46 0 0 1 7.34-2.65 9 9 0 0 1 4 .87 9.46 9.46 0 0 1 3 2.32 11.22 11.22 0 0 1 2 3.36 15.47 15.47 0 0 1 .9 4 24.4 24.4 0 0 1 5.3-7.6 10.8 10.8 0 0 1 7.7-3 8.58 8.58 0 0 1 5.43 1.58 10 10 0 0 1 3.06 4 18.53 18.53 0 0 1 1.36 5.4 54.66 54.66 0 0 1 .3 5.75zM186.38 50.76v1.4a2.14 2.14 0 0 1-1.67-.88 3.13 3.13 0 0 1-.6-1.93V46a15 15 0 0 1-6.27 5.22 18.77 18.77 0 0 1-7.6 1.65 10.07 10.07 0 0 1-4.16-.88 10.4 10.4 0 0 1-3.37-2.4 11.18 11.18 0 0 1-2.24-3.53 11.52 11.52 0 0 1-.82-4.35 8.75 8.75 0 0 1 1.36-4.94 10.3 10.3 0 0 1 3.3-3.2 14.5 14.5 0 0 1 4.36-1.7 20.9 20.9 0 0 1 4.5-.54 27.7 27.7 0 0 1 6.88.74 29.82 29.82 0 0 1 4.1 1.3v-4.14a16.42 16.42 0 0 0-.76-5.12 11.84 11.84 0 0 0-2.18-4 9.82 9.82 0 0 0-3.37-2.6 10.37 10.37 0 0 0-4.42-.9 13.1 13.1 0 0 0-5.1 1.16 24.7 24.7 0 0 0-5.5 3.33L162 20a32.94 32.94 0 0 1 5.46-3.37 13.32 13.32 0 0 1 5.9-1.4 11.8 11.8 0 0 1 5.2 1.1 10.77 10.77 0 0 1 3.75 3 12.9 12.9 0 0 1 2.28 4.44 19.3 19.3 0 0 1 .76 5.5v20.1a4.1 4.1 0 0 0 .32 1 .7.7 0 0 0 .72.4zm-3.2-5.76a5.57 5.57 0 0 0 .94-2.87v-7.2a24.1 24.1 0 0 0-5.46-1.7 31.33 31.33 0 0 0-5.52-.48 20.2 20.2 0 0 0-4.16.45 13.17 13.17 0 0 0-3.98 1.5 9.1 9.1 0 0 0-3 2.78 7.37 7.37 0 0 0-1.17 4.24 9.84 9.84 0 0 0 .8 4 9.62 9.62 0 0 0 2.07 3 9.38 9.38 0 0 0 3 2 8.87 8.87 0 0 0 3.5.7 18.4 18.4 0 0 0 3.66-.38 17.6 17.6 0 0 0 3.63-1.16 13.9 13.9 0 0 0 3.2-2 10.3 10.3 0 0 0 2.47-2.88zM208.08 50.48a9.15 9.15 0 0 1-1.73 1.05 14.88 14.88 0 0 1-1.86.67 8.47 8.47 0 0 1-2.4.3 5.75 5.75 0 0 1-4-1.53 5.23 5.23 0 0 1-1.7-4.07V17.2h-4.73v-1.4h4.73V3.1h1.26v12.7h7.88v1.4h-7.88v29.7a4.16 4.16 0 0 0 1.46 3.1 4.55 4.55 0 0 0 3 1.1 7.1 7.1 0 0 0 2-.3 14.44 14.44 0 0 0 1.67-.6 7 7 0 0 0 1.13-.6 2 2 0 0 1 .47-.27zM212.18 34.08a24 24 0 0 1 1.17-7 20.26 20.26 0 0 1 3.1-6 15.6 15.6 0 0 1 4.75-4.2 12.3 12.3 0 0 1 6.18-1.6 13.8 13.8 0 0 1 6.53 1.55 15.8 15.8 0 0 1 5 4.14 19.75 19.75 0 0 1 3.26 6A23 23 0 0 1 243.4 34v.77h-30a20.6 20.6 0 0 0 1.36 6.3 18.9 18.9 0 0 0 3.1 5.34 15 15 0 0 0 4.47 3.7 11.64 11.64 0 0 0 5.58 1.36 12.64 12.64 0 0 0 3.57-.53 13.38 13.38 0 0 0 3.37-1.5 13.12 13.12 0 0 0 2.88-2.43 11.2 11.2 0 0 0 2-3.23l1.2.35a11.78 11.78 0 0 1-2.18 3.75 13.37 13.37 0 0 1-3.2 2.73 15.38 15.38 0 0 1-3.8 1.65 14.1 14.1 0 0 1-3.82.56 12.78 12.78 0 0 1-6.3-1.6 16.7 16.7 0 0 1-5-4.28 20.3 20.3 0 0 1-3.3-6 20.78 20.78 0 0 1-1.14-6.84zm29.9-.7a21.62 21.62 0 0 0-1.36-6.62 18.24 18.24 0 0 0-3.06-5.3 14 14 0 0 0-4.5-3.53 12.8 12.8 0 0 0-5.78-1.3 11.14 11.14 0 0 0-5.77 1.5 14.45 14.45 0 0 0-4.3 3.87 18.72 18.72 0 0 0-2.75 5.36 21.94 21.94 0 0 0-1.1 6zM153.46 104.9v1.4a2.13 2.13 0 0 1-1.67-.88 3.13 3.13 0 0 1-.6-1.93v-3.37a15 15 0 0 1-6.3 5.22 18.77 18.77 0 0 1-7.6 1.65 10 10 0 0 1-4.15-.88 10.36 10.36 0 0 1-3.37-2.38 11.15 11.15 0 0 1-2.24-3.54 11.5 11.5 0 0 1-.82-4.35 8.75 8.75 0 0 1 1.28-4.93 10.28 10.28 0 0 1 3.3-3.2 14.53 14.53 0 0 1 4.4-1.72 21 21 0 0 1 4.5-.53 27.86 27.86 0 0 1 6.9.73 29.38 29.38 0 0 1 4.1 1.3v-4.12a16.37 16.37 0 0 0-.77-5.12 11.8 11.8 0 0 0-2.18-4 9.82 9.82 0 0 0-3.37-2.6 10.36 10.36 0 0 0-4.42-.9 13.06 13.06 0 0 0-5.1 1.16 24.6 24.6 0 0 0-5.5 3.33l-.76-1.12a33.25 33.25 0 0 1 5.45-3.37 13.33 13.33 0 0 1 5.9-1.4 11.77 11.77 0 0 1 5.2 1.1 10.72 10.72 0 0 1 3.75 3 12.87 12.87 0 0 1 2.27 4.44 19.3 19.3 0 0 1 .76 5.5v20.1a4.26 4.26 0 0 0 .3 1 .7.7 0 0 0 .73.4zm-3.2-5.75a5.55 5.55 0 0 0 .93-2.87v-7.22a24.13 24.13 0 0 0-5.47-1.68 31.1 31.1 0 0 0-5.52-.5 20.13 20.13 0 0 0-4.15.46 13.22 13.22 0 0 0-3.94 1.5 9.1 9.1 0 0 0-3 2.78 7.38 7.38 0 0 0-1.1 4.24 9.87 9.87 0 0 0 .8 4 9.72 9.72 0 0 0 2.07 3.05 9.52 9.52 0 0 0 3 2 8.93 8.93 0 0 0 3.5.7 18.2 18.2 0 0 0 3.66-.37 17.48 17.48 0 0 0 3.63-1.16 14.08 14.08 0 0 0 3.22-2 10.33 10.33 0 0 0 2.36-2.92zM163.17 100.9V55.14h1.26v45.76a5.2 5.2 0 0 0 1 3 3.2 3.2 0 0 0 2.8 1.44 8.5 8.5 0 0 0 1.3-.1l1.23-.2c.38-.08.82-.18 1.32-.32l.57 1.33c-.55.14-1 .24-1.45.3l-1.42.22a11.9 11.9 0 0 1-1.6.1 4.34 4.34 0 0 1-3.7-1.7 6.5 6.5 0 0 1-1.3-4.07zM191.68 107a13.3 13.3 0 0 1-6.34-1.68 16.3 16.3 0 0 1-4.92-4.24 20.14 20.14 0 0 1-3.18-6 21.66 21.66 0 0 1 .1-14.08 20.23 20.23 0 0 1 3.33-6 16.08 16.08 0 0 1 5-4.1 12.73 12.73 0 0 1 6.06-1.5 12.46 12.46 0 0 1 6.4 1.67A17.05 17.05 0 0 1 203 75.4a20 20 0 0 1 3.15 6.05 21.8 21.8 0 0 1 1.1 6.76 20.9 20.9 0 0 1-1.2 7.1 19.94 19.94 0 0 1-3.3 6 16.55 16.55 0 0 1-5 4.13 13.26 13.26 0 0 1-6.07 1.57zm-14.32-18.78a22.75 22.75 0 0 0 1.2 6.52 18.82 18.82 0 0 0 3 5.57 14.9 14.9 0 0 0 4.45 3.86 12 12 0 0 0 11.58-.1 15.4 15.4 0 0 0 4.54-4 18.65 18.65 0 0 0 2.9-5.6 20.1 20.1 0 0 0 1-6.2 19.6 19.6 0 0 0-1.1-6.53 18.87 18.87 0 0 0-3-5.57 15.43 15.43 0 0 0-4.54-3.9 11.62 11.62 0 0 0-11.5.1 15.88 15.88 0 0 0-4.55 4.08 18.63 18.63 0 0 0-2.9 5.6 20.07 20.07 0 0 0-1.07 6.18zM213.56 88.22a24 24 0 0 1 1.17-7 20.3 20.3 0 0 1 3.1-6 15.6 15.6 0 0 1 4.75-4.2 12.28 12.28 0 0 1 6.18-1.58 13.8 13.8 0 0 1 6.53 1.54 15.78 15.78 0 0 1 5 4.13 19.72 19.72 0 0 1 3.24 6 23 23 0 0 1 1.23 7.12V89h-30a20.58 20.58 0 0 0 1.36 6.3 19 19 0 0 0 3.1 5.33 15 15 0 0 0 4.47 3.68 11.66 11.66 0 0 0 5.58 1.37 12.68 12.68 0 0 0 3.57-.52 13.5 13.5 0 0 0 3.37-1.5 13.17 13.17 0 0 0 2.84-2.4 11.17 11.17 0 0 0 2-3.22l1.2.35a11.84 11.84 0 0 1-2.18 3.75 13.38 13.38 0 0 1-3.22 2.73 15.26 15.26 0 0 1-3.8 1.65 14 14 0 0 1-3.8.57 12.78 12.78 0 0 1-6.32-1.6 16.72 16.72 0 0 1-5-4.28 20.3 20.3 0 0 1-3.28-6 20.82 20.82 0 0 1-1.1-6.98zm29.9-.7a21.6 21.6 0 0 0-1.36-6.62 18.2 18.2 0 0 0-3.1-5.3 14 14 0 0 0-4.5-3.54 12.82 12.82 0 0 0-5.78-1.3 11.14 11.14 0 0 0-5.72 1.52 14.47 14.47 0 0 0-4.32 3.9 18.8 18.8 0 0 0-2.74 5.35 22.07 22.07 0 0 0-1.1 6zM256.72 70.26h-3.5v10.58h-.73V70.26H249v-.82h7.72zm6.32 7.8l-3.86-8.54h-.77v11.32h.74v-9.76l3.6 8h.62l3.6-8v9.76h.74v-11.3h-.8z" fill="#050404"/></svg>