<svg data-name="Layer 1" xmlns="http://www.w3.org/2000/svg" viewBox="0 0 288 108"><title>advanced-level-90-us-logo</title><path d="M262 2.12H11.45v89.3a14 14 0 0 0 14 14H262a14 14 0 0 0 14-14V16.13a14 14 0 0 0-14-14.01z" fill="#fff"/><path d="M90.89 68a14 14 0 0 1-14 14H25.47a14 14 0 0 1-14-14V2.56h65.4a14 14 0 0 1 14 14z" fill="#f7323f"/><path d="M30.9 27L51.41 6.45l20.87 20.87A28.7 28.7 0 0 1 81 48a27.61 27.61 0 0 1-8.38 20.67A27.85 27.85 0 0 1 51.9 77.1a28.55 28.55 0 0 1-20.71-8.64A28.68 28.68 0 0 1 22.5 47.7 27.8 27.8 0 0 1 30.9 27zM52 23.36L39.64 35.7A17.28 17.28 0 0 0 34.4 48a16.92 16.92 0 0 0 17.26 17.25A17.28 17.28 0 0 0 64 60a17 17 0 0 0 5.18-12.24 16.38 16.38 0 0 0-5-12.25z" fill="#fff"/><path d="M76.87 2.56H11.45V68a14 14 0 0 0 14 14h51.42a14 14 0 0 0 14-14V16.57a14 14 0 0 0-14-14.01zm-4.28 66.09a27.85 27.85 0 0 1-20.72 8.43 28.55 28.55 0 0 1-20.71-8.64A28.68 28.68 0 0 1 22.5 47.7 27.8 27.8 0 0 1 30.9 27L51.41 6.45l20.87 20.87A28.7 28.7 0 0 1 81 48a27.61 27.61 0 0 1-8.41 20.65zm-8.46-33.13a16.38 16.38 0 0 1 5 12.25A17 17 0 0 1 64 60a17.28 17.28 0 0 1-12.29 5.24A16.92 16.92 0 0 1 34.4 48a17.28 17.28 0 0 1 5.24-12.3L52 23.36z" fill="#ef4135"/><path d="M262 1H9.9v90.42A15.59 15.59 0 0 0 25.47 107H262a15.59 15.59 0 0 0 15.6-15.58V16.57A15.59 15.59 0 0 0 262 1zM13 4.12h63.87a12.47 12.47 0 0 1 12.46 12.45V68a12.47 12.47 0 0 1-12.46 12.43h-51.4A12.47 12.47 0 0 1 13 68zm261.48 87.3A12.47 12.47 0 0 1 262 103.88H25.47A12.47 12.47 0 0 1 13 91.42V77.27a15.55 15.55 0 0 0 12.46 6.27H262a15.54 15.54 0 0 0 12.46-6.27zm0-23.45A12.47 12.47 0 0 1 262 80.43H86.17A15.54 15.54 0 0 0 92.44 68V16.57a15.54 15.54 0 0 0-6.27-12.45H262a12.47 12.47 0 0 1 12.46 12.46V68z" fill="#231f20"/><path d="M122.63 36.23l-2.13-5.72h-10.58l-2 5.72h-4.46L113 13h4.72l9.67 23.25zm-7.47-19.66l-3.91 10.38h7.92zM136.21 36.23a8.18 8.18 0 0 1-5.56-1.91 7.68 7.68 0 0 1-2.46-6.08q0-5.31 2.43-7.1t10-1.79V13h3.91v23.23zm4.43-13.71h-1.33q-4.07 0-5.47 1.07-1.55 1.16-1.55 4.75 0 3.17 1.88 4.08 1.52.74 6.47.74zM158.63 36.23h-4.33l-7-17h4.27l5 13.16 5.21-13.16h4.14zM173 36.23a5 5 0 0 1-3.65-1.31 4.84 4.84 0 0 1-1.35-3.61q0-3 1.88-4.24a8.88 8.88 0 0 1 4.62-.94h6.27a4 4 0 0 0-1-3.11 5.37 5.37 0 0 0-3.46-.84h-7.21v-3h8.9q6.69 0 6.7 6.27v10.78zm7.75-7.23h-5.63q-3 0-3 2.17a1.88 1.88 0 0 0 .78 1.81 3.63 3.63 0 0 0 1.94.39h6zM200.35 36.23V25.94a4.62 4.62 0 0 0-.55-2.75 3.62 3.62 0 0 0-2.72-.74h-3.95v13.78h-3.82v-17h8.12q3.69 0 5.26 1.39t1.57 4.75v10.9zM216.39 36.23q-4.3 0-6.53-2.3a8.43 8.43 0 0 1-2.13-6.18q0-8.57 8.67-8.57h5.72v3.2h-4.4a7.65 7.65 0 0 0-4.11.84q-1.78 1.2-1.78 4.53a5.76 5.76 0 0 0 1 3.62q1.39 1.71 4.92 1.71h4.4v3.14zM233 36.23q-8.28 0-8.28-8.54a9 9 0 0 1 1.78-5.89q2.1-2.62 6.5-2.62h6.24v3h-5.63a5.79 5.79 0 0 0-3.2.65q-1.2.87-1.36 3.36h10.19v3.07h-10.17q.16 2.43 1 3.18t3.49.76h5.66v3zM249.64 36.23a8.18 8.18 0 0 1-5.56-1.91 7.68 7.68 0 0 1-2.46-6.08q0-5.31 2.43-7.1t10-1.79V13H258v23.23zm4.43-13.71h-1.33q-4.07 0-5.47 1.07-1.55 1.16-1.55 4.75 0 3.17 1.88 4.08 1.52.74 6.47.74zM106.1 45.92h4.42v19H117v4.22h-10.9zM143.54 61.81h-13.85a4.62 4.62 0 0 0 1.6 2.92 5 5 0 0 0 3.32 1.08 5.75 5.75 0 0 0 4.15-1.69l3.63 1.71a8.56 8.56 0 0 1-3.25 2.85 10.17 10.17 0 0 1-4.5.92 8.9 8.9 0 0 1-6.58-2.6 8.68 8.68 0 0 1-2.54-6.39 9 9 0 0 1 2.53-6.53 8.51 8.51 0 0 1 6.36-2.6 8.83 8.83 0 0 1 6.6 2.6 9.39 9.39 0 0 1 2.55 6.92zm-4.31-3.4a4.32 4.32 0 0 0-1.68-2.34 4.9 4.9 0 0 0-2.92-.9 5.16 5.16 0 0 0-3.16 1 5.64 5.64 0 0 0-1.58 2.23zM151.66 52H156l4.34 10.14L164.72 52h4.37l-7.31 17.18H159zM195.29 61.81h-13.85a4.61 4.61 0 0 0 1.6 2.92 5 5 0 0 0 3.32 1.08 5.75 5.75 0 0 0 4.15-1.69l3.63 1.71a8.55 8.55 0 0 1-3.25 2.85 10.16 10.16 0 0 1-4.5.92 8.9 8.9 0 0 1-6.57-2.6 8.69 8.69 0 0 1-2.54-6.39 9 9 0 0 1 2.53-6.53 8.51 8.51 0 0 1 6.36-2.6 8.83 8.83 0 0 1 6.6 2.6 9.39 9.39 0 0 1 2.54 6.92zm-4.29-3.4a4.31 4.31 0 0 0-1.68-2.34 4.89 4.89 0 0 0-2.92-.9 5.16 5.16 0 0 0-3.16 1 5.63 5.63 0 0 0-1.58 2.23zM204.78 45.34h4.31v23.81h-4.31zM236.63 61a8 8 0 0 1-2.18 5.55q-2.18 2-6.79 2h-6V66h6q2.84 0 4.05-1.33A5.85 5.85 0 0 0 233 61h-6.45a6.85 6.85 0 0 1-4.46-1.18q-1.38-1.17-1.31-3.91a4.36 4.36 0 0 1 1.55-3.42q1.87-1.58 5.75-1.58 4.09 0 6.08 1.7 2.57 2.21 2.57 6.76c-.03.34-.06.87-.1 1.63zm-4.12-5.24q-.8-2.26-4.58-2.25t-3.64 2.62a2.19 2.19 0 0 0 .75 1.77 2.53 2.53 0 0 0 1.7.56H233a9.53 9.53 0 0 0-.49-2.74zM247 68.81q-4.72 0-6.79-2.62-1.69-2.13-1.69-6.33t1.62-6.3q2-2.64 6.86-2.64 4.41 0 6.45 2.18t2 6.76a10.66 10.66 0 0 1-1.43 6q-1.93 2.95-7.02 2.95zm0-15.42q-5.11 0-5.11 6.5t5.11 6.44q5.07 0 5.07-6.47T247 53.39z" fill="#231f20"/><path d="M33.3 98.2h-6V87h5.61a6 6 0 0 1 2.7.45A2.62 2.62 0 0 1 36.88 90 3.07 3.07 0 0 1 35 92.6a3.85 3.85 0 0 1 1.34 1 2.3 2.3 0 0 1 .55 1.58 2.8 2.8 0 0 1-1 2.47 4.54 4.54 0 0 1-2.59.55zm-.37-9.48h-3.6v3h3.59q1.72 0 1.72-1.47t-1.72-1.54zm0 4.72h-3.6v3H33q1.72 0 1.72-1.52T33 93.43zM40.42 98.2V87h1.94v11.2zM49.77 98.37a3.92 3.92 0 0 1-3.33-1.45 4.52 4.52 0 0 1-.89-2.85 4.45 4.45 0 0 1 1-2.91 4 4 0 0 1 3.25-1.37 4.23 4.23 0 0 1 2.89 1A4.12 4.12 0 0 1 54 94.07a4.33 4.33 0 0 1-1.08 3 4 4 0 0 1-3.15 1.3zm0-7a2.07 2.07 0 0 0-1.64.73 3 3 0 0 0-.64 2 3 3 0 0 0 .62 2 2 2 0 0 0 1.61.76 2.16 2.16 0 0 0 1.47-.53A2.82 2.82 0 0 0 52 94.1a3 3 0 0 0-.64-2.1 2 2 0 0 0-1.58-.65zM60.85 98.37a3.92 3.92 0 0 1-3.33-1.45 4.52 4.52 0 0 1-.89-2.85 4.44 4.44 0 0 1 1-2.91 4 4 0 0 1 3.25-1.37 4.23 4.23 0 0 1 2.89 1 4.12 4.12 0 0 1 1.31 3.27 4.33 4.33 0 0 1-1.08 3 4 4 0 0 1-3.15 1.31zm0-7a2.07 2.07 0 0 0-1.64.73 3 3 0 0 0-.64 2 3 3 0 0 0 .62 2 2 2 0 0 0 1.61.76 2.16 2.16 0 0 0 1.47-.53 2.82 2.82 0 0 0 .81-2.2 3 3 0 0 0-.64-2.13 2 2 0 0 0-1.58-.65zM71.57 98.2a3.94 3.94 0 0 1-2.69-.92 3.7 3.7 0 0 1-1.19-2.94q0-2.56 1.17-3.43c.78-.58 2.4-.87 4.84-.87V87h1.9v11.2zm2.14-6.62h-.64a4.68 4.68 0 0 0-2.64.52 2.77 2.77 0 0 0-.75 2.3q0 1.53.91 2a8.52 8.52 0 0 0 3.13.36zM92.55 98.2h-6.12v-1.75h5.75a2.24 2.24 0 0 0 1.59-.45 1.68 1.68 0 0 0 .37-1.22q0-1.28-1.81-1.28h-2.78q-3.64 0-3.59-3.2a3.29 3.29 0 0 1 .83-2.44 4.07 4.07 0 0 1 3-.89h6v1.75h-5.67q-2 0-2 1.67 0 1.42 1.66 1.42h3.11a3.87 3.87 0 0 1 2.75.78 3 3 0 0 1 .7 2.31 3.36 3.36 0 0 1-.81 2.42 4.14 4.14 0 0 1-2.98.88zM103 98.2a3.55 3.55 0 0 1-2.51-.73 2.94 2.94 0 0 1-.74-2.23V90h1.84v5.09a1.87 1.87 0 0 0 .25 1.11 1.51 1.51 0 0 0 1.31.49H105V90h1.86v8.2zM115.18 101.15h-4.11v-1.41h3.72q1.47 0 1.47-1.63h-1.92q-4.16 0-4.16-4.06a4.27 4.27 0 0 1 .88-2.83 4 4 0 0 1 3.28-1.22h3.81v8a3.46 3.46 0 0 1-.77 2.52 3.05 3.05 0 0 1-2.2.63zm1.08-9.66a4.81 4.81 0 0 0-1.16-.14 3.17 3.17 0 0 0-2 .61 2.54 2.54 0 0 0-.94 2.16 2.47 2.47 0 0 0 .75 2 3.29 3.29 0 0 0 2.08.53h1.28zM123.83 98.2a2.41 2.41 0 0 1-1.77-.63 2.34 2.34 0 0 1-.64-1.74 2.24 2.24 0 0 1 .91-2 4.31 4.31 0 0 1 2.24-.45h3a1.93 1.93 0 0 0-.47-1.5 2.6 2.6 0 0 0-1.67-.4H122V90h4.3q3.23 0 3.24 3v5.2zm3.77-3.48h-2.72q-1.46 0-1.47 1a.91.91 0 0 0 .38.88 1.77 1.77 0 0 0 .94.19h2.88zM137.17 93.21v-.52c0-.69-.1-1.09-.29-1.23a4.32 4.32 0 0 0-1.74-.19v6.93h-1.84V90h3.5q1.42 0 1.8.56a5 5 0 0 1 .33 2.33v.36zM159.77 98.2l.2-9.91-3.14 9.91h-2.3l-3.25-10 .28 10h-2.11V87h3.22l3 9.2 3-9.2h3.19v11.2zM167.79 98.2a2.41 2.41 0 0 1-1.77-.63 2.34 2.34 0 0 1-.64-1.74 2.24 2.24 0 0 1 .91-2 4.3 4.3 0 0 1 2.24-.45h3a1.93 1.93 0 0 0-.47-1.5 2.6 2.6 0 0 0-1.67-.4h-3.49V90h4.3q3.23 0 3.23 3v5.2zm3.77-3.48h-2.72q-1.46 0-1.47 1a.91.91 0 0 0 .37.88 1.77 1.77 0 0 0 .94.19h2.88zM177.26 88.74V87h1.94v1.78zm0 9.45V90h1.94v8.2zM188.3 98.2v-5a2.24 2.24 0 0 0-.3-1.3 1.75 1.75 0 0 0-1.31-.36h-1.91v6.66H183V90h3.92a3.81 3.81 0 0 1 2.54.67 3 3 0 0 1 .76 2.3v5.23zM197 98.2q-2.36 0-2.36-2.47v-4.31h-1.54V90h1.52v-3h1.86v3h2.33v1.37h-2.33V95a1.79 1.79 0 0 0 .5 1.5 3.25 3.25 0 0 0 1.77.33h.06v1.37zM205.45 98.2q-4 0-4-4.12a4.34 4.34 0 0 1 .86-2.84 3.79 3.79 0 0 1 3.14-1.24h3v1.45h-2.72a2.78 2.78 0 0 0-1.55.31 2.08 2.08 0 0 0-.65 1.62h4.92v1.49h-4.92a2.25 2.25 0 0 0 .5 1.54 2.72 2.72 0 0 0 1.69.37h2.73v1.42zM217.07 98.2v-5a2.24 2.24 0 0 0-.27-1.33 1.75 1.75 0 0 0-1.31-.36h-1.91v6.69h-1.84V90h3.92a3.81 3.81 0 0 1 2.54.67 2.94 2.94 0 0 1 .76 2.3v5.23zM224.7 98.2a2.41 2.41 0 0 1-1.77-.63 2.34 2.34 0 0 1-.64-1.74 2.23 2.23 0 0 1 .91-2 4.3 4.3 0 0 1 2.23-.45h3a1.93 1.93 0 0 0-.47-1.5 2.6 2.6 0 0 0-1.67-.4h-3.49V90h4.3q3.23 0 3.23 3v5.2zm3.77-3.48h-2.72q-1.46 0-1.47 1a.91.91 0 0 0 .37.88 1.77 1.77 0 0 0 .94.19h2.88zM239.5 98.2v-5a2.24 2.24 0 0 0-.27-1.33 1.75 1.75 0 0 0-1.31-.36H236v6.69h-1.84V90h3.92a3.81 3.81 0 0 1 2.54.67 3 3 0 0 1 .76 2.3v5.23zM248.81 98.2a4.21 4.21 0 0 1-3.16-1.11 4.08 4.08 0 0 1-1-3q0-4.14 4.19-4.14h2.77v1.55h-2.13a3.69 3.69 0 0 0-2 .41 2.46 2.46 0 0 0-.86 2.19 2.79 2.79 0 0 0 .47 1.75 2.91 2.91 0 0 0 2.38.83h2.13v1.52zM258.41 98.2q-4 0-4-4.12a4.35 4.35 0 0 1 .86-2.84 3.79 3.79 0 0 1 3.14-1.24h3v1.45h-2.71a2.78 2.78 0 0 0-1.55.31 2.07 2.07 0 0 0-.65 1.62h4.92v1.49h-4.92a2.25 2.25 0 0 0 .5 1.54 2.72 2.72 0 0 0 1.69.37h2.73v1.42z" fill="#231f20" stroke="#231f20" stroke-width=".25"/><path d="M265 86.5v2.23l1.66-.07v.76l-1.66-.08.08 4.82h-.78l.08-4.82-1.66.09v-.76l1.66.07-.08-2.23zM258.26 48.21a3 3 0 1 1-3.08 3 3 3 0 0 1 3.06-3zm0 .6a2.37 2.37 0 0 0 0 4.74 2.27 2.27 0 0 0 2.26-2.37 2.29 2.29 0 0 0-2.28-2.37zm-.45 3.91h-.69v-3a5.72 5.72 0 0 1 1.14-.11 1.69 1.69 0 0 1 1 .23.82.82 0 0 1 .29.63.76.76 0 0 1-.61.71.85.85 0 0 1 .54.72 2 2 0 0 0 .22.73h-.74a2.43 2.43 0 0 1-.24-.71c-.05-.33-.23-.47-.61-.47h-.33zm0-1.67h.33c.38 0 .69-.13.69-.43s-.2-.45-.63-.45a1.64 1.64 0 0 0-.38 0z" fill="#231f20"/></svg>