<svg id="Layer_1" data-name="Layer 1" xmlns="http://www.w3.org/2000/svg" xmlns:xlink="http://www.w3.org/1999/xlink" viewBox="0 0 424.75 183.14"><defs><style>.cls-1{fill:url(#linear-gradient);}.cls-2{fill:#4c0049;}</style><linearGradient id="linear-gradient" y1="124.76" x2="424.75" y2="124.76" gradientUnits="userSpaceOnUse"><stop offset="0" stop-color="#b7151b"/><stop offset="0.02" stop-color="#c52229"/><stop offset="0.06" stop-color="#d7333c"/><stop offset="0.11" stop-color="#e23d47"/><stop offset="0.15" stop-color="#e6404b"/><stop offset="0.34" stop-color="#e98a7b"/><stop offset="0.57" stop-color="#7c78b8"/><stop offset="0.8" stop-color="#00b0b0"/><stop offset="1" stop-color="#1b75bc"/></linearGradient></defs><title>Bliss</title><rect class="cls-1" y="111.95" width="424.75" height="25.62"/><path class="cls-2" d="M280.21,381.06h3.26l5.41,14.46h-3.3l-1.1-3.22h-5.4l-1.14,3.22h-3.22Zm-.3,8.87h3.74l-1.82-5.3h0Z" transform="translate(-183.62 -212.72)"/><path class="cls-2" d="M290.13,381.06h3.16l6,9.7h0v-9.7h3v14.46h-3.18l-6-9.68h0v9.68h-3Z" transform="translate(-183.62 -212.72)"/><path class="cls-2" d="M308.34,383.74H304v-2.68h11.84v2.68h-4.33v11.78h-3.18Z" transform="translate(-183.62 -212.72)"/><path class="cls-2" d="M317.51,381.06h3.18v14.46h-3.18Z" transform="translate(-183.62 -212.72)"/><path class="cls-2" d="M323.16,388.76h6.1v2.47h-6.1Z" transform="translate(-183.62 -212.72)"/><path class="cls-2" d="M333.89,390.72c0,1.93,1.5,2.68,3.2,2.68,1.12,0,2.82-.33,2.82-1.81s-2.17-1.82-4.3-2.39-4.31-1.39-4.31-4.11c0-2.95,2.8-4.37,5.41-4.37,3,0,5.79,1.32,5.79,4.66h-3.08c-.1-1.74-1.33-2.19-2.85-2.19-1,0-2.19.43-2.19,1.64s.69,1.26,4.31,2.19c1.06.26,4.3.93,4.3,4.21,0,2.65-2.09,4.64-6,4.64-3.2,0-6.19-1.58-6.15-5.15Z" transform="translate(-183.62 -212.72)"/><path class="cls-2" d="M348.07,383.74h-4.33v-2.68h11.84v2.68h-4.33v11.78h-3.18Z" transform="translate(-183.62 -212.72)"/><path class="cls-2" d="M357.24,381.06H365a4,4,0,0,1,4.23,4,3.57,3.57,0,0,1-2.29,3.63v0c1.56.4,2,1.92,2.11,3.38.06.91,0,2.61.6,3.42h-3.17a15.55,15.55,0,0,1-.51-3.46c-.22-1.52-.81-2.19-2.41-2.19h-3.18v5.65h-3.18Zm3.18,6.54h3.48c1.42,0,2.19-.6,2.19-2.06s-.77-2-2.19-2h-3.48Z" transform="translate(-183.62 -212.72)"/><path class="cls-2" d="M371.86,381.06h10.81v2.68H375v3.09h7v2.48h-7v3.54h7.8v2.67h-11Z" transform="translate(-183.62 -212.72)"/><path class="cls-2" d="M387.15,390.72c0,1.93,1.5,2.68,3.2,2.68,1.11,0,2.81-.33,2.81-1.81s-2.16-1.82-4.29-2.39-4.31-1.39-4.31-4.11c0-2.95,2.79-4.37,5.41-4.37,3,0,5.79,1.32,5.79,4.66h-3.08c-.1-1.74-1.34-2.19-2.86-2.19-1,0-2.18.43-2.18,1.64s.69,1.26,4.31,2.19c1.05.26,4.29.93,4.29,4.21,0,2.65-2.08,4.64-6,4.64-3.2,0-6.2-1.58-6.16-5.15Z" transform="translate(-183.62 -212.72)"/><path class="cls-2" d="M400.29,390.72c0,1.93,1.5,2.68,3.2,2.68,1.12,0,2.82-.33,2.82-1.81s-2.17-1.82-4.3-2.39-4.31-1.39-4.31-4.11c0-2.95,2.8-4.37,5.41-4.37,3,0,5.79,1.32,5.79,4.66h-3.08c-.1-1.74-1.34-2.19-2.86-2.19-1,0-2.18.43-2.18,1.64s.69,1.26,4.31,2.19c1.05.26,4.29.93,4.29,4.21,0,2.65-2.08,4.64-6,4.64-3.2,0-6.2-1.58-6.16-5.15Z" transform="translate(-183.62 -212.72)"/><path class="cls-2" d="M416.9,381.06h10.16v2.68h-7v3.34h6.05v2.47h-6.05v6H416.9Z" transform="translate(-183.62 -212.72)"/><path class="cls-2" d="M435.38,380.72c4.48,0,7.11,3.34,7.11,7.63s-2.63,7.52-7.11,7.52-7.1-3.35-7.1-7.52S430.91,380.72,435.38,380.72Zm0,12.47c2.86,0,3.93-2.43,3.93-4.84s-1.07-5-3.93-5-3.92,2.43-3.92,5S432.53,393.19,435.38,393.19Z" transform="translate(-183.62 -212.72)"/><path class="cls-2" d="M444.66,381.06h7.8a4,4,0,0,1,4.23,4,3.57,3.57,0,0,1-2.29,3.63v0c1.56.4,2,1.92,2.1,3.38.07.91.05,2.61.61,3.42h-3.18a16.18,16.18,0,0,1-.5-3.46c-.22-1.52-.81-2.19-2.41-2.19h-3.18v5.65h-3.18Zm3.18,6.54h3.48c1.42,0,2.19-.6,2.19-2.06s-.77-2-2.19-2h-3.48Z" transform="translate(-183.62 -212.72)"/><path class="cls-2" d="M459.28,381.06h4.47l3.39,9.95h0l3.2-9.95h4.47v14.46h-3V385.28h0l-3.54,10.24h-2.45l-3.54-10.14h0v10.14h-3Z" transform="translate(-183.62 -212.72)"/><path class="cls-2" d="M489.92,390.05c0,3.91-2.31,5.82-6.18,5.82s-6.15-1.89-6.15-5.82v-9h3.18v9c0,1.58.4,3.14,3,3.14,2.27,0,3-1,3-3.14v-9h3.18Z" transform="translate(-183.62 -212.72)"/><path class="cls-2" d="M492.65,381.06h3.18v11.79h7.05v2.67H492.65Z" transform="translate(-183.62 -212.72)"/><path class="cls-2" d="M508.61,381.06h3.26l5.4,14.46H514l-1.09-3.22h-5.41l-1.13,3.22h-3.22Zm-.31,8.87h3.75l-1.82-5.3h0Z" transform="translate(-183.62 -212.72)"/><path class="cls-2" d="M272.61,212.72h9.59v34.15h.21c4.59-6.59,12.9-10,21.11-10,15.67,0,28.89,12.45,28.89,28.4a29.2,29.2,0,0,1-29.31,29.58c-9.6,0-16.63-4-20.69-9.79h-.21v8.51h-9.59Zm29.21,33.09c-10.45,0-19.62,8.93-19.62,20.1a20,20,0,1,0,19.62-20.1Z" transform="translate(-183.62 -212.72)"/><path class="cls-2" d="M361.83,212.72v64.51c0,6.38,3.1,8.54,6.19,8.54h2.88v9.08H367c-8.85,0-14.71-5.08-14.71-16.86V212.72Z" transform="translate(-183.62 -212.72)"/><path class="cls-2" d="M391.9,212.72a6.91,6.91,0,1,1-6.72,6.91A6.78,6.78,0,0,1,391.9,212.72Zm-4.8,25h9.59v57.13H387.1Z" transform="translate(-183.62 -212.72)"/><path class="cls-2" d="M425.79,277.18c.64,6,5.65,9.06,11.52,9.06,8.63,0,11-4.69,11-8,0-3.62-2.35-5.86-9.81-7.88l-9.7-2.67c-8.21-2.24-11.3-7.67-11.3-14.28,0-9.17,6.93-16.85,19.83-16.85,14.18,0,19.08,9,19.08,17.27h-9c-.74-6.29-3.94-9.38-10.34-9.38-6.07,0-10,3.63-10,8,0,3.09,1.71,5.43,6.19,6.71l13,3.73c8.74,2.56,11.62,7.36,11.62,14.5,0,11.3-9.91,17.27-20.15,17.27-13,0-20.57-6.93-20.89-17.48Z" transform="translate(-183.62 -212.72)"/><path class="cls-2" d="M483.15,277.18c.64,6,5.64,9.06,11.51,9.06,8.63,0,11-4.69,11-8,0-3.62-2.35-5.86-9.81-7.88l-9.7-2.67c-8.21-2.24-11.3-7.67-11.3-14.28,0-9.17,6.93-16.85,19.83-16.85,14.18,0,19.08,9,19.08,17.27h-8.95c-.75-6.29-4-9.38-10.34-9.38-6.08,0-10,3.63-10,8,0,3.09,1.71,5.43,6.19,6.71l13,3.73c8.74,2.56,11.62,7.36,11.62,14.5,0,11.3-9.91,17.27-20.14,17.27-13,0-20.58-6.93-20.9-17.48Z" transform="translate(-183.62 -212.72)"/><path class="cls-2" d="M519.08,391.46l0,1.11.73,0v.39l-.73-.05,0,2.64h-.39l0-2.64-.73.05v-.39l.73,0,0-1.11Z" transform="translate(-183.62 -212.72)"/><path class="cls-2" d="M519.37,236.72a3.82,3.82,0,1,1-3.81,3.82A3.82,3.82,0,0,1,519.37,236.72Zm2.88,3.82a2.88,2.88,0,1,0-2.88,3A2.93,2.93,0,0,0,522.25,240.54Zm-3.11.34h-.65v1.84h-.76v-4.36h1.69c1.08,0,1.64.37,1.64,1.25a1.19,1.19,0,0,1-1.12,1.24l1.19,1.87h-.88Zm.13-.64c.54,0,1-.05,1-.66s-.54-.58-1-.58h-.84v1.24Z" transform="translate(-183.62 -212.72)"/></svg>