<svg data-name="Layer 1" xmlns="http://www.w3.org/2000/svg" viewBox="0 0 288 108"><title>glucosatrin-usca-aus-logo</title><path d="M33.24 57.2H27.1l-.48-2.35a3.07 3.07 0 0 1-1 1.9 5.75 5.75 0 0 1-2.84.46h-12.6q-3.43 0-4.78-1.34T4 51.38V32.2q0-3.2 1.4-4.5t4.77-1.33h21.3l.53 3.8a15.87 15.87 0 0 0-2.36-.58l-3-.15h-13.8a2 2 0 0 0-1.54.48 2.63 2.63 0 0 0-.4 1.7v20.2a2.42 2.42 0 0 0 .42 1.68q.34.5 1.5.5H24.3a1.88 1.88 0 0 0 1.38-.4 2.35 2.35 0 0 0 .32-1.54V42h-7.83a12.57 12.57 0 0 0-4.68.6v-3.8h19.74A17.46 17.46 0 0 0 33 41q-.1 1.23-.1 2.34v12.04zM44.88 57.2H37.8l.34-2.1.15-2.85V28.5l-.5-2.13h6.67v28.76a4 4 0 0 0 .18 1.13 9.56 9.56 0 0 1 .23.95zM75.78 57.2h-6.16l-.24-2a5.83 5.83 0 0 1-.82 1.45 2.8 2.8 0 0 1-1.78.53H55.3q-3 0-4.37-1.32T49.6 51.2V36.6a4.06 4.06 0 0 0-.18-1.2l-.24-.83h6.55v17.66a2.66 2.66 0 0 0 .36 1.66 1.88 1.88 0 0 0 1.4.4h9.95a1.65 1.65 0 0 0 1.35-.43 2.8 2.8 0 0 0 .34-1.64V36.6l-.4-2h6.6v20.54a3.88 3.88 0 0 0 .2 1.13 9.15 9.15 0 0 1 .24.94zM102.9 53.93l-.53 3.27h-17q-3 0-4.36-1.37t-1.3-4.6v-10.7q0-3.22 1.3-4.6t4.37-1.36h16.86l.43 3.2a5.6 5.6 0 0 0-.9-.25 5.52 5.52 0 0 0-.78 0h-13.4a1.76 1.76 0 0 0-1.4.46 2.54 2.54 0 0 0-.4 1.6v12.65a2.65 2.65 0 0 0 .37 1.66 1.88 1.88 0 0 0 1.42.4h11.67a16.67 16.67 0 0 0 3.66-.37zM125.9 57.2h-14.54a5.8 5.8 0 0 1-4.36-1.37q-1.32-1.37-1.32-4.6v-10.7q0-3.22 1.3-4.6t4.33-1.36h14.6q3.08 0 4.4 1.35t1.33 4.62v10.7q0 3.17-1.3 4.57t-4.43 1.4zm-.4-5V39.55a2.66 2.66 0 0 0-.35-1.66 1.87 1.87 0 0 0-1.42-.4h-10.15a1.8 1.8 0 0 0-1.37.4 2.65 2.65 0 0 0-.35 1.66v12.7a2.65 2.65 0 0 0 .36 1.65 1.8 1.8 0 0 0 1.38.4h10.15a1.76 1.76 0 0 0 1.4-.46 2.54 2.54 0 0 0 .38-1.6zM154 57.2h-18.44l-.48-3.2a8.82 8.82 0 0 0 1 .27 5.26 5.26 0 0 0 1 .12h14.66a2.08 2.08 0 0 0 1.5-.44 2.24 2.24 0 0 0 .42-1.6v-1.9a2.47 2.47 0 0 0-.43-1.6 2.3 2.3 0 0 0-1.5-.42H140.5q-3 0-4.24-1.4T135 42.42V40.6q0-3.24 1.28-4.63t4.22-1.4h18.6l.53 3.18q-.34-.1-1-.24a5.42 5.42 0 0 0-1.06-.14h-14.7a2 2 0 0 0-1.4.4 2.22 2.22 0 0 0-.4 1.53v1.3a2.26 2.26 0 0 0 .4 1.46 1.76 1.76 0 0 0 1.4.46h11a6.52 6.52 0 0 1 4.4 1.23q1.34 1.25 1.34 4.25v4.77a4.06 4.06 0 0 1-1.36 3.4A6.76 6.76 0 0 1 154 57.2zM188.94 57.2h-5.8l-.38-1.93a7.38 7.38 0 0 1-.5.87 3.13 3.13 0 0 1-.55.63 3.68 3.68 0 0 1-2.1.44h-11.08q-3.07 0-4.34-1.48t-1.27-5.4v-3.18q0-2.94 1.33-4.17a6.07 6.07 0 0 1 4.22-1.23h12.24a1.86 1.86 0 0 0 1.3-.34 2.15 2.15 0 0 0 .33-1.44v-.87a2.05 2.05 0 0 0-.34-1.4 1.87 1.87 0 0 0-1.3-.35h-15.24a3.2 3.2 0 0 0-.82.1c-.23.05-.63.18-1.2.38l.4-3.27h18.93q3.1 0 4.4 1.37t1.34 4.6v14.6a3.88 3.88 0 0 0 .2 1.14 9 9 0 0 1 .24.94zm-6.6-5v-7.55h-11.66a1.8 1.8 0 0 0-1.37.4 2.65 2.65 0 0 0-.35 1.67v5.52a2.65 2.65 0 0 0 .36 1.66 1.8 1.8 0 0 0 1.38.4h9.92a1.8 1.8 0 0 0 1.37-.4 2.64 2.64 0 0 0 .36-1.66zM212.5 53.85l-.5 3.36h-11.2a5.7 5.7 0 0 1-4.25-1.4q-1.4-1.43-1.4-4.75v-13.7h-3.9v-2.78h3.9V30l6.18-.92v5.53H211v2.8h-9.62v14.5a3 3 0 0 0 .43 1.9 2 2 0 0 0 1.6.5h4.43a17 17 0 0 0 4.67-.45zM231.18 38.6l-2.4-.33h-5.55a1.9 1.9 0 0 0-1.37.4 2.06 2.06 0 0 0-.4 1.48v12.1a18.8 18.8 0 0 0 .47 5h-7l.27-1.14a4.13 4.13 0 0 0 .15-.93V36.6a4.06 4.06 0 0 0-.18-1.2l-.24-.83h5.92l.3 2.3a2.92 2.92 0 0 1 1.07-1.72 4.16 4.16 0 0 1 2.43-.58h5.78l2 2.5a3 3 0 0 0-.55.77 1.85 1.85 0 0 1-.46.63zM242.16 57.2h-7.08l.37-2.1V36.65l-.37-2.12h6.55v17.7l.2 2.9a4.84 4.84 0 0 0 .15 1.12q.13.6.18.95zm-.54-25.2h-6v-4.3h6zM273.06 57.2h-7l.4-2.06v-15.6a2.8 2.8 0 0 0-.34-1.64 1.65 1.65 0 0 0-1.35-.43h-9.97a1.76 1.76 0 0 0-1.4.46 2.54 2.54 0 0 0-.4 1.6v12.72a18.77 18.77 0 0 0 .5 5h-7q.1-.53.26-1.13a4.13 4.13 0 0 0 .15-.94v-18.6a4.06 4.06 0 0 0-.17-1.17l-.24-.83h6.4l.14 2a4.63 4.63 0 0 1 1.3-1.56 2.4 2.4 0 0 1 1.35-.4h11.24q3.08 0 4.4 1.35t1.32 4.62v14.57a3.88 3.88 0 0 0 .18 1.13 9.17 9.17 0 0 1 .22.94zM280.52 42a4.5 4.5 0 0 1-3.14-1.23 4.43 4.43 0 0 1 0-6.34 4.65 4.65 0 0 1 6.3 0 4.44 4.44 0 0 1 0 6.34 4.5 4.5 0 0 1-3.16 1.23zm0-7.9a3.14 3.14 0 0 0-2.34 1 3.46 3.46 0 0 0-1 2.52 3.5 3.5 0 0 0 .94 2.5 3.3 3.3 0 0 0 4.7 0 3.78 3.78 0 0 0 0-5 3.1 3.1 0 0 0-2.3-.97zm2.24 5.76h-1.17l-.86-2h-1.33v1.73l.08.28h-1.16l.07-.3v-3.9l-.08-.3h3.3a1.07 1.07 0 0 1 .74.2.9.9 0 0 1 .2.67v.82a.88.88 0 0 1-.18.63.77.77 0 0 1-.56.18l.4 1 .26.55.14.26zm-1.18-2.83v-.86a.48.48 0 0 0-.06-.26.25.25 0 0 0-.22-.07h-1.9v1.55h1.9c.1 0 .18 0 .2-.08a.37.37 0 0 0 .08-.23z" fill="#00a0c6"/><path d="M91.75 63.08a13.58 13.58 0 0 0-2.56 8.4 13.88 13.88 0 0 0 2.55 8.3h-1.4a13.25 13.25 0 0 1-2.68-8.3 13.58 13.58 0 0 1 2.7-8.4zM93.68 62.75h1.8V69a3.68 3.68 0 0 1 3.38-1.8c2.46 0 4.18 2.05 4.18 5 0 3.57-2.25 5.33-4.47 5.33a3.56 3.56 0 0 1-3.32-1.86l-.1 1.64H93.6c.05-.67.07-1.67.07-2.55zm1.8 10.58a3.34 3.34 0 0 0 .06.66 2.8 2.8 0 0 0 2.7 2.1c1.92 0 3-1.54 3-3.8 0-2-1-3.72-3-3.72a3 3 0 0 0-2.82 3zM109.4 77.53c-2.66 0-4.76-2-4.76-5.1 0-3.32 2.2-5.27 4.92-5.27s4.78 2.07 4.78 5.08c0 3.7-2.56 5.3-4.92 5.3zm.06-1.35c1.72 0 3-1.62 3-3.87 0-1.67-.84-3.78-3-3.78s-3 2-3 3.85c0 2.17 1.23 3.8 3 3.8zM116.62 70.07c0-1 0-1.87-.08-2.7h1.6l.1 1.63a3.67 3.67 0 0 1 3.28-1.85c1.37 0 3.5.82 3.5 4.22v5.92h-1.8v-5.7c0-1.6-.6-3-2.3-3a2.6 2.6 0 0 0-2.42 1.84 2.68 2.68 0 0 0-.12.84v6h-1.8zM129 72.65a3.16 3.16 0 0 0 3.38 3.44 6.85 6.85 0 0 0 2.75-.5l.33 1.27a8.08 8.08 0 0 1-3.32.64 4.63 4.63 0 0 1-4.88-5c0-3 1.78-5.36 4.67-5.36 3.24 0 4.08 2.85 4.08 4.67a4.56 4.56 0 0 1-.05.87zm5.27-1.3c0-1.12-.47-2.92-2.48-2.92-1.85 0-2.63 1.68-2.78 2.93zM151.32 77.3c-.4-.38-.76-.77-1.3-1.32a5.7 5.7 0 0 1-4 1.56 3.9 3.9 0 0 1-4.23-3.87 4.56 4.56 0 0 1 2.7-4v-.06a4.9 4.9 0 0 1-1.17-2.88 3.37 3.37 0 0 1 3.53-3.4 2.86 2.86 0 0 1 3.05 2.93c0 1.46-.83 2.6-3 3.7V70c1.18 1.37 2.5 2.87 3.37 3.85a10.13 10.13 0 0 0 1.33-4h1.64a10.5 10.5 0 0 1-2 5.1l2.28 2.44zm-5-1.12a3.82 3.82 0 0 0 2.83-1.25c-.82-.88-2.36-2.58-3.88-4.35a3.35 3.35 0 0 0-1.78 2.8 2.7 2.7 0 0 0 2.8 2.8zm.37-11.7a1.8 1.8 0 0 0-1.73 2A4 4 0 0 0 146 69c1.4-.8 2.3-1.54 2.3-2.7a1.63 1.63 0 0 0-1.6-1.8zM156.92 80.22a2.88 2.88 0 0 0 2-.76c.5-.55.7-1.35.7-3.73v-8.35h1.8v9c0 1.93-.3 3.18-1.2 4.08a4.58 4.58 0 0 1-3.07 1.13zm3.53-14.66a1.16 1.16 0 0 1 0-2.32 1.16 1.16 0 1 1 0 2.32zM168.38 77.53c-2.66 0-4.76-2-4.76-5.1 0-3.32 2.2-5.27 4.92-5.27s4.78 2.07 4.78 5.08c0 3.7-2.56 5.3-4.92 5.3zm.06-1.35c1.72 0 3-1.62 3-3.87 0-1.67-.84-3.78-3-3.78s-3 2-3 3.85c0 2.17 1.23 3.8 3 3.8zM176.46 65.56a1.16 1.16 0 0 1 0-2.32 1.1 1.1 0 0 1 1.15 1.15 1.13 1.13 0 0 1-1.16 1.16zm-.86 11.75V67.4h1.8v9.92zM180.4 70.07c0-1 0-1.87-.1-2.7h1.6L182 69a3.67 3.67 0 0 1 3.28-1.85c1.37 0 3.5.82 3.5 4.22v5.92H187v-5.7c0-1.6-.6-3-2.3-3a2.6 2.6 0 0 0-2.42 1.84 2.68 2.68 0 0 0-.12.84v6h-1.8zM193.86 65v2.38h2.58v1.37h-2.58v5.35c0 1.23.35 1.93 1.35 1.93a3.37 3.37 0 0 0 1-.12l.1 1.38a4.93 4.93 0 0 1-1.6.25 2.57 2.57 0 0 1-1.96-.76 3.88 3.88 0 0 1-.7-2.6v-5.4h-1.54v-1.4h1.54v-1.8zM203 77.3v-8.54h-1.37v-1.38H203v-.47a4.7 4.7 0 0 1 1.17-3.45 3.44 3.44 0 0 1 2.4-.92 4.08 4.08 0 0 1 1.54.3l-.22 1.38a2.8 2.8 0 0 0-1.17-.22c-1.5 0-1.92 1.35-1.92 2.87v.53h2.4v1.37h-2.38v8.55zM212.6 77.53c-2.66 0-4.76-2-4.76-5.1 0-3.32 2.2-5.27 4.92-5.27s4.78 2.07 4.78 5.08c0 3.7-2.56 5.3-4.92 5.3zm.06-1.35c1.72 0 3-1.62 3-3.87 0-1.67-.84-3.78-3-3.78s-3 2-3 3.85c0 2.17 1.23 3.8 3 3.8zM219.84 70.48c0-1.17 0-2.17-.08-3.1h1.58l.08 1.95h.06a3 3 0 0 1 2.77-2.17 1.9 1.9 0 0 1 .5.06v1.68a5.88 5.88 0 0 0-.65 0 2.53 2.53 0 0 0-2.42 2.3 5.57 5.57 0 0 0-.06.86v5.3h-1.8zM226.6 70.07c0-1 0-1.87-.08-2.7h1.58l.08 1.6h.06a3.43 3.43 0 0 1 3.14-1.8 2.93 2.93 0 0 1 2.8 2 3.9 3.9 0 0 1 1.12-1.3 3.33 3.33 0 0 1 2.17-.7c1.33 0 3.28.86 3.28 4.3v5.85H239V71.7c0-1.94-.72-3.06-2.15-3.06a2.37 2.37 0 0 0-2.15 1.62 3.2 3.2 0 0 0-.14.9v6.15h-1.76v-5.94c0-1.6-.7-2.73-2.07-2.73a2.7 2.7 0 0 0-2.38 2.7v6h-1.75zM252 74.6c0 1 0 1.93.08 2.7h-1.6l-.1-1.6a3.7 3.7 0 0 1-3.28 1.83c-1.56 0-3.42-.88-3.42-4.35v-5.8h1.8v5.47c0 1.9.6 3.18 2.2 3.18a2.6 2.6 0 0 0 2.32-1.66 2.48 2.48 0 0 0 .16-.92v-6.07H252zM255 62.75h1.8V77.3H255zM266.78 74.93a16.68 16.68 0 0 0 .14 2.38h-1.62l-.16-1.24h-.06a3.67 3.67 0 0 1-3 1.48 2.83 2.83 0 0 1-3-2.85c0-2.4 2.13-3.72 6-3.7v-.2a2 2 0 0 0-2.25-2.3 4.78 4.78 0 0 0-2.6.73L259.7 68a6.42 6.42 0 0 1 3.3-.86c3.04 0 3.78 2.07 3.78 4.06zm-1.78-2.7c-2 0-4.2.32-4.2 2.24a1.58 1.58 0 0 0 1.68 1.72 2.5 2.5 0 0 0 2.44-1.67A1.86 1.86 0 0 0 265 74zM268.58 79.8a13.94 13.94 0 0 0 2.56-8.37 13.8 13.8 0 0 0-2.56-8.34H270a13.23 13.23 0 0 1 2.7 8.33 13.57 13.57 0 0 1-2.7 8.36z" fill="#050505"/></svg>