<svg xmlns="http://www.w3.org/2000/svg" viewBox="0 0 140.64 104.69"><path d="M81.1,103.52v.62a2.12,2.12,0,0,1-.18.87,2.48,2.48,0,0,1-.48.74,2.19,2.19,0,0,1-.73.51,2,2,0,0,1-.89.19,3.36,3.36,0,0,1-.82-.11,2,2,0,0,1-.76-.39,2.19,2.19,0,0,1-.56-.73,2.6,2.6,0,0,1-.21-1.12V98.6a2.45,2.45,0,0,1,.16-.91,2.32,2.32,0,0,1,.48-.73,2.22,2.22,0,0,1,.74-.49,2.58,2.58,0,0,1,.94-.17,2.18,2.18,0,0,1,1.65.66,2.46,2.46,0,0,1,.48.76,2.56,2.56,0,0,1,.18,1v.56H79.66v-.47a1.2,1.2,0,0,0-.23-.73.77.77,0,0,0-.65-.31.74.74,0,0,0-.71.33,1.86,1.86,0,0,0-.17.83V104a1.3,1.3,0,0,0,.19.73.75.75,0,0,0,.68.29.86.86,0,0,0,.3,0,.73.73,0,0,0,.3-.16.93.93,0,0,0,.21-.31,1.17,1.17,0,0,0,.08-.49v-.49Z" transform="translate(-73.76 -1.76)" fill="#ce202f"/><path d="M84.88,106.37v-.73h0a2.52,2.52,0,0,1-.56.6,1.39,1.39,0,0,1-.81.21,1.79,1.79,0,0,1-.51-.07,1.42,1.42,0,0,1-.5-.29,1.37,1.37,0,0,1-.39-.57,2.63,2.63,0,0,1-.14-1A5.52,5.52,0,0,1,82,103.5a1.69,1.69,0,0,1,.37-.76,1.54,1.54,0,0,1,.69-.45,3.78,3.78,0,0,1,1.1-.14h.48l.21,0v-.74a1.13,1.13,0,0,0-.15-.61.62.62,0,0,0-.56-.24.85.85,0,0,0-.52.19.9.9,0,0,0-.3.53H82a2.29,2.29,0,0,1,.65-1.54,1.91,1.91,0,0,1,.67-.44,2.28,2.28,0,0,1,.89-.17,2.55,2.55,0,0,1,.84.14,1.83,1.83,0,0,1,1.13,1.13,2.45,2.45,0,0,1,.17,1v5Zm0-3.06a2.13,2.13,0,0,0-.39,0,1.36,1.36,0,0,0-.79.22.86.86,0,0,0-.33.79,1.05,1.05,0,0,0,.19.66.66.66,0,0,0,.55.25.72.72,0,0,0,.57-.24,1,1,0,0,0,.2-.67Z" transform="translate(-73.76 -1.76)" fill="#ce202f"/><path d="M87.36,106.37V99.26h1.43V100a4.1,4.1,0,0,1,.86-.62,2.19,2.19,0,0,1,1-.23v1.52a1.12,1.12,0,0,0-.44-.09,1.72,1.72,0,0,0-.48.08,1.28,1.28,0,0,0-.47.26,1.4,1.4,0,0,0-.37.48,1.73,1.73,0,0,0-.14.73v4.22Z" transform="translate(-73.76 -1.76)" fill="#ce202f"/><path d="M94.11,106.37v-.65a3.84,3.84,0,0,1-.27.29,1.23,1.23,0,0,1-.28.23,1.25,1.25,0,0,1-.35.16,2,2,0,0,1-.46,0,1.28,1.28,0,0,1-1.25-.67,2.16,2.16,0,0,1-.18-.59,5.82,5.82,0,0,1-.06-.94v-2.71c0-.51,0-.89,0-1.13a1.37,1.37,0,0,1,1.46-1.24,1.55,1.55,0,0,1,.75.19,1.83,1.83,0,0,1,.57.54h0V96.38h1.43v10Zm-1.42-2.32a1.36,1.36,0,0,0,.17.71.59.59,0,0,0,.53.26.63.63,0,0,0,.52-.24,1,1,0,0,0,.2-.64v-2.76a.82.82,0,0,0-.2-.56.71.71,0,0,0-.52-.22.58.58,0,0,0-.55.26,1.1,1.1,0,0,0-.15.59Z" transform="translate(-73.76 -1.76)" fill="#ce202f"/><path d="M96.72,97.81V96.38h1.43v1.43Zm0,8.56V99.26h1.43v7.11Z" transform="translate(-73.76 -1.76)" fill="#ce202f"/><path d="M99.2,101.64a5,5,0,0,1,.06-.8,1.61,1.61,0,0,1,.21-.64,1.85,1.85,0,0,1,.72-.75,2.46,2.46,0,0,1,2.28,0,2,2,0,0,1,.73.75,2,2,0,0,1,.21.64,6.6,6.6,0,0,1,0,.8V104a6.47,6.47,0,0,1,0,.8,2.07,2.07,0,0,1-.21.65,1.92,1.92,0,0,1-.73.74,2.46,2.46,0,0,1-2.28,0,1.83,1.83,0,0,1-.72-.74,1.66,1.66,0,0,1-.21-.65,4.92,4.92,0,0,1-.06-.8Zm1.43,2.57a.86.86,0,0,0,.19.61.69.69,0,0,0,.51.2.66.66,0,0,0,.51-.2.86.86,0,0,0,.19-.61v-2.79a.84.84,0,0,0-.19-.61.64.64,0,0,0-.51-.21.66.66,0,0,0-.51.21.84.84,0,0,0-.19.61Z" transform="translate(-73.76 -1.76)" fill="#ce202f"/><path d="M108.79,99.26l-1.85,7.11h-1.26l-1.85-7.11h1.51l1,4.54h0l1-4.54Z" transform="translate(-73.76 -1.76)" fill="#ce202f"/><path d="M112,106.37v-.73h0a2.76,2.76,0,0,1-.57.6,1.33,1.33,0,0,1-.8.21,1.79,1.79,0,0,1-.51-.07,1.42,1.42,0,0,1-.5-.29,1.37,1.37,0,0,1-.39-.57,2.61,2.61,0,0,1-.15-1,5.46,5.46,0,0,1,.1-1.06,1.69,1.69,0,0,1,.37-.76,1.45,1.45,0,0,1,.68-.45,3.8,3.8,0,0,1,1.11-.14h.48l.21,0v-.74a1,1,0,0,0-.16-.61.61.61,0,0,0-.56-.24.85.85,0,0,0-.51.19.9.9,0,0,0-.3.53h-1.39a2.25,2.25,0,0,1,.65-1.54,1.82,1.82,0,0,1,.67-.44,2.26,2.26,0,0,1,.88-.17,2.66,2.66,0,0,1,.85.14,1.83,1.83,0,0,1,1.13,1.13,2.64,2.64,0,0,1,.17,1v5Zm0-3.06a2.13,2.13,0,0,0-.39,0,1.39,1.39,0,0,0-.8.22.86.86,0,0,0-.33.79,1.06,1.06,0,0,0,.2.66.64.64,0,0,0,.55.25.72.72,0,0,0,.57-.24,1,1,0,0,0,.2-.67Z" transform="translate(-73.76 -1.76)" fill="#ce202f"/><path d="M117.07,101.25a.71.71,0,0,0-.24-.55.74.74,0,0,0-.49-.18.62.62,0,0,0-.52.22.75.75,0,0,0-.18.5.88.88,0,0,0,.09.38.92.92,0,0,0,.51.34l.84.34a2.09,2.09,0,0,1,1.1.84,2.37,2.37,0,0,1,.3,1.17,2.08,2.08,0,0,1-.16.83,2.21,2.21,0,0,1-.44.68,2,2,0,0,1-.67.46,2.25,2.25,0,0,1-2.32-.37,2.25,2.25,0,0,1-.48-.67,2.44,2.44,0,0,1-.19-.93h1.35a1.23,1.23,0,0,0,.2.54.63.63,0,0,0,.57.26.82.82,0,0,0,.55-.21.7.7,0,0,0,.25-.57.85.85,0,0,0-.16-.5,1.18,1.18,0,0,0-.56-.36l-.69-.26a2.38,2.38,0,0,1-1.06-.75,1.94,1.94,0,0,1-.38-1.21,2,2,0,0,1,.17-.84,2,2,0,0,1,.46-.66,1.93,1.93,0,0,1,.66-.43,2.16,2.16,0,0,1,.81-.15,2,2,0,0,1,.81.16,1.9,1.9,0,0,1,.64.43,2.38,2.38,0,0,1,.42.67,2.25,2.25,0,0,1,.15.82Z" transform="translate(-73.76 -1.76)" fill="#ce202f"/><path d="M120.92,104.32a.68.68,0,0,0,.19.52.72.72,0,0,0,.51.18.56.56,0,0,0,.54-.24,1.1,1.1,0,0,0,.16-.47h1.43a2.05,2.05,0,0,1-.57,1.51,2,2,0,0,1-.67.46,2.44,2.44,0,0,1-2-.11,2,2,0,0,1-.72-.74,1.66,1.66,0,0,1-.21-.65,4.92,4.92,0,0,1-.06-.8v-2.34a5,5,0,0,1,.06-.8,1.61,1.61,0,0,1,.21-.64,2,2,0,0,1,.72-.75,2.24,2.24,0,0,1,1.14-.28,2.28,2.28,0,0,1,.89.17,2,2,0,0,1,.68.46,2.38,2.38,0,0,1,.56,1.65h-1.43a.89.89,0,0,0-.19-.64.64.64,0,0,0-.51-.21.66.66,0,0,0-.51.21.84.84,0,0,0-.19.61Z" transform="translate(-73.76 -1.76)" fill="#ce202f"/><path d="M128.87,99.26v7.11h-1.43v-.69h0a1.67,1.67,0,0,1-.54.55,1.33,1.33,0,0,1-.8.22,1.6,1.6,0,0,1-.53-.09,1.22,1.22,0,0,1-.48-.3,1.61,1.61,0,0,1-.34-.54,2.39,2.39,0,0,1-.12-.81V99.26H126v4.92a1,1,0,0,0,.18.62.62.62,0,0,0,.52.22.6.6,0,0,0,.56-.25,1.45,1.45,0,0,0,.15-.73V99.26Z" transform="translate(-73.76 -1.76)" fill="#ce202f"/><path d="M130,96.38h1.43v8a.86.86,0,0,0,.14.56,1,1,0,0,0,.56.19v1.34a4.69,4.69,0,0,1-.88-.07,1.64,1.64,0,0,1-.68-.31,1.32,1.32,0,0,1-.43-.59,3.17,3.17,0,0,1-.14-1Z" transform="translate(-73.76 -1.76)" fill="#ce202f"/><path d="M135.37,106.37v-.73h0a2.76,2.76,0,0,1-.57.6,1.35,1.35,0,0,1-.81.21,1.84,1.84,0,0,1-.51-.07,1.51,1.51,0,0,1-.5-.29,1.36,1.36,0,0,1-.38-.57,2.61,2.61,0,0,1-.15-1,4.77,4.77,0,0,1,.1-1.06,1.68,1.68,0,0,1,.36-.76,1.54,1.54,0,0,1,.69-.45,3.8,3.8,0,0,1,1.11-.14h.48l.21,0v-.74a1,1,0,0,0-.16-.61.61.61,0,0,0-.56-.24.8.8,0,0,0-.51.19.85.85,0,0,0-.3.53h-1.39a2.29,2.29,0,0,1,.64-1.54,2,2,0,0,1,.68-.44,2.23,2.23,0,0,1,.88-.17,2.55,2.55,0,0,1,.84.14,2.2,2.2,0,0,1,.69.42,2.05,2.05,0,0,1,.45.71,2.64,2.64,0,0,1,.17,1v5Zm0-3.06a2.15,2.15,0,0,0-.4,0,1.36,1.36,0,0,0-.79.22.86.86,0,0,0-.33.79,1.06,1.06,0,0,0,.2.66.64.64,0,0,0,.54.25.69.69,0,0,0,.57-.24,1,1,0,0,0,.21-.67Z" transform="translate(-73.76 -1.76)" fill="#ce202f"/><path d="M137.85,106.37V99.26h1.43V100a4.06,4.06,0,0,1,.85-.62,2.19,2.19,0,0,1,1-.23v1.52a1.07,1.07,0,0,0-.43-.09,1.85,1.85,0,0,0-.49.08,1.28,1.28,0,0,0-.47.26,1.27,1.27,0,0,0-.36.48,1.73,1.73,0,0,0-.14.73v4.22Z" transform="translate(-73.76 -1.76)" fill="#ce202f"/><path d="M144.47,106.37v-10h1.45l1.92,5.29h0l1.92-5.29h1.46v10h-1.51V100.3h0l-1.48,4.29h-.75L146,100.3h0v6.07Z" transform="translate(-73.76 -1.76)" fill="#ce202f"/><path d="M155.41,106.37v-.73h0a2.59,2.59,0,0,1-.59.6,1.48,1.48,0,0,1-.85.21,2.05,2.05,0,0,1-.54-.07,1.59,1.59,0,0,1-.52-.29,1.3,1.3,0,0,1-.4-.57,2.41,2.41,0,0,1-.16-1,4.77,4.77,0,0,1,.1-1.06,1.62,1.62,0,0,1,.39-.76,1.54,1.54,0,0,1,.72-.45,4.13,4.13,0,0,1,1.16-.14h.5l.22,0v-.74a1,1,0,0,0-.16-.61.66.66,0,0,0-.59-.24.88.88,0,0,0-.53.19.83.83,0,0,0-.32.53h-1.46a2.23,2.23,0,0,1,.68-1.54,1.94,1.94,0,0,1,.7-.44,2.52,2.52,0,0,1,.93-.17,2.86,2.86,0,0,1,.89.14,2.35,2.35,0,0,1,.72.42,2.25,2.25,0,0,1,.47.71,2.45,2.45,0,0,1,.18,1v5Zm0-3.06a2.25,2.25,0,0,0-.41,0,1.49,1.49,0,0,0-.83.22.85.85,0,0,0-.35.79,1,1,0,0,0,.21.66.7.7,0,0,0,.57.25.75.75,0,0,0,.6-.24,1,1,0,0,0,.21-.67Z" transform="translate(-73.76 -1.76)" fill="#ce202f"/><path d="M158,97.81V96.38h1.5v1.43Zm0,8.56V99.26h1.5v7.11Z" transform="translate(-73.76 -1.76)" fill="#ce202f"/><path d="M160.76,106.37V99.26h1.5v.68h0a2.29,2.29,0,0,1,.57-.55,1.54,1.54,0,0,1,.84-.22,1.77,1.77,0,0,1,.56.09,1.36,1.36,0,0,1,.5.31,1.5,1.5,0,0,1,.36.54,2.1,2.1,0,0,1,.13.8v5.46h-1.5v-4.92a1,1,0,0,0-.19-.62.69.69,0,0,0-.55-.23.65.65,0,0,0-.59.26,1.32,1.32,0,0,0-.16.73v4.78Z" transform="translate(-73.76 -1.76)" fill="#ce202f"/><path d="M166.49,99.26V97.1H168v2.16h.93v1.12H168v3.94a1.27,1.27,0,0,0,0,.39.33.33,0,0,0,.17.21.62.62,0,0,0,.29.09h.42v1.35h-.62a2,2,0,0,1-.86-.16,1.56,1.56,0,0,1-.56-.39,1.78,1.78,0,0,1-.3-.54,2,2,0,0,1-.09-.58v-4.32h-.76V99.26Z" transform="translate(-73.76 -1.76)" fill="#ce202f"/><path d="M173.83,103.35h-3v1a.69.69,0,0,0,.2.52.77.77,0,0,0,.54.18.59.59,0,0,0,.56-.24,1.12,1.12,0,0,0,.17-.47h1.5a2,2,0,0,1-.6,1.51,2,2,0,0,1-.71.46,2.25,2.25,0,0,1-.92.17,2.32,2.32,0,0,1-1.2-.28,1.93,1.93,0,0,1-.76-.74,1.67,1.67,0,0,1-.22-.65,4.92,4.92,0,0,1-.06-.8v-2.34a5,5,0,0,1,.06-.8,1.62,1.62,0,0,1,.22-.64,2,2,0,0,1,.76-.75,2.42,2.42,0,0,1,1.2-.28,2.52,2.52,0,0,1,.93.17,2.08,2.08,0,0,1,.71.46,2.22,2.22,0,0,1,.59,1.59Zm-3-1.12h1.47v-.81a.8.8,0,0,0-.2-.61.69.69,0,0,0-.53-.21.7.7,0,0,0-.54.21.84.84,0,0,0-.2.61Z" transform="translate(-73.76 -1.76)" fill="#ce202f"/><path d="M174.94,106.37V99.26h1.5v.68h0a2.13,2.13,0,0,1,.57-.55,1.54,1.54,0,0,1,.84-.22,1.77,1.77,0,0,1,.56.09,1.36,1.36,0,0,1,.5.31,1.5,1.5,0,0,1,.36.54,2.1,2.1,0,0,1,.13.8v5.46h-1.5v-4.92a1,1,0,0,0-.19-.62.69.69,0,0,0-.55-.23.65.65,0,0,0-.59.26,1.32,1.32,0,0,0-.16.73v4.78Z" transform="translate(-73.76 -1.76)" fill="#ce202f"/><path d="M183.51,106.37v-.73h0a2.83,2.83,0,0,1-.6.6,1.45,1.45,0,0,1-.84.21,2,2,0,0,1-.54-.07,1.5,1.5,0,0,1-.52-.29,1.31,1.31,0,0,1-.41-.57,2.61,2.61,0,0,1-.15-1,4.77,4.77,0,0,1,.1-1.06,1.61,1.61,0,0,1,.38-.76,1.64,1.64,0,0,1,.72-.45,4.25,4.25,0,0,1,1.17-.14h.5l.22,0v-.74a1.13,1.13,0,0,0-.16-.61.67.67,0,0,0-.59-.24.89.89,0,0,0-.54.19.87.87,0,0,0-.32.53h-1.45a2.18,2.18,0,0,1,.67-1.54,2,2,0,0,1,.71-.44,2.45,2.45,0,0,1,.93-.17,2.8,2.8,0,0,1,.88.14,2.14,2.14,0,0,1,.72.42,2,2,0,0,1,.47.71,2.45,2.45,0,0,1,.18,1v5Zm0-3.06a2.41,2.41,0,0,0-.41,0,1.5,1.5,0,0,0-.84.22.84.84,0,0,0-.34.79,1.06,1.06,0,0,0,.2.66.7.7,0,0,0,.58.25.75.75,0,0,0,.59-.24.93.93,0,0,0,.22-.67Z" transform="translate(-73.76 -1.76)" fill="#ce202f"/><path d="M186.11,106.37V99.26h1.51v.68h0a2.09,2.09,0,0,1,.56-.55,1.58,1.58,0,0,1,.85-.22,1.82,1.82,0,0,1,.56.09,1.45,1.45,0,0,1,.5.31,1.49,1.49,0,0,1,.35.54,2.08,2.08,0,0,1,.14.8v5.46H189.1v-4.92a.9.9,0,0,0-.19-.62.68.68,0,0,0-.54-.23.64.64,0,0,0-.59.26,1.32,1.32,0,0,0-.16.73v4.78Z" transform="translate(-73.76 -1.76)" fill="#ce202f"/><path d="M193.43,104.32a.69.69,0,0,0,.2.52.77.77,0,0,0,.54.18.62.62,0,0,0,.57-.24,1.1,1.1,0,0,0,.16-.47h1.51a2.08,2.08,0,0,1-1.31,2,2.33,2.33,0,0,1-.93.17,2.37,2.37,0,0,1-1.2-.28,2,2,0,0,1-.76-.74,1.85,1.85,0,0,1-.22-.65,4.92,4.92,0,0,1-.06-.8v-2.34a5,5,0,0,1,.06-.8,1.79,1.79,0,0,1,.22-.64,2,2,0,0,1,.76-.75,2.47,2.47,0,0,1,1.2-.28,2.52,2.52,0,0,1,.93.17,2.22,2.22,0,0,1,.72.46,2.35,2.35,0,0,1,.59,1.65H194.9a.89.89,0,0,0-.19-.64.73.73,0,0,0-.54-.21.7.7,0,0,0-.54.21.84.84,0,0,0-.2.61Z" transform="translate(-73.76 -1.76)" fill="#ce202f"/><path d="M201.63,103.35h-3v1a.69.69,0,0,0,.2.52.77.77,0,0,0,.54.18.59.59,0,0,0,.56-.24,1.12,1.12,0,0,0,.17-.47h1.5a2,2,0,0,1-.6,1.51,2,2,0,0,1-.71.46,2.25,2.25,0,0,1-.92.17,2.32,2.32,0,0,1-1.2-.28,1.93,1.93,0,0,1-.76-.74,1.85,1.85,0,0,1-.22-.65,4.92,4.92,0,0,1-.06-.8v-2.34a5,5,0,0,1,.06-.8,1.79,1.79,0,0,1,.22-.64,2,2,0,0,1,.76-.75,2.42,2.42,0,0,1,1.2-.28,2.52,2.52,0,0,1,.93.17,2.08,2.08,0,0,1,.71.46,2.22,2.22,0,0,1,.59,1.59Zm-3-1.12h1.47v-.81a.8.8,0,0,0-.2-.61.69.69,0,0,0-.53-.21.7.7,0,0,0-.54.21.84.84,0,0,0-.2.61Z" transform="translate(-73.76 -1.76)" fill="#ce202f"/><path d="M204.7,103.1V98.38h-1.11v-.71h1.11V95.89h.74v1.78h1.11v.71h-1.11v4.72Z" transform="translate(-73.76 -1.76)" fill="#ce202f"/><path d="M83.32,43.82V1.76h6v18h7.44v-18h6V43.82h-6V25.09H89.35V43.82Z" transform="translate(-73.76 -1.76)" fill="#ce202f"/><path d="M109.08,43.82V1.76h18V7.43H115.1V19.78h10.4v5.67H115.1V37.79H127v6Z" transform="translate(-73.76 -1.76)" fill="#ce202f"/><path d="M128.8,43.82l9.39-42.06h5l9.4,42.06h-6l-1.77-9H136.6l-1.77,9Zm14.89-14.71-3-15.24h-.11l-3,15.24Z" transform="translate(-73.76 -1.76)" fill="#ce202f"/><path d="M156.15,43.82V1.76h9.69q10.62,0,10.63,12.35a15.72,15.72,0,0,1-1.15,6.32,8.94,8.94,0,0,1-4,4.19l6.5,19.2h-6.38l-5.61-18h-3.61v18Zm6-36.39V20.54h3.43a6,6,0,0,0,2.54-.44,3.47,3.47,0,0,0,1.48-1.27,5.9,5.9,0,0,0,.65-2,20.82,20.82,0,0,0,.17-2.8,21,21,0,0,0-.17-2.81,5.74,5.74,0,0,0-.71-2.09c-.75-1.11-2.17-1.66-4.26-1.66Z" transform="translate(-73.76 -1.76)" fill="#ce202f"/><path d="M184.8,43.82V7.43h-7V1.76h20V7.43h-7V43.82Z" transform="translate(-73.76 -1.76)" fill="#ce202f"/><path d="M73.76,91.28V49.22h6v18h7.44v-18h6V91.28h-6V72.55H79.78V91.28Z" transform="translate(-73.76 -1.76)" fill="#ce202f"/><path d="M99.51,91.28V49.22h17.95v5.67H105.53V67.24h10.4v5.67h-10.4V85.25h11.93v6Z" transform="translate(-73.76 -1.76)" fill="#ce202f"/><path d="M119.23,91.28l9.4-42.06h5L143,91.28h-6l-1.77-9H127l-1.77,9Zm14.89-14.71-3-15.24h-.12l-3,15.24Z" transform="translate(-73.76 -1.76)" fill="#ce202f"/><path d="M146.58,91.28V49.22h6v36h11.93v6Z" transform="translate(-73.76 -1.76)" fill="#ce202f"/><path d="M168.61,91.28V54.89h-7V49.22h20v5.67h-7V91.28Z" transform="translate(-73.76 -1.76)" fill="#ce202f"/><path d="M184.85,91.28V49.22h6v18h7.44v-18h6V91.28h-6V72.55h-7.44V91.28Z" transform="translate(-73.76 -1.76)" fill="#ce202f"/><path d="M207.66,53.56V49.92h-1.21v-.7h3.09v.7h-1.2v3.64Zm6.05,0V49.92h0l-1.29,3.64H212l-1.29-3.64h0v3.64H210V49.22h1.08l1.11,3.17,1.1-3.17h1.08v4.34Z" transform="translate(-73.76 -1.76)" fill="#ce202f"/></svg>