<svg id="Layer_1" xmlns="http://www.w3.org/2000/svg" viewBox="0 0 288 108"><style>.st0{fill:#070606;}</style><title>mochatonix-us-logo</title><path class="st0" d="M12.8 73.5v2.2h3.1V77h-3.1v4.4h-1.4v-9.2H16v1.3h-3.2zM22.6 75.6v5.8h-1.3v-.6c-.6.6-1.1.8-1.8.8-1.6 0-2.8-1.3-2.8-3.1 0-1.7 1.2-3 2.7-3 .7 0 1.2.2 1.8.8v-.7h1.4zm-4.5 2.9c0 1.1.7 1.9 1.6 1.9 1 0 1.6-.8 1.6-1.9s-.7-1.9-1.6-1.9c-.9 0-1.6.8-1.6 1.9zM25.4 81.3h-1.3v-4.5h-.6v-1.3h.6v-2.1h1.3v2.1h1v1.3h-1v4.5zM31.6 76.2c.6-.6 1.1-.8 1.8-.8 1.6 0 2.7 1.3 2.7 3 0 1.8-1.2 3.1-2.7 3.1-.7 0-1.2-.2-1.8-.8v.6h-1.3v-10h1.3v4.9zm-.1 2.3c0 1.1.7 1.9 1.6 1.9.9 0 1.6-.8 1.6-1.9s-.7-1.9-1.6-1.9-1.6.8-1.6 1.9zM39.6 80.3c.8 0 1.2-.5 1.2-1.4v-3.3h1.3V79c0 .9-.2 1.4-.6 1.9-.5.5-1.1.7-1.9.7-.8 0-1.4-.2-1.9-.7-.4-.5-.6-1-.6-1.9v-3.4h1.3v3.3c0 .8.5 1.4 1.2 1.4zM45 75.6v.5c.5-.5.8-.7 1.3-.7.4 0 .7.1 1.1.4l-.6 1.2c-.3-.2-.5-.3-.7-.3-.7 0-1.1.5-1.1 1.7v3h-1.3v-5.8H45zM49.2 75.6v.5c.5-.5.9-.7 1.6-.7 1.4 0 2.1.8 2.1 2.4v3.5h-1.3v-3.2c0-1.1-.3-1.5-1.1-1.5-.9 0-1.2.5-1.2 2v2.8H48v-5.8h1.2zM55.9 73.2c0 .5-.4.9-.9.9s-.9-.4-.9-.9.4-.9.9-.9.9.4.9.9zm-.2 8.1h-1.3v-5.8h1.3v5.8zM58.4 75.6v.5c.5-.5.9-.7 1.6-.7 1.4 0 2.1.8 2.1 2.4v3.5h-1.3v-3.2c0-1.1-.3-1.5-1.1-1.5-.9 0-1.2.5-1.2 2v2.8h-1.3v-5.8h1.2zM69 81.2c0 1.1-.1 1.6-.5 2.2-.5.7-1.3 1.1-2.3 1.1-1.7 0-2.8-1.1-2.8-2.8h1.3c0 .5.1.7.2.9.2.4.8.7 1.3.7 1 0 1.5-.6 1.5-1.8v-.8c-.5.6-1.1.8-1.8.8-1.6 0-2.7-1.3-2.7-3 0-1.8 1.1-3.1 2.7-3.1.7 0 1.3.3 1.8.8v-.7H69v5.7zm-4.5-2.7c0 1.1.6 1.9 1.6 1.9s1.6-.8 1.6-1.9-.7-1.8-1.6-1.8c-.9-.1-1.6.6-1.6 1.8zM72.2 80.7c0 .5-.4.8-.8.8-.5 0-.8-.4-.8-.8 0-.5.4-.8.8-.8s.8.3.8.8zM77.1 71.6l6.7 7v-6.4h1.4v9.7l-6.7-7v6.4h-1.4v-9.7zM89.1 80.3c.8 0 1.2-.5 1.2-1.4v-3.3h1.3V79c0 .9-.2 1.4-.6 1.9-.5.5-1.1.7-1.9.7-.8 0-1.4-.2-1.9-.7-.4-.5-.6-1-.6-1.9v-3.4h1.3v3.3c0 .8.5 1.4 1.2 1.4zM94.5 81.3h-1.3v-4.5h-.6v-1.3h.6v-2.1h1.3v2.1h1v1.3h-1v4.5zM97.5 75.6v.5c.5-.5.8-.7 1.3-.7.4 0 .7.1 1.1.4l-.5 1.2c-.3-.2-.5-.3-.7-.3-.7 0-1.1.5-1.1 1.7v3h-1.3v-5.8h1.2zM102 73.2c0 .5-.4.9-.9.9s-.9-.4-.9-.9.4-.9.9-.9.9.4.9.9zm-.2 8.1h-1.3v-5.8h1.3v5.8zM104.4 78.8c.1.9.6 1.6 1.5 1.6.7 0 1-.3 1.6-1.1l1.1.6c-.7 1.2-1.5 1.7-2.7 1.7-1.7 0-2.8-1.2-2.8-3 0-1.9 1.1-3.1 2.8-3.1 1.7 0 2.7 1.2 2.7 3v.4l-4.2-.1zm2.7-1.1c-.2-.7-.7-1.1-1.3-1.1-.6 0-1.2.4-1.3 1.1h2.6zM111 75.6v.5c.5-.5.9-.7 1.6-.7 1.4 0 2.1.8 2.1 2.4v3.5h-1.3v-3.2c0-1.1-.3-1.5-1.1-1.5-.9 0-1.2.5-1.2 2v2.8h-1.3v-5.8h1.2zM117.4 81.3h-1.3v-4.5h-.6v-1.3h.6v-2.1h1.3v2.1h1v1.3h-1v4.5zM123.4 78.8c.1.9.6 1.6 1.5 1.6.7 0 1-.3 1.6-1.1l1.1.6c-.7 1.2-1.5 1.7-2.7 1.7-1.7 0-2.8-1.2-2.8-3 0-1.9 1.1-3.1 2.8-3.1 1.7 0 2.7 1.2 2.7 3v.4l-4.2-.1zm2.8-1.1c-.2-.7-.7-1.1-1.3-1.1-.6 0-1.2.4-1.3 1.1h2.6zM130.1 75.6v.5c.5-.5.9-.7 1.6-.7 1.4 0 2.1.8 2.1 2.4v3.5h-1.3v-3.2c0-1.1-.3-1.5-1.1-1.5-.9 0-1.2.5-1.2 2v2.8h-1.3v-5.8h1.2zM136.5 71.3V76c.5-.5.9-.6 1.6-.6.7 0 1.3.3 1.7.8.3.4.4.8.4 1.6v3.5h-1.3v-3.4c0-.9-.3-1.3-1-1.3-1 0-1.3.5-1.3 2v2.8h-1.3v-10l1.2-.1zM147.1 75.6v5.8h-1.3v-.6c-.6.6-1.1.8-1.8.8-1.6 0-2.8-1.3-2.8-3.1 0-1.7 1.2-3 2.7-3 .7 0 1.2.2 1.8.8v-.7h1.4zm-4.5 2.9c0 1.1.7 1.9 1.6 1.9 1 0 1.6-.8 1.6-1.9s-.7-1.9-1.6-1.9-1.6.8-1.6 1.9zM149.9 75.6v.5c.5-.5.9-.7 1.6-.7 1.4 0 2.1.8 2.1 2.4v3.5h-1.3v-3.2c0-1.1-.3-1.5-1.1-1.5-.9 0-1.2.5-1.2 2v2.8h-1.3v-5.8h1.2zM159.4 77.6c-.6-.7-1-1-1.6-1-1 0-1.8.8-1.8 1.9s.7 1.9 1.7 1.9c.7 0 1-.2 1.7-1v1.8c-.6.3-1 .4-1.7.4-1.8 0-3.1-1.3-3.1-3s1.4-3.1 3.2-3.1c.6 0 1.1.1 1.6.4v1.7zM162 73.2c0 .5-.4.9-.9.9s-.9-.4-.9-.9.4-.9.9-.9.9.4.9.9zm-.2 8.1h-1.3v-5.8h1.3v5.8zM164.5 75.6v.5c.5-.5.9-.7 1.6-.7 1.4 0 2.1.8 2.1 2.4v3.5h-1.3v-3.2c0-1.1-.3-1.5-1.1-1.5-.9 0-1.2.5-1.2 2v2.8h-1.3v-5.8h1.2zM175.2 81.2c0 1.1-.1 1.6-.5 2.2-.5.7-1.3 1.1-2.3 1.1-1.7 0-2.8-1.1-2.8-2.8h1.3c0 .5.1.7.2.9.2.4.8.7 1.3.7 1 0 1.5-.6 1.5-1.8v-.8c-.5.6-1.1.8-1.8.8-1.6 0-2.7-1.3-2.7-3 0-1.8 1.1-3.1 2.7-3.1.7 0 1.3.3 1.8.8v-.7h1.3v5.7zm-4.5-2.7c0 1.1.6 1.9 1.6 1.9s1.6-.8 1.6-1.9-.7-1.8-1.6-1.8c-1-.1-1.6.6-1.6 1.8zM178.3 80.7c0 .5-.4.8-.8.8-.5 0-.8-.4-.8-.8 0-.5.4-.8.8-.8s.8.3.8.8zM184.6 73.5v2.2h3.6V77h-3.6v3h3.7v1.3h-5.1v-9.2h5.1v1.3l-3.7.1zM190.9 75.6v.5c.5-.5.9-.7 1.6-.7 1.4 0 2.1.8 2.1 2.4v3.5h-1.3v-3.2c0-1.1-.3-1.5-1.1-1.5-.9 0-1.2.5-1.2 2v2.8h-1.3v-5.8h1.2zM197.1 78.8c.1.9.6 1.6 1.5 1.6.7 0 1-.3 1.6-1.1l1.1.6c-.7 1.2-1.5 1.7-2.7 1.7-1.7 0-2.8-1.2-2.8-3 0-1.9 1.1-3.1 2.8-3.1s2.7 1.2 2.7 3v.4l-4.2-.1zm2.7-1.1c-.2-.7-.7-1.1-1.3-1.1s-1.2.4-1.3 1.1h2.6zM203.7 75.6v.5c.5-.5.8-.7 1.3-.7.4 0 .7.1 1.1.4l-.6 1.2c-.3-.2-.5-.3-.7-.3-.7 0-1.1.5-1.1 1.7v3h-1.3v-5.8h1.3zM212.2 81.2c0 1.1-.1 1.6-.5 2.2-.5.7-1.3 1.1-2.3 1.1-1.7 0-2.8-1.1-2.8-2.8h1.3c0 .5.1.7.2.9.2.4.8.7 1.3.7 1 0 1.5-.6 1.5-1.8v-.8c-.5.6-1.1.8-1.8.8-1.6 0-2.7-1.3-2.7-3 0-1.8 1.1-3.1 2.7-3.1.7 0 1.3.3 1.8.8v-.7h1.3v5.7zm-4.4-2.7c0 1.1.6 1.9 1.6 1.9s1.6-.8 1.6-1.9-.7-1.8-1.6-1.8c-1-.1-1.6.6-1.6 1.8zM212.9 75.6h1.6l1.8 3.3 1.6-3.3h1.5l-4.6 8.9h-1.5l2.3-4.2-2.7-4.7zM224.5 76.2c.6-.6 1.1-.8 1.8-.8 1.6 0 2.7 1.3 2.7 3 0 1.8-1.2 3.1-2.7 3.1-.7 0-1.2-.2-1.8-.8v.6h-1.3v-10h1.3v4.9zm-.1 2.3c0 1.1.7 1.9 1.6 1.9.9 0 1.6-.8 1.6-1.9s-.7-1.9-1.6-1.9c-.9 0-1.6.8-1.6 1.9zM236 78.5c0 1.7-1.3 3.1-3.1 3.1-1.7 0-3.1-1.3-3.1-3.1 0-1.7 1.3-3.1 3.1-3.1s3.1 1.3 3.1 3.1zm-4.8 0c0 1.1.7 1.9 1.7 1.9s1.7-.7 1.7-1.9c0-1.1-.7-1.9-1.7-1.9s-1.7.7-1.7 1.9zM243.1 78.5c0 1.7-1.3 3.1-3.1 3.1-1.7 0-3.1-1.3-3.1-3.1 0-1.7 1.3-3.1 3.1-3.1 1.7 0 3.1 1.3 3.1 3.1zm-4.8 0c0 1.1.7 1.9 1.7 1.9s1.7-.7 1.7-1.9c0-1.1-.7-1.9-1.7-1.9-1.1 0-1.7.7-1.7 1.9zM246.5 77.1c-.2-.4-.4-.5-.7-.5-.2 0-.4.2-.4.4s.1.4.8.7c1.4.7 1.8 1 1.8 1.9 0 1.1-.9 2-2 2-1 0-1.7-.5-2.1-1.4l1.1-.5c.3.6.5.8.9.8s.7-.2.7-.6-.1-.4-1.3-1.1c-.9-.4-1.1-.8-1.1-1.5 0-1 .8-1.7 1.8-1.7.7 0 1.2.4 1.6 1.1l-1.1.4zM250.2 81.3h-1.3v-4.5h-.6v-1.3h.6v-2.1h1.3v2.1h1v1.3h-1v4.5zM253.5 73.2c0 .5-.4.9-.9.9s-.9-.4-.9-.9.4-.9.9-.9.9.4.9.9zm-.2 8.1H252v-5.8h1.3v5.8zM256 75.6v.5c.5-.5.9-.7 1.6-.7 1.4 0 2.1.8 2.1 2.4v3.5h-1.3v-3.2c0-1.1-.3-1.5-1.1-1.5-.9 0-1.2.5-1.2 2v2.8h-1.3v-5.8h1.2zM266.6 81.2c0 1.1-.1 1.6-.5 2.2-.5.7-1.3 1.1-2.3 1.1-1.7 0-2.8-1.1-2.8-2.8h1.3c0 .5.1.7.2.9.2.4.8.7 1.3.7 1 0 1.5-.6 1.5-1.8v-.8c-.5.6-1.1.8-1.8.8-1.6 0-2.7-1.3-2.7-3 0-1.8 1.1-3.1 2.7-3.1.7 0 1.3.3 1.8.8v-.7h1.3v5.7zm-4.4-2.7c0 1.1.6 1.9 1.6 1.9s1.6-.8 1.6-1.9-.7-1.8-1.6-1.8c-1-.1-1.6.6-1.6 1.8zM269.8 80.7c0 .5-.4.8-.8.8-.5 0-.8-.4-.8-.8 0-.5.4-.8.8-.8s.8.3.8.8zM273.1 70.9v1.2h1.1v.8h-1.1v5.3h-.8v-5.3h-1.1v-.8h1.1v-1.2h.8zM18.2 24.2l12.5 28.4 13-28.4 6.9 39.3H45l-3.5-22-10.8 23.6-10.5-23.7-3.9 22.1h-5.7l7.6-39.3zM79.6 52c0 6.8-5.4 12.3-12.2 12.4S55 58.9 55 52.1s5.4-12.3 12.2-12.4h.1c6.7 0 12.2 5.3 12.3 12v.3zm-19.2 0c0 4.4 2.7 7.4 6.8 7.4 4.2 0 6.9-3 6.9-7.4 0-4.5-2.7-7.5-6.9-7.5-4.1 0-6.8 3-6.8 7.5zM102.1 48.4c-2.4-2.9-4.1-3.9-6.6-3.9-4.1 0-7.1 3.1-7.1 7.4s2.9 7.5 6.9 7.5c2.6 0 4.2-.9 6.7-4v7.1c-2 1.2-4.3 1.7-6.6 1.7-6.7.2-12.3-5.1-12.4-11.8v-.3c0-7 5.5-12.3 12.7-12.3 2.2 0 4.4.5 6.4 1.6v7zM112.5 23.5v18.8c1.6-1.6 3.9-2.6 6.2-2.5 2.6-.1 5.2 1 6.8 3.1 1.1 1.5 1.5 3.2 1.5 6.4v14.1h-5.3V49.8c0-3.6-1.3-5.3-4-5.3-3.9 0-5.2 1.9-5.2 7.8v11.1h-5.3V23.5h5.3zM155.2 40.4v23.1h-5.3V61c-2.5 2.3-4.3 3.1-7.1 3.1-6.4 0-11-5.1-11-12.4 0-6.8 4.7-12 10.9-12 2.9 0 4.9.9 7.2 3.3v-2.7h5.3v.1zm-17.9 11.5c0 4.3 2.7 7.5 6.4 7.5 3.9 0 6.6-3 6.6-7.5 0-4.3-2.7-7.4-6.6-7.4-3.7 0-6.4 3.2-6.4 7.4zM170.1 63.4h-5.5V32.1h-8.4v-5.2h22.3v5.2h-8.4v31.3zM202.4 52c0 6.8-5.4 12.3-12.2 12.4-6.8 0-12.3-5.4-12.4-12.2s5.4-12.3 12.2-12.4h.1c6.7-.1 12.2 5.2 12.3 11.9v.3zm-19.1 0c0 4.4 2.7 7.4 6.8 7.4 4.2 0 6.9-3 6.9-7.4 0-4.5-2.7-7.5-6.9-7.5-4.1 0-6.8 3-6.8 7.5zM212.5 40.4v2.1c2.1-2 3.7-2.7 6.2-2.7 5.6 0 8.3 3.1 8.3 9.5v14.1h-5.3V50.6c0-4.5-1-6-4.3-6-3.6 0-4.9 2.1-4.9 7.8v11.1h-5.3V40.4h5.3zM239.1 30.8c0 1.9-1.5 3.5-3.5 3.5-1.9 0-3.5-1.5-3.5-3.5 0-1.9 1.6-3.5 3.5-3.5s3.5 1.6 3.5 3.5zm-.8 32.6H233v-23h5.3v23zM243.3 40.4h6.4l5.1 6.7 5.3-6.7h6.5L258 50.9l9.9 12.5h-6.3l-6.8-8.6-6.9 8.6h-6.5l10.2-12.5-8.3-10.5zM277.4 44.6c0 2.5-2 4.4-4.5 4.4s-4.4-2-4.4-4.5c0-2.4 2-4.4 4.4-4.4 2.5 0 4.5 2 4.5 4.5zm-4.5-3.8c-2.1 0-3.7 1.7-3.7 3.8s1.7 3.7 3.8 3.7c2.1 0 3.7-1.7 3.7-3.8 0-2-1.7-3.7-3.8-3.7zm2.2 6.4h-1.2l-1.5-2v2h-1V42h1c1.4 0 2.1.5 2.1 1.5 0 .7-.4 1.2-1 1.4h-.1l1.7 2.3zm-2.6-2.9c.7 0 1.1-.2 1.1-.7 0-.4-.3-.7-1-.7h-.2v1.4h.1z"/></svg>