<svg data-name="Layer 1" xmlns="http://www.w3.org/2000/svg" viewBox="0 0 288 108"><title>mpc-us-logo</title><path d="M135.18 2h-28.8L92 27l14.37 24.9h28.8L149.6 27zm1 37.3a2.17 2.17 0 0 1-2.48-2.4V21.33l-10 6.83a4.46 4.46 0 0 1-2.52 1.23 3.8 3.8 0 0 1-2.44-1.23l-10.05-6.75v15.43a2.25 2.25 0 0 1-2.7 2.48 2.15 2.15 0 0 1-2.46-2.48v-20.1c0-.6.4-1.22 1.24-1.84a2.37 2.37 0 0 1 2.76-.1l13.5 9 13.4-9a2.7 2.7 0 0 1 2.88-.14 2.45 2.45 0 0 1 1.27 2.06v20.13a2.2 2.2 0 0 1-2.44 2.46zM133.55 75.94a2.2 2.2 0 0 1-2.5 2.5H108.4v-5h22.65a2.28 2.28 0 0 1 2.5 2.5zm15.88 5.13L135 106h-28.8L91.82 81.07l14.4-25H135zm-10.88-5.14q0-7.53-7.55-7.53h-25.1a2.2 2.2 0 0 0-2.5 2.5V91a2.2 2.2 0 0 0 2.48 2.5 2.24 2.24 0 0 0 2.52-2.5v-7.55H131q7.56 0 7.56-7.52zM182.56 28.78h-28.8l-14.4 25 14.4 24.93h28.8L197 53.76zm1 37.27H161Q151 66 151 56v-5q0-10 10-10h22.55a2.17 2.17 0 0 1 2.42 2.48 2.17 2.17 0 0 1-2.42 2.48H161q-5 .04-5 5.04v5q0 5 5 5h22.55a2.2 2.2 0 0 1 2.48 2.5 2.22 2.22 0 0 1-2.5 2.5z" fill="#c1272d"/><path d="M190.66 76.55a2 2 0 1 1-2-2 2 2 0 0 1 2 2zm-3.57 0a1.55 1.55 0 0 0 1.54 1.6 1.54 1.54 0 0 0 1.53-1.6 1.54 1.54 0 1 0-3.08 0zm1.2 1h-.42v-2a4.43 4.43 0 0 1 .72-.07 1 1 0 0 1 .67.17.5.5 0 0 1 .2.43.55.55 0 0 1-.42.48c.2.07.3.22.36.5a1.4 1.4 0 0 0 .16.48h-.47a1.36 1.36 0 0 1-.16-.5c0-.2-.17-.3-.43-.3h-.2zm0-1.14h.23c.26 0 .47-.07.47-.27s-.12-.3-.43-.3a1.15 1.15 0 0 0-.26 0z" fill="#981b1e"/></svg>