<svg id="Layer_1" xmlns="http://www.w3.org/2000/svg" viewBox="0 0 288 144"><style>.st0{fill:#60C9DD;} .st1{fill:#050505;}</style><title>isotonix-custom-cocktail-us-logo-04-01</title><path class="st0" d="M35.1 38.4c-13.7-.1-24.9 11-25 24.7 0 13.4 11.2 24.3 25 24.3 5.1 0 10.1-1.6 14.3-4.6l.4-.3v-8.9l-1.5 1.5c-3.5 3.6-8.3 5.7-13.4 5.8-9.9-.1-18-8.2-17.9-18.1.1-9.8 8-17.8 17.8-17.9 5.1 0 10 2.1 13.5 5.8l1.5 1.6v-9l-.4-.3c-4.1-3.1-9.2-4.7-14.3-4.6zM86.9 67.2v.7c0 3.3 0 6.7-2.1 9.2-2.1 2.4-5.2 3.7-8.4 3.7-3.4 0-6.9-1.6-8.6-4-1.8-2.5-1.8-5.8-1.8-9V39.2h-7v29.4c0 4.9.4 9.6 4.8 13.8 3.4 3.2 7.9 4.9 12.6 4.9 4.9.1 9.7-1.9 13.1-5.5 4-4.1 4.3-8.4 4.3-13.3V39.2h-7l.1 28zM120.6 58.7l-3.1-1.3c-3-1.3-6.7-3-6.7-6.3 0-3.5 3-6.2 6.8-6.2 3.2 0 5.3 1.3 7.2 4.5l.5.8 5.6-3.6-.4-.7c-2.5-4.7-7.5-7.6-12.8-7.5-7.9 0-13.9 5.4-13.9 12.5S109 61 114.4 63.4l2.8 1.2.2.1c4.2 1.9 7.8 3.5 7.8 8.1 0 4.4-3.9 8-8.6 8-4.3 0-7.7-3.2-8.4-7.7l-.1-1-6.8 1.9.2.8c1.3 7.4 7.8 12.7 15.3 12.5 8.7 0 15.5-6.6 15.5-15-.1-7.9-5.8-11-11.7-13.6zM136.4 45.7h11.1v40.9h7V45.7h11.3v-6.5h-29.4zM194.4 38.4c-13.8 0-25 11-25 24.5s11.2 24.4 25 24.4 25-11 25-24.4c0-13.5-11.2-24.5-25-24.5zm18.1 24.5c.1 10-8 18.1-18 18.2-10 .1-18.1-8-18.2-18-.1-10 8-18.1 18-18.2h.1c10 0 18.1 8 18.1 18zM278.2 86.6L268 34.5l-17.2 39-17.1-39-10.2 52.1h7.1l5.6-29 14.6 32.1 14.7-32.1 5.6 29z"/><path class="st1" d="M29 94.8c-7.3-.1-13.3 5.7-13.4 13 0 7 6.1 12.9 13.3 12.9 3.1 0 6.1-1.1 8.5-3.1l.2-.2v-3.8l-.9 1.1c-2.1 2.2-4.9 3.4-7.9 3.5-2.8-.1-5.5-1.2-7.5-3.2-1.9-1.9-3.1-4.4-3.1-7.1.1-5.9 4.8-10.6 10.7-10.6 3 .1 5.9 1.4 7.9 3.6l.9 1.1v-3.8l-.2-.2c-2.4-2-5.4-3.2-8.5-3.2zM69.7 94.8c-7.2 0-13.3 5.9-13.3 12.9s6.1 12.9 13.3 12.9c7.2 0 13.1-5.7 13.3-12.9 0-7-6.1-12.9-13.3-12.9zm10.7 12.7c.2 5.9-4.5 10.8-10.4 11s-10.8-4.5-11-10.4c-.2-5.9 4.5-10.8 10.4-11h.3c5.8 0 10.5 4.6 10.7 10.4zM114.4 94.8c-7.3-.1-13.3 5.7-13.4 13 0 7 6.1 12.9 13.3 12.9 3.1 0 6.1-1.1 8.5-3.1l.2-.2v-3.8l-.9 1.1c-3.9 4.3-10.5 4.7-14.9.8-.2-.2-.4-.3-.5-.5-1.9-1.9-3.1-4.4-3.1-7.1.1-5.9 4.8-10.6 10.7-10.6 3 .1 5.9 1.4 7.9 3.6l.9 1.1v-3.8l-.2-.2c-2.3-2.1-5.4-3.2-8.5-3.2zM160.5 95.1H157l-11 10.6V95.1h-2.6v25.3h2.6v-11.2l.2-.2 11.5 11.4h3.6L148 107.3zM176.3 97.6h6.3v22.8h2.6V97.6h6.4v-2.5h-15.3zM204.8 120.4h2.7l3.3-8h10.1l3.3 8h2.7l-11-26.9-11.1 26.9zm15.1-10.5h-8.1l4.1-9.8 4 9.8zM245.2 95.1h2.6v25.3h-2.6zM271.4 95.1h-2.6v25.3h8.9v-2.5h-6.3zM15.7 128.7h262.6v.5H15.7zM19.4 17.3H21V32h-1.6zM27.5 26.6c-1.1-.5-2.1-.8-2.1-1.6 0-.6.5-1 1.1-1 .6 0 1 .4 1.2.9l1.3-.7c-.4-1-1.3-1.7-2.4-1.7-1.4-.1-2.6 1.1-2.7 2.5v.1c0 2.9 4.1 2.2 4.1 4.2 0 .8-.6 1.4-1.4 1.4h-.1c-1 0-1.5-.6-1.9-1.5l-1.4.6c.5 1.4 1.7 2.3 3.2 2.3 1.6.1 3-1.2 3.1-2.8v-.2c.1-1.4-.9-2-2-2.5zM35.8 22.6c-2.7 0-4.8 2.1-4.8 4.8 0 2.7 2.2 4.8 4.8 4.8 2.6 0 4.8-2.1 4.8-4.8 0-2.7-2.1-4.8-4.8-4.8zm0 8.2c-1.8 0-3.2-1.4-3.2-3.2v-.2c-.1-1.8 1.3-3.3 3.1-3.4h.1c1.8 0 3.2 1.4 3.2 3.2v.2c.1 1.8-1.2 3.3-3 3.4h-.2zM44.4 19.6h-1.6v3.2h-.9v1.5h.9V32h1.6v-7.7H46v-1.5h-1.6zM51.4 22.6c-2.7 0-4.8 2.1-4.8 4.8 0 2.7 2.1 4.8 4.8 4.8 2.7 0 4.8-2.1 4.8-4.8 0-2.7-2.1-4.8-4.8-4.8zm0 8.2c-1.8 0-3.2-1.4-3.2-3.2v-.2c-.1-1.8 1.3-3.3 3.1-3.4h.1c1.8 0 3.2 1.4 3.2 3.2v.2c.1 1.8-1.2 3.3-3 3.4h-.2zM62.5 22.6c-1.1 0-2 .5-2.6 1.4v-1.1h-1.6V32h1.6v-4.3c0-1.6.1-3.6 2.3-3.6 1.8 0 1.9 1.3 1.9 2.8V32h1.6v-5.4c-.1-2.2-.7-4-3.2-4zM68.9 22.8h1.6v9.1h-1.6zM69.7 18.3c-.6 0-1.1.5-1.1 1.1 0 .6.5 1.1 1.1 1.1.6 0 1.1-.5 1.1-1.1 0-.6-.5-1.1-1.1-1.1zM81.4 22.8h-1.9L77.1 26l-2.4-3.2h-1.9l3.3 4.3-3.9 4.9h2l2.9-3.7L80 32h1.9l-3.8-4.9zM84 23.8c0-.3-.3-.4-.5-.4h-.7v1.5h.2v-.7h.3l.5.7h.2l-.5-.7c.3 0 .5-.1.5-.4zm-.7.2H83v-.4h.4c.2 0 .4 0 .4.2s-.4.2-.5.2z"/><path class="st1" d="M83.3 22.8c-.8 0-1.4.6-1.4 1.4 0 .8.6 1.4 1.4 1.4.8 0 1.4-.6 1.4-1.4 0-.8-.6-1.4-1.4-1.4zm0 2.6c-.7 0-1.2-.5-1.2-1.2s.5-1.2 1.2-1.2 1.2.5 1.2 1.2-.5 1.2-1.2 1.2z"/></svg>