<svg data-name="Layer 1" xmlns="http://www.w3.org/2000/svg" xmlns:xlink="http://www.w3.org/1999/xlink" viewBox="0 0 288 108"><defs><linearGradient id="a" x1="333.46" y1="158.05" x2="334.72" y2="158.05" gradientTransform="matrix(5.71 0 0 5.71 -1863.15 -858.47)" gradientUnits="userSpaceOnUse"><stop offset="0" stop-color="#d7d8da"/><stop offset=".52" stop-color="#c5c7c9"/><stop offset="1" stop-color="#b9bbbd"/></linearGradient><linearGradient id="b" x1="333.9" y1="158.3" x2="335.05" y2="158.3" gradientTransform="matrix(5.71 0 0 5.71 -1865.93 -860.31)" gradientUnits="userSpaceOnUse"><stop offset="0" stop-color="#f5f5f6"/><stop offset=".23" stop-color="#e4e5e6"/><stop offset=".72" stop-color="#c5c7c8"/><stop offset="1" stop-color="#b9bbbd"/></linearGradient><linearGradient id="e" x1="344.75" y1="158.05" x2="346" y2="158.05" gradientTransform="matrix(-5.7 0 0 5.7 2042.86 -858.47)" xlink:href="#a"/><linearGradient id="f" x1="345.18" y1="158.3" x2="346.34" y2="158.3" gradientTransform="matrix(-5.7 0 0 5.7 2045.64 -860.31)" xlink:href="#b"/><linearGradient id="g" x1="-1296.73" y1="688.63" x2="-1296.2" y2="673.62" gradientTransform="matrix(.93 0 0 .93 1264.57 -575.71)" gradientUnits="userSpaceOnUse"><stop offset="0" stop-color="#d7d8da"/><stop offset=".09" stop-color="#c3c4c6"/><stop offset=".41" stop-color="#7f7e7f"/><stop offset=".68" stop-color="#4d4a4c"/><stop offset=".89" stop-color="#2f2b2c"/><stop offset="1" stop-color="#231f20"/></linearGradient><linearGradient id="h" x1="-1098.36" y1="716.48" x2="-1097.48" y2="690.65" gradientTransform="matrix(.93 0 0 .93 1089.44 -578.51)" gradientUnits="userSpaceOnUse"><stop offset=".01" stop-color="#414142"/><stop offset=".49" stop-color="#d7d8da"/><stop offset=".54" stop-color="#c3c4c6"/><stop offset=".7" stop-color="#7f7e7f"/><stop offset=".84" stop-color="#4d4a4c"/><stop offset=".94" stop-color="#2f2b2c"/><stop offset="1" stop-color="#231f20"/></linearGradient><linearGradient id="c" x1="331.44" y1="159.52" x2="334.52" y2="159.52" gradientTransform="matrix(4.36 0 0 4.36 -1371.76 -627.97)" gradientUnits="userSpaceOnUse"><stop offset="0" stop-color="#f1f1f2"/><stop offset=".18" stop-color="#e4e5e6"/><stop offset=".71" stop-color="#c5c6c8"/><stop offset="1" stop-color="#b9bbbd"/></linearGradient><linearGradient id="i" x1="-1080.14" y1="768.96" x2="-1088.87" y2="759.54" gradientTransform="matrix(.86 0 0 .86 1013.05 -588.22)" xlink:href="#c"/><linearGradient id="j" x1="-2100.87" y1="730.72" x2="-2085.41" y2="736.99" gradientTransform="matrix(.93 0 0 .93 2032.14 -614.84)" xlink:href="#c"/><radialGradient id="k" cx="-1073.23" cy="765.4" r="3.21" gradientTransform="matrix(.9 0 0 .9 1053.55 -626.11)" gradientUnits="userSpaceOnUse"><stop offset="0" stop-color="#fbfbfb"/><stop offset=".22" stop-color="#f3f3f3"/><stop offset=".58" stop-color="#dcddde"/><stop offset="1" stop-color="#b9bbbd"/></radialGradient><linearGradient id="d" x1="-1121.55" y1="610.21" x2="-1119.28" y2="613.87" gradientTransform="matrix(.8 0 0 .8 936.09 -452.72)" gradientUnits="userSpaceOnUse"><stop offset="0" stop-color="#fff"/><stop offset=".21" stop-color="#c6c5c5"/><stop offset=".49" stop-color="#817e7f"/><stop offset=".73" stop-color="#4e4b4c"/><stop offset=".9" stop-color="#2f2b2c"/><stop offset="1" stop-color="#231f20"/></linearGradient><linearGradient id="l" x1="-1038.66" y1="610.21" x2="-1036.39" y2="613.87" gradientTransform="matrix(-.8 0 0 .8 -755.24 -452.72)" xlink:href="#d"/><linearGradient id="m" x1="-1151.11" y1="399.03" x2="-1148.84" y2="402.69" gradientTransform="matrix(0 -.8 -.8 0 376.31 -844)" xlink:href="#d"/><radialGradient id="n" cx="-365.1" cy="-953.55" r="18.73" gradientTransform="matrix(1 0 0 .1 432.82 171.43)" gradientUnits="userSpaceOnUse"><stop offset="0" stop-color="#adaab3"/><stop offset=".27" stop-color="#cdcbd1"/><stop offset=".56" stop-color="#e8e8ea"/><stop offset=".81" stop-color="#f9f9fa"/><stop offset="1" stop-color="#fff"/></radialGradient></defs><title>nutri-physical-us-logo</title><path d="M41.48 35.5c-2.47 3.75-1 10.27 4.4 19.37l1.66-1c-6.2-10.45-5.84-15.17-4.45-17.3 1.84-2.8 2.82-2.04 2.87-2l.25-1.9C46 32.6 44 31.7 41.48 35.5z" fill="url(#a)"/><path d="M41.48 35.5c-2.47 3.75-1 10.27 4.4 19.37l1.66-1c-6.2-10.45-5.84-15.17-4.45-17.3 1.84-2.8 2.82-2.04 2.87-2l.25-1.9C46 32.6 44 31.7 41.48 35.5z" fill="url(#a)"/><path d="M41.57 35.57a7.1 7.1 0 0 0-1.06 4c0 3.5 1.73 8.2 5.15 14.1l.52-.3c-3.37-5.8-5.06-10.42-5.06-13.78a6.56 6.56 0 0 1 1-3.68c1.63-2.46 1.44-2.42 2.86-2.38l.08-.6c-1.53-.08-1.65-.15-3.47 2.63z" fill="url(#b)"/><path d="M73.8 35.5c2.47 3.75 1 10.27-4.4 19.37l-1.66-1c6.2-10.47 5.84-15.2 4.45-17.3-1.86-2.83-3.18-2.06-3.22-2l-.25-1.92c.27-.06 2.54-.96 5.07 2.86z" fill="url(#e)"/><path d="M73.7 35.57a7.1 7.1 0 0 1 1.07 4c0 3.5-1.72 8.2-5.14 14.1l-.52-.3c3.38-5.8 5.07-10.42 5.07-13.78a6.55 6.55 0 0 0-1-3.68c-1.62-2.46-1.77-2.42-3.2-2.38l-.07-.6c1.53-.08 1.98-.15 3.8 2.63z" fill="url(#f)"/><path d="M44.95 53.1a.42.42 0 0 0-.27.56s5.15 11.78 12.54 12.57C62 66.73 70 54.5 70 54.5a.4.4 0 0 0-.13-.58l-1.75-1a.5.5 0 0 0-.64.15S61 63.7 57.53 63.34c-4.57-.5-10-10.57-10-10.57a.52.52 0 0 0-.6-.27z" fill="#231f20"/><path d="M44.95 53.1a.42.42 0 0 0-.27.56s5.15 11.78 12.54 12.57C62 66.73 70 54.5 70 54.5a.4.4 0 0 0-.13-.58l-1.75-1a.5.5 0 0 0-.64.15S61 63.7 57.53 63.34c-4.57-.5-10-10.57-10-10.57a.52.52 0 0 0-.6-.27z" fill="#404041"/><path d="M45.72 53.33c1.05 2.18 5.62 10.9 11.6 11.55 3 .32 8.58-6.35 11.64-10.9l-1-.55c-.5.8-1.87 2.9-3.52 5-3 3.77-5.28 5.52-7 5.33-4.63-.5-9.6-9-10.6-10.78z" fill="url(#g)"/><path d="M58.8 80.83C72.4 94.4 77.53 75.18 78 74.9l-.9-1.7C74 74.84 73 90.05 60 79.3c-2.07-1.73-2.63-5.14-1.47-10.4l-1.9-.4c-1.34 6.04-.3 9.85 2.18 12.33z" fill="#404041"/><path d="M57.24 72.85a9.26 9.26 0 0 0 2.5 6.9c3.53 3.5 6.72 5 9.48 4.46 4.47-.88 6.48-6.9 7.42-9.18l.24-.58-.13-.25a20.67 20.67 0 0 0-1.3 2.33c-1.35 2.74-2.58 6.15-6 6.87-2.7.57-5.88-.7-9.73-3.9-1.6-1.3-2.38-3.43-2.38-6.3a22.1 22.1 0 0 1 .43-4.08h-.16a20.62 20.62 0 0 0-.36 3.73z" fill="url(#h)"/><path fill="#404041" d="M75.75 73.88l1.04-1.62 2.58 1.66-1.04 1.62z"/><path d="M74.42 67.94a6.74 6.74 0 1 0 6.74-6.74 6.74 6.74 0 0 0-6.74 6.74zm1.48 0a5.26 5.26 0 1 1 5.26 5.26 5.26 5.26 0 0 1-5.26-5.26z" fill="url(#c)"/><path d="M75.8 67.94a5.35 5.35 0 1 0 5.36-5.35 5.36 5.36 0 0 0-5.35 5.34zm1.6 0a3.76 3.76 0 1 1 3.76 3.76 3.77 3.77 0 0 1-3.77-3.76z" fill="url(#i)"/><path d="M76.37 67.94a4.8 4.8 0 1 0 4.8-4.8 4.8 4.8 0 0 0-4.8 4.8zm1.9 0a2.9 2.9 0 1 1 2.9 2.9 2.9 2.9 0 0 1-2.9-2.9z" fill="url(#j)"/><circle cx="81.16" cy="67.91" r="2.91" fill="url(#k)"/><path d="M58.67 65.22a1.17 1.17 0 0 1 1.2 1.52S59.06 70 57.6 70s-2.24-3.26-2.24-3.26a1.17 1.17 0 0 1 1.2-1.52z" fill="#231f20"/><path d="M50.15 34.55a1.17 1.17 0 0 1-1.52 1.2s-3.25-.8-3.25-2.25 3.25-2.24 3.25-2.24a1.17 1.17 0 0 1 1.52 1.2zM64.77 34.4a1.17 1.17 0 0 0 1.52 1.2s3.24-.8 3.24-2.24-3.25-2.24-3.25-2.24a1.17 1.17 0 0 0-1.53 1.2z" fill="#404041"/><path d="M48.77 31.56S46 32.23 46 33.44a4.1 4.1 0 0 0 1.34.23 4.25 4.25 0 0 0 2.72-1v-.1a1 1 0 0 0-1.3-1z" fill="url(#d)"/><path d="M66.36 31.56s2.72.67 2.77 1.88a4.1 4.1 0 0 1-1.34.23 4.24 4.24 0 0 1-2.73-1v-.1a1 1 0 0 1 1.3-1z" fill="url(#l)"/><path d="M59.45 66.75s-.67 2.72-1.87 2.77a4.13 4.13 0 0 1-.23-1.34 4.24 4.24 0 0 1 1-2.7h.1a1 1 0 0 1 1 1.27z" fill="url(#m)"/><ellipse cx="67.71" cy="88.41" rx="18.74" ry="1.63" fill="url(#n)"/><path d="M137 26h10.46c7.6 0 9.54 4.58 9.54 8.32s-1.93 8.32-9.54 8.32h-6.43v13.13h-4zm4 13.1h5.3c3.2 0 6.4-.75 6.4-4.78s-3.2-4.8-6.4-4.8H141zM159.67 24h3.78v14.92h.08c1-2.1 3.5-3.57 6.56-3.57 3.86 0 7.22 2.3 7.22 7.6v12.82h-3.78V44c0-3.74-2.14-5.13-4.54-5.13-3.15 0-5.55 2-5.55 6.64v10.27h-3.78zM179.33 35.85h4.37l5.93 15.55h.08l5.64-15.55h4.08L190 60.05c-1.34 3.46-2.65 5.8-6.8 5.8a9.1 9.1 0 0 1-3.37-.54l.46-3.44a6.1 6.1 0 0 0 2.26.46c2.4 0 3.1-1.3 3.87-3.28l1.22-3.15zM212 40.85a5.05 5.05 0 0 0-4.08-2c-1.76 0-3.32.8-3.32 2.23 0 2.4 3.4 2.73 5.1 3.1 3.27.8 5.8 2.07 5.8 5.8 0 4.5-4.13 6.27-8.08 6.27-3.28 0-5.72-.84-7.7-3.53l2.87-2.35a6.6 6.6 0 0 0 4.82 2.35c1.93 0 4-.8 4-2.52 0-2.27-3.15-2.7-4.8-3.07-3.23-.8-6.08-1.85-6.08-5.67 0-4.16 3.82-6.14 7.57-6.14 2.66 0 5.4.92 6.82 3.28zM221 25.93a2.77 2.77 0 1 1-2.77 2.77 2.8 2.8 0 0 1 2.77-2.77zm-1.9 9.92h3.8v19.92h-3.8zM241.82 41.15a6.33 6.33 0 0 0-5-2.23c-4.12 0-6.22 3.32-6.22 7.06s2.52 6.77 6.43 6.77a5.9 5.9 0 0 0 4.83-2.23l2.7 2.7a9.8 9.8 0 0 1-7.56 3.06c-6.14 0-10.42-4.24-10.42-10.38s4.2-10.5 10.42-10.5a10.2 10.2 0 0 1 7.65 3.14zM246.6 38.3a11.75 11.75 0 0 1 7.9-2.95c5.9 0 8.33 3.2 8.33 6.64v10.16a30.7 30.7 0 0 0 .17 3.6h-3.36q-.13-1.5-.13-3h-.07a7.58 7.58 0 0 1-7 3.54c-3.7 0-6.9-2.1-6.9-6 0-5.13 4.93-6.9 11-6.9h2.78v-.83c0-2.06-1.5-4.2-4.74-4.2a8.27 8.27 0 0 0-5.67 2.27zm10.7 7.9c-3.58 0-7.95.62-7.95 3.8 0 2.28 1.68 3.25 4.3 3.25 4.2 0 5.66-3.1 5.66-5.8V46.2zM267.33 24h3.78v31.77h-3.77z" fill="#00a8cb"/><path d="M94.14 40.46H88.6v6.8c0 2.2.24 3.8 3 3.8a4.54 4.54 0 0 0 2.55-.6v5.25a13.05 13.05 0 0 1-4.4.64c-4.2 0-7.45-1.72-7.45-6.18v-9.7h-4v-5h4v-6.1h6.3v6.06h5.55zM96.9 35.42h6.3v3.28h.1c1.33-2.48 3.1-3.78 5.87-3.78a8.3 8.3 0 0 1 2.1.2v5.77a9.7 9.7 0 0 0-2.7-.43c-4.78 0-5.37 2.77-5.37 6.85v8.53h-6.3zM116.83 25.33a3.66 3.66 0 1 1-3.65 3.67 3.66 3.66 0 0 1 3.65-3.67zm-3.15 10.1H120v20.42h-6.3zM133.26 47.9h-10.34v-5h10.34zM8.87 26.1h8.9l12.66 20.67h.08V26.1h6.57v29.75H28.5l-13-21.18h-.08v21.18H8.87z" fill="#404041"/><path d="M283.95 28.63a4.5 4.5 0 1 1-4.47-4.4 4.42 4.42 0 0 1 4.47 4.4zm-7.9 0a3.42 3.42 0 0 0 3.43 3.5 3.36 3.36 0 0 0 3.35-3.47 3.4 3.4 0 1 0-6.77 0zm2.7 2.28h-1v-4.38a11.9 11.9 0 0 1 1.7-.13 2.34 2.34 0 0 1 1.5.34 1.1 1.1 0 0 1 .45.94 1.13 1.13 0 0 1-.9 1v.05c.42.13.63.48.77 1.07a3.9 3.9 0 0 0 .32 1.07h-1.1a3.47 3.47 0 0 1-.35-1.07c-.08-.45-.35-.67-.9-.67h-.5zm0-2.45h.48c.56 0 1-.2 1-.64s-.3-.66-.94-.66a2.43 2.43 0 0 0-.57.05z" fill="#00a8cb"/></svg>