<svg data-name="Layer 1" xmlns="http://www.w3.org/2000/svg" viewBox="0 0 288 108"><title>curcumin-extreme-uscan-hk-sg-logo</title><path d="M88.6 88.53H69.9V55.68h19.26v4.65H76v8.74h11.35v4.65H76v10.1h15.3zM121.45 88.53h-7l-8-11.9-8.3 11.9H91.4l11.68-17-10.9-15.85h7l7.36 10.8 7.46-10.8h6.84L109.92 71.5zM137.6 88.53h-6.1v-28.2h-10v-4.7h26.1v4.7h-10zM177 88.53h-6.84l-8.7-14.28a38.08 38.08 0 0 1-5 .2v14.08h-6V55.68h10.8a19.74 19.74 0 0 1 4.6.42 8.54 8.54 0 0 1 6.83 8.56 9.2 9.2 0 0 1-5.22 8.28zm-20.6-14.66l2.6-3.67a13.88 13.88 0 0 0 3.07-.14 4.93 4.93 0 0 0 4.33-5c0-3.58-2.74-4.9-5.86-4.9h-4.14zM199.1 88.53h-18.7V55.68h19.27v4.65H186.5v8.74h11.36v4.65H186.5v10.1h15.3zM243.73 88.53h-6.1l-2.28-23.9-11.07 23.9h-.65l-11-24-2.28 24h-5.8l3.57-32.84h6.23l9.8 21.57 9.7-21.58H240zM269 88.53h-18.7V55.68h19.26v4.65h-13.2v8.74h11.34v4.65h-11.35v10.1h15.3z" fill="#f6921e"/><path d="M28.47 53.06A28.94 28.94 0 0 1 21 54C8.7 54 2 46.3 2 36.92s6.84-17.45 18.88-17.45a25.38 25.38 0 0 1 9.12 1.6v5.62a14.86 14.86 0 0 0-8.6-2.7c-7.77 0-12.9 5.34-12.9 12.55s5 12.93 13.82 12.93a28.85 28.85 0 0 0 9.2-1.72zM63.87 20.3v20.43a13.5 13.5 0 0 1-1.77 7.58c-2.55 4.2-7.67 5.7-12.65 5.7-4.7 0-8.2-1.35-10.42-3.2-3.72-3.13-3.86-7.36-3.86-10.1V20.3h6.14v20.62c0 4.7 2.15 8.5 8.3 8.5 6.4 0 8.18-4.32 8.18-9.06v-20zM97.8 53.15H91l-8.7-14.28a37.85 37.85 0 0 1-5 .2v14.08h-6V20.3H82a19.76 19.76 0 0 1 4.6.43 8.55 8.55 0 0 1 6.85 8.56 9.2 9.2 0 0 1-5.2 8.27zM77.22 38.5l2.6-3.67a14 14 0 0 0 3.07-.14 4.93 4.93 0 0 0 4.33-5c0-3.6-2.74-4.9-5.86-4.9h-4.14zM125.43 53.06A28.93 28.93 0 0 1 118 54c-12.33 0-19-7.68-19-17.07s6.84-17.44 18.88-17.44a25.38 25.38 0 0 1 9.12 1.56v5.63a14.86 14.86 0 0 0-8.6-2.7c-7.78 0-12.9 5.34-12.9 12.55s5 12.93 13.83 12.93a28.86 28.86 0 0 0 9.2-1.72zM160.84 20.3v20.43a13.5 13.5 0 0 1-1.77 7.58c-2.56 4.2-7.68 5.7-12.65 5.7-4.7 0-8.2-1.35-10.42-3.2-3.72-3.13-3.86-7.36-3.86-10.1V20.3h6.14v20.62c0 4.7 2.14 8.5 8.28 8.5 6.42 0 8.2-4.32 8.2-9.06v-20zM206.25 53.15h-6.1l-2.27-23.9-11.08 23.9h-.65l-11-24-2.28 24h-5.8l3.57-32.84h6.23l9.8 21.6 9.68-21.6h6.14zM218.9 53.15h-6.13V20.3h6.14zM255.76 53.15h-2.14l-21.4-23.72.2 23.72h-6V20.3h5.7L250 40.7l-.2-20.38h6z" fill="#141212"/><path d="M277.76 55.36v1.07h-2.06v5.37h-1.28v-5.38h-2.06v-1.06zm7 6.44l-.28-3.8v-1.8h-.07c-.15.57-.34 1.33-.54 1.92l-1.16 3.58h-1.33l-1.2-3.7-.45-1.82h-.07v1.8l-.24 3.8h-1.22l.47-6.45h1.92l1.1 3.15c.15.5.27 1 .44 1.63.18-.58.32-1.13.46-1.6l1.1-3.17h1.86l.5 6.44z" fill="#e98024"/></svg>