<svg data-name="Layer 1" xmlns="http://www.w3.org/2000/svg" viewBox="0 0 288 108"><title>awake-us-logo</title><path d="M53.072 63.566H20.58l-7.03 10.486a3.142 3.142 0 0 1-1.154 1 3.21 3.21 0 0 1-3.452-.484 2.863 2.863 0 0 1-.544-3.606l24.31-36.43a5.055 5.055 0 0 1 1.846-1.7 4.82 4.82 0 0 1 4.426 0 4.6 4.6 0 0 1 1.786 1.7L65.2 70.9a1.96 1.96 0 0 1 .455.88 2.753 2.753 0 0 1-.852 2.758 3.444 3.444 0 0 1-3.513.39 3.556 3.556 0 0 1-1.242-1zm-29.157-5.15h25.64L36.888 38.17zM95.774 40.353L81.594 72.78a3.7 3.7 0 0 1-1.55 1.788 4.726 4.726 0 0 1-4.727 0A4.28 4.28 0 0 1 73.65 72.6L57.226 36.412a2.936 2.936 0 0 1 .91-3.153 3.57 3.57 0 0 1 3.82-.395 2.2 2.2 0 0 1 1.03 1.3l14.79 34L91.653 35.38a4.373 4.373 0 0 1 6.276-2.15 4.113 4.113 0 0 1 1.544 1.85l14.184 33.092 14.425-34a2.788 2.788 0 0 1 1.09-1.3 3.1 3.1 0 0 1 2.793-.214 4.224 4.224 0 0 1 1.056.607 3.033 3.033 0 0 1 .76.91 2.99 2.99 0 0 1 .122 2.3l-16.49 36.062a4 4 0 0 1-1.666 2 4.623 4.623 0 0 1-4.667.03 3.87 3.87 0 0 1-1.666-1.91zM170.715 63.566h-32.49L131.2 74.052a3.142 3.142 0 0 1-1.154 1 3.216 3.216 0 0 1-3.455-.484 2.863 2.863 0 0 1-.542-3.606l24.306-36.43a5.055 5.055 0 0 1 1.847-1.7 4.82 4.82 0 0 1 4.427 0 4.625 4.625 0 0 1 1.79 1.7L182.838 70.9a1.927 1.927 0 0 1 .454.88 2.748 2.748 0 0 1-.848 2.758 3.45 3.45 0 0 1-3.516.39 3.585 3.585 0 0 1-1.242-1zm-29.156-5.15h25.64L154.532 38.17zM198.56 53.5l31.34 16.674a3.37 3.37 0 0 1 1.15 1.09 2.423 2.423 0 0 1 .364 1.273 2.858 2.858 0 0 1-.757 1.91 2.42 2.42 0 0 1-1.908.88 2.992 2.992 0 0 1-1.576-.485L193.648 56.6v16.12q0 2.667-3.03 2.665-3.087 0-3.09-2.665V35.078q0-2.667 3.15-2.668 2.972 0 2.97 2.668v15.576L225.655 32.9a2.255 2.255 0 0 1 .818-.394 3.6 3.6 0 0 1 .818-.092 2.854 2.854 0 0 1 2.092.88 2.725 2.725 0 0 1 .88 1.97 2.41 2.41 0 0 1-.3 1.12 2.55 2.55 0 0 1-1.094 1zM241.42 51.506h37.28q2.184 0 2.182 2.6 0 2.546-2.182 2.55h-37.28v7.973q0 5.418 10.3 5.418h26.98q2.3 0 2.3 2.517t-2.3 2.514h-27.22q-16.427 0-16.424-10.184V43.2a8.652 8.652 0 0 1 4.24-7.85q4.244-2.638 12.792-2.638h7.4q2.18 0 2.182 2.607 0 2.426-2.182 2.424h-4.972q-13.09 0-13.09 5.456z" fill="#000810"/><path d="M271.877 35.24a3.23 3.23 0 1 1-3.224-3.225 3.227 3.227 0 0 1 3.224 3.224zm-5.933 0a2.7 2.7 0 1 0 2.708-2.7 2.7 2.7 0 0 0-2.708 2.7zm4.04 1.91h-.657l-.966-1.414v1.415h-.533V33.4h.638c.806 0 1.237.375 1.237 1.068a.964.964 0 0 1-.862 1.02zM268.53 35c.414 0 .628-.187.628-.544 0-.374-.206-.543-.675-.543h-.122V35z" fill="#000810"/></svg>