<?xml version="1.0" encoding="utf-8"?>
<!-- Generator: Adobe Illustrator 22.0.1, SVG Export Plug-In . SVG Version: 6.00 Build 0)  -->
<!DOCTYPE svg PUBLIC "-//W3C//DTD SVG 1.1//EN" "http://www.w3.org/Graphics/SVG/1.1/DTD/svg11.dtd">
<svg version="1.1" id="Layer_1" xmlns="http://www.w3.org/2000/svg" xmlns:xlink="http://www.w3.org/1999/xlink" x="0px" y="0px"
	 viewBox="0 0 200 75" style="enable-background:new 0 0 200 75;" xml:space="preserve">
<g>
	<path d="M61.9,24.2c0,12.7-10.4,22.8-23,22.8s-23-10.1-23-22.8c0-12.6,10.4-22.9,23-22.9S61.9,11.5,61.9,24.2z M20.8,24.1
		c0,10,8.1,18.3,18.1,18.3c10,0,18.1-8.3,18.1-18.3c0-10-8-18.3-18.1-18.3C28.7,5.9,20.8,14.1,20.8,24.1z"/>
	<path d="M73.5,46.2h-4.9V2.1h7.3c3.8,0,7.7,0.1,11,2.3c3.3,2.3,5,6.1,5,10.1c0,3.6-1.5,7.2-4.2,9.5c-3,2.5-6.8,2.9-10.5,2.9h-3.6
		V46.2z M73.5,22.3h3.3c5.4,0,10.1-1.6,10.1-8c0-7.2-5.8-7.7-11.5-7.7h-1.8V22.3z"/>
	<path d="M131.7,11.7c-3.5-3.6-8.4-5.9-13.5-5.9c-9.8,0-17.8,8.6-17.8,18.3c0,9.7,8,18.3,17.9,18.3c5,0,9.8-2.3,13.4-5.9v6.1
		c-3.8,2.8-8.5,4.3-13.2,4.3c-12.5,0-23-10.1-23-22.7c0-12.6,10.4-23,23-23c4.9,0,9.3,1.4,13.2,4.3V11.7z"/>
	<path d="M145.3,23.3v4.3h-12v-4.3H145.3z"/>
	<path d="M160.1,20.7c4.7-0.2,8.7-1.6,8.7-7.1c0-4.7-3.1-7.7-7.7-7.7c-4.4,0-6.9,2.9-7.3,7.1H149c0.7-7,5-11.7,12.2-11.7
		c7.1,0,12.5,4.8,12.5,12.1c0,3.9-2.1,7.8-5.7,9.7c4.3,1.9,6.3,6.3,6.3,10.8c0,7.7-6.1,13.1-13.7,13.1c-7.1,0-13-4.9-13.1-12.2h4.8
		c0.2,4.5,4,7.7,8.5,7.7c4.9,0,8.6-4,8.6-8.8c0-5.6-4-8.4-9.4-8.3V20.7z"/>
	<path d="M178,4.2c0-1.6,1.3-2.8,2.8-2.8c1.6,0,2.8,1.3,2.8,2.8S182.4,7,180.8,7C179.3,7,178,5.8,178,4.2z M183.3,4.2
		c0-1.3-1.1-2.4-2.4-2.4s-2.4,1.1-2.4,2.4c0,1.3,1.1,2.4,2.4,2.4S183.3,5.5,183.3,4.2z M182.2,5.7h-0.5l-0.9-1.4h-0.5v1.4h-0.4V2.6
		h1.3c0.6,0,1.1,0.2,1.1,0.8c0,0.6-0.4,0.8-1,0.8L182.2,5.7z M180.7,3.9c0.4,0,1.1,0.1,1.1-0.4c0-0.3-0.4-0.4-0.8-0.4h-0.8v0.8
		H180.7z"/>
	<g>
		<path d="M70.4,64.9c-1.4-1.5-2.4-2-3.9-2c-2.5,0-4.3,2-4.3,4.5c0,2.6,1.9,4.5,4.3,4.5c1.6,0,2.6-0.5,4.1-2.1v2.8
			c-1.5,1-2.5,1.3-4,1.3c-3.7,0-6.5-2.8-6.5-6.5c0-3.7,2.9-6.5,6.6-6.5c1.4,0,2.5,0.3,3.8,1.2V64.9z"/>
		<path d="M76.1,51.9v10.8c1.1-1.2,2.1-1.7,3.6-1.7c1.5,0,2.8,0.7,3.5,1.7c0.5,0.7,0.7,1.7,0.7,3.3v7.6h-2.1v-7.5
			c0-2.3-0.7-3.2-2.6-3.2c-2.2,0-3.1,1.3-3.1,4.5v6.2H74V51.9H76.1z"/>
		<path d="M89.3,67.8c0.1,2.5,1.7,4.2,3.9,4.2c1.6,0,2.6-0.7,3.8-2.6l1.8,1c-1.4,2.4-3.2,3.5-5.7,3.5c-3.6,0-6-2.7-6-6.5
			c0-3.8,2.5-6.4,6-6.4c3.5,0,5.9,2.6,5.9,6.5v0.4H89.3z M96.8,66c-0.4-1.9-1.8-3.2-3.6-3.2c-1.8,0-3.3,1.3-3.6,3.2H96.8z"/>
		<path d="M106,69.6l3.9-9.3l3.8,9.3l3.7-8.4h2.4l-6.1,13.2l-3.8-9.2l-3.8,9.2L100,61.2h2.4L106,69.6z"/>
		<path d="M126.7,64.1c-0.4-0.8-1-1.2-1.7-1.2c-0.8,0-1.5,0.6-1.5,1.3c0,0.7,0.4,1.1,2,1.8c3,1.2,3.7,2,3.7,3.9c0,2.3-1.8,4-4.2,4
			c-2.1,0-3.5-1-4.3-3.2l1.9-0.8c0.7,1.5,1.3,2,2.5,2c1.1,0,2-0.8,2-1.9c0-1-0.4-1.4-2-2.1c-2.9-1.2-3.6-2-3.6-3.6
			c0-2,1.5-3.4,3.7-3.4c1.4,0,2.6,0.7,3.3,2.2L126.7,64.1z"/>
	</g>
</g>
</svg>
