<svg xmlns="http://www.w3.org/2000/svg" viewBox="0 0 354.9 315.43"><defs><style>.cls-1{fill:#65bc46;}.cls-2{fill:#373d49;}</style></defs><title>Asset 1</title><g id="Layer_2" data-name="Layer 2"><g id="Layer_1-2" data-name="Layer 1"><path class="cls-1" d="M255.24,34.6a116.05,116.05,0,0,0-94.17-34l-9.18.9,6.52,6.58,78,78.71c9.41,9.49,12,20.64,7.73,33.16-4.12,12.09-12.89,19-26.06,20.46-9.71,1.1-18.56-2.27-26.3-10Q179.35,117.94,167,105.42,157.39,95.7,147.75,86c-9.35-9.4-17.41-9.36-26.93.15-1,1-9.73,9.82-23,23.23L61.14,146.46l-1.82,1.82.71,2.49A117.79,117.79,0,0,0,73.46,181l2.76,4.43,3.85-3.52a101.49,101.49,0,0,1,141,3.55,103,103,0,0,1,17.61,23.85L241.1,214l4.06-3.26a121.62,121.62,0,0,0,10.08-9C300.86,155.59,300.86,80.65,255.24,34.6Zm-6.16,160.83c-1.7,1.72-3.52,3.43-5.42,5.1a111,111,0,0,0-95-54.12,109.93,109.93,0,0,0-70.45,25.53,108.71,108.71,0,0,1-9.09-21.13L104,115.58c12.77-12.92,22-22.25,23-23.19,6.19-6.18,8.66-6.21,14.67-.17q9.63,9.69,19.24,19.41,12.38,12.51,24.79,25c9.7,9.72,20.94,13.93,33.4,12.51,16.56-1.87,28.09-11,33.33-26.32,5.37-15.75,2-30.35-9.81-42.25C231.3,69.2,201.82,39.43,171.47,8.8a107.44,107.44,0,0,1,77.61,32C291.31,83.44,291.31,152.8,249.08,195.43Z"/><path class="cls-1" d="M114.23,71.5c13.35-11,30.41-9.83,43.45,3.06,8.1,8,16.25,16.26,24.13,24.24,6.69,6.78,13.61,13.79,20.48,20.63,7.33,7.29,15.64,8.34,22.8,2.87a15.44,15.44,0,0,0,6.16-11.3,18.46,18.46,0,0,0-5.65-14.23c-9.26-9.48-18.76-19-27.94-28.28L186,56.69,135.69,6l-2.6.93A115.89,115.89,0,0,0,89.75,34.6a117.74,117.74,0,0,0-34.24,85L55.64,130l7.3-7.36C107.79,77.46,113.53,72.07,114.23,71.5ZM95.91,40.81a107.22,107.22,0,0,1,37.54-24.69L179.8,62.91l11.71,11.8c9.17,9.23,18.65,18.78,27.9,28.23a10,10,0,0,1,3.15,7.43,6.69,6.69,0,0,1-2.73,4.93c-2.44,1.86-6,3.31-11.42-2.13-6.85-6.82-13.76-13.81-20.43-20.58-7.9-8-16.07-16.27-24.21-24.31C155,59.61,144.49,55.22,134,55.22a39.56,39.56,0,0,0-25.32,9.48c-2,1.64-16.81,16.38-44.1,43.86A108.74,108.74,0,0,1,95.91,40.81Z"/><path class="cls-1" d="M209.32,197.3A85.21,85.21,0,0,0,90,195.47l-3.28,3.11,3.19,3.2a116.34,116.34,0,0,0,133,23l4.06-1.95-2.06-4A86.15,86.15,0,0,0,209.32,197.3ZM99.39,198.79a76.55,76.55,0,0,1,103.77,4.73,77.23,77.23,0,0,1,11.73,15.22A107.77,107.77,0,0,1,99.39,198.79Z"/><path class="cls-2" d="M19,293c0,2.9-2.15,5.11-5.83,5.11H7.35V287.81H13c3.68,0,6,1.78,6,5.11Zm-5.35-11.9H0v33.74H7.35V304.73h5.59c7.5,0,13.52-4.05,13.52-11.86v-.1c0-6.89-4.83-11.66-12.8-11.66"/><path class="cls-2" d="M52.34,292.72c0,2.85-2.05,4.78-5.64,4.78H39.25v-9.69h7.31c3.58,0,5.78,1.64,5.78,4.82Zm7.45-.38v-.1a10.62,10.62,0,0,0-2.87-7.71c-2.19-2.22-5.49-3.42-9.74-3.42H31.9v33.74h7.35v-10.8H45l7.17,10.8h8.59L52.63,302.8a10.47,10.47,0,0,0,7.16-10.46"/><path class="cls-2" d="M92.79,298.07c0,5.79-4.11,10.51-10,10.51S72.63,303.76,72.63,298v-.1c0-5.78,4.11-10.51,10-10.51S92.79,292.19,92.79,298Zm-10-17.54A17.36,17.36,0,0,0,64.94,298v.09c0,9.6,7.41,17.36,17.72,17.36A17.37,17.37,0,0,0,100.48,298v-.1c0-9.59-7.4-17.35-17.72-17.35"/><path class="cls-2" d="M132,305.64c0,4.25-3.63,6.9-9.36,6.9H110.46V299h11.31c6.59,0,10.18,2.41,10.18,6.56Zm-21.49-22.22h11.27c5.35,0,8.35,2.51,8.35,6.22v.09c0,4.49-3.58,6.95-8.59,6.95h-11Zm16.47,14.08c2.72-1.11,5.68-3.43,5.68-8v-.09a7.34,7.34,0,0,0-2.14-5.31c-1.87-1.88-4.92-3-8.7-3H108v33.74h14.52c7.21,0,12-3.57,12-9.21v-.09c0-4.68-3.54-7-7.55-8.05"/><rect class="cls-2" x="142.79" y="281.11" width="2.48" height="33.75"/><path class="cls-2" d="M185.1,298.07c0,8.34-5.93,15.09-14.19,15.09s-14.28-6.84-14.28-15.18v-.1c0-8.34,5.93-15.09,14.19-15.09S185.1,289.64,185.1,298Zm-14.19-17.54c-10.12,0-16.86,8.24-16.86,17.45v.09c0,9.21,6.64,17.36,16.77,17.36s16.86-8.24,16.86-17.45c0-.05,0-.05,0-.1,0-9.21-6.64-17.35-16.77-17.35"/><polygon class="cls-2" points="191.12 283.42 202.77 283.42 202.77 314.85 205.25 314.85 205.25 283.42 216.91 283.42 216.91 281.11 191.12 281.11 191.12 283.42"/><rect class="cls-2" x="224.78" y="281.11" width="2.48" height="33.75"/><path class="cls-2" d="M252.77,313.16c-8,0-14.14-6.65-14.14-15.18v-.1c0-8.48,6.07-15.09,14.09-15.09,5,0,8.36,2.12,11.27,5l1.77-1.83c-3.44-3.19-7-5.4-13-5.4-9.65,0-16.72,7.9-16.72,17.45v.09c0,9.69,7.07,17.36,16.62,17.36,5.92,0,9.74-2.36,13.28-5.88l-1.67-1.64c-3.39,3.37-6.69,5.25-11.51,5.25"/><path class="cls-2" d="M284.19,296.72c-7.93-1.63-9.74-3.8-9.74-7.37v-.1c0-3.52,3.24-6.36,8.16-6.36a14.33,14.33,0,0,1,10,3.81l1.57-2a16.56,16.56,0,0,0-11.46-4.1c-6.21,0-10.75,3.86-10.75,8.87v.1c0,5.11,3.25,7.86,11.28,9.5,7.59,1.54,9.45,3.61,9.45,7.18v.1c0,3.85-3.44,6.7-8.45,6.7s-8.31-1.59-12-5l-1.62,1.88a18.92,18.92,0,0,0,13.47,5.4c6.44,0,11.07-3.76,11.07-9.2V306c0-4.92-3.24-7.71-11-9.31"/><polygon class="cls-2" points="314.13 280.86 309.12 280.86 299.52 283.76 301.05 289.83 306.87 288.38 306.87 296.98 314.13 296.98 314.13 280.86"/><rect class="cls-2" x="306.87" y="300.89" width="7.26" height="13.96"/><path class="cls-2" d="M335.91,287.23c4.15,0,7,4.13,7.32,9.75h7.54c-.35-9.34-6.2-16.45-14.77-16.45s-14.46,7.15-14.86,16.45h7.54c.26-5.7,3.05-9.75,7.23-9.75"/><path class="cls-2" d="M336,308.73c-3.7,0-6.34-3.2-7.11-7.84h-7.6c1,8.38,6.57,14.54,14.62,14.54s13.64-6.19,14.7-14.54H343c-.73,4.64-3.31,7.84-7,7.84"/><path class="cls-2" d="M349.71,281.56h-1v-.37h2.5v.37h-1v3h-.44Z"/><path class="cls-2" d="M354.39,283.08c0-.47-.05-1-.05-1.45h0c-.12.39-.26.81-.43,1.28l-.59,1.64H353l-.55-1.61c-.16-.48-.29-.91-.39-1.31h0c0,.42,0,1-.06,1.49l-.09,1.45h-.42l.24-3.38h.55l.58,1.63c.14.42.25.79.34,1.14h0c.09-.34.21-.71.36-1.14l.6-1.63h.55l.21,3.38h-.42Z"/></g></g></svg>