<svg xmlns="http://www.w3.org/2000/svg" viewBox="0 0 200 75"><title>Thymenol</title><path d="M165.68,69.47a32.09,32.09,0,0,0,0-64.18H34.13a32.09,32.09,0,0,0,0,64.18Z" fill="none" stroke="#3c1952" stroke-miterlimit="10" stroke-width="2.31"/><path d="M165.46,64.35H34.32a27,27,0,0,1,0-53.94H165.46a27,27,0,0,1,0,53.94Z" fill="#3c1952" stroke="#3c1952" stroke-miterlimit="10" stroke-width="2.31"/><line x1="99.91" y1="5.29" x2="99.91" y2="10.41" fill="none" stroke="#3c1952" stroke-miterlimit="10" stroke-width="2.31"/><line x1="99.91" y1="64.35" x2="99.91" y2="69.47" fill="none" stroke="#3c1952" stroke-miterlimit="10" stroke-width="2.31"/><path d="M41.82,35.71V32h-4V27.62H33.19V32H30.25v3.68h2.94v7.06a4.9,4.9,0,0,0,.41,2.09A4.22,4.22,0,0,0,36.46,47a9.59,9.59,0,0,0,5.36-.22V43a1.66,1.66,0,0,1-.9.35,4.12,4.12,0,0,1-2.15-.12,1.35,1.35,0,0,1-.65-.57,2.08,2.08,0,0,1-.28-.87,9.59,9.59,0,0,1-.06-1.12V35.71Z" fill="#fff"/><path d="M58.86,35.92a6,6,0,0,0-.81-2.24,4.05,4.05,0,0,0-1.66-1.48A6.34,6.34,0,0,0,52,31.88a4.74,4.74,0,0,0-1.22.55,4.19,4.19,0,0,0-.89.76,2.74,2.74,0,0,0-.52.86h-.06V23.77H44.76V46.91h4.59V39.5a5.46,5.46,0,0,1,.47-2.62,2.21,2.21,0,0,1,.84-.85,2.82,2.82,0,0,1,2.8,0,2.25,2.25,0,0,1,.71,1,4.28,4.28,0,0,1,.27,1.27c0,.46.05.9.05,1.33v7.29h4.59V38.7A16.15,16.15,0,0,0,58.86,35.92Z" fill="#fff"/><path d="M72.3,32,69,41.86H69L65.14,32h-5L66.7,47l-.34.86c-.16.4-.31.76-.45,1.07a3.18,3.18,0,0,1-.54.78,2,2,0,0,1-.81.49,5.12,5.12,0,0,1-3.4-.29l-.61,3.76a11.14,11.14,0,0,0,6.09.23,4.33,4.33,0,0,0,1.67-1,5,5,0,0,0,1.08-1.54c.29-.62.59-1.32.89-2.12L77,32Z" fill="#fff"/><path d="M102.47,35.6a5.84,5.84,0,0,0-.86-2.05A4.21,4.21,0,0,0,100,32.17a5.68,5.68,0,0,0-2.53-.51,5.74,5.74,0,0,0-2.78.62,4.88,4.88,0,0,0-1.93,2,4.1,4.1,0,0,0-1.82-2,5.81,5.81,0,0,0-2.77-.65,5.33,5.33,0,0,0-1.53.22,5.57,5.57,0,0,0-1.26.55,5.19,5.19,0,0,0-1,.76,4,4,0,0,0-.61.86h-.06V32H79.34V46.91h4.59V39.5a10.63,10.63,0,0,1,.1-1.41,3.37,3.37,0,0,1,.38-1.21,2.14,2.14,0,0,1,.84-.85,2.79,2.79,0,0,1,1.44-.32,1.8,1.8,0,0,1,1.21.36,2.14,2.14,0,0,1,.59.89,3.65,3.65,0,0,1,.22,1.1c0,.39,0,.72,0,1v7.87h4.59V39a6,6,0,0,1,.14-1.29,3,3,0,0,1,.46-1.07,2.31,2.31,0,0,1,.85-.72,3.11,3.11,0,0,1,1.34-.25,1.66,1.66,0,0,1,1.57.74,3.42,3.42,0,0,1,.45,1.79v8.67h4.59V38.12A11.88,11.88,0,0,0,102.47,35.6Z" fill="#fff"/><path d="M120.28,44.34a7.48,7.48,0,0,1-2.79,2.17,8.31,8.31,0,0,1-3.49.76,9.33,9.33,0,0,1-3.23-.55,7.74,7.74,0,0,1-2.63-1.57,7.57,7.57,0,0,1-1.76-2.47,8.37,8.37,0,0,1,0-6.42,7.57,7.57,0,0,1,1.76-2.47,7.74,7.74,0,0,1,2.63-1.57,9.33,9.33,0,0,1,3.23-.56,7.27,7.27,0,0,1,2.89.56,6,6,0,0,1,2.21,1.57,7.35,7.35,0,0,1,1.39,2.47,9.83,9.83,0,0,1,.49,3.21v1.44H110.33A3.59,3.59,0,0,0,111.52,43a3.73,3.73,0,0,0,4.18.28,5.24,5.24,0,0,0,1.36-1.3Zm-3.89-6.55a2.62,2.62,0,0,0-.77-2,2.72,2.72,0,0,0-2.05-.83,3.45,3.45,0,0,0-1.34.24,3.71,3.71,0,0,0-1,.63,2.81,2.81,0,0,0-.64.89,3,3,0,0,0-.26,1.06Z" fill="#fff"/><path d="M138,35.92a6,6,0,0,0-.81-2.24,4.05,4.05,0,0,0-1.66-1.48,6.32,6.32,0,0,0-2.82-.54,5.33,5.33,0,0,0-1.53.22,5.57,5.57,0,0,0-1.26.55,4.8,4.8,0,0,0-.94.76,4.1,4.1,0,0,0-.62.86h-.06V32h-4.4V46.91h4.59V39.5a10.67,10.67,0,0,1,.09-1.41,3.58,3.58,0,0,1,.38-1.21,2.21,2.21,0,0,1,.84-.85,2.79,2.79,0,0,1,1.44-.32,2.2,2.2,0,0,1,1.36.36,2.25,2.25,0,0,1,.71,1,4.28,4.28,0,0,1,.27,1.27c0,.46.05.9.05,1.33v7.29h4.59V38.7A16.15,16.15,0,0,0,138,35.92Z" fill="#fff"/><path d="M141.18,39.47a7.77,7.77,0,0,1,.64-3.21,7.43,7.43,0,0,1,1.76-2.47,7.64,7.64,0,0,1,2.63-1.57,9.6,9.6,0,0,1,6.46,0,7.74,7.74,0,0,1,2.63,1.57,7.57,7.57,0,0,1,1.76,2.47,8.37,8.37,0,0,1,0,6.42,7.57,7.57,0,0,1-1.76,2.47,7.74,7.74,0,0,1-2.63,1.57,9.76,9.76,0,0,1-6.46,0,7.64,7.64,0,0,1-2.63-1.57,7.43,7.43,0,0,1-1.76-2.47A7.77,7.77,0,0,1,141.18,39.47Zm4.59,0a3.85,3.85,0,0,0,1,2.72,4.05,4.05,0,0,0,5.42,0,4.33,4.33,0,0,0,0-5.44,4.05,4.05,0,0,0-5.42,0A3.85,3.85,0,0,0,145.77,39.47Z" fill="#fff"/><rect x="160.64" y="23.77" width="4.59" height="23.14" fill="#fff"/><path d="M167.24,44.53h-.86v-.31h2.08v.31h-.86v2.38h-.36Zm1.7-.31h.56l.85,2.14.84-2.14h.54v2.69h-.35V44.55h0l-.93,2.36h-.21l-.92-2.36h0v2.36h-.35Z" fill="#fff" stroke="#fff" stroke-miterlimit="10" stroke-width="0.06"/></svg>