<svg xmlns="http://www.w3.org/2000/svg" viewBox="0 0 288 108"><title>cannabiquin-logo-tm</title><path d="M4.55,48.11h0A12.79,12.79,0,0,1,17.07,35.05h.64a13,13,0,0,1,10,3.89L24.14,43a9.31,9.31,0,0,0-6.47-2.84,7.47,7.47,0,0,0-7.33,7.62,1.93,1.93,0,0,1,0,.24h0a7.5,7.5,0,0,0,7,7.92h.28a9.09,9.09,0,0,0,6.64-3l3.54,3.63A12.93,12.93,0,0,1,17.5,61.16,12.8,12.8,0,0,1,4.55,48.53Z" fill="#789a3d" stroke="#789a3d" stroke-miterlimit="10" stroke-width="0.3"/><path d="M40.58,35.32H45.7L56.53,60.74H50.69l-2.3-5.68H37.73l-2.31,5.68H29.74Zm5.84,14.81-3.35-8.19-3.35,8.19Z" fill="#789a3d" stroke="#789a3d" stroke-miterlimit="10" stroke-width="0.3"/><path d="M60.05,35.45h5.13L77,51V35.45H82.5V60.69H77.76l-12.22-16v16H60.05Z" fill="#789a3d" stroke="#789a3d" stroke-miterlimit="10" stroke-width="0.3"/><path d="M88.19,35.45h5.14L105.15,51V35.45h5.47V60.69H105.9l-12.22-16v16H88.19Z" fill="#789a3d" stroke="#789a3d" stroke-miterlimit="10" stroke-width="0.3"/><path d="M125,35.32h5.13l10.81,25.42h-5.8l-2.31-5.68H122.13l-2.3,5.68h-5.68Zm5.85,14.86-3.4-8.24-3.35,8.19Z" fill="#789a3d" stroke="#789a3d" stroke-miterlimit="10" stroke-width="0.3"/><path d="M144.49,35.45h11.73a9.1,9.1,0,0,1,6.59,2.23,5.77,5.77,0,0,1,1.73,4.26V42a5.86,5.86,0,0,1-3.32,5.45c2.93,1.12,4.73,2.84,4.73,6.21h0c0,4.62-3.75,6.92-9.45,6.92h-12ZM155,45.65c2.46,0,4-.8,4-2.67v-.07c0-1.67-1.31-2.6-3.65-2.6H149.9v5.34Zm1.42,10.18c2.46,0,3.94-.87,3.94-2.75h0c0-1.7-1.27-2.74-4.12-2.74h-6.41V55.9Z" fill="#789a3d" stroke="#789a3d" stroke-miterlimit="10" stroke-width="0.3"/><path d="M170.4,35.45h5.54V60.69H170.4Z" fill="#789a3d" stroke="#789a3d" stroke-miterlimit="10" stroke-width="0.3"/><path d="M204.44,61.44,201.6,59a13.77,13.77,0,0,1-7.37,2.18A12.94,12.94,0,0,1,180.8,48.72c0-.21,0-.41,0-.61h0a13.42,13.42,0,0,1,26.83,0h0a13,13,0,0,1-2.24,7.25l2.6,2.2Zm-6.88-6.12-4.12-3.5,3.54-4,4.15,3.76a9.17,9.17,0,0,0,.68-3.47v0a7.68,7.68,0,0,0-7.37-8h-.21a7.55,7.55,0,0,0-7.58,7.51c0,.11,0,.23,0,.35h0a7.79,7.79,0,0,0,11,7.24Z" fill="#114734" stroke="#114734" stroke-miterlimit="10" stroke-width="0.5"/><path d="M211.8,49.87V35.45h5.56V49.73c0,4.11,2.06,6.24,5.44,6.24s5.44-2.06,5.44-6.07V35.45h5.56V49.66c0,7.64-4.26,11.37-11.07,11.37S211.8,57.3,211.8,49.87Z" fill="#114734" stroke="#114734" stroke-miterlimit="10" stroke-width="0.5"/><path d="M239.36,35.45h5.56V60.69h-5.56Z" fill="#114734" stroke="#114734" stroke-miterlimit="10" stroke-width="0.5"/><path d="M250.87,35.45H256L267.81,51V35.45h5.49V60.69h-4.74l-12.22-16v16h-5.47Z" fill="#114734" stroke="#114734" stroke-miterlimit="10" stroke-width="0.5"/><path d="M23.76,66H25.9l1.89,6.18L29.84,66h1.72l2.07,6.2L35.52,66h2.11l-3.14,9.19H32.74l-2.06-6-2.06,6H26.87Z" fill="#114734" stroke="#114734" stroke-miterlimit="10" stroke-width="0.2"/><path d="M39.49,66h2v9.12h-2Z" fill="#114734" stroke="#114734" stroke-miterlimit="10" stroke-width="0.2"/><path d="M46.22,67.85H43.45V66H51v1.86H48.17v7.26h-2Z" fill="#114734" stroke="#114734" stroke-miterlimit="10" stroke-width="0.2"/><path d="M52.86,66H55V69.6h3.7V66h2v9.12H58.58V71.46H55v3.65H52.86Z" fill="#114734" stroke="#114734" stroke-miterlimit="10" stroke-width="0.2"/><path d="M67.33,66h6.94v1.83H69.33v1.93h4.35v1.84H69.33v3.52h-2Z" fill="#114734" stroke="#114734" stroke-miterlimit="10" stroke-width="0.2"/><path d="M76.06,71.2V66h2v5.16c0,1.42.74,2.26,2,2.26S82,72.67,82,71.22V66h2v5.16a3.66,3.66,0,0,1-3.18,4.09,3.83,3.83,0,0,1-.83,0A3.61,3.61,0,0,1,76,72,3.32,3.32,0,0,1,76.06,71.2Z" fill="#114734" stroke="#114734" stroke-miterlimit="10" stroke-width="0.2"/><path d="M86.36,66h2v7.3h4.55v1.82H86.36Z" fill="#114734" stroke="#114734" stroke-miterlimit="10" stroke-width="0.2"/><path d="M94.75,66h2v7.3h4.55v1.82H94.75Z" fill="#114734" stroke="#114734" stroke-miterlimit="10" stroke-width="0.2"/><path d="M106.76,73.79l1.18-1.42a4.27,4.27,0,0,0,2.72,1.11c.81,0,1.31-.33,1.31-.87h0c0-.5-.31-.77-1.83-1.15-1.84-.47-3-1-3-2.84h0a2.85,2.85,0,0,1,2.9-2.79,2.31,2.31,0,0,1,.37,0A5.32,5.32,0,0,1,113.76,67l-1,1.5a4.29,4.29,0,0,0-2.38-.89c-.77,0-1.16.35-1.16.79h0c0,.6.38.8,2,1.2,1.85.48,2.84,1.15,2.84,2.74h0c0,1.82-1.42,2.84-3.35,2.84A5.79,5.79,0,0,1,106.76,73.79Z" fill="#114734" stroke="#114734" stroke-miterlimit="10" stroke-width="0.2"/><path d="M116.06,66h3.7a3.12,3.12,0,0,1,3.47,2.73,3,3,0,0,1,0,.42h0c0,2.12-1.65,3.22-3.7,3.22H118v2.75h-2Zm3.6,4.6a1.41,1.41,0,0,0,1.58-1.24,1.09,1.09,0,0,0,0-.18h0c0-.89-.62-1.42-1.63-1.42H118v2.84Z" fill="#114734" stroke="#114734" stroke-miterlimit="10" stroke-width="0.2"/><path d="M125.06,66h6.88v1.79h-4.89v1.85h4.26v1.79h-4.26v1.92h5v1.77h-6.95Z" fill="#114734" stroke="#114734" stroke-miterlimit="10" stroke-width="0.2"/><path d="M133.72,70.58h0a4.63,4.63,0,0,1,4.54-4.72h.2a4.75,4.75,0,0,1,3.6,1.42l-1.27,1.42a3.36,3.36,0,0,0-2.34-1,2.7,2.7,0,0,0-2.65,2.75.28.28,0,0,0,0,.09h0a2.7,2.7,0,0,0,2.58,2.84h.06a3.26,3.26,0,0,0,2.4-1.06l1.28,1.29a4.65,4.65,0,0,1-3.74,1.62,4.58,4.58,0,0,1-4.67-4.5Z" fill="#114734" stroke="#114734" stroke-miterlimit="10" stroke-width="0.2"/><path d="M146.18,67.85h-2.84V66h7.56v1.86h-2.84v7.26h-2Z" fill="#114734" stroke="#114734" stroke-miterlimit="10" stroke-width="0.2"/><path d="M152.82,66H157a3.67,3.67,0,0,1,2.67.92,3,3,0,0,1,.79,2.09h0a2.83,2.83,0,0,1-2,2.84l2.24,3.27h-2.35l-2-2.84h-1.58v2.84h-2Zm4,4.43c1,0,1.55-.52,1.55-1.29h0c0-.87-.61-1.31-1.57-1.31h-2v2.6Z" fill="#114734" stroke="#114734" stroke-miterlimit="10" stroke-width="0.2"/><path d="M162.43,71.2V66h2v5.16c0,1.42.74,2.26,2,2.26s2-.74,2-2.19V66h2v5.16a3.66,3.66,0,0,1-3.18,4.09,3.84,3.84,0,0,1-.83,0A3.61,3.61,0,0,1,162.41,72,3.32,3.32,0,0,1,162.43,71.2Z" fill="#114734" stroke="#114734" stroke-miterlimit="10" stroke-width="0.2"/><path d="M172.73,66h2.17l2.39,3.86,2.4-3.86h2.16v9.12h-2v-6l-2.57,3.89h0l-2.54-3.85v5.91h-2Z" fill="#114734" stroke="#114734" stroke-miterlimit="10" stroke-width="0.2"/><path d="M188.55,66h2V69.6h3.7V66h2v9.12h-2V71.46h-3.7v3.65h-2Z" fill="#114734" stroke="#114734" stroke-miterlimit="10" stroke-width="0.2"/><path d="M198.82,66h6.88v1.79h-4.89v1.85h4.27v1.79h-4.27v1.92h5v1.77h-7Z" fill="#114734" stroke="#114734" stroke-miterlimit="10" stroke-width="0.2"/><path d="M207.88,66H210l2.4,3.86,2.4-3.86H217v9.12h-2v-6l-2.57,3.89h0l-2.54-3.85v5.91h-2Z" fill="#114734" stroke="#114734" stroke-miterlimit="10" stroke-width="0.2"/><path d="M219.5,66h3.74a3.1,3.1,0,0,1,3.46,2.72,2.07,2.07,0,0,1,0,.43h0a3.25,3.25,0,0,1-3.27,3.24l-.41,0h-1.52v2.75h-2Zm3.6,4.6a1.41,1.41,0,0,0,1.58-1.24,1.09,1.09,0,0,0,0-.18h0c0-.89-.62-1.42-1.62-1.42h-1.55v2.84Z" fill="#114734" stroke="#114734" stroke-miterlimit="10" stroke-width="0.2"/><path d="M232.37,70.58h0a4.85,4.85,0,1,1,9.69,0h0a4.72,4.72,0,0,1-4.72,4.72h-.14a4.66,4.66,0,0,1-4.83-4.49A1.77,1.77,0,0,1,232.37,70.58Zm7.58,0h0a2.75,2.75,0,0,0-2.67-2.84h-.08a2.71,2.71,0,0,0-2.73,2.69v.15h0a2.83,2.83,0,0,0,2.76,2.84,2.71,2.71,0,0,0,2.73-2.7A.71.71,0,0,0,240,70.58Z" fill="#114734" stroke="#114734" stroke-miterlimit="10" stroke-width="0.2"/><path d="M244.26,66h2v9.12h-2Z" fill="#114734" stroke="#114734" stroke-miterlimit="10" stroke-width="0.2"/><path d="M248.87,66h2v7.3h4.55v1.82h-6.55Z" fill="#114734" stroke="#114734" stroke-miterlimit="10" stroke-width="0.2"/><path d="M278.85,35.39v.84h-1.62v4.26h-1V36.23h-1.62v-.84Zm5.46,5.06-.18-3V36.06h0c-.13.45-.27,1-.43,1.5l-.91,2.85h-1l-.91-2.85c-.08-.39-.24-1-.35-1.42h0v1.42l-.19,3h-1l.37-5.06h1.5l.87,2.48c.11.38.2.76.34,1.28h0c.13-.47.24-.9.36-1.27l.86-2.49h1.43l.38,5.06Z" fill="#114734"/></svg>