<svg xmlns="http://www.w3.org/2000/svg" viewBox="0 0 288 108"><title>cannabicool-logo-tm</title><path d="M4.38,54h0A12.4,12.4,0,0,1,16.57,41.47h.51a11.92,11.92,0,0,1,10.26,5l-5.05,3.9A6.52,6.52,0,0,0,17,47.53a6,6,0,0,0-5.72,6.29.49.49,0,0,1,0,.12V54c0,3.62,2.39,6.46,5.71,6.46a6.6,6.6,0,0,0,5.44-2.94l5.05,3.58a12.17,12.17,0,0,1-10.66,5.42,12.25,12.25,0,0,1-12.47-12Z" fill="#789a3d"/><path d="M38.55,41.72H45L55.29,66H48.14l-1.72-4.29H37L35.3,66h-7Zm5.87,14.77-2.7-6.83L39,56.49Z" fill="#789a3d"/><path d="M57.63,41.89h6.24l10,12.77V41.89h6.62V66H74.61L64.26,52.8V66H57.63Z" fill="#789a3d"/><path d="M84.72,41.89H91l10,12.77V41.89h6.63V66h-5.9L91.35,52.8V66H84.72Z" fill="#789a3d"/><path d="M120.16,41.72h6.45L136.9,66h-7.22L128,61.71h-9.33L116.91,66h-7ZM126,56.49l-2.7-6.83-2.72,6.83Z" fill="#789a3d"/><path d="M139.24,41.89h12.4A9,9,0,0,1,158.22,44,5.42,5.42,0,0,1,159.78,48h0a5.59,5.59,0,0,1-3.73,5.38c2.93,1,4.8,2.63,4.8,5.9v.07c0,4.15-3.39,6.66-9.16,6.66H139.24Zm13.94,7.45c0-1.34-1.07-2.07-3-2.07h-4.38v4.29H150c2,0,3.2-.69,3.2-2.1Zm-2.32,6.87h-5.09v4.46h5.17c2.07,0,3.21-.8,3.21-2.21v-.07C154.15,57.07,153.11,56.21,150.86,56.21Z" fill="#789a3d"/><path d="M164.09,41.89h6.7V66h-6.7Z" fill="#789a3d"/><path d="M174.4,54h0a12.4,12.4,0,0,1,12.19-12.57h.51a11.9,11.9,0,0,1,10.25,5l-5,3.9A6.52,6.52,0,0,0,187,47.53a6,6,0,0,0-5.72,6.29s0,.08,0,.12V54c0,3.62,2.38,6.46,5.71,6.46a6.62,6.62,0,0,0,5.49-3l5,3.58a12.7,12.7,0,0,1-23.13-7Z" fill="#114734"/><path d="M198.94,54h0A13,13,0,0,1,225,54V54a13,13,0,0,1-26,0Zm19.15,0h0a6.23,6.23,0,0,0-5.92-6.52h-.25a6.15,6.15,0,0,0-6.15,6.16c0,.1,0,.19,0,.29V54a6.27,6.27,0,0,0,6,6.51H212a6.14,6.14,0,0,0,6.12-6.16c0-.12,0-.24,0-.36Z" fill="#114734"/><path d="M227.62,54h0a13,13,0,0,1,26-.07V54a13,13,0,0,1-26,0Zm19.15,0h0a6.17,6.17,0,0,0-12.32-.66,5.8,5.8,0,0,0,0,.59V54a6.26,6.26,0,0,0,6,6.51h.19a6.16,6.16,0,0,0,6.15-6.16c0-.12,0-.24,0-.36Z" fill="#114734"/><path d="M257.1,41.89h6.68V60.16h11.7V66H257.1Z" fill="#114734"/><path d="M281.61,62.84h1.1l.91,1.32.89-1.32h1.11v3.43h-1v-2l-1,1.42h0l-.95-1.42v2h-1Zm-2.86.83h-1.11v-.83h3.44v.83H280v2.6h-1.06Z" fill="#114734"/></svg>