<svg xmlns="http://www.w3.org/2000/svg" viewBox="0 0 288 108"><title>pure-collagen</title><path d="M33.68,50.72V.93H44.37a15.69,15.69,0,0,1,5.18.78,9.89,9.89,0,0,1,4.06,2.71A11,11,0,0,1,56.13,9a28.8,28.8,0,0,1,.7,7.17,35.74,35.74,0,0,1-.39,5.66,11.64,11.64,0,0,1-1.64,4.33A10.29,10.29,0,0,1,50.88,30a13.17,13.17,0,0,1-6.43,1.38H40.81V50.73ZM40.81,7.65V24.56h3.43a7.34,7.34,0,0,0,3.36-.62,4,4,0,0,0,1.74-1.81A6.5,6.5,0,0,0,50,19.54c0-1,.11-2.17.11-3.42V12.79a7.41,7.41,0,0,0-.64-2.7,4.08,4.08,0,0,0-1.69-1.82,6.68,6.68,0,0,0-3.21-.62Z" fill="#00aea9"/><path d="M84.34.93v38.6A11.35,11.35,0,0,1,81,47.7a11.84,11.84,0,0,1-3.71,2.52,11.15,11.15,0,0,1-4.48.91,10.74,10.74,0,0,1-4.47-.91A12.14,12.14,0,0,1,62.13,44a10.74,10.74,0,0,1-.91-4.47V.93h7.13v37.9a5.23,5.23,0,0,0,1.26,3.9,4.47,4.47,0,0,0,6.28,0,5.19,5.19,0,0,0,1.27-3.9V.93Z" fill="#00aea9"/><path d="M89.29,50.72V.93h11.47q12.58,0,12.59,14.61A18.37,18.37,0,0,1,112,23a10.64,10.64,0,0,1-4.79,5l7.7,22.72h-7.55l-6.65-21.23H96.42V50.72ZM96.42,7.65V23.16h4.06a6.9,6.9,0,0,0,3-.52,4.09,4.09,0,0,0,1.75-1.49,6.8,6.8,0,0,0,.76-2.4,22.07,22.07,0,0,0,.19-3.35,21.66,21.66,0,0,0-.22-3.31,6.51,6.51,0,0,0-.84-2.49c-.88-1.3-2.56-1.95-5-1.95Z" fill="#00aea9"/><path d="M120,50.72V.93h21.26V7.65H127.05v14.6h12.31V29H127.05V43.58h14.13v7.14Z" fill="#00aea9"/><path d="M56.78,93.1v3.07a11.1,11.1,0,0,1-.86,4.37,12.06,12.06,0,0,1-2.42,3.64,11.52,11.52,0,0,1-3.59,2.55,10.65,10.65,0,0,1-4.48,1,16.15,16.15,0,0,1-4.09-.52,9.87,9.87,0,0,1-3.8-2,11,11,0,0,1-2.77-3.61A12.83,12.83,0,0,1,33.69,96V68.56a12.28,12.28,0,0,1,.84-4.48,10.71,10.71,0,0,1,2.37-3.64,11,11,0,0,1,3.7-2.5,12.33,12.33,0,0,1,4.73-.87,10.79,10.79,0,0,1,8.17,3.28,11.55,11.55,0,0,1,2.42,3.81A12.82,12.82,0,0,1,56.78,69v2.8H49.65V69.41a5.75,5.75,0,0,0-1.17-3.64,3.86,3.86,0,0,0-3.23-1.49,3.61,3.61,0,0,0-3.53,1.64,8.78,8.78,0,0,0-.87,4.16V95.44a6.65,6.65,0,0,0,.94,3.64,3.68,3.68,0,0,0,3.39,1.49,5.35,5.35,0,0,0,1.49-.25,4.51,4.51,0,0,0,1.49-.81A4.25,4.25,0,0,0,49.21,98a6.2,6.2,0,0,0,.41-2.45V93.1Z" fill="#00aea9"/><path d="M61.72,69.26A12.57,12.57,0,0,1,62.77,64a11.08,11.08,0,0,1,2.79-3.85,11.94,11.94,0,0,1,3.82-2.16,12.44,12.44,0,0,1,8.59,0,13.07,13.07,0,0,1,3.88,2.23,12,12,0,0,1,2.73,3.73,12.77,12.77,0,0,1,1,5.31V95.54a12.64,12.64,0,0,1-1,5.39,11.06,11.06,0,0,1-2.73,3.7A12,12,0,0,1,78,106.94a12.22,12.22,0,0,1-8.59,0,11,11,0,0,1-3.82-2.31,10.56,10.56,0,0,1-2.79-3.7,12.65,12.65,0,0,1-1.05-5.39Zm7.15,26.28a4.72,4.72,0,0,0,1.49,3.82,5.27,5.27,0,0,0,6.77,0,4.72,4.72,0,0,0,1.49-3.82V69.26a4.72,4.72,0,0,0-1.49-3.81,5.3,5.3,0,0,0-6.77-.06,4.72,4.72,0,0,0-1.49,3.81Z" fill="#00aea9"/><path d="M90.17,107.28V57.52H97.3v42.63h14.13v7.13Z" fill="#00aea9"/><path d="M116,107.28V57.52h7.13v42.63h14.11v7.13Z" fill="#00aea9"/><path d="M141.31,107.28l11.1-49.76h6l11.11,49.76h-7.13l-2.09-10.69h-9.73l-2.08,10.69Zm17.62-17.39-3.54-18h-.13l-3.49,18Z" fill="#00aea9"/><path d="M171.68,69.26a12.72,12.72,0,0,1,1-5.31,11.24,11.24,0,0,1,2.8-3.85,12.19,12.19,0,0,1,3.81-2.24,12.55,12.55,0,0,1,8.59,0,13,13,0,0,1,3.88,2.24,12,12,0,0,1,2.73,3.8,12.77,12.77,0,0,1,1,5.31v2.53h-7.13V69.26A4.72,4.72,0,0,0,187,65.45a5.3,5.3,0,0,0-6.77,0,4.72,4.72,0,0,0-1.49,3.81V95.54a4.72,4.72,0,0,0,1.49,3.82,5.27,5.27,0,0,0,6.77,0,4.72,4.72,0,0,0,1.49-3.82V86.18H182.8v-6.3h12.78V95.54a12.49,12.49,0,0,1-1,5.39,11.06,11.06,0,0,1-2.73,3.7,11.77,11.77,0,0,1-3.88,2.31,12.22,12.22,0,0,1-8.59,0,11,11,0,0,1-3.81-2.31,10.38,10.38,0,0,1-2.8-3.7,12.65,12.65,0,0,1-1-5.39Z" fill="#00aea9"/><path d="M201,107.28V57.52h21.25v6.71H208.14V78.82h12.3v6.71h-12.3v14.62h14.12v7.13Z" fill="#00aea9"/><path d="M227.46,107.28V57.52h6.86l10.76,30h.15v-30h7.13v49.76h-6.71L234.74,77.45h-.15v29.83Z" fill="#00aea9"/></svg>