<svg xmlns="http://www.w3.org/2000/svg" viewBox="0 0 187.4 34.6"><polygon points="12.9 24.5 5.8 0.3 0 0.3 10.7 33.8 14.9 33.8 25.7 0.3 19.8 0.3 12.9 24.5" fill="#0047ba"/><rect x="28" y="0.3" width="5.5" height="33.5" fill="#0047ba"/><polygon points="48 24.5 41.1 0.3 35.2 0.3 45.9 33.8 50.2 33.8 60.9 0.3 55 0.3 48 24.5" fill="#0047ba"/><path d="M89.5,26.2A13,13,0,0,0,85.8,22a12.24,12.24,0,0,0-13.1,0,11.58,11.58,0,0,0-3.8,4.2,9.27,9.27,0,0,0-1.1,3.2,62.75,62.75,0,0,0-.3,7.7,62.75,62.75,0,0,0,.3,7.7,6.55,6.55,0,0,0,.5,1.8A9.14,9.14,0,0,0,69,48a13.44,13.44,0,0,0,3.8,4.2,11.92,11.92,0,0,0,6.5,2,12.55,12.55,0,0,0,6.6-2,11,11,0,0,0,3.7-4.1,8,8,0,0,0,1.1-3.3,62.75,62.75,0,0,0,.3-7.7,62.75,62.75,0,0,0-.3-7.7A10.72,10.72,0,0,0,89.5,26.2Zm-13.1.3a6.1,6.1,0,0,1,2.8-.7,6.89,6.89,0,0,1,2.9.7,5.6,5.6,0,0,1,1.8,1.6,6.27,6.27,0,0,1,1.2,2.6,45.62,45.62,0,0,1,.3,6.6,43.94,43.94,0,0,1-.3,6.5,7.41,7.41,0,0,1-1.2,2.7A4.41,4.41,0,0,1,82.1,48a5.2,5.2,0,0,1-2.9.7,5.3,5.3,0,0,1-2.8-.7,6,6,0,0,1-1.9-1.6,5.14,5.14,0,0,1-1.1-2.7,40.61,40.61,0,0,1-.4-6.5,33,33,0,0,1,.4-6.6A6.82,6.82,0,0,1,74.5,28,7,7,0,0,1,76.4,26.5Z" transform="translate(-6.3 -20.1)" fill="#0047ba"/><path d="M117.7,44.3a63.84,63.84,0,0,0,.2-7.2,62.75,62.75,0,0,0-.3-7.7,8,8,0,0,0-1.1-3.2,13,13,0,0,0-3.7-4.2,12.24,12.24,0,0,0-13.1,0,12.44,12.44,0,0,0-3.8,4.2,9.27,9.27,0,0,0-1.1,3.2,61.63,61.63,0,0,0-.3,7.7,63.9,63.9,0,0,0,.3,7.7,6.55,6.55,0,0,0,.5,1.8A6.11,6.11,0,0,0,96,48a13.44,13.44,0,0,0,3.8,4.2,11.92,11.92,0,0,0,6.5,2,11.16,11.16,0,0,0,7.5-2.8l4.1,3.3,3.3-4-4.3-3.5A10.45,10.45,0,0,0,117.7,44.3ZM103.4,26.5a6.1,6.1,0,0,1,2.8-.7,5.78,5.78,0,0,1,2.8.7,5.6,5.6,0,0,1,1.8,1.6,6.27,6.27,0,0,1,1.2,2.6,45.62,45.62,0,0,1,.3,6.6,46.4,46.4,0,0,1-.3,6.3l-3.5-2.9-3.3,3.9,4,3.3a4.86,4.86,0,0,1-3,.9,5.3,5.3,0,0,1-2.8-.7,4.94,4.94,0,0,1-1.9-1.6,4.45,4.45,0,0,1-1.1-2.7,60.2,60.2,0,0,1-.4-6.5,33,33,0,0,1,.4-6.6,6.82,6.82,0,0,1,1.1-2.6A5.81,5.81,0,0,1,103.4,26.5Z" transform="translate(-6.3 -20.1)" fill="#0047ba"/><path d="M139.5,42a6.36,6.36,0,0,1-1.7,4.8,6.54,6.54,0,0,1-8.8,0,7.2,7.2,0,0,1-1.8-4.8V20.4h-5.5v22a11.29,11.29,0,0,0,11.7,11.7,11.64,11.64,0,0,0,8.3-3.2,11.15,11.15,0,0,0,3.3-8.5v-22h-5.5V42Z" transform="translate(-6.3 -20.1)" fill="#0047ba"/><rect x="143.9" y="0.3" width="5.5" height="33.5" fill="#0047ba"/><polygon points="173.6 0.3 173.6 22.9 159.8 0.5 159.7 0.3 154.6 0.3 154.6 33.8 160.1 33.8 160.1 11.2 174 33.6 174.1 33.8 179.1 33.8 179.1 0.3 173.6 0.3" fill="#0047ba"/><path d="M188,51.3h-1v-.6h2.5v.6h-.9V54H188Zm5.1,0h0l-1,2.7h-.4l-1-2.7h0V54h-.6V50.8h.9l.9,2.4.9-2.4h.9V54H193V51.3Z" transform="translate(-6.3 -20.1)" fill="#0047ba"/></svg>