<svg xmlns="http://www.w3.org/2000/svg" viewBox="0 0 186.6 47.2"><path d="M6.7,15a1.11,1.11,0,0,1,1.1-1.1h5.4A1.18,1.18,0,0,1,14.3,15V26.9a10.25,10.25,0,0,1,5.4-1.5c6.2,0,11.5,3.9,11.5,12.1,0,6.7-4.9,12.2-11.5,12.2A9.37,9.37,0,0,1,12,46a3.82,3.82,0,0,1-4.1,3.3c-.9,0-1.2-.5-1.2-1.1V15Zm12,27.2a4.7,4.7,0,0,0,4.8-4.9,4.62,4.62,0,0,0-4.8-4.8,4.65,4.65,0,0,0-4.9,4.8A4.62,4.62,0,0,0,18.7,42.2Z" transform="translate(-6.7 -13.9)" fill="#ff595a"/><path d="M31.8,27.3c-.3-.8.1-1.5.9-1.5h6a1.2,1.2,0,0,1,1,.7l3.1,12.4h.1l4.5-12.3a1.2,1.2,0,0,1,1-.7h5.7c1,0,1.3.7,1,1.5l-13.8,33a1.2,1.2,0,0,1-1,.7H34.7a1,1,0,0,1-1-1.5l4.8-12.2Z" transform="translate(-6.7 -13.9)" fill="#ff595a"/><path d="M62.8,25.8v3a8.23,8.23,0,0,1,6.9-3.6c3.2,0,4.8,1.2,6.8,3.5a9.34,9.34,0,0,1,7.3-3.5c7.1,0,9.5,5.1,9.5,11.8V47.8a1.11,1.11,0,0,1-1.1,1.1H86.8a1,1,0,0,1-1.1-1.1V36.7c0-2.4-.7-4.3-3.4-4.3-2,0-3.2,1.6-3.2,3.9V47.9a1,1,0,0,1-1,1.1H72.6a1.11,1.11,0,0,1-1.1-1.1V36.7c0-2.4-.4-4.3-2.9-4.3S65,34,65,36.4V47.9A1.18,1.18,0,0,1,63.9,49H58.5a1,1,0,0,1-1.1-1.1v-21a1,1,0,0,1,1.1-1.1Z" transform="translate(-6.7 -13.9)" fill="#ff595a"/><path d="M95,27.3a1,1,0,0,1,1-1.5h6a1,1,0,0,1,.9.7L106,38.9h.1l4.5-12.3a1.2,1.2,0,0,1,1-.7h5.7a1,1,0,0,1,1,1.5l-13.7,33a1.2,1.2,0,0,1-1,.7H98a1,1,0,0,1-1-1.5l4.8-12.2Z" transform="translate(-6.7 -13.9)" fill="#ff595a"/><path d="M130.6,60.6c-3.4,0-7.5-1.5-8.6-2.5a1.06,1.06,0,0,1-.3-1.3l1.7-4.2a.94.94,0,0,1,1.3-.5,10.17,10.17,0,0,0,5.6,1.9c2.8,0,4.9-1.1,4.9-4.7V48.1a11,11,0,0,1-5.4,1.4c-6.2,0-11.5-4-11.5-12.2,0-6.6,4.9-12.1,11.5-12.1a9.37,9.37,0,0,1,7.7,3.7,3.75,3.75,0,0,1,4.1-3.3c.9,0,1.2.5,1.2,1.1V48.3C143,56.7,137.6,60.6,130.6,60.6Zm.5-18.2a4.78,4.78,0,0,0,4.9-4.9,4.9,4.9,0,1,0-4.9,4.9Z" transform="translate(-6.7 -13.9)" fill="#ff595a"/><path d="M163.3,26.5a.93.93,0,0,1,.2,1.2l-2.3,4.6a1,1,0,0,1-1.3.6,4.78,4.78,0,0,0-1.8-.4,2.94,2.94,0,0,0-3,3.2V47.9c0,.7-.4,1.1-1.2,1.1h-5.3a1.11,1.11,0,0,1-1.1-1.1V26.8a1.08,1.08,0,0,1,1.2-1.1,3.84,3.84,0,0,1,4.1,3.6,6.8,6.8,0,0,1,6.1-3.9A7.27,7.27,0,0,1,163.3,26.5Z" transform="translate(-6.7 -13.9)" fill="#ff595a"/><path d="M172.1,34.2a11.33,11.33,0,0,1,4.6,1c0-2.3-1.5-3.6-4.2-3.6a19.28,19.28,0,0,0-4.8.8c-.9.3-1.3-.4-1.4-1.2l-.6-3.6a1.29,1.29,0,0,1,.9-1.6,27.63,27.63,0,0,1,6.7-.8c6.5,0,10.7,3.6,10.7,10.1V48a1.08,1.08,0,0,1-1.2,1.1,3.72,3.72,0,0,1-4-2.9,8.48,8.48,0,0,1-7.1,3.3c-4.6,0-8.1-3-8.1-7.6C163.6,37.5,166.9,34.2,172.1,34.2Zm1.5,9.8a2.58,2.58,0,0,0,2.6-2.6,2.72,2.72,0,0,0-2.6-2.6,2.65,2.65,0,0,0-2.6,2.6A2.72,2.72,0,0,0,173.6,44Z" transform="translate(-6.7 -13.9)" fill="#ff595a"/><path d="M189,44.5v.7h-.9v3.5h-.8V45.2h-.9v-.7Zm3.6,4.2-.1-2.5V45.1h0c-.1.4-.2.9-.3,1.2l-.6,2.3h-.8l-.6-2.4c0-.3-.2-.9-.2-1.1h0v1.1l-.1,2.5h-.7l.3-4.2h1.1l.5,2c.1.4.1.6.2,1h0a5.76,5.76,0,0,0,.2-1l.5-2h1l.3,4.2Z" transform="translate(-6.7 -13.9)" fill="#ff595a"/></svg>