<svg xmlns="http://www.w3.org/2000/svg" viewBox="0 0 132.81 98.64"><path d="M16.59,13h9.74l7.55,29.6H34V13h6.92V62.4H33l-9.35-36h-.14V62.43H16.59Z" transform="translate(-16.59 -12.33)" fill="#e0592a"/><path d="M46,13H67.19v7.06H53.78V33.15H64.44V40.2H53.78V55.38H67.19v7H46Z" transform="translate(-16.59 -12.33)" fill="#e0592a"/><path d="M70.65,50.72V13h7.76V51.28c0,3.53,1.48,4.8,4,4.8s4-1.27,4-4.8V13H93.8V50.72c0,7.9-4,12.42-11.58,12.42S70.65,58.62,70.65,50.72Z" transform="translate(-16.59 -12.33)" fill="#e0592a"/><path d="M98.6,13c9.51.14,23.82-2.46,23,11.37.36,5.1-.58,11.39-5.08,12.77v.14c8.8,2.8,3.13,18.31,6,25.12h-7.9c-1.07-1.71-.63-12.14-.71-15.1.31-6.14-3.21-6.28-7.55-6.07v21.2H98.6Zm10.58,21.18c4.77.65,4.92-5.19,4.66-9,.34-5.58-3.72-5.2-7.48-5.08V34.21Z" transform="translate(-16.59 -12.33)" fill="#e0592a"/><path d="M125.77,50.72v-26c-1.38-16.52,25-16.52,23.57,0v26C150.72,67.24,124.39,67.24,125.77,50.72Zm15.8.49V24.26c0-3.53-1.55-4.87-4-4.87s-4,1.34-4,4.87v27c-.47,6.56,8.43,6.56,8,0Z" transform="translate(-16.59 -12.33)" fill="#e0592a"/><path d="M57.78,72.08C68,73.37,40,88.22,37.34,87.41c2.87,6.28,1.79,19.17-4,23.28-3.36,1.46-6.16-3.12-5.92-6.18.43-13.52,11-41.65,19.13-53.79,3.14-5.46,8.38-4.35,8.84,1.07,0,6.66-10.39,18.89-16.59,22.94q-2.19,5.8-3.57,10.07A47.92,47.92,0,0,0,57.78,72.08Zm-23.4,30.58c1.54-4.94,2.88-12,.23-16C31.23,95,27.35,118.3,34.38,102.66Zm7.23-34.85c3.67-3.71,11.26-13.34,10.83-18.09C50.51,49.82,44.4,60.84,41.61,67.81Z" transform="translate(-16.59 -12.33)" fill="#923a7f"/><path d="M57.92,72.37c.84-8.07,14.15-3,9.91,4.49,3.12-.48,5.57-2,8-3.61,6.46,2.94-6.82,6.93-9.22,6.11C59.3,91.61,46.41,81.36,57.92,72.37Zm1.42,3.15C57.19,78,55.81,80,55.92,82.59c2.53,1,5.38-1.58,7.3-4.11A10.84,10.84,0,0,1,59.34,75.52Zm1.77-3.42c1.46,1.14.86,1.53-.39,2.11q.62,2,3.54,2.69C67,72.44,66,68.35,61.11,72.1Z" transform="translate(-16.59 -12.33)" fill="#923a7f"/><path d="M86.8,73.48c-.68,1.33-2.87-.83-2.73-1.84l.54-1.58c-4,1.13-10.73,8.67-8.65,13.07,3.72,1.28,14.37-6.31,19.67-9.73.78-.58,3.1,1.3,2.39,2.23-7.82,4.09-17.67,15-24.36,7.23C68.09,74,90.46,59.19,86.8,73.48Z" transform="translate(-16.59 -12.33)" fill="#923a7f"/><path d="M99,67.72c.79-.77,3,1,2.61,2-2.59,4-5,7.42-4.8,11.64,2-.2,8.63-7.78,11.56-12.21.9-1.3,3.13.73,2.66,1.92-.67,2.82-2.55,7.33-1.43,10.22,2.62,1.36,10.91-4.92,13.34-7.61.72-.51,1.34.09,2,.84,1,2.63-3.56,4.48-5.76,6.42-5.46,4.15-13,3.65-12.64-4C95.46,91.77,89.55,79.14,99,67.72Z" transform="translate(-16.59 -12.33)" fill="#923a7f"/><path d="M128.11,64.72c8.2,2.39-6.89,3.07-.88,12.37,3.36-.72,12.14-6.46,14-1.73-4.26,1.8-9.25,2.54-12.8,4.5,1.47,3.26-3.68,6.59-7.14,7.11-5.67-2.06-2.24-6.27,4.18-9.07C121.86,71.66,121.38,68.87,128.11,64.72Zm-5.57,18.67a9.37,9.37,0,0,0,2.35-1.69A25.86,25.86,0,0,0,122.54,83.39Z" transform="translate(-16.59 -12.33)" fill="#923a7f"/><path d="M143.66,73.49v.34H143v1.68h-.4V73.83H142v-.34Zm2.19,2c0-.42-.09-1.32-.09-1.75h0c-.09.4-.4,1.32-.53,1.72h-.42c-.13-.4-.42-1.31-.5-1.72h0c0,.39-.07,1.35-.09,1.75h-.39l.15-2h.6A13,13,0,0,1,145,75h0c.09-.37.36-1.14.49-1.5h.58l.16,2Z" transform="translate(-16.59 -12.33)" fill="#923a7f"/></svg>