<svg xmlns="http://www.w3.org/2000/svg" viewBox="0 0 188.8 52.4"><path d="M27.5,56A24.39,24.39,0,0,1,16,53.5a18,18,0,0,1-7.6-7.1A20.49,20.49,0,0,1,5.7,35.7,21.35,21.35,0,0,1,8.6,24.6a19.73,19.73,0,0,1,8-7.4,24.73,24.73,0,0,1,11.8-2.6,36.26,36.26,0,0,1,7.3.8,21.86,21.86,0,0,1,6.5,2.4l-1.3,6.6a25.34,25.34,0,0,0-6.2-2.2,29.62,29.62,0,0,0-6.6-.7,16,16,0,0,0-7.5,1.7,13.07,13.07,0,0,0-5,4.9,14.37,14.37,0,0,0-1.8,7.3c0,4.3,1.3,7.6,3.8,10.1s6,3.7,10.4,3.7a23.4,23.4,0,0,0,3.8-.3,23.25,23.25,0,0,0,3.6-.8V39.2h-8V33.1H42.8V53a33.58,33.58,0,0,1-7.4,2.2A40.69,40.69,0,0,1,27.5,56Z" transform="translate(-5.7 -12.6)" fill="#3eac7d"/><path d="M50.5,55.4V12.6h7.3V55.4Z" transform="translate(-5.7 -12.6)" fill="#3eac7d"/><path d="M77.8,56.2c-4,0-7-1-9.2-3.1s-3.2-5-3.2-8.9V28.5h7.4V44.1q0,5.7,5.1,5.7c3.4,0,5-1.9,5-5.7V28.5h7.4V44.3c0,3.8-1.1,6.8-3.2,8.9C84.8,55.2,81.8,56.2,77.8,56.2Z" transform="translate(-5.7 -12.6)" fill="#3eac7d"/><path d="M100.3,55.4V34.5H95v-6h5.3V21.2h7.3v7.3H114v6h-6.4V55.4Z" transform="translate(-5.7 -12.6)" fill="#3eac7d"/><path d="M129.2,56.2a11.65,11.65,0,0,1-6.4-1.8,12.24,12.24,0,0,1-4.4-5.1,16.1,16.1,0,0,1-1.6-7.4,15.72,15.72,0,0,1,1.7-7.3,13.66,13.66,0,0,1,4.6-5.2,11.27,11.27,0,0,1,6.5-1.9,9.69,9.69,0,0,1,5.1,1.3,9.85,9.85,0,0,1,3.6,3.7l.1-4.1h7V55.3h-7l-.1-4.1C136.5,54.6,133.5,56.2,129.2,56.2Zm2.2-6.5a6.39,6.39,0,0,0,5.1-2.2,8,8,0,0,0,2-5.6,8,8,0,0,0-2-5.6,6.87,6.87,0,0,0-5.1-2.2,6.39,6.39,0,0,0-5.1,2.2,8,8,0,0,0-2,5.6,8.16,8.16,0,0,0,2,5.6A6.39,6.39,0,0,0,131.4,49.7Z" transform="translate(-5.7 -12.6)" fill="#3eac7d"/><path d="M173,56.2a21.31,21.31,0,0,1-8.4-1.6,20.53,20.53,0,0,1-6.7-4.4,19.59,19.59,0,0,1-4.4-6.6,22.31,22.31,0,0,1-1.6-8.3,20.82,20.82,0,0,1,1.6-8.3,21.93,21.93,0,0,1,4.5-6.7,19.46,19.46,0,0,1,6.8-4.4,23.11,23.11,0,0,1,16.9,0,19.06,19.06,0,0,1,6.7,4.4,21.48,21.48,0,0,1,4.5,6.6,20.63,20.63,0,0,1,1.6,8.4,21.76,21.76,0,0,1-1.5,8.2,18.75,18.75,0,0,1-4.2,6.4,19.89,19.89,0,0,1-6.1,4.3L192.4,65h-9.6l-7.5-8.9A17.7,17.7,0,0,1,173,56.2Zm.3-7.1a12.48,12.48,0,0,0,11.3-6.7,15.19,15.19,0,0,0,1.7-7.1,14.62,14.62,0,0,0-1.7-7.1,12.73,12.73,0,0,0-4.6-4.9,12.44,12.44,0,0,0-6.7-1.8A12.48,12.48,0,0,0,162,28.2a15.68,15.68,0,0,0,0,14.2,12.07,12.07,0,0,0,4.6,4.9A12.44,12.44,0,0,0,173.3,49.1Z" transform="translate(-5.7 -12.6)" fill="#3eac7d"/><path d="M27.5,56A24.39,24.39,0,0,1,16,53.5a18,18,0,0,1-7.6-7.1A20.49,20.49,0,0,1,5.7,35.7,21.35,21.35,0,0,1,8.6,24.6a19.73,19.73,0,0,1,8-7.4,24.73,24.73,0,0,1,11.8-2.6,36.26,36.26,0,0,1,7.3.8,21.86,21.86,0,0,1,6.5,2.4l-1.3,6.6a25.34,25.34,0,0,0-6.2-2.2,29.62,29.62,0,0,0-6.6-.7,16,16,0,0,0-7.5,1.7,13.07,13.07,0,0,0-5,4.9,14.37,14.37,0,0,0-1.8,7.3c0,4.3,1.3,7.6,3.8,10.1s6,3.7,10.4,3.7a23.4,23.4,0,0,0,3.8-.3,23.25,23.25,0,0,0,3.6-.8V39.2h-8V33.1H42.8V53a33.58,33.58,0,0,1-7.4,2.2A40.69,40.69,0,0,1,27.5,56Z" transform="translate(-5.7 -12.6)" fill="#94cc00"/><path d="M50.5,55.4V12.6h7.3V55.4Z" transform="translate(-5.7 -12.6)" fill="#94cc00"/><path d="M77.8,56.2c-4,0-7-1-9.2-3.1s-3.2-5-3.2-8.9V28.5h7.4V44.1q0,5.7,5.1,5.7c3.4,0,5-1.9,5-5.7V28.5h7.4V44.3c0,3.8-1.1,6.8-3.2,8.9C84.8,55.2,81.8,56.2,77.8,56.2Z" transform="translate(-5.7 -12.6)" fill="#94cc00"/><path d="M100.3,55.4V34.5H95v-6h5.3V21.2h7.3v7.3H114v6h-6.4V55.4Z" transform="translate(-5.7 -12.6)" fill="#94cc00"/><path d="M129.2,56.2a11.65,11.65,0,0,1-6.4-1.8,12.24,12.24,0,0,1-4.4-5.1,16.1,16.1,0,0,1-1.6-7.4,15.72,15.72,0,0,1,1.7-7.3,13.66,13.66,0,0,1,4.6-5.2,11.27,11.27,0,0,1,6.5-1.9,9.69,9.69,0,0,1,5.1,1.3,9.85,9.85,0,0,1,3.6,3.7l.1-4.1h7V55.3h-7l-.1-4.1C136.5,54.6,133.5,56.2,129.2,56.2Zm2.2-6.5a6.39,6.39,0,0,0,5.1-2.2,8,8,0,0,0,2-5.6,8,8,0,0,0-2-5.6,6.87,6.87,0,0,0-5.1-2.2,6.39,6.39,0,0,0-5.1,2.2,8,8,0,0,0-2,5.6,8.16,8.16,0,0,0,2,5.6A6.39,6.39,0,0,0,131.4,49.7Z" transform="translate(-5.7 -12.6)" fill="#94cc00"/><path d="M173,56.2a21.31,21.31,0,0,1-8.4-1.6,20.53,20.53,0,0,1-6.7-4.4,19.59,19.59,0,0,1-4.4-6.6,22.31,22.31,0,0,1-1.6-8.3,20.82,20.82,0,0,1,1.6-8.3,21.93,21.93,0,0,1,4.5-6.7,19.46,19.46,0,0,1,6.8-4.4,23.11,23.11,0,0,1,16.9,0,19.06,19.06,0,0,1,6.7,4.4,21.48,21.48,0,0,1,4.5,6.6,20.63,20.63,0,0,1,1.6,8.4,21.76,21.76,0,0,1-1.5,8.2,18.75,18.75,0,0,1-4.2,6.4,19.89,19.89,0,0,1-6.1,4.3L192.4,65h-9.6l-7.5-8.9A17.7,17.7,0,0,1,173,56.2Zm.3-7.1a12.48,12.48,0,0,0,11.3-6.7,15.19,15.19,0,0,0,1.7-7.1,14.62,14.62,0,0,0-1.7-7.1,12.73,12.73,0,0,0-4.6-4.9,12.44,12.44,0,0,0-6.7-1.8A12.48,12.48,0,0,0,162,28.2a15.68,15.68,0,0,0,0,14.2,12.07,12.07,0,0,0,4.6,4.9A12.44,12.44,0,0,0,173.3,49.1Z" transform="translate(-5.7 -12.6)" fill="#94cc00"/></svg>