<svg xmlns="http://www.w3.org/2000/svg" viewBox="0 0 167 67.2"><path d="M40.5,33.8V3.9h12q8.25,0,12.6,3.9c2.9,2.6,4.4,6.3,4.4,11.1a16.21,16.21,0,0,1-2,8.1,13.44,13.44,0,0,1-5.9,5.1,21.73,21.73,0,0,1-9.3,1.8H40.5ZM52,10.1H48.4V27.5H52q9.3,0,9.3-8.7T52,10.1Z" transform="translate(-16.6 -3.9)" fill="#006726"/><path d="M69,33.8,80.7,3.9H89l11.7,29.9H92.4l-2.3-7H79.2l-2.3,7ZM81.1,20.9H88L84.5,10.4Z" transform="translate(-16.6 -3.9)" fill="#006726"/><path d="M103.6,33.8V3.9h8V33.8Z" transform="translate(-16.6 -3.9)" fill="#006726"/><path d="M116.9,33.8V3.9h8V27.4h12.7v6.4Z" transform="translate(-16.6 -3.9)" fill="#006726"/><path d="M143.9,33.8V21.6L133.1,3.9h8.8L148,15.8l6-11.9h8.5L151.7,21.7V33.9h-7.8Z" transform="translate(-16.6 -3.9)" fill="#006726"/><path d="M33.3,70.9a20.49,20.49,0,0,1-8.9-1.8,13.31,13.31,0,0,1-5.8-5.2,14.87,14.87,0,0,1-2-8,14.91,14.91,0,0,1,2.2-8.3,14.76,14.76,0,0,1,6.1-5.5,20.58,20.58,0,0,1,9.3-2,24.83,24.83,0,0,1,5.4.6,21.67,21.67,0,0,1,4.9,1.7l-1.3,6.3a23.11,23.11,0,0,0-9.2-2,11.94,11.94,0,0,0-5.1,1.1,7.63,7.63,0,0,0-3.3,3.1,9.91,9.91,0,0,0-1.2,4.7,8.37,8.37,0,0,0,2.5,6.5,10.17,10.17,0,0,0,7,2.3,13.4,13.4,0,0,0,2-.1,14.16,14.16,0,0,0,2-.4V59h-5V53.2H45.1V68.6a28.35,28.35,0,0,1-5.6,1.7A33.35,33.35,0,0,1,33.3,70.9Z" transform="translate(-16.6 -3.9)" fill="#006726"/><path d="M49.5,70.4V40.5H60.4c3.7,0,6.5.9,8.6,2.7a9.32,9.32,0,0,1,3.1,7.5,9,9,0,0,1-1.2,4.6,10.41,10.41,0,0,1-3.2,3.4L75,70.4H66.3L61,60.8H57v9.6Zm9.8-24.1H57V55h2.2c3.4,0,5.2-1.5,5.2-4.4S62.7,46.3,59.3,46.3Z" transform="translate(-16.6 -3.9)" fill="#006726"/><path d="M78,70.4V40.5H98.8v6H85.3v5.7H97.2v6H85.3v6.1H99.4v6H78Z" transform="translate(-16.6 -3.9)" fill="#006726"/><path d="M103.7,70.4V40.5h20.8v6H111v5.7h11.9v6H111v6.1h14.1v6H103.7Z" transform="translate(-16.6 -3.9)" fill="#006726"/><path d="M129.5,70.4V40.5h6.8l13.6,18.3V40.5h7.2V70.4h-6.8L136.7,52.1V70.4Z" transform="translate(-16.6 -3.9)" fill="#006726"/><path d="M171.6,71.1a26.93,26.93,0,0,1-4-.3,18.23,18.23,0,0,1-3.7-.9,12.23,12.23,0,0,1-2.8-1.3l.7-6.4a18.47,18.47,0,0,0,4.5,1.9,17.73,17.73,0,0,0,5,.7,6.39,6.39,0,0,0,3.4-.7,2.35,2.35,0,0,0,1.2-2.1,2.17,2.17,0,0,0-.5-1.4,4.38,4.38,0,0,0-1.6-1.1c-.7-.3-1.8-.7-3.1-1.1-3.2-.9-5.6-2.1-7-3.5a8.11,8.11,0,0,1-2.1-5.8,8.18,8.18,0,0,1,3.1-6.8,13,13,0,0,1,8.3-2.5,22.2,22.2,0,0,1,5.1.6,13.62,13.62,0,0,1,4.2,1.7l-1,6.2a13.18,13.18,0,0,0-3.8-1.6,16.35,16.35,0,0,0-4.2-.6c-2.7,0-4.1.9-4.1,2.6a2,2,0,0,0,.9,1.8,14.4,14.4,0,0,0,3.5,1.4,19.66,19.66,0,0,1,7.7,3.7,7.83,7.83,0,0,1,2.3,5.8,8.38,8.38,0,0,1-3.2,7C178.3,70.2,175.4,71.1,171.6,71.1Z" transform="translate(-16.6 -3.9)" fill="#006726"/></svg>