<svg data-name="Layer 1" xmlns="http://www.w3.org/2000/svg" viewBox="0 0 288 108"><title>ldv-uscan-aus-gbr-esp-hk-tw-sg-logo</title><path d="M48.22 36.92v16.14c0 4 1.12 7.13 3.33 9.4a11.5 11.5 0 0 0 8.6 3.44 11.47 11.47 0 0 0 8.62-3.47c2.2-2.3 3.33-5.63 3.33-9.9v-15.6h-1.9v15.74c0 3.65-.94 6.5-2.8 8.5a9.5 9.5 0 0 1-7.25 3 9.5 9.5 0 0 1-7.22-3c-1.85-2-2.8-4.74-2.8-8.22V36.92zM124 65.53h1.92v-28.6h-2L112.8 50.45l-11.16-13.54h-2v28.6h1.9v-26l11.22 13.74L124 39.56v26zM183.64 65.53H193V64h-7.44V51.9h6.34v-1.53h-6.34V38.45h6.87v-1.53h-8.77v28.6zM265.66 65.53H275V64h-7.44V51.9h6.34v-1.53h-6.34V38.45h6.87v-1.53h-8.77v28.6zM240.64 65.53h2.24l-6.37-9.74c-1.58-2.46-2.85-3.92-3.77-4.36l-.37-.18.38-.14c3.58-1.32 5.4-3.64 5.4-6.9a6.55 6.55 0 0 0-2.4-5.32c-1.6-1.3-4-2-7-2h-7.25v28.6h1.9V51.64h4.07a7.38 7.38 0 0 1 4.22 1c1 .67 2.28 2.36 4 5l5 7.86zm-12.3-15.4h-5V38.44h4.9A9.43 9.43 0 0 1 234 40a5.1 5.1 0 0 1 2 4.3 5.15 5.15 0 0 1-2 4.33 9.3 9.3 0 0 1-5.7 1.5zM12 65.53h9.34V64H13.9V36.92H12v28.6zM154.8 13.67l-1.44 52.28h2.8l-1.37-52.28M109.7 77.25h4.46a7 7 0 0 1 5.18 1.75 6.84 6.84 0 0 1 0 9.2 6.72 6.72 0 0 1-5 1.8h-4.65zm1 .82V89.2h3.6a5.82 5.82 0 0 0 4.13-1.52 5.24 5.24 0 0 0 1.65-4 5.34 5.34 0 0 0-1.63-4 5.86 5.86 0 0 0-4.22-1.56zM131.84 77.23v.82h-3v5.13h2.8V84h-2.8v5.2h3.3v.8h-4.34V77.23zM167.3 77.25V90h-1V77.25zM178.5 77.23v.82h-3v5.13h2.82V84h-2.8v5.2h3.28v.8h-4.28V77.23zM154.78 90.03l-4.84-12.78h-1l4.85 12.78h.98" fill="#8d734a"/><path fill="#8d734a" d="M155.68 90.03l4.83-12.78h-.98l-4.83 12.78h.98M185.58 30.14h1.6l2.06 4.24h-.66zM185.77 76.12a2.4 2.4 0 1 1 0 4.82 2.4 2.4 0 0 1-1.2-.32 2.4 2.4 0 0 1-.9-3.3 2.42 2.42 0 0 1 2.1-1.2zm0 .4a2 2 0 1 0 1.42.6 1.93 1.93 0 0 0-1.43-.6zm-.55 3.3h-.42v-2.6h.9a2.07 2.07 0 0 1 .67.1.66.66 0 0 1 .32.24.68.68 0 0 1-.1.88.82.82 0 0 1-.53.23.8.8 0 0 1 .28.2 3 3 0 0 1 .33.46l.3.5h-.5l-.23-.4a2.5 2.5 0 0 0-.4-.58.55.55 0 0 0-.37-.13h-.25zm0-2.24v.78h.5a.93.93 0 0 0 .5-.1.33.33 0 0 0 .14-.3.32.32 0 0 0-.15-.3 1.1 1.1 0 0 0-.5-.07z"/></svg>