<svg data-name="Layer 1" xmlns="http://www.w3.org/2000/svg" viewBox="0 0 288 108"><title>fixx-tw-logo</title><path d="M60.62 13.53a4.24 4.24 0 0 1 1.15-2.9C58.2 7.3 51.27 8.56 48.22 12c-2.7 3-2.82 7-2.82 10.87 0 2.15 3.5 1.5 4.9 1.5h5.6c2.7 0 3.9 2 3.8 4.53a3.6 3.6 0 0 1-3.85 3.77c-2.82.07-5.66 0-8.5 0-2.25 0-2 2.3-2 3.88V67c0 2.85 0 4.5.12 5 .23 1.26.78 2.63 2.12 3 1.14.33 2.54-.2 3.64-.47 1.7-.24 3.88-.6 5.25.72a4.54 4.54 0 0 1 .65 4.68c-1.5 3.52-7.53 2.08-10.38 1.74a52.44 52.44 0 0 0-12.2-.12c-2.55.33-5.7 1.1-8.2.26A3.78 3.78 0 0 1 25 75.46c1.54-1.45 3.6-1.28 5.48-.76 2.5.7 4.8.55 5.4-2.37q.6-2.78.72-13.38v-24.2c0-2.15-1.87-2.08-3.46-2.08h-4.27a3.68 3.68 0 0 1-4-3.68c-.17-2.22.7-4.15 3-4.55s5.2-.08 7.68-.08c1.92 0 1.5-2.26 1.5-3.58 0-6.07 1.6-10.73 4.85-13.95s7.5-4.5 11.85-4.8c4.58-.27 9.63.27 13.53 2.88 3.55 2.4 6.48 8.42 2.76 12a5.94 5.94 0 0 1-7.9.12 4.67 4.67 0 0 1-1.52-3.52zM91.76 48.24v15c0 3.84 0 6.1.1 6.8.18 1.54.46 3.77 1.84 4.77 1.18.87 2.92.2 4.18-.06 1.6-.52 4.13-.3 5.3 1a3.72 3.72 0 0 1-.64 5.26c-2.46 1.94-6.43 1-9.26.6a47.85 47.85 0 0 0-12.33-.05c-2.76.36-8.75 1.93-10.3-1.46a4.37 4.37 0 0 1 .64-4.64c1.46-1.4 3.9-.93 5.7-.65 1.63.28 3.43.76 4.53-.76 1.24-1.72 1.42-4.3 1.58-6.3V38.2c-.16-2-.35-4.57-1.64-6.24-1.14-1.48-2.88-1-4.47-.6-3.15.75-7.24.27-6.67-3.95.5-3.75 5.32-3.5 8.15-3.15a26.44 26.44 0 0 0 7.56.17c1.6-.24 3.76-.75 5.06.53s1.2 3.44 1 5.08c-.06.6-.1 1.06-.1 1.37-.05.63-.1 3-.2 7.16-.02 3.15-.04 6.37-.04 9.68zm-6-30.24a6.2 6.2 0 0 1-4.56-1.9 6.36 6.36 0 0 1 0-9 6.57 6.57 0 0 1 9.1 0 6.36 6.36 0 0 1 0 9 6.2 6.2 0 0 1-4.54 1.9zM122.78 70.14l16-18.44-16-19a5.35 5.35 0 0 0-5.3-1.74l-2 .55c-2.74.77-5.42-.56-5.4-3.55s2.44-3.95 5.1-3.95l5.75.46a43.42 43.42 0 0 0 10.5-.06c2.76-.3 8.56-1.62 10 1.8 1.6 3.93-2.36 6.3-5.8 5.14l-1.74-.53h-.7c-.3 0-.46.1-.46.23a5.48 5.48 0 0 0 1 1.65l10.5 12.87 11-12.87c.7-.8 1-1.34 1-1.65-.37-.6-2 0-2.45.18-2.55.8-5.7.37-6.07-2.75s2-4.45 4.8-4.45c-.16 0 1.88.2 6.12.58a52.1 52.1 0 0 0 11.53-.18c2.8-.35 8.45-1.53 9.53 2.24a4.1 4.1 0 0 1-1 4.22c-1.48 1.18-3.7.76-5.4.36a6.27 6.27 0 0 0-5 .36 21.87 21.87 0 0 0-5.3 4.78l-13.45 15.27 18 21.28c1.62 2 3.7 2.08 6.06 1.8 3-.34 6.52-.06 6.28 3.8-.2 3.2-3.1 3.64-5.75 3.64l-4.5-.58a54.3 54.3 0 0 0-11.77.12l-4.14.47h-1.27c-3.06 0-6.1-1.24-5.3-4.85s5.66-2.75 8.4-2.4c1 .45 2.78-.38 1.62-1.5l-.34-.47-12.83-15-13 15c-.46.5-1.27 1.4-.4 1.86s2.37 0 3.16-.1c3.15-.3 7.7-.2 7.37 4.14-.27 3.4-4 3.3-6.57 3.3l-4.6-.46a53.4 53.4 0 0 0-11.08 0c-2.77.33-8.6 1.72-10.23-1.52a4.32 4.32 0 0 1 .45-4.5c1.32-1.45 3.63-1.14 5.38-1 1.53.14 2.7.25 4-.56a19.16 19.16 0 0 0 4.3-3.96zM199.7 70.14l16-18.44-16-19a5.34 5.34 0 0 0-5.3-1.7l-2 .55c-2.75.74-5.43-.55-5.42-3.56s2.46-4 5.1-4l5.78.46a43.47 43.47 0 0 0 10.5-.06c2.76-.3 8.56-1.62 10 1.8 1.6 3.93-2.35 6.32-5.8 5.14l-1.73-.53h-.7c-.3 0-.46.1-.46.23a5.18 5.18 0 0 0 1 1.65l10.5 12.87 11-12.87c.68-.8 1-1.34 1-1.65-.3-.6-2.1.06-2.45.18-2.53.8-5.67.36-6-2.75s2-4.45 4.8-4.45q-.23 0 6.13.58a51.78 51.78 0 0 0 11.52-.18c2.8-.35 8.45-1.53 9.54 2.24a4.1 4.1 0 0 1-1 4.22c-1.48 1.18-3.7.76-5.4.36a6.27 6.27 0 0 0-5 .36 21.84 21.84 0 0 0-5.3 4.78l-13.54 15.27 18 21.28c1.6 2 3.7 2.08 6.05 1.8 3-.34 6.53-.07 6.3 3.8-.2 3.2-3.13 3.64-5.77 3.64l-4.5-.58a54.32 54.32 0 0 0-11.75.12l-4.15.47h-1.27c-3.05 0-6.1-1.25-5.3-4.85s5.66-2.75 8.4-2.4c1 .5 2.74-.38 1.62-1.5l-.35-.47-12.8-15-13 15c-.47.5-1.28 1.4-.4 1.86s2.37 0 3.16-.1c3.14-.3 7.7-.2 7.36 4.14-.26 3.4-4 3.3-6.56 3.3l-4.6-.46a53.4 53.4 0 0 0-11.1 0C193 82 187 83.43 185.5 80a4.28 4.28 0 0 1 .6-4.47c1.36-1.34 3.6-1 5.3-.92a6 6 0 0 0 4-.56 19 19 0 0 0 4.3-3.9zM27.1 94.1a3.26 3.26 0 0 1 2.07.64v-.07c0-.46.2-.68.6-.68s.6.18.6.58v.56a4.77 4.77 0 0 0-.06.75 5.36 5.36 0 0 0 0 .64v.65c0 .46-.2.7-.6.7a.54.54 0 0 1-.6-.6v-.6a1.2 1.2 0 0 0-.63-1 2.7 2.7 0 0 0-1.47-.4 2.23 2.23 0 0 0-1.43.45 1.3 1.3 0 0 0-.58 1.08c0 .78.54 1.26 1.63 1.4l1.08.15c2.12.3 3.17 1.15 3.17 2.62a2.66 2.66 0 0 1-1 2.16 4.07 4.07 0 0 1-2.66.82 4.2 4.2 0 0 1-2.65-.87v.36c0 .45-.2.66-.64.66s-.67-.25-.67-.75c0 .08 0-.23.1-1a3.5 3.5 0 0 0 0-.52 5.3 5.3 0 0 0-.07-.83 3.53 3.53 0 0 1-.07-.6c0-.44.18-.66.58-.66s.42.07.5.2a2.9 2.9 0 0 1 .1 1 1.52 1.52 0 0 0 .85 1.27 3.92 3.92 0 0 0 2.07.5 2.37 2.37 0 0 0 1.5-.46 1.42 1.42 0 0 0 .6-1.16c0-.83-.66-1.33-2-1.45a7.83 7.83 0 0 1-2.9-.75 2 2 0 0 1-1-1.9 2.6 2.6 0 0 1 1-2.1 3.9 3.9 0 0 1 2.6-.8zM36.6 104a3.88 3.88 0 0 1-3.13-1.34A5.34 5.34 0 0 1 32.3 99a5.28 5.28 0 0 1 1.2-3.6 4 4 0 0 1 3.16-1.35 4 4 0 0 1 3.18 1.32A5.18 5.18 0 0 1 41 99a5.26 5.26 0 0 1-1.2 3.63 4 4 0 0 1-3.2 1.37zm.1-8.68a2.5 2.5 0 0 0-2.06.9 4.33 4.33 0 0 0-.82 2.6V99a4.45 4.45 0 0 0 .75 2.74 2.4 2.4 0 0 0 2 1 2.55 2.55 0 0 0 2.13-1 4.38 4.38 0 0 0 .82-2.74c0-2.45-.95-3.7-2.83-3.7zM45.35 95.93v5.76c0 .62.18.94.5.94a3.5 3.5 0 0 0 .48-.08h.3a.54.54 0 0 1 .62.62c0 .4-.25.6-.76.6-.2 0-.52 0-.95-.07a9.36 9.36 0 0 0-1-.06 7.73 7.73 0 0 0-.9.07c-.4 0-.68.08-.86.08h-.1c-.52 0-.78-.2-.78-.67s.2-.54.63-.54H42.85l.54.1a.4.4 0 0 0 .42-.3 7.86 7.86 0 0 0 .1-1.5v-7.5-.74a.53.53 0 0 0-.53-.44l-.5.08h-.33a.55.55 0 0 1-.63-.6c0-.42.24-.63.73-.63h.36l.45.07a3.5 3.5 0 0 0 .5 0 4 4 0 0 0 .56-.07 3.5 3.5 0 0 1 .56-.06c.28 0 .42.18.42.54a1.36 1.36 0 0 1 0 .3c-.12 1.03-.17 2.38-.17 4.13zM55.76 103.2v-.57a3.37 3.37 0 0 1-2.92 1.37 3.3 3.3 0 0 1-3-1.35 2.9 2.9 0 0 1-.4-1.4V98.07c0-1.68-.2-2.53-.56-2.53a2.34 2.34 0 0 0-.35 0h-.38c-.44 0-.65-.2-.65-.6s.27-.6.8-.6h.54a4.4 4.4 0 0 0 .54 0 3.9 3.9 0 0 0 .57-.05h.32c.38 0 .58.22.58.7v1.7l-.05 1.37v1.22a7.37 7.37 0 0 0 .25 2.3 1.92 1.92 0 0 0 2 1.17 2.67 2.67 0 0 0 1.4-.36 1.92 1.92 0 0 0 .86-1 8.23 8.23 0 0 0 .3-2.74v-2.18c-.05-.6-.2-.88-.47-.88h-.56c-.44 0-.65-.2-.65-.56s.23-.63.72-.63h1a3.28 3.28 0 0 0 .46 0h.44c.38 0 .56.2.56.6a1.5 1.5 0 0 1 0 .4 17.37 17.37 0 0 0-.1 2.1v4.11c.07.66.24 1 .53 1h.75c.4 0 .62.2.62.6s-.26.63-.78.63h-.48l-.57-.05h-.4a1.82 1.82 0 0 1-.4.05.47.47 0 0 1-.5-.62zM64.8 101.1v-1.17c0-.5.23-.76.67-.76s.66.28.66.86a5.47 5.47 0 0 1-.53 2.82 2.52 2.52 0 0 1-2.3 1.07 2.32 2.32 0 0 1-2.1-1 4.38 4.38 0 0 1-.45-2.33v-4.42a.33.33 0 0 0-.37-.38h-.6a.7.7 0 0 1-.5-.2.66.66 0 0 1-.2-.48.6.6 0 0 1 .2-.46.55.55 0 0 1 .43-.2h.73c.2 0 .32-.1.32-.36v-1.9a.63.63 0 0 1 .72-.7c.44 0 .66.23.66.7v2c0 .2.1.28.34.28h2c.47 0 .7.2.7.65s-.24.7-.75.7h-2c-.17 0-.26.12-.26.37v4.56c0 1.3.43 1.95 1.3 1.95s1.3-.53 1.34-1.6zM70.07 98.3v3.5c.07.56.23.84.5.84.06 0 .2 0 .47-.08a.86.86 0 0 1 .27 0c.48 0 .72.2.72.6a.55.55 0 0 1-.23.44.87.87 0 0 1-.6.2 8.12 8.12 0 0 1-.9-.1 6.82 6.82 0 0 0-.9-.1 8 8 0 0 0-1.08.1 9.1 9.1 0 0 1-1 .1c-.5 0-.73-.2-.73-.63s.2-.6.63-.6a3.36 3.36 0 0 1 .43 0 4.1 4.1 0 0 0 .44 0c.3 0 .5-.4.55-1.2v-4.7c-.06-.77-.25-1.16-.57-1.16a1.8 1.8 0 0 0-.42.08 1.62 1.62 0 0 1-.4.06q-.67 0-.67-.6c0-.42.26-.6.8-.6h.5c.4 0 .66.06.77.06h.45a3 3 0 0 1 .46 0c.35 0 .53.24.53.72a1.32 1.32 0 0 1 0 .2v1.4c-.02.42-.03.94-.03 1.48zm-1-4.86a1 1 0 1 1 .73-1.77 1 1 0 0 1-.73 1.77zM77.08 104a3.87 3.87 0 0 1-3.08-1.36 6.12 6.12 0 0 1 0-7.2 4 4 0 0 1 3.15-1.35 4.05 4.05 0 0 1 3.2 1.3 5.22 5.22 0 0 1 1.13 3.6 5.3 5.3 0 0 1-1.2 3.63 4 4 0 0 1-3.2 1.37zm.1-8.68a2.53 2.53 0 0 0-2.05.9 4.4 4.4 0 0 0-.82 2.6V99a4.5 4.5 0 0 0 .75 2.74 2.4 2.4 0 0 0 2 1 2.57 2.57 0 0 0 2.14-1A4.4 4.4 0 0 0 80 99c0-2.45-.94-3.7-2.82-3.7zM85.77 95v.53a3.6 3.6 0 0 1 3-1.4 3.73 3.73 0 0 1 1.9.5 2.64 2.64 0 0 1 1.2 1.28 4.46 4.46 0 0 1 .25 1.66v4.38c.06.42.23.63.5.63a3.32 3.32 0 0 0 .43 0h.38a.58.58 0 0 1 .4.16.52.52 0 0 1 .2.4.6.6 0 0 1-.23.47.78.78 0 0 1-.54.2 8.6 8.6 0 0 1-.86-.08 8.9 8.9 0 0 0-1.1-.07h-.8l-1 .1c-.5 0-.75-.2-.75-.65s.22-.56.65-.56h.34a3.53 3.53 0 0 0 .45.08c.3 0 .46-.34.48-1v-3.5a7 7 0 0 0-.08-1.34 1.8 1.8 0 0 0-.72-1.1 2.35 2.35 0 0 0-1.4-.4 2.3 2.3 0 0 0-2.1 1 4.94 4.94 0 0 0-.46 2.45v2.47a3.52 3.52 0 0 0 .1 1.1.4.4 0 0 0 .42.3 1.7 1.7 0 0 0 .4-.06 2.32 2.32 0 0 1 .43-.05c.4 0 .57.2.57.6s-.24.6-.73.6c-.1 0-.4 0-1-.1a7.2 7.2 0 0 0-.9-.06 9 9 0 0 0-1 .1l-.92.08c-.52 0-.77-.2-.77-.64s.2-.58.6-.58a1.48 1.48 0 0 1 .36.05 2.62 2.62 0 0 0 .5.06c.38 0 .58-.35.6-1.08v-4.9a2.4 2.4 0 0 0-.17-.87.43.43 0 0 0-.43-.24 1.63 1.63 0 0 0-.4.07 2 2 0 0 1-.38.05c-.46 0-.68-.2-.68-.6s.27-.63.83-.63h.2l.67.06a2.6 2.6 0 0 0 .52 0h.5c.35-.05.53.13.53.54zM94.7 98.73c0-.43.25-.66.76-.66h2.88c.5 0 .74.22.74.63s-.25.67-.74.67h-2.88c-.46 0-.76-.2-.76-.64zM104.73 104a3.9 3.9 0 0 1-3.1-1.34 6.13 6.13 0 0 1 0-7.2 4 4 0 0 1 3.15-1.35 4.08 4.08 0 0 1 3.2 1.33 6.08 6.08 0 0 1 0 7.2 4.06 4.06 0 0 1-3.25 1.37zm.1-8.68a2.5 2.5 0 0 0-2 .9 4.27 4.27 0 0 0-.83 2.58v.2a4.5 4.5 0 0 0 .74 2.74 2.4 2.4 0 0 0 2 1 2.6 2.6 0 0 0 2.14-1 4.46 4.46 0 0 0 .77-2.75c0-2.45-.93-3.7-2.8-3.7zM113.4 94.93v.5a3 3 0 0 1 2.6-1.34 3 3 0 0 1 2.1.72 2.43 2.43 0 0 1 .8 1.88 2.06 2.06 0 0 1-.4 1.33 1.32 1.32 0 0 1-1.07.5 1 1 0 0 1-.72-.26.8.8 0 0 1-.3-.63.76.76 0 0 1 .23-.53.7.7 0 0 1 .52-.22l.24.06a.82.82 0 0 0 .1-.4 1.1 1.1 0 0 0-.47-.9 1.8 1.8 0 0 0-1.17-.38 1.85 1.85 0 0 0-1.93 1.3 7.17 7.17 0 0 0-.3 2.4v2.63c.06.7.25 1.04.58 1.04a1.9 1.9 0 0 0 .52-.07 1.9 1.9 0 0 1 .35 0c.4 0 .6.2.6.58s-.25.64-.76.64h-.06a8 8 0 0 1-.85-.07c-.38 0-.67-.06-.85-.06h-1.17l-1 .1c-.5 0-.75-.22-.75-.67s.23-.56.7-.56h.3l.27.05h.27c.3 0 .47-.3.5-.87v-.94l-.06-4.2c0-.74-.2-1.1-.55-1.1a2.47 2.47 0 0 0-.4 0 2.42 2.42 0 0 1-.4 0c-.42 0-.62-.2-.62-.6s.26-.64.8-.64h.56a4.86 4.86 0 0 0 .55 0h.5a1.2 1.2 0 0 1 .35 0c.23.15.4.3.4.67zM122.7 98.3v3.5c.06.56.23.84.5.84a4.5 4.5 0 0 0 .46-.08.94.94 0 0 1 .28 0c.46 0 .7.2.7.6a.53.53 0 0 1-.24.44.86.86 0 0 1-.58.2 8.3 8.3 0 0 1-.9-.1 6.93 6.93 0 0 0-.9-.1 8.2 8.2 0 0 0-1.08.1 9.06 9.06 0 0 1-1 .1c-.5 0-.75-.2-.75-.63s.2-.6.63-.6a3.4 3.4 0 0 1 .44 0 3.78 3.78 0 0 0 .45 0c.3 0 .47-.4.53-1.2v-4.7c-.06-.77-.26-1.16-.56-1.16a1.73 1.73 0 0 0-.43.08 1.62 1.62 0 0 1-.4.06c-.45 0-.68-.2-.68-.6s.27-.6.8-.6h.52c.4 0 .64.06.75.06h.46a2.82 2.82 0 0 1 .45 0c.36 0 .54.24.54.72a.88.88 0 0 1 0 .2v1.4c-.02.42-.02.94-.02 1.48zm-1-4.86a1 1 0 0 1-.73-.3 1 1 0 0 1 0-1.47 1 1 0 1 1 .73 1.77zM133.86 98.2a2.1 2.1 0 0 1-.1.86c-.06.1-.23.16-.53.16h-5.92a.63.63 0 0 0-.3.06.3.3 0 0 0-.07.22 3.36 3.36 0 0 0 .83 2.33 2.72 2.72 0 0 0 2.08.93 2.66 2.66 0 0 0 1.5-.45 2.1 2.1 0 0 0 .88-1.1l.17-.56a.57.57 0 0 1 .6-.44.62.62 0 0 1 .68.7 2.7 2.7 0 0 1-1.23 2.15 4.36 4.36 0 0 1-2.77.93 3.9 3.9 0 0 1-3.1-1.3 5.13 5.13 0 0 1-1.15-3.5 5.37 5.37 0 0 1 1.23-3.68 4 4 0 0 1 3.18-1.4 3.84 3.84 0 0 1 2.88 1.17 4.1 4.1 0 0 1 1.14 2.94zm-6.73-.47c0 .18.14.26.4.26H132c.26 0 .4-.1.4-.27a2.32 2.32 0 0 0-.76-1.7 2.4 2.4 0 0 0-1.75-.73 2.85 2.85 0 0 0-1.9.76 2.2 2.2 0 0 0-.87 1.67zM138.07 95v.53a3.57 3.57 0 0 1 3-1.4 3.72 3.72 0 0 1 1.9.5 2.6 2.6 0 0 1 1.2 1.28 4.4 4.4 0 0 1 .26 1.66V101a8.93 8.93 0 0 0 0 .94c.06.42.22.63.5.63a3 3 0 0 0 .43 0h.4a.6.6 0 0 1 .4.16.53.53 0 0 1 .2.4.6.6 0 0 1-.23.47.8.8 0 0 1-.55.2c-.17 0-.45 0-.85-.08a9.14 9.14 0 0 0-1.12-.07h-.78l-1 .1c-.5 0-.75-.2-.75-.65s.2-.56.64-.56a2 2 0 0 1 .36 0l.45.08c.32 0 .48-.34.5-1v-3.5a6.3 6.3 0 0 0-.08-1.34 1.76 1.76 0 0 0-.72-1.1 2.6 2.6 0 0 0-3.5.63 5 5 0 0 0-.45 2.47v2.47a3.94 3.94 0 0 0 .1 1.1.4.4 0 0 0 .42.3 1.6 1.6 0 0 0 .4-.06 2.42 2.42 0 0 1 .43-.05c.38 0 .57.2.57.62s-.24.6-.74.6c-.1 0-.4 0-1-.1a7.3 7.3 0 0 0-.9-.07 8.85 8.85 0 0 0-1 .1l-.94.08c-.53 0-.8-.2-.8-.64a.52.52 0 0 1 .6-.58 1.57 1.57 0 0 1 .36.05 2.58 2.58 0 0 0 .5.05c.37 0 .58-.36.6-1.1v-4.94a2.66 2.66 0 0 0-.17-.85.44.44 0 0 0-.43-.24 1.7 1.7 0 0 0-.4.07 2 2 0 0 1-.38.05c-.46 0-.7-.2-.7-.6s.3-.63.85-.63h.18l.7.06a2.5 2.5 0 0 0 .5 0h.5c.36-.05.54.13.54.54zM152.2 101.1v-1.17c0-.5.23-.76.66-.76s.65.28.65.86a5.68 5.68 0 0 1-.5 2.82 2.56 2.56 0 0 1-2.3 1.07 2.32 2.32 0 0 1-2.1-1 4.4 4.4 0 0 1-.47-2.33v-4.42c0-.25-.12-.38-.36-.38h-.6a.7.7 0 0 1-.5-.2.68.68 0 0 1-.2-.48.64.64 0 0 1 .2-.46.58.58 0 0 1 .43-.2h.72c.2 0 .3-.1.3-.36v-1.9a.63.63 0 0 1 .73-.7c.45 0 .67.23.67.7v2c0 .2.1.28.34.28h2c.47 0 .7.2.7.65s-.25.7-.76.7h-2c-.18 0-.26.12-.26.37v4.56c0 1.3.43 1.95 1.3 1.95s1.32-.53 1.35-1.6zM162.88 98.2a2.16 2.16 0 0 1-.1.86c-.05.1-.23.16-.53.16h-5.9a.6.6 0 0 0-.32.06.3.3 0 0 0-.07.22 3.38 3.38 0 0 0 .83 2.33 2.73 2.73 0 0 0 2.08.93 2.62 2.62 0 0 0 1.5-.45 2 2 0 0 0 .88-1.1l.17-.56a.57.57 0 0 1 .6-.44.62.62 0 0 1 .7.7 2.7 2.7 0 0 1-1.22 2.15 4.42 4.42 0 0 1-2.78.93 3.93 3.93 0 0 1-3.1-1.3 5.16 5.16 0 0 1-1.14-3.5 5.4 5.4 0 0 1 1.22-3.68 4 4 0 0 1 3.2-1.4 3.82 3.82 0 0 1 2.86 1.17 4.07 4.07 0 0 1 1.12 2.94zm-6.73-.47c0 .18.14.26.4.26H161c.25 0 .4-.1.4-.27a2.3 2.3 0 0 0-.75-1.7 2.4 2.4 0 0 0-1.75-.73 2.8 2.8 0 0 0-1.9.76 2.2 2.2 0 0 0-.86 1.67zM168.4 94.1a3 3 0 0 1 2.73 1.42v-1.88a6.85 6.85 0 0 0 0-.9c-.07-.4-.24-.58-.52-.58a1.76 1.76 0 0 0-.4.07 2.24 2.24 0 0 1-.43.06c-.45 0-.68-.22-.68-.62s.3-.62.92-.62h.54l.6.05a4.38 4.38 0 0 0 .5 0 3.88 3.88 0 0 1 .48 0q.52 0 .52.76V93c0 .07 0 .56-.05 1.44v6.32a7.66 7.66 0 0 0 .12 1.53.42.42 0 0 0 .46.3 1.83 1.83 0 0 0 .38 0h.42c.46 0 .7.18.7.6s-.3.6-.85.6H172.28a1.88 1.88 0 0 1-.4.06c-.33 0-.5-.22-.5-.68v-.4a3.3 3.3 0 0 1-2.83 1.3 3.72 3.72 0 0 1-3-1.36 6.22 6.22 0 0 1 0-7.18 3.75 3.75 0 0 1 2.84-1.45zm2.66 6.53a12.52 12.52 0 0 0 .07-1.57 8.93 8.93 0 0 0-.1-1.68 2.3 2.3 0 0 0-.78-1.45 2.67 2.67 0 0 0-1.73-.62 2.46 2.46 0 0 0-2.05 1 5.35 5.35 0 0 0 0 5.48 2.7 2.7 0 0 0 3.8.42 2.3 2.3 0 0 0 .8-1.57zM182.84 94.94v.6a3.28 3.28 0 0 1 2.83-1.44 3.67 3.67 0 0 1 2.94 1.27 5.15 5.15 0 0 1 1.1 3.47 5.7 5.7 0 0 1-1.15 3.75 3.8 3.8 0 0 1-3.1 1.4 3.27 3.27 0 0 1-2.62-1.14v1.55a8.45 8.45 0 0 0 0 .92c.07.38.25.57.53.57a1.9 1.9 0 0 0 .4-.07 2 2 0 0 1 .4-.06c.4 0 .58.2.58.62s-.25.6-.78.6a6.78 6.78 0 0 1-.83-.08 11.24 11.24 0 0 0-1.22-.05 5.9 5.9 0 0 0-.73 0c-.5.05-.82.1-1 .1a.84.84 0 0 1-.53-.2.58.58 0 0 1-.23-.45c0-.4.22-.6.64-.6a1.68 1.68 0 0 1 .35.07 2.5 2.5 0 0 0 .45.05.4.4 0 0 0 .43-.36 13 13 0 0 0 .12-2v-7.15c0-.56-.18-.85-.48-.85a1.8 1.8 0 0 0-.4.07 2.14 2.14 0 0 1-.4.07c-.46 0-.7-.2-.7-.6s.28-.6.82-.6H181.37a4 4 0 0 0 .47 0h.46c.4 0 .54.15.54.5zm.28 2.27a8.15 8.15 0 0 0-.2 1.77v.55a5.75 5.75 0 0 0 .2 1.8 2.16 2.16 0 0 0 .82 1 2.43 2.43 0 0 0 1.5.45 2.5 2.5 0 0 0 2.08-1 4.55 4.55 0 0 0 .73-2.77c0-2.48-.88-3.72-2.64-3.72a2.54 2.54 0 0 0-1.58.54 2.28 2.28 0 0 0-.9 1.38zM193.93 94.93v.5a3.24 3.24 0 0 1 4.68-.6 2.43 2.43 0 0 1 .82 1.87A2 2 0 0 1 199 98a1.27 1.27 0 0 1-1.07.5 1 1 0 0 1-.72-.26.8.8 0 0 1-.28-.63.76.76 0 0 1 .22-.52.68.68 0 0 1 .52-.23.92.92 0 0 1 .24.06.92.92 0 0 0 .12-.4 1.1 1.1 0 0 0-.47-.9 1.85 1.85 0 0 0-1.18-.37 1.87 1.87 0 0 0-1.93 1.3 7.48 7.48 0 0 0-.3 2.4v2.63c.07.7.26 1.05.6 1.05a1.9 1.9 0 0 0 .5-.06 1.9 1.9 0 0 1 .35 0 .52.52 0 0 1 .58.58c0 .43-.24.64-.74.64h-.08a7.64 7.64 0 0 1-.84-.06c-.38 0-.66-.06-.85-.06h-1.18l-1 .1c-.52 0-.78-.22-.78-.67s.24-.56.72-.56h.27l.3.06h.25c.3 0 .48-.28.5-.86v-.94l-.05-4.2c0-.73-.22-1.1-.56-1.1a2.56 2.56 0 0 0-.4 0 2.24 2.24 0 0 1-.42 0 .53.53 0 0 1-.6-.6c0-.42.26-.63.8-.63h.55a4.65 4.65 0 0 0 .55 0 3.93 3.93 0 0 0 .48 0 1.24 1.24 0 0 1 .35 0c.3.18.48.34.48.7zM204.5 104a3.9 3.9 0 0 1-3.13-1.34 6.16 6.16 0 0 1 0-7.2 4 4 0 0 1 3.17-1.35 4.05 4.05 0 0 1 3.2 1.33A5.2 5.2 0 0 1 208.9 99a5.25 5.25 0 0 1-1.2 3.63 4 4 0 0 1-3.2 1.37zm.1-8.68a2.5 2.5 0 0 0-2 .9 4.3 4.3 0 0 0-.83 2.6V99a4.56 4.56 0 0 0 .73 2.74 2.43 2.43 0 0 0 2.06 1 2.53 2.53 0 0 0 2.12-1 4.35 4.35 0 0 0 .78-2.75c-.04-2.45-.98-3.7-2.87-3.7zM214.5 94.1a3 3 0 0 1 2.75 1.42v-1.88a8.36 8.36 0 0 0 0-.9c-.06-.4-.23-.58-.53-.58a1.72 1.72 0 0 0-.4.07 2.4 2.4 0 0 1-.43.06c-.47 0-.7-.22-.7-.62s.3-.62.92-.62h.54l.6.05a4.23 4.23 0 0 0 .5 0 3.93 3.93 0 0 1 .48 0c.35 0 .5.26.5.76V93c0 .07 0 .56-.05 1.44v6.32a7.77 7.77 0 0 0 .1 1.53.43.43 0 0 0 .46.3 1.8 1.8 0 0 0 .37 0h.42c.47 0 .7.18.7.6s-.27.6-.83.6H218.35a1.8 1.8 0 0 1-.4.06c-.32 0-.5-.22-.5-.68v-.4a3.3 3.3 0 0 1-2.83 1.3 3.74 3.74 0 0 1-3-1.36 6.23 6.23 0 0 1 0-7.18 3.76 3.76 0 0 1 2.88-1.45zm2.68 6.53c0-.4.06-.94.06-1.57a10.14 10.14 0 0 0-.1-1.68 2.34 2.34 0 0 0-.8-1.45 2.67 2.67 0 0 0-1.72-.62 2.46 2.46 0 0 0-2.05 1 4.42 4.42 0 0 0-.74 2.7 4.52 4.52 0 0 0 .77 2.78 2.53 2.53 0 0 0 2.1 1 2.5 2.5 0 0 0 1.68-.6 2.4 2.4 0 0 0 .8-1.55zM229.06 103.2v-.57a3.36 3.36 0 0 1-2.9 1.35 3.3 3.3 0 0 1-3-1.35 2.9 2.9 0 0 1-.42-1.4v-3.16c0-1.68-.18-2.53-.55-2.53a2.3 2.3 0 0 0-.36 0h-.38c-.43 0-.65-.2-.65-.6s.27-.6.8-.6h.56a4.36 4.36 0 0 0 .54 0 4.2 4.2 0 0 0 .58-.05h.32c.38 0 .58.22.58.7v1.7l-.18 1.37v1.22a7.23 7.23 0 0 0 .27 2.3 1.9 1.9 0 0 0 2 1.17 2.75 2.75 0 0 0 1.4-.36 2 2 0 0 0 .86-1 8 8 0 0 0 .3-2.74v-2.18c-.06-.6-.23-.88-.48-.88h-.56c-.45 0-.66-.2-.66-.56s.23-.63.7-.63h.53a4.2 4.2 0 0 0 .5 0 3.35 3.35 0 0 0 .45 0h.45c.37 0 .55.2.55.6a1.5 1.5 0 0 1 0 .4 17.7 17.7 0 0 0-.1 2.1v4.11c.07.66.26 1 .54 1h.74c.43 0 .63.2.63.6s-.26.63-.77.63h-.5l-.57-.05h-.4a1.93 1.93 0 0 1-.4.05.47.47 0 0 1-.44-.62zM238.35 97.56c0-.5.3-.78.92-.86a1.44 1.44 0 0 0-.62-1 2.33 2.33 0 0 0-1.37-.38 2.5 2.5 0 0 0-2.06 1 4.4 4.4 0 0 0-.78 2.7 4.6 4.6 0 0 0 .73 2.75 2.4 2.4 0 0 0 2 1 2.24 2.24 0 0 0 1.42-.47 2.3 2.3 0 0 0 .82-1.27c.12-.44.2-.68.22-.74a.7.7 0 0 1 1.32.33 2.72 2.72 0 0 1-.3 1.1 3.8 3.8 0 0 1-.7 1.1 3.7 3.7 0 0 1-2.84 1.15 3.83 3.83 0 0 1-3.05-1.33 5.18 5.18 0 0 1-1.15-3.5 5.46 5.46 0 0 1 1.2-3.7 4 4 0 0 1 3.18-1.36 3.78 3.78 0 0 1 2.47.8 2.53 2.53 0 0 1 1 2 1.65 1.65 0 0 1-.38 1.12 1.2 1.2 0 0 1-1 .45 1.12 1.12 0 0 1-.77-.27.88.88 0 0 1-.28-.64zM247.56 101.1v-1.17c0-.5.23-.76.67-.76s.64.28.64.86a5.6 5.6 0 0 1-.5 2.82 2.56 2.56 0 0 1-2.32 1.07 2.3 2.3 0 0 1-2.1-1 4.3 4.3 0 0 1-.45-2.33v-4.42c0-.25-.12-.38-.36-.38h-.6a.7.7 0 0 1-.5-.2.7.7 0 0 1-.2-.48.65.65 0 0 1 .2-.46.57.57 0 0 1 .44-.2h.7c.23 0 .33-.1.33-.36v-1.9a.63.63 0 0 1 .73-.7c.44 0 .66.23.66.7v2c0 .2.1.28.33.28h2c.47 0 .7.2.7.65s-.25.7-.75.7h-2c-.17 0-.26.12-.26.37v4.56c0 1.3.43 1.95 1.3 1.95s1.3-.53 1.34-1.6zM253.73 94.1a3.26 3.26 0 0 1 2.06.64v-.07c0-.46.2-.68.58-.68s.62.18.62.58v.56a4.4 4.4 0 0 0-.06.75 4.9 4.9 0 0 0 0 .64c0 .3.05.5.05.65 0 .46-.22.7-.62.7a.54.54 0 0 1-.6-.6v-.6a1.2 1.2 0 0 0-.64-1 2.67 2.67 0 0 0-1.46-.4 2.22 2.22 0 0 0-1.43.45 1.28 1.28 0 0 0-.58 1.08c0 .78.54 1.26 1.63 1.4l1.08.15c2.1.3 3.16 1.15 3.16 2.62a2.65 2.65 0 0 1-1 2.16 4.1 4.1 0 0 1-2.66.82 4.24 4.24 0 0 1-2.66-.87v.36c0 .45-.2.66-.63.66s-.7-.25-.7-.75a8.85 8.85 0 0 0 .12-1 4.33 4.33 0 0 0 0-.52 4 4 0 0 0-.07-.83 3.43 3.43 0 0 1-.07-.6c0-.44.2-.66.6-.66s.43.07.5.2a2.82 2.82 0 0 1 .1 1 1.5 1.5 0 0 0 .85 1.27 3.9 3.9 0 0 0 2.07.5 2.38 2.38 0 0 0 1.5-.46 1.4 1.4 0 0 0 .6-1.16c0-.83-.67-1.33-2-1.45a7.86 7.86 0 0 1-2.92-.75 2 2 0 0 1-1-1.9 2.56 2.56 0 0 1 1-2.1 3.88 3.88 0 0 1 2.55-.8zM266.58 32.5h-1.7v-7h-2.64V24h6.9v1.48h-2.56zm5.17 0h-1.6V24h2.68l1.53 5.84L275.9 24h2.7v8.5H277v-6.76l-1.83 6.76h-1.55l-1.82-6.76z" fill="#231f20"/></svg>