<svg data-name="Layer 1" xmlns="http://www.w3.org/2000/svg" viewBox="0 0 288 108"><title>timeless-prescription-usca-mx-tw-logo</title><path fill="none" stroke="#050404" stroke-width="1.7" d="M59.07 64.46h168.4"/><path fill="#fde0d9" d="M63 72.17h160.63V106H63z"/><path d="M78.65 93.53H77l-.62-1.78-.7-2h-3.43l-1.47 3.84H69l1.6-3.82 1.4-3.33 1.2-2.86h1.9l1.43 4 .84 2.33zm-3.34-5.1l-1.23-3.58-.17.38-1.25 3.2zM87.08 93.23l-1 .24-.62.1c-.34 0-.65.07-.94.1s-.63 0-1 0a4.87 4.87 0 0 1-3.15-1 4.45 4.45 0 0 1-.8-.9A4.27 4.27 0 0 1 79 90.7a6.2 6.2 0 0 1-.33-2.13 6 6 0 0 1 .32-2 4.73 4.73 0 0 1 1-1.64 4.56 4.56 0 0 1 1.58-1.12 5.37 5.37 0 0 1 2.16-.4 11.44 11.44 0 0 1 1.48.1 11.64 11.64 0 0 1 1.47.28l.12 1.46a11 11 0 0 0-1.38-.4 6.3 6.3 0 0 0-1.4-.16 4.1 4.1 0 0 0-1.5.26 3.37 3.37 0 0 0-1.16.74 3.44 3.44 0 0 0-.9 1.32 4.55 4.55 0 0 0-.27 1.57 4.26 4.26 0 0 0 .8 2.76 2.7 2.7 0 0 0 1 .8 3.3 3.3 0 0 0 1.4.3 7.06 7.06 0 0 0 2.12-.32v-3h-1.7v-1.2h3.27v5.34zM94.86 93.53h-6V83.6h6v1.27h-4.42v3h3.9v1.22h-3.9v3.15h4.42v1.28zM108.4 88.23a6.14 6.14 0 0 1-.9 3.53 3.93 3.93 0 0 1-1.87 1.5 4.84 4.84 0 0 1-1.72.27h-3.74V83.6h4.32a4 4 0 0 1 1.5.27 3.43 3.43 0 0 1 1.26.9 4.2 4.2 0 0 1 .86 1.46 6 6 0 0 1 .3 2zm-1.53 0a4.62 4.62 0 0 0-.2-1.45 2.93 2.93 0 0 0-.6-1.05 2.33 2.33 0 0 0-.86-.63 2.77 2.77 0 0 0-1.06-.2h-2.47v7.38h1.77a3.84 3.84 0 0 0 1.47-.25 2.9 2.9 0 0 0 1.07-.77 3.24 3.24 0 0 0 .67-1.3 6.35 6.35 0 0 0 .23-1.75zM115.82 93.53h-6V83.6h6v1.27h-4.42v3h3.9v1.22h-3.9v3.15h4.42v1.28zM123.17 84.87h-4.1v3h3.64v1.22h-3.63v4.43h-1.6V83.6h5.7zM131.24 83.6l-1.6 2.87-1.64 2.9v4.16h-1.6V89.2l-1.13-2.14-.67-1.25-.47-.88-.7-1.33h1.75l.8 1.66.58 1.13.73 1.48 1.12-2.2 1.07-2.08h1.73zM133.43 93.53h-1.6V83.6h1.6v9.93zM143.48 93.53h-1.95L139.36 90l-1.2-2-1.38-2.3v7.83h-1.42V83.6h2l4.64 7.93V83.6h1.42v9.93zM153.4 93.23l-1 .24-.6.1c-.35 0-.67.07-.95.1s-.63 0-1 0a4.87 4.87 0 0 1-3.15-1 4.5 4.5 0 0 1-.8-.9 4.4 4.4 0 0 1-.55-1.1 6.24 6.24 0 0 1-.33-2.14 6 6 0 0 1 .32-2 4.73 4.73 0 0 1 1-1.64 4.55 4.55 0 0 1 1.6-1.13 5.36 5.36 0 0 1 2.16-.42 11.44 11.44 0 0 1 1.48.1 11.64 11.64 0 0 1 1.47.3l.13 1.45a11.15 11.15 0 0 0-1.4-.4 6.26 6.26 0 0 0-1.38-.16 4.12 4.12 0 0 0-1.52.26 3.43 3.43 0 0 0-1.15.74 3.5 3.5 0 0 0-.93 1.36 4.55 4.55 0 0 0-.27 1.57 4.27 4.27 0 0 0 .83 2.76 2.7 2.7 0 0 0 1 .8 3.3 3.3 0 0 0 1.4.3 7.08 7.08 0 0 0 2.12-.32v-3h-1.77v-1.2h3.3v5.34zM163.84 91.22a2.35 2.35 0 0 1-.62 1.67 3.05 3.05 0 0 1-2.28.8h-.5l-.63-.08q-.6-.12-1.23-.3l-.17-1.52a6.08 6.08 0 0 0 1.1.46 4.05 4.05 0 0 0 1.18.2 2.57 2.57 0 0 0 .56-.07 1.45 1.45 0 0 0 .5-.22 1.07 1.07 0 0 0 .5-1 1.57 1.57 0 0 0-.32-.9 6.37 6.37 0 0 0-.84-.9l-1-.84a8.56 8.56 0 0 1-.9-.95 3.53 3.53 0 0 1-.52-.88 2.42 2.42 0 0 1-.18-.94 2.17 2.17 0 0 1 .73-1.74 3 3 0 0 1 2-.63h.94l1 .13.22 1.54L163 85l-.4-.13a4.15 4.15 0 0 0-1-.12 1.66 1.66 0 0 0-1 .27 1.07 1.07 0 0 0-.36.43 1.18 1.18 0 0 0-.12.5 1.6 1.6 0 0 0 .37 1 7.13 7.13 0 0 0 .85.9l1 .83a6.5 6.5 0 0 1 .88.93 3.6 3.6 0 0 1 .48.83 2.3 2.3 0 0 1 .14.8zM166.92 93.53h-1.6V83.6h1.6v9.93zm5.7 0h-1.94L169 91.1l-.93-1.34-1-1.5 1.43-2.05.82-1.2 1-1.4h1.86l-3.38 4.63zM174.9 93.53h-1.6V83.6h1.6v9.93zM185 93.53h-2L180.84 90l-1.2-2-1.38-2.3v7.83h-1.42V83.6h2l4.73 7.93V83.6H185v9.93zM193.5 92l-.13 1.43-.53.12c-.2 0-.44.08-.72.1l-.67.05h-.4a5.7 5.7 0 0 1-1.9-.3 4.08 4.08 0 0 1-1.53-1 4.43 4.43 0 0 1-1-1.62 6.34 6.34 0 0 1-.36-2.25 6.43 6.43 0 0 1 .32-2.14 4.4 4.4 0 0 1 4.5-3 8.7 8.7 0 0 1 1.12.07c.4.05.78.1 1.15.2l.05.62.07.8-.47-.1c-.26-.07-.5-.12-.72-.16l-.62-.1a5.88 5.88 0 0 0-.62 0 2.9 2.9 0 0 0-2.5 1.22 4.42 4.42 0 0 0-.75 2.65 4.3 4.3 0 0 0 .8 2.74 2.73 2.73 0 0 0 1 .83 3.3 3.3 0 0 0 1.4.3h.6a6.15 6.15 0 0 0 .64-.1l.57-.1zM203.1 93.53h-1.68l-.6-1.78-.7-2h-3.42l-1.47 3.84h-1.76l1.6-3.82 1.36-3.27 1.2-2.85h1.9l1.43 4 .84 2.34zm-3.33-5.1l-1.25-3.58-.17.38-1.25 3.2zM210 93.53h-1.76l-1.4-2.83-1.28-2.64.48.07h.32a2.24 2.24 0 0 0 1.4-.43 1.7 1.7 0 0 0 .6-1.36 1.68 1.68 0 0 0-.34-1.13 1 1 0 0 0-.46-.33 1.9 1.9 0 0 0-.63-.1h-1.9v8.72h-1.53v-9.9h3.67a3.7 3.7 0 0 1 1.2.16 2.22 2.22 0 0 1 .86.54 2.44 2.44 0 0 1 .65 1.8 2.8 2.8 0 0 1-.5 1.75 3 3 0 0 1-2 1l1 1.88.75 1.37zM217.3 93.53h-6V83.6h6v1.27h-4.43v3h3.9v1.22h-3.9v3.15h4.42v1.28zM90.66 5.25h-6.93V24.7h-4.05V5.25h-6.93V2.37h17.9zM96.42 24.7h-4.05V2.37h4.05V24.7zM124.5 24.7h-3.6V6.3l-3.5 9.6-3.1 8.8h-3.8l-3.1-8.86-1.65-4.76-1.73-5-.1 18.58h-3.12V2.36h5.66l2.6 7.54 1.53 4.5 1.94 5.6.13-.32 6.22-17.35h5.6V24.7zM144.26 24.7h-15.34V2.37h15.34v2.88H133V12h10v2.74h-10v7.1h11.28v2.86zM162.64 24.7H148V2.37h4v19.45h10.6v2.88zM179.45 24.7H164.1V2.37h15.34v2.88h-11.28V12h10v2.74h-10v7.1h11.28v2.86zM195.95 19.5a4.92 4.92 0 0 1-1.57 3.76 8.44 8.44 0 0 1-5.83 1.8h-1.3s-1-.1-1.58-.17q-1.58-.28-3.18-.68l-.45-3.42a16.72 16.72 0 0 0 2.85 1 11.6 11.6 0 0 0 3 .42 7.66 7.66 0 0 0 1.44-.13 4.14 4.14 0 0 0 1.3-.48 2.68 2.68 0 0 0 .93-.87 2.27 2.27 0 0 0 .35-1.27 3.26 3.26 0 0 0-.84-2 15.2 15.2 0 0 0-2.14-2c-.83-.62-1.64-1.26-2.44-1.9a19.8 19.8 0 0 1-2.3-2.14 8 8 0 0 1-1.32-2 5 5 0 0 1-.47-2.1 4.63 4.63 0 0 1 1.88-3.9 8.48 8.48 0 0 1 5.2-1.44q1.14 0 2.4.1c.8.07 1.64.16 2.46.27l.57 3.45c-.34-.14-.74-.26-1.16-.38l-1-.28a12 12 0 0 0-2.48-.27 4.65 4.65 0 0 0-2.54.6 2.46 2.46 0 0 0-1 1 2.42 2.42 0 0 0-.32 1.15 3.35 3.35 0 0 0 .94 2.14 18.2 18.2 0 0 0 2.2 2l2.5 1.87a16.3 16.3 0 0 1 2.23 2.07 8.16 8.16 0 0 1 1.22 1.84 4.65 4.65 0 0 1 .45 1.93zM212.05 19.5a4.9 4.9 0 0 1-1.57 3.76 8.43 8.43 0 0 1-5.83 1.8h-1.3s-1-.1-1.58-.17q-1.57-.28-3.18-.68l-.44-3.42a16.64 16.64 0 0 0 2.85 1 11.6 11.6 0 0 0 3 .42 7.67 7.67 0 0 0 1.45-.13 4.14 4.14 0 0 0 1.3-.48 2.76 2.76 0 0 0 .93-.87 2.28 2.28 0 0 0 .35-1.27 3.25 3.25 0 0 0-.84-2 15 15 0 0 0-2.15-2q-1.24-.94-2.44-1.9a20 20 0 0 1-2.28-2.14 8 8 0 0 1-1.32-2 4.92 4.92 0 0 1-.47-2.1 4.63 4.63 0 0 1 1.88-3.9A8.47 8.47 0 0 1 205.6 2q1.13 0 2.37.1t2.48.27l.55 3.45c-.36-.14-.75-.26-1.17-.38l-1-.28a12 12 0 0 0-2.48-.27 4.66 4.66 0 0 0-2.55.6 2.46 2.46 0 0 0-1 1 2.4 2.4 0 0 0-.32 1.15 3.37 3.37 0 0 0 .93 2.14 18 18 0 0 0 2.22 2l2.48 1.87a16.44 16.44 0 0 1 2.25 2.07 8.07 8.07 0 0 1 1.22 1.84 4.65 4.65 0 0 1 .48 1.93zM71.15 39.22a5.66 5.66 0 0 1-.38 2 4.87 4.87 0 0 1-1.58 2.2 6.26 6.26 0 0 1-2 1.06 8.76 8.76 0 0 1-2.65.37 12.66 12.66 0 0 1-1.34-.1l-1-.13-.46-1.4 1.18.18a9.74 9.74 0 0 0 1.2.1h.8a5.07 5.07 0 0 0 3.2-1.3 4.06 4.06 0 0 0 1.15-3.05 3.26 3.26 0 0 0-.9-2.43 3.43 3.43 0 0 0-2.5-.88h-5v18.08h-1.8v-19.5H66a5.3 5.3 0 0 1 3.92 1.35 4.66 4.66 0 0 1 1.23 3.45zM86.07 53.93H83.8l-3.67-5.44-3.47-5.17 1 .15a8.48 8.48 0 0 0 1.07.1 7 7 0 0 0 2-.27 5 5 0 0 0 1.56-.78 3.64 3.64 0 0 0 1-1.43 4.5 4.5 0 0 0 .34-1.73 3.42 3.42 0 0 0-.93-2.57 3.94 3.94 0 0 0-2.82-.9h-4.52v18.02h-1.9v-19.5h6.72a6.1 6.1 0 0 1 3.9 1.12A4.22 4.22 0 0 1 85.6 39a5.22 5.22 0 0 1-1.8 4.18 5.48 5.48 0 0 1-3.67 1.34h-.85l3 4 1.84 2.57zM100.22 53.92H88.36v-19.5h11.86v1.47H90.3v7.35h9.05v1.46H90.3v7.75h9.92v1.46zM113.34 49.7a4.45 4.45 0 0 1-.3 1.75 3.8 3.8 0 0 1-1 1.3 5.1 5.1 0 0 1-2 1.13 9.26 9.26 0 0 1-2.65.36 11.7 11.7 0 0 1-2.3-.23q-.67-.1-1.12-.22c-.3-.08-.78-.2-1.42-.4l-.2-1.88a13.6 13.6 0 0 0 2.36.92 9.42 9.42 0 0 0 2.66.4 6.1 6.1 0 0 0 1.52-.2 4.45 4.45 0 0 0 1.3-.57 2.64 2.64 0 0 0 .9-.93 2.8 2.8 0 0 0 .3-1.37 3.1 3.1 0 0 0-.63-1.87A16.8 16.8 0 0 0 107.7 45l-2.08-1.64a13.7 13.7 0 0 1-1.7-1.64 5 5 0 0 1-1.36-3.24 4.15 4.15 0 0 1 .37-1.8 4 4 0 0 1 1.14-1.38 5.08 5.08 0 0 1 1.84-.9 8.87 8.87 0 0 1 2.36-.3 13.4 13.4 0 0 1 1.64.1c.47.05 1.16.17 2.07.34l.12.8.1 1c-.45-.16-.77-.27-1-.32l-.85-.2a9.44 9.44 0 0 0-1-.2 9 9 0 0 0-1.1-.06 4.6 4.6 0 0 0-2.7.76 2.58 2.58 0 0 0-1.1 2.28 3.27 3.27 0 0 0 .85 2 13.34 13.34 0 0 0 2 1.84l2.46 2a19.48 19.48 0 0 1 2 1.8 5.1 5.1 0 0 1 1.58 3.47zM130.78 51.9l-.2 1.72-1.38.3-1.12.15c-.54.07-1 .1-1.26.13s-.75 0-1.36 0a12.38 12.38 0 0 1-4-.63 9 9 0 0 1-3.25-1.93 8.8 8.8 0 0 1-2.2-3.13 11.43 11.43 0 0 1-.76-4.3 12.34 12.34 0 0 1 .5-3.55 9.53 9.53 0 0 1 2.1-3.74 8.64 8.64 0 0 1 3.16-2.06 12.2 12.2 0 0 1 4.44-.73 22.14 22.14 0 0 1 2.47.16q1.3.14 2.54.38l.12.82.12.93-1.27-.35c-.4-.1-.83-.2-1.3-.28s-.92-.14-1.3-.18a13.48 13.48 0 0 0-1.36-.07 9.65 9.65 0 0 0-3.8.67 6.78 6.78 0 0 0-2.6 1.93 7.8 7.8 0 0 0-1.5 3.1 12.05 12.05 0 0 0-.36 3 8.87 8.87 0 0 0 2 6.14 7 7 0 0 0 2.82 1.8 9.77 9.77 0 0 0 3.47.64 15.48 15.48 0 0 0 2.76-.25 17.62 17.62 0 0 0 2.55-.65zM146.28 53.93H144l-3.67-5.44-3.48-5.17 1 .15a8.5 8.5 0 0 0 1.07.1 6.94 6.94 0 0 0 2-.27 5 5 0 0 0 1.56-.78 3.62 3.62 0 0 0 1-1.43 4.47 4.47 0 0 0 .35-1.73 3.42 3.42 0 0 0-.93-2.57 4 4 0 0 0-2.84-.9h-4.6v18.02h-1.9v-19.5h6.73a6.1 6.1 0 0 1 3.88 1.12 4.2 4.2 0 0 1 1.65 3.46 5.22 5.22 0 0 1-1.83 4.22 5.48 5.48 0 0 1-3.66 1.34h-.85l3 4 1.83 2.57zM150.42 53.92h-1.93v-19.5h1.92v19.5zM166.5 39.22a5.63 5.63 0 0 1-.4 2 4.83 4.83 0 0 1-1.56 2.2 6.26 6.26 0 0 1-2 1.06 8.76 8.76 0 0 1-2.64.37 12.7 12.7 0 0 1-1.34-.1l-1-.13-.47-1.4 1.17.18a9.8 9.8 0 0 0 1.22.1h.78a5.08 5.08 0 0 0 3.2-1.3 4 4 0 0 0 1.15-3.05 3.27 3.27 0 0 0-.9-2.43 3.43 3.43 0 0 0-2.5-.88h-5v18.08h-1.8v-19.5h6.9a5.3 5.3 0 0 1 3.93 1.35 4.66 4.66 0 0 1 1.23 3.45zM180.5 35.9h-6v18h-1.92v-18h-6.14v-1.47h14.08zM184 53.92h-1.93v-19.5H184v19.5zM207.42 44.2a12.52 12.52 0 0 1-.5 3.6 9 9 0 0 1-2.1 3.7 8.93 8.93 0 0 1-3.2 2 13.28 13.28 0 0 1-8.6 0 8.7 8.7 0 0 1-3.4-2.2 8.42 8.42 0 0 1-1.93-3 11.66 11.66 0 0 1-.68-4.1 12.3 12.3 0 0 1 .55-3.66 9.27 9.27 0 0 1 2.25-3.8A9.17 9.17 0 0 1 193 34.8a13.07 13.07 0 0 1 8.5 0 9.08 9.08 0 0 1 3.3 2.2 9.2 9.2 0 0 1 1.94 3.13 11.38 11.38 0 0 1 .68 4.06zm-1.93 0a11.05 11.05 0 0 0-.55-3.63 7.12 7.12 0 0 0-1.62-2.66 7.37 7.37 0 0 0-2.75-1.77 9.57 9.57 0 0 0-3.36-.6 9.7 9.7 0 0 0-3.56.6 7.08 7.08 0 0 0-2.57 1.72 7.55 7.55 0 0 0-1.74 3.15 12 12 0 0 0-.4 3.16 8.78 8.78 0 0 0 2.04 6.22 6.8 6.8 0 0 0 2.73 1.83 10.92 10.92 0 0 0 7.1 0 6.83 6.83 0 0 0 2.5-1.66 7.33 7.33 0 0 0 1.75-3.27 12.08 12.08 0 0 0 .4-3.08zM227.32 53.92h-2.54l-5.83-8.13-3.1-4.23-3.52-4.92-.06 8.9v8.37h-1.8v-19.5H213l12.48 17.42.06-17.4h1.8V53.9zM236.94 37.3A3.14 3.14 0 1 1 236 35a3.14 3.14 0 0 1 .94 2.3zm-.53 0a3 3 0 0 0-.32-1.4 2.72 2.72 0 0 0-.76-.9 2.77 2.77 0 0 0-2.44-.4 2.6 2.6 0 0 0-.7.33 2.68 2.68 0 0 0-.9 1 3 3 0 0 0-.3 1.36 3 3 0 0 0 .2 1.1 2.7 2.7 0 0 0 .75 1.06 2.65 2.65 0 0 0 1.18.6 3.06 3.06 0 0 0 .6.05 2.94 2.94 0 0 0 .67-.06 2.8 2.8 0 0 0 .67-.26l.2-.12a2.55 2.55 0 0 0 1-1.3 3 3 0 0 0 .17-1.07zm-1.1 1.8h-.64l-.36-.52-.1-.17-1-1.4h.68a.8.8 0 0 0 .57-.18.66.66 0 0 0 .2-.5.56.56 0 0 0-.28-.54 1 1 0 0 0-.5-.1H233v3.36h-.52v-3.68h1.73a1.06 1.06 0 0 1 .78.26.9.9 0 0 1 .27.66.8.8 0 0 1-.15.5.66.66 0 0 1-.4.26.76.76 0 0 1-.27.22.94.94 0 0 1-.43.1z" fill="#050404"/></svg>