<svg data-name="Layer 1" xmlns="http://www.w3.org/2000/svg" viewBox="0 0 288 108"><title>clearshield-uscan-logo</title><path d="M29.65 57.1q0 4.35-2.67 5.85C25.7 63.7 23.5 64 20.36 64h-6.5q-6.12 0-8.1-2.35Q4 59.65 4 53.4a25.94 25.94 0 0 1 .63-6.78A5.52 5.52 0 0 1 7.55 43a16 16 0 0 1 6.7-1h6.07q4.6 0 6.6 1.12 2.68 1.5 2.7 5.72h-3.83q0-3.26-5.6-3.26h-5.9q-4.43 0-5.62 1.6-.9 1.17-.9 5.82A28.3 28.3 0 0 0 8 57.46a3.17 3.17 0 0 0 1.6 2.38 9.73 9.73 0 0 0 4.33.7h6.3a11.25 11.25 0 0 0 3.77-.45 2.83 2.83 0 0 0 1.82-3zM42.36 64q-6.7 0-8.72-2t-2-8.65L31.72 42h3.74v12.14q0 4.34 1.5 5.53 1.23 1 5.6 1h9.42V64zM78.53 57.55q0 4.2-2.73 5.5-2 1-8.13 1H62.8a20.8 20.8 0 0 1-6.72-.78 5.18 5.18 0 0 1-3.17-3.14 20.9 20.9 0 0 1-.77-6.72 25.6 25.6 0 0 1 .7-7.08 5.2 5.2 0 0 1 3-3.45 19.44 19.44 0 0 1 7-.9h4.85q5.37 0 7.95 1.4a5 5 0 0 1 2.73 4.1c0 .4.1 1.6.13 3.62v3.2H55.6q0 4.4 1.58 5.54 1.25.92 5.8.9h4.62a23.25 23.25 0 0 0 5.4-.36 2.6 2.6 0 0 0 2-2.83zM75 51.1c0-2.06-.08-3.18-.12-3.37a2.62 2.62 0 0 0-2.26-2.1 25.88 25.88 0 0 0-5-.3h-4.54q-4.5 0-5.8.84-1.64 1.06-1.67 4.93zM107.28 64h-3.9v-1.86a9.3 9.3 0 0 1-6 1.9H91c-3.16 0-5.38-.35-6.66-1.08q-2.64-1.5-2.63-5.84h.07q.07-4.08 2.76-5.55 1.95-1.07 6.5-1.07h7.8a8.8 8.8 0 0 1 2.1.3 4 4 0 0 1 2.57 1.37q0-3.86-1.2-5.2t-5-1.42h-6.2q-5.63 0-5.57 3.26H81.7a5.8 5.8 0 0 1 3.48-5.7A13.07 13.07 0 0 1 91 42h6.7q5.7 0 8.12 3a7.25 7.25 0 0 1 1.6 4.77 6.14 6.14 0 0 1-.1 1.16zm-8.56-10.12h-7.6a10.6 10.6 0 0 0-3.64.47 3 3 0 0 0-2 3 2.7 2.7 0 0 0 1.88 2.76 11.54 11.54 0 0 0 3.67.42h6.3a9 9 0 0 0 4.7-.9 3 3 0 0 0 1.28-2.74q-.13-3.03-4.58-3zM125.33 45.3h-4.58a6.14 6.14 0 0 0-4.24 1.53 5.13 5.13 0 0 0-1.7 4V64h-3.73V42h3.74v2.9a6.77 6.77 0 0 1 5.95-2.9h4.58a10.25 10.25 0 0 1 6 1.57 6.23 6.23 0 0 1 2.63 5.15h-3.76q-.4-3.4-4.87-3.4zM162.28 57.6c0 2.4-.62 4.13-1.88 5.14S157.5 64 155 64h-11q-7.25 0-7.22-6.25h3.8q0 2.9 4.08 2.9h9.5a6.44 6.44 0 0 0 3-.54 2.7 2.7 0 0 0 1.3-2.56 2.86 2.86 0 0 0-2.24-2.86 12.9 12.9 0 0 0-4-.47c-.7 0-1.77 0-3.17.1s-2.46.07-3.17.07a14.77 14.77 0 0 1-6.28-1 5.33 5.33 0 0 1-2.92-5.2q0-3.4 2-4.88A9 9 0 0 1 144 42h10.48q7.75 0 7.75 6.2h-4q0-2.88-4.15-2.88h-9.88q-3.42 0-3.42 2.86t6.25 3c.65 0 1.62 0 2.9-.1s2.26-.12 2.9-.12a14.25 14.25 0 0 1 6.47 1.16 5.62 5.62 0 0 1 2.98 5.47zM190.07 64h-3.74v-9.7H169.9V64h-3.73V42h3.74v9h16.43v-9h3.74zM198.7 64H195V42h3.74zM228.24 57.55q0 4.2-2.73 5.5c-1.35.67-4.06 1-8.13 1h-4.87a20.8 20.8 0 0 1-6.7-.78 5.15 5.15 0 0 1-3.18-3.14 20.7 20.7 0 0 1-.8-6.72 25.45 25.45 0 0 1 .7-7.08 5.2 5.2 0 0 1 3-3.45 19.46 19.46 0 0 1 7-.9h4.87q5.36 0 7.94 1.4a5.05 5.05 0 0 1 2.72 4.1c0 .4.1 1.6.13 3.62v3.2H205.3q0 4.4 1.57 5.54c.83.6 2.77.9 5.8.9h4.6a23.25 23.25 0 0 0 5.38-.37 2.6 2.6 0 0 0 2-2.83zm-3.55-6.46c0-2.06-.1-3.18-.14-3.37a2.62 2.62 0 0 0-2.25-2.1 25.88 25.88 0 0 0-5-.3h-4.5q-4.5 0-5.8.84c-1.1.7-1.66 2.36-1.68 4.93zM241.54 64q-6.68 0-8.72-2t-2-8.65l.1-11.35h3.72v12.14q0 4.34 1.5 5.53 1.23 1 5.6 1h9.4V64zM277.08 54.5q0 5.5-1.76 7.45-1.9 2.1-7.34 2.1h-15.5V42h15q4.62 0 6.75 1.4a6.07 6.07 0 0 1 2.5 4.18 41 41 0 0 1 .35 6.9zm-3.74-.12v-2.76c0-2.44-.4-4.1-1.23-5s-2.46-1.3-4.9-1.3h-11v15.4h11.23q3.77 0 4.9-1.32c.67-.77 1.02-2.4 1.02-5.02zM281.36 58.46a2.6 2.6 0 1 1-2.68 2.6 2.62 2.62 0 0 1 2.67-2.6zm0 .52a2.07 2.07 0 0 0 0 4.14 2 2 0 0 0 2-2.06 2 2 0 0 0-2-2.07zm-.4 3.4h-.6v-2.56a5.08 5.08 0 0 1 1-.1 1.5 1.5 0 0 1 .9.22.7.7 0 0 1 .25.56.67.67 0 0 1-.52.6.73.73 0 0 1 .47.64 1.87 1.87 0 0 0 .2.63H282a2.2 2.2 0 0 1-.2-.62c0-.28-.22-.4-.55-.4h-.28zm0-1.44h.3c.32 0 .6-.1.6-.38s-.2-.4-.56-.4a1.37 1.37 0 0 0-.34 0z" fill="#3e596f"/></svg>