<svg data-name="Layer 1" xmlns="http://www.w3.org/2000/svg" viewBox="0 0 288 108"><title>pentaxyl-usca-au-hk-tw-sg-logo</title><path d="M28.86 71.24q-7.8 0-12.77-3.75v13H13V44.84h3.1v3.75q5-3.75 12.77-3.75 7.45 0 11.3 2.7Q44.7 50.76 44.7 58t-4.54 10.55q-3.84 2.7-11.3 2.7zm0-23.16q-6 0-8.82 1.63Q16.1 52 16.1 58t3.9 8.38Q22.85 68 28.86 68t8.8-1.63q4-2.23 4-8.34t-4-8.34q-2.84-1.62-8.8-1.62zM52.54 59.67q.75 5.24 4.93 7.14A19.8 19.8 0 0 0 65.2 68q1.9 0 3.34-.12a22.3 22.3 0 0 0 2.53-.34 8.77 8.77 0 0 0 5.2-3.15l2.87 1.43q-3.48 5.4-13.93 5.4-7.47 0-11.3-2.7-4.53-3.2-4.53-10.53t4.54-10.5q3.75-2.7 11.3-2.7t11.33 2.7q4.54 3.27 4.54 10.5v.8s0 .54-.08.83zm12.67-11.6a19.8 19.8 0 0 0-7.73 1.2q-4.18 1.9-4.93 7.14H77.9q-.75-5.23-4.93-7.13a20 20 0 0 0-7.76-1.2zM116.56 58q0-6.1-4-8.34-2.84-1.63-8.8-1.63T95 49.7Q91 52 91 58v13.24h-3.1v-26.4H91v3.76q5.06-3.75 12.77-3.75 7.45 0 11.3 2.7 4.54 3.22 4.54 10.5v13.2h-3.06zM137.3 71.24h-3.1V48.08h-8.8v-3.23h8.8v-9.3h3.1v9.3h8.8v3.23h-8.8zM179.37 67.5q-5 3.74-12.77 3.74-7.48 0-11.3-2.7-4.54-3.17-4.54-10.5t4.54-10.5q3.82-2.7 11.3-2.7 7.76 0 12.77 3.75v-3.75h3.1v26.4h-3.1zM166.6 48.07q-6 0-8.8 1.63-4 2.24-4 8.35t4 8.34q2.82 1.6 8.8 1.6t8.82-1.63q3.95-2.23 3.95-8.34t-3.95-8.34q-2.83-1.62-8.82-1.62zM205 60.32l-10.38 10.92h-4.36L202.8 58l-12.55-13.2h4.36L205 55.73l10.34-10.9h4.36L207.15 58l12.56 13.2h-4.35zM233.77 80.44l4.64-8.5-14.85-27.1h3.53l13.1 23.87 13.13-23.86h3.54l-19.55 35.6zM262 35.56h3.1v35.68H262zM274.15 41.3a2.92 2.92 0 1 1 .85-2.08 2.8 2.8 0 0 1-.85 2.07zm-3.84-3.85a2.42 2.42 0 0 0-.72 1.78 2.46 2.46 0 0 0 .72 1.77 2.5 2.5 0 0 0 3.55 0 2.54 2.54 0 0 0 0-3.57 2.5 2.5 0 0 0-3.55 0zm1.73.16a2.42 2.42 0 0 1 .87.13.8.8 0 0 1 .5.8.7.7 0 0 1-.3.64 1.26 1.26 0 0 1-.47.16.78.78 0 0 1 .55.3.9.9 0 0 1 .17.5v.48a.5.5 0 0 0 0 .18h-.53v-.42a.78.78 0 0 0-.3-.73 1.37 1.37 0 0 0-.63-.1h-.46v1.26h-.56v-3.2zm.6.5a1.47 1.47 0 0 0-.67-.1h-.48v1.15h.52a1.54 1.54 0 0 0 .54-.07.58.58 0 0 0 .12-1z" fill="#070606"/></svg>