<?xml version="1.0" encoding="utf-8"?>
<!-- Generator: Adobe Illustrator 22.1.0, SVG Export Plug-In . SVG Version: 6.00 Build 0)  -->
<svg version="1.1" id="Layer_1" xmlns="http://www.w3.org/2000/svg" xmlns:xlink="http://www.w3.org/1999/xlink" x="0px" y="0px"
	 viewBox="0 0 200 75" style="enable-background:new 0 0 200 75;" xml:space="preserve">
<style type="text/css">
	.st0{fill:#00AFAA;}
</style>
<g>
	<path class="st0" d="M62.5,3.4h6.3c1.8,0,3.2,0.5,4.1,1.5c0.7,0.7,1.1,1.7,1.1,2.9v0c0,2.4-1.7,3.8-4,4.3l4.5,6h-2l-4.2-5.7h0h-4.1
		V18h-1.6V3.4z M68.6,10.9c2.2,0,3.8-1.1,3.8-3v0C72.4,6,71,5,68.7,5h-4.5v5.9H68.6z"/>
	<path class="st0" d="M92.8,10.8L92.8,10.8c0-4.1,3-7.6,7.5-7.6c4.4,0,7.4,3.5,7.4,7.5c0,0,0,0,0,0c0,4-3,7.5-7.5,7.5
		C95.8,18.3,92.8,14.8,92.8,10.8z M105.9,10.8L105.9,10.8c0-3.4-2.4-6.1-5.8-6.1s-5.7,2.7-5.7,6v0c0,3.3,2.4,6,5.8,6
		S105.9,14.1,105.9,10.8z"/>
	<path class="st0" d="M130.3,12.2l-6.1-8.8h2l4.9,7.3l5-7.3h1.9l-6.1,8.8V18h-1.7V12.2z"/>
	<path class="st0" d="M67.9,30.1h1.5l6.6,14.7h-1.8L72.6,41h-7.9l-1.7,3.9h-1.7L67.9,30.1z M72,39.5L68.7,32l-3.3,7.4H72z"/>
	<path class="st0" d="M95.9,30.2h1.6v13.1h8.2v1.5h-9.9V30.2z"/>
	<path class="st0" d="M61.5,69.5l1-1.2c1.5,1.4,3,2.1,5,2.1c2,0,3.3-1,3.3-2.5v0c0-1.4-0.7-2.1-3.8-2.8c-3.4-0.7-4.9-1.8-4.9-4.2v0
		c0-2.3,2-4,4.8-4c2.1,0,3.6,0.6,5.1,1.8l-1,1.3c-1.4-1.1-2.7-1.6-4.2-1.6c-1.9,0-3.1,1-3.1,2.4v0c0,1.4,0.8,2.1,4,2.8
		c3.3,0.7,4.8,1.9,4.8,4.1v0c0,2.5-2.1,4.1-5,4.1C65.2,71.8,63.3,71,61.5,69.5z"/>
	<path class="st0" d="M93.8,57h5.5c3.3,0,5.5,1.8,5.5,4.6v0c0,3.1-2.6,4.8-5.7,4.8h-3.5v5.1h-1.6V57z M99,65c2.4,0,4-1.3,4-3.2v0
		c0-2.1-1.6-3.2-3.9-3.2h-3.7V65H99z"/>
	<path class="st0" d="M129.6,56.9h1.5l6.6,14.7H136l-1.7-3.9h-7.9l-1.7,3.9h-1.7L129.6,56.9z M133.7,66.3l-3.3-7.4l-3.3,7.4H133.7z"
		/>
	<polygon class="st0" points="130.9,40 127.3,29.2 123.7,40 115.8,29.2 120.1,44.9 134.4,44.9 138.7,29.2 	"/>
</g>
</svg>
