<svg data-name="Layer 1" xmlns="http://www.w3.org/2000/svg" viewBox="0 0 288 108"><title>skintelligence-usca-mx-hk-tw-logo</title><path d="M16.33 60.86c1.05 1.72 3.15 2.25 5 2.36s4.4-.2 5.5-1.35a2.93 2.93 0 0 0-.3-4.38c-1.5-1-3.88-1.57-5.8-2-2.95-.62-6.38-1.4-7.8-4a6.2 6.2 0 0 1 3.14-8.32 12.07 12.07 0 0 1 5.38-1.06 11.46 11.46 0 0 1 6.4 1.6 7.24 7.24 0 0 1 2.84 5.73h-3.83c-.17-2.16-1.63-3.3-3.55-3.73s-4.83-.3-6.2 1.1a2.44 2.44 0 0 0-.3 3 4.28 4.28 0 0 0 1.4 1.13c1.7.9 4.16 1.24 6.26 1.75s4.37 1.1 5.87 2.73a6.23 6.23 0 0 1 1.2 5.8 6.75 6.75 0 0 1-4.85 4.7 16.24 16.24 0 0 1-5.08.67 11.45 11.45 0 0 1-7-2 7.47 7.47 0 0 1-2.72-5.87h3.85a4.32 4.32 0 0 0 .58 2.13zM40.1 33.77V52.9L50.76 42.7h5.16l-9.28 8.5 10 14.9h-4.93l-8-12.22-3.62 3.35v8.88h-3.86v-32.3zM59.73 38.48v-4.7h3.85v4.7zm3.85 4.2v23.4h-3.85V42.7zM73.18 42.68v3.72h.1a8.1 8.1 0 0 1 7.6-4.25 10.16 10.16 0 0 1 3.84.63 6.36 6.36 0 0 1 2.5 1.76 6.57 6.57 0 0 1 1.33 2.7 14.58 14.58 0 0 1 .38 3.45v15.38h-3.85V50.24a4.65 4.65 0 0 0-1.27-3.44 4.7 4.7 0 0 0-3.47-1.27 7.87 7.87 0 0 0-3.06.54 5.72 5.72 0 0 0-2.15 1.54 6.6 6.6 0 0 0-1.3 2.34 9.46 9.46 0 0 0-.42 2.92v13.22h-3.85v-23.4zM102.9 44.32h-5.06v16.24c0 3.76 1.76 4.12 5 4v1.5c-3.53.22-6.92-.28-6.74-5.53v-16.2h-4.3v-1.5h4.3v-7.25h1.72v7.24h5.07zM106.76 54.68c-.1 5.48 2.8 10.45 8.55 10.45a8 8 0 0 0 8.34-6.92h1.72c-.9 5.44-4.53 8.43-10 8.43-6.8 0-10.36-5.34-10.27-11.77-.1-6.38 3.25-12.58 10.26-12.58 7.3 0 10.55 5.75 10.23 12.4zm17.06-1.5c-.1-4.88-3.17-9.4-8.5-9.4-5.17 0-8.2 4.8-8.56 9.4zM131.7 33.77v32.3H130v-32.3zM139.3 33.77v32.3h-1.72v-32.3zM145.18 38.43v-4.66h1.72v4.66zm0 27.65V42.82h1.72v23.26zM171.6 42.82v22c0 1.8 0 10.4-10 10.1-5 0-8.82-1.87-9.1-7.25h1.73c.36 4.12 3.62 5.75 7.42 5.75 8.14 0 8.28-6.65 8.28-8.2v-5.3h-.1a8.74 8.74 0 0 1-8.4 5.3c-6.84 0-10-5-10-11.5 0-6.14 3.48-11.44 10-11.44a8.7 8.7 0 0 1 8.4 5.4h.1V42.8zm-18.54 10.9c0 5.5 2.85 10 8.33 10 5.65 0 8.45-4.74 8.45-10s-2.76-10-8.46-10-8.34 5.08-8.34 10zM177.36 54.68c-.1 5.48 2.8 10.45 8.55 10.45a8 8 0 0 0 8.34-6.92H196c-.9 5.44-4.53 8.43-10 8.43-6.8 0-10.36-5.34-10.27-11.77-.1-6.38 3.26-12.58 10.27-12.58 7.3 0 10.54 5.75 10.23 12.4zm17.06-1.5c-.1-4.88-3.17-9.4-8.5-9.4-5.17 0-8.2 4.8-8.56 9.4zM200.17 42.82h1.72v5h.1a8.62 8.62 0 0 1 8.33-5.52c8.2 0 8.28 6.56 8.28 9.4V66.1h-1.7v-14.7c0-2.4-.28-7.6-6.62-7.6-5.2 0-8.37 4-8.37 9.72v12.58h-1.7zM241.18 50c-.32-4.12-3.67-6.25-7.87-6.25-5.83 0-9 5.16-9 10.46 0 6.3 2.95 10.92 9 10.92a8 8 0 0 0 8.1-7.24h1.73c-.77 5.57-4.8 8.74-9.82 8.74-7.55 0-10.67-5.93-10.67-12.4s3.8-11.95 10.68-11.95c5 0 9.1 2.44 9.6 7.74zM247.83 54.68c-.1 5.48 2.8 10.45 8.55 10.45a8 8 0 0 0 8.33-6.92h1.73c-.9 5.44-4.53 8.43-10 8.43-6.8 0-10.36-5.34-10.28-11.77-.1-6.38 3.26-12.58 10.28-12.58 7.3 0 10.54 5.75 10.23 12.4zm17.06-1.5c-.1-4.88-3.18-9.4-8.52-9.4-5.16 0-8.2 4.8-8.55 9.4zM278.32 47.8a4.93 4.93 0 1 1-4.93-4.94 4.93 4.93 0 0 1 4.92 4.94zm-9.37 0a4.43 4.43 0 1 0 8.87 0 4.43 4.43 0 1 0-8.87 0zm2.64-2.92h2.18c1.32 0 1.9.55 1.9 1.6a1.55 1.55 0 0 1-1.5 1.55l1.74 2.68h-.55L273.6 48h-1.5v2.7h-.5zm.5 2.7h1.23c.88 0 1.85-.1 1.85-1.1s-.78-1.17-1.48-1.17h-1.6z" fill="#050404"/><path fill="none" stroke="#050404" stroke-width=".81" d="M179.1 71h86.53M12.15 71h133.07"/></svg>