<svg data-name="Layer 1" xmlns="http://www.w3.org/2000/svg" viewBox="0 0 288 108"><title>vitashield-usca-hk-tw-logo_try_retain_R-circle</title><path fill="#110f10" d="M2.52 29.23h282.96v51.53H2.52z"/><path fill="#fff" d="M6.34 32.1h111.18v45.34H6.34z"/><path fill="#110f10" d="M45 36.08h5.52V73.6H45z"/><path fill="#fff" d="M190.15 36.23h5.53v37.54h-5.53zM171.38 36.23V53.9h-5.3V36.22h-5.5V53.9h-1.86v4.92h1.85v14.95h5.52V58.82h5.28v14.95h5.53V36.23h-5.52M244.1 68.83h-5.48V36.4h-5.53v37.53H244.08v-5.1M215.08 68.68V58.66h5.2V53.9h-5.2V41h5.2l-1.76-4.92H209.56v17.8h-2.02v4.78h2.02V73.6h10.82V68.7h-5.3M269.1 39.73c-1.6-3.18-6.62-3.5-6.62-3.5h-5.53v37.54h7.03c2.9 0 5-3.2 6.55-5.73s1.6-4.77 1.9-13.84-1.74-11.3-3.33-14.47zm-5.72 28.95a3 3 0 0 1-.9.56V42c.7.2 1.7 0 2.5 1.1s2.2 4.14 2.2 13-1.9 10.82-3.8 12.58z"/><path fill="#110f10" d="M14.77 36.23h5.57l3.8 17.02 3.36-17.02h5.4l-8.27 38.33H23.2l-8.43-38.33M76.32 36.23H64.08l-1.12 4.62h4.08v32.92h5.53V40.85h3.75v-4.62M97.92 73.6h5.9L95.4 35.3H94l-6.57 30.2h-2.36L84 70.44h2.4l-.7 3.18h5.73l.55-3.17h5.46zm-5.12-8.1l2-11.45 1.83 11.45z"/><path d="M145.46 35.83s-7.16 1.83-8.9 6.36-1.34 8.45 1.65 13.6c2.8 4.76 4.3 6.27 3.83 8.9-.54 3-3.42 3.65-4.05 3.9a17.92 17.92 0 0 1-2.4.47l2.32 5.56a46.42 46.42 0 0 0 5.33-2.3c2.25-1.64 4.85-5.24 4.53-9.06-.46-5.55-6.76-9.94-6.36-15.27.25-3.3 1.6-5 3.26-6a7.55 7.55 0 0 1 2.78-.88zM279.43 37.3v-.05A1.32 1.32 0 0 0 280.5 36a1.3 1.3 0 0 0-.54-1.1 2.73 2.73 0 0 0-1.75-.4 13.9 13.9 0 0 0-2 .15v5.13h1.2v-2h.6c.66 0 1 .25 1.06.78a4 4 0 0 0 .4 1.25h1.26a4.58 4.58 0 0 1-.38-1.24c-.16-.7-.4-1.1-.9-1.25zm-1.43-.37h-.56v-1.47a2.86 2.86 0 0 1 .66-.06c.75 0 1.1.3 1.1.78s-.52.75-1.2.75z" fill="#fff"/><path d="M278.27 32a5.15 5.15 0 1 0 5.23 5.13 5.18 5.18 0 0 0-5.23-5.13zm0 9.23a3.94 3.94 0 0 1-2.86-1.2 4.26 4.26 0 0 1 0-5.8 3.85 3.85 0 0 1 2.82-1.2 4 4 0 0 1 4 4.13 3.93 3.93 0 0 1-3.95 4.1z" fill="#fff"/></svg>