<svg data-name="Layer 1" xmlns="http://www.w3.org/2000/svg" viewBox="0 0 288 108"><title>cell-labs-uscan-aus-gbr-esp-mex-sg-logo</title><path d="M33.13 58.72A18.57 18.57 0 0 1 19.45 53a18.74 18.74 0 0 1-5.65-13.68 18.66 18.66 0 0 1 5.65-13.64A18.57 18.57 0 0 1 33.13 20q10.75 0 17 10.14l-3.13 2q-5.24-8.37-13.88-8.37a15 15 0 0 0-11 4.6 15.1 15.1 0 0 0-4.56 11A15.58 15.58 0 0 0 33.13 55q8.78 0 14-8.57l3.2 1.9q-6.33 10.4-17.2 10.4zM56.43 41.23A15.57 15.57 0 0 0 71.93 55q8.8 0 14-8.57l3.28 1.9q-6.3 10.4-17.26 10.4a19.4 19.4 0 0 1-19.4-19.37A19.4 19.4 0 0 1 71.95 20a18.6 18.6 0 0 1 13.64 5.68 18.7 18.7 0 0 1 5.68 13.7v1.85zm15.5-17.5a15.65 15.65 0 0 0-15.5 13.76h31a15.14 15.14 0 0 0-5.1-9.78 15 15 0 0 0-10.4-3.98zM93.92 58.72V20h3.74v35h16.74v3.74zM116 58.72V20h3.74v35h16.74v3.74zM169.44 58.72v-7.9a18.33 18.33 0 0 1-15.58 7.9 19.37 19.37 0 0 1-19.4-19.33V20h3.75v19.42a15.62 15.62 0 0 0 31.25 0V20h3.74v38.72zM177.37 58.72V20h3.74v35h16.75v3.74zM230.74 58.72v-8a18.3 18.3 0 0 1-15.58 8A18.57 18.57 0 0 1 201.48 53a18.74 18.74 0 0 1-5.65-13.7 18.66 18.66 0 0 1 5.65-13.65A18.57 18.57 0 0 1 215.15 20a18.3 18.3 0 0 1 15.58 8v-8h3.74v38.72zm-15.58-35a15 15 0 0 0-11 4.6 15.1 15.1 0 0 0-4.56 11 15.58 15.58 0 1 0 31.17 0 15.1 15.1 0 0 0-4.56-11 15 15 0 0 0-11.05-4.58zM268.83 58.72L251.4 41.16h-9.04v17.56h-3.74V20h22.46a10.1 10.1 0 0 1 7.45 3.13 10.57 10.57 0 0 1 0 14.94 10.1 10.1 0 0 1-7.42 3.1h-4.33l17.43 17.55zm-7.76-35h-18.7v13.7h18.7a6.6 6.6 0 0 0 4.8-2 6.5 6.5 0 0 0 2-4.83 6.62 6.62 0 0 0-2-4.88 6.55 6.55 0 0 0-4.8-1.98zM61.77 94.14h-2.1V68.9h2.1zM82.05 94.14c-2.58 0-4.4-.2-4.58-2.83V91a2.56 2.56 0 0 0-.14.36c-1 2.08-3.47 3.15-5.94 3.15-4.23 0-5.38-2.85-5.38-4.64 0-3.94 4-4.87 9.4-6.12l2-.46v-.86c0-1.22 0-3.94-4.14-3.94s-4.44 2.36-4.47 4.15l-2.3-.4a7 7 0 0 1 1-2.92c1.2-1.92 3.4-2.64 5.7-2.64 2.08 0 5.23.54 6 3.33a13 13 0 0 1 .22 3.28v5.5c0 3 0 3.73 2.58 3.7zm-4.58-9l-1.07.25-4.22 1.14c-1.93.54-4.08 1.18-4.08 3.3 0 1.35 1 2.82 3.4 2.82a6.84 6.84 0 0 0 4.5-1.88c1.32-1.33 1.4-2.68 1.43-4.4zM87.06 94.14H85V68.9h2V80a5.6 5.6 0 0 1 5.22-3.3c4.58 0 7.08 4.27 7.08 9.2 0 3.95-1.68 8.63-7 8.63a5.4 5.4 0 0 1-5.33-3.43zM92 78.62a5.1 5.1 0 0 0-2.15.5c-2.18 1.14-2.75 3.86-2.75 6.4 0 4.65 1.82 7.12 5 7.12 4 0 5-3.5 5-6.7.08-4.46-1.9-7.32-5.1-7.32zM111 94.57c-5 0-7.7-3.94-7.7-8.73 0-4.44 2.26-9.16 7.77-9.16s7.7 4.44 7.73 8.84c0 5.2-3.02 9.05-7.8 9.05zm.1-16.1a5.13 5.13 0 0 0-3.93 1.75c-1.47 1.72-1.6 4.26-1.6 5.65 0 4.87 2.5 6.83 5.43 6.83 3.76 0 5.5-3 5.55-6.94-.05-.95.02-7.28-5.5-7.28zM125.12 94.14H123V77.08h2.07v2.72a5 5 0 0 1 5-3 5.92 5.92 0 0 1 1.18.1v1.9a5.45 5.45 0 0 0-1.3-.1 4.74 4.74 0 0 0-3.47 1.3c-1.32 1.47-1.32 3.22-1.36 6.73zM149.16 94.14c-2.58 0-4.4-.2-4.58-2.83V91a2.45 2.45 0 0 0-.14.36c-1 2.08-3.47 3.15-5.94 3.15-4.22 0-5.37-2.85-5.37-4.64 0-3.94 4-4.87 9.4-6.12l2-.46v-.86c0-1.22 0-3.94-4.14-3.94s-4.4 2.36-4.4 4.15l-2.32-.4a7 7 0 0 1 1-2.92c1.2-1.92 3.4-2.64 5.72-2.64 2.07 0 5.22.54 6 3.33a13 13 0 0 1 .2 3.28v5.5c0 3 0 3.73 2.6 3.7zm-4.58-9l-1.07.25-4.2 1.14c-1.94.54-4.1 1.18-4.1 3.3 0 1.35 1 2.82 3.4 2.82a6.84 6.84 0 0 0 4.55-1.86c1.32-1.33 1.4-2.68 1.43-4.4zM155.56 90.53c0 1.6.57 2.07 1.4 2.07a4.4 4.4 0 0 0 2.35-1.07v2.1a4.6 4.6 0 0 1-2.7.83c-3.1 0-3.1-1.72-3.1-5v-10.6h-3.57V77.1h3.58v-7.26h2v7.26h3.77v1.8h-3.76zM169.12 94.57c-5 0-7.7-3.94-7.7-8.73 0-4.44 2.26-9.16 7.77-9.16s7.68 4.44 7.72 8.84c.08 5.2-2.97 9.05-7.8 9.05zm.1-16.1a5.13 5.13 0 0 0-3.92 1.75c-1.47 1.72-1.6 4.26-1.6 5.65 0 4.87 2.5 6.83 5.43 6.83 3.76 0 5.5-3 5.55-6.94-.02-.95.05-7.28-5.46-7.28zM183.28 94.14h-2.07V77.08h2.08v2.72a5 5 0 0 1 5-3 5.93 5.93 0 0 1 1.18.1v1.9a5.45 5.45 0 0 0-1.3-.1 4.74 4.74 0 0 0-3.52 1.3c-1.32 1.47-1.32 3.22-1.36 6.73zM194.44 73.07h-2.08v-3.25h2.08zm0 21.07h-2.08V77.08h2.08zM214.26 89.64a8.88 8.88 0 0 1-1.6 2.58 7.35 7.35 0 0 1-5.84 2.36c-5.65 0-8.12-4.33-8.12-9.1 0-5.64 3.72-8.8 7.87-8.8 5.15 0 7.83 4.52 7.7 8.95H201a9.15 9.15 0 0 0 .54 3.54 5.3 5.3 0 0 0 5.26 3.5 5.74 5.74 0 0 0 5.47-3.57zm-2.4-5.72a6.35 6.35 0 0 0-1.8-4 5.15 5.15 0 0 0-3.53-1.3c-2.93 0-5.08 2.08-5.47 5.34zM225.5 84.52a6.8 6.8 0 0 1 3.6 1.82 4.44 4.44 0 0 1 1.15 3c0 2.5-2 5.22-6.4 5.22a7.35 7.35 0 0 1-4.3-1.22A7 7 0 0 1 217 90l2.07-.72a4.66 4.66 0 0 0 4.8 3.4c2.92 0 4.32-1.57 4.32-3.36 0-2.22-2.26-2.75-3.66-3l-2-.43c-1.58-.37-4.44-1.08-4.44-4.4 0-1.76 1-4.77 6.12-4.77a7.62 7.62 0 0 1 4 1 4.7 4.7 0 0 1 2.1 2.9l-2 .5a2.73 2.73 0 0 0-1.46-1.93 5.3 5.3 0 0 0-2.68-.6c-1.3 0-3.94.3-3.94 2.85 0 1.86 1.68 2.33 3.58 2.76zM240.28 72.32a5.14 5.14 0 1 1-5.28 5.1 5.1 5.1 0 0 1 5.27-5.1zm-.06.9a4.22 4.22 0 0 0 .06 8.45 4 4 0 0 0 4-4.2 4.08 4.08 0 0 0-4-4.24zm-.9 7h-1V74.9a10.4 10.4 0 0 1 1.86-.17 2.66 2.66 0 0 1 1.7.42 1.35 1.35 0 0 1-.5 2.4v.08a1.6 1.6 0 0 1 .9 1.28 4.06 4.06 0 0 0 .37 1.36h-1a3.66 3.66 0 0 1-.42-1.4c-.13-.6-.48-.84-1.25-.84h-.64zm0-3h.68c.74 0 1.38-.22 1.38-.87s-.32-.87-1.28-.87a3.7 3.7 0 0 0-.77.07z" fill="#161414"/></svg>