<svg xmlns="http://www.w3.org/2000/svg" viewBox="0 0 288 108"><title>layered-logo</title><path d="M4,67.92V29.78H8.23V67.92Z" fill="#231f20"/><path d="M57.5,52.35V62.46a10.12,10.12,0,0,0,1.35,5.46H54.36a8.61,8.61,0,0,1-1.18-4.48v-.1C51,66.38,46.53,69,40.44,69S26.11,66.48,26.11,59s8.2-9.95,14.33-9.95S51,51.59,53.18,54.68V52.35c0-6.8-3.87-9.89-11.6-9.89a19.47,19.47,0,0,0-11,3.24l-2-3.09A26.15,26.15,0,0,1,42.3,38.8C51.73,38.79,57.5,43.43,57.5,52.35Zm-4.22,6.14c-2.42-4.38-7.73-5.93-12.48-5.93-4.12,0-10.51,1.19-10.51,6.44s6.39,6.45,10.51,6.45c4.75,0,10.06-1.6,12.48-5.93Z" fill="#231f20"/><path d="M106.63,39.82,84.72,78.23H80.13L87.4,66l-15-26.14H77.2L89.67,61.68,102,39.82Z" fill="#231f20"/><path d="M137.15,65.39c5.56,0,8.91-1.39,12.16-4.43l2.78,2.94c-3.81,3.45-8.5,5.1-15.15,5.1-10.88,0-17.12-5.88-17.12-15.1s6.24-15.16,16.86-15.16c10,0,16.39,5.41,16.39,15.1a3.63,3.63,0,0,1-.1.93H124.1C124.52,61.89,129.67,65.39,137.15,65.39ZM124.31,51.27h24.48c-1.23-6.24-6-8.92-12.06-8.92C130.24,42.35,125.39,45.34,124.31,51.27Z" fill="#231f20"/><path d="M171.16,67.92V39.82h4.23v6.91c2.27-4.74,7.89-7.47,14-7.47v3.81c-6.39,0-11.86,2.84-14,8.46V67.92Z" fill="#231f20"/><path d="M219.06,65.39c5.56,0,8.91-1.39,12.16-4.43L234,63.9c-3.82,3.45-8.51,5.1-15.16,5.1-10.88,0-17.11-5.88-17.11-15.1S208,38.74,218.59,38.74c10,0,16.39,5.41,16.39,15.1a3.24,3.24,0,0,1-.1.93H206C206.42,61.89,211.58,65.39,219.06,65.39ZM206.22,51.27H230.7c-1.24-6.24-6-8.92-12.06-8.92C212.14,42.35,207.3,45.34,206.22,51.27Z" fill="#231f20"/><path d="M279.77,45.24V29.77H284V67.92h-4.23V62.5C277.2,66.42,272.4,69,266.22,69,256.84,69,251,63,251,53.89s5.88-15.1,15.26-15.1C272.4,38.79,277.19,41.32,279.77,45.24Zm0,13.09V49.41c-2.88-5-7.26-6.85-12.47-6.85-7.73,0-12.06,4.07-12.06,11.34s4.33,11.29,12.06,11.29C272.51,65.19,276.89,63.33,279.77,58.33Z" fill="#231f20"/></svg>