<svg data-name="Layer 1" xmlns="http://www.w3.org/2000/svg" viewBox="0 0 288 108"><title>pet-health-uscan-hk-sg-logo</title><path d="M160.5 43.16c.2 1.68.26 2.18.36 2.62a3.18 3.18 0 0 0 .26.84 7.17 7.17 0 0 0-1.34-.18 4.44 4.44 0 0 0-1.36.18c.16-.14.16-.54 0-2.5l-.12-1.82h-5l-.92 1.9c-.82 1.7-.9 2.08-.8 2.4a5.8 5.8 0 0 0-1.36-.16 3.57 3.57 0 0 0-1.18.16c.92-1.38 2-3.5 3-5.32 1.22-2.3 4-7.74 4.52-9a4.87 4.87 0 0 0 1.62.18 5 5 0 0 0 1.18-.12c.06 1.2.18 2.4.3 3.7zm-6.5-2.34h4.14l-.38-4.06c-.18-1.72-.28-2.32-.32-2.58-.22.44-1.38 2.58-1.64 3.08zM171.46 41.74a24.68 24.68 0 0 0-.5 3.84 1.33 1.33 0 0 0 .3 1 5.86 5.86 0 0 0-1-.08c-.4 0-.8 0-1.26.08a18 18 0 0 1 .32-2.38c-.76 1.06-1.84 2.54-3.66 2.54-1.6 0-3-1.14-3-3.4a9.5 9.5 0 0 1 2-5.64 6 6 0 0 1 4.54-2.28 4.77 4.77 0 0 1 1.5.26c.38-2.12.38-2.48-.22-3.18a5.93 5.93 0 0 0 2.82-.52 35.9 35.9 0 0 0-.78 3.72zm-6.8.92c0 1.4.66 2.44 1.78 2.44a3 3 0 0 0 2.46-1.88c.58-1.16.82-2.38 1.6-6.32a4.88 4.88 0 0 0-1.48-.26c-3.5 0-4.36 4.74-4.36 6.02zM180.73 39.18a14.64 14.64 0 0 0 1.3-3.62 5.54 5.54 0 0 0 1.12.1 8 8 0 0 0 1.22-.1 24.7 24.7 0 0 0-1.46 2.36c-1 1.74-1.1 2-2.63 5.08l-.6 1.2a17.9 17.9 0 0 0-1.08 2.4 8.16 8.16 0 0 0-1.25-.12 5.7 5.7 0 0 0-1.14.12c-.1-.92-.2-1.82-.35-2.76l-.56-3.34c-.2-1.16-.2-1.2-.5-2.54a5.62 5.62 0 0 0-.8-2.4 8.14 8.14 0 0 0 1.5.12 7 7 0 0 0 1.4-.12c-.15.42-.27.72 0 3 .37 3.12.55 4.14 1 6.42zM193.84 35.32a27.4 27.4 0 0 0-1.08 4.74l-.36 2a14.76 14.76 0 0 0-.4 4.54 4.75 4.75 0 0 0-.84-.08c-.4 0-.78.06-1.06.08a17.73 17.73 0 0 1 .26-2.52c-.92 1.22-2.08 2.66-3.92 2.66-1.46 0-2.92-1.06-2.92-3.34a9 9 0 0 1 3.32-6.88 5.43 5.43 0 0 1 3.28-1.12 5.56 5.56 0 0 1 2.14.46zM191.48 37a5.22 5.22 0 0 0-1.7-.32c-3.36 0-4.26 4.32-4.26 6 0 1.38.5 2.4 1.8 2.4a2.8 2.8 0 0 0 2.32-1.36 10.12 10.12 0 0 0 1.36-3.98zM195.6 39.4a17.22 17.22 0 0 0 .3-2.6 1.08 1.08 0 0 0-.56-1.08 6.82 6.82 0 0 0 2.94-.52c-.3 1.18-.34 1.38-.56 2.58a5.7 5.7 0 0 1 1.28-1.46 4.6 4.6 0 0 1 2.8-1c1.1 0 2.58.44 2.58 2.08a9.92 9.92 0 0 1-.24 1.74l-.5 2.8a29.64 29.64 0 0 0-.52 3.92 2.9 2.9 0 0 0 .08.74 5 5 0 0 0-1.18-.16 6.65 6.65 0 0 0-1.3.16c.32-.7.5-1.1 1.12-4.6l.24-1.34c.48-2.7.62-3.76-1.3-3.76a3.55 3.55 0 0 0-2.58 1.38 7.56 7.56 0 0 0-1.14 3.4l-.38 2.32a8.36 8.36 0 0 0-.14 2.58 3.8 3.8 0 0 0-1.14-.18 5.7 5.7 0 0 0-1.32.18 13.16 13.16 0 0 0 .88-3.44zM214.67 35.73a4.74 4.74 0 0 0-.7 1.72 2 2 0 0 0-1.72-.72c-2.7 0-4.3 2.72-4.3 5.48a3.1 3.1 0 0 0 1.26 2.8 3 3 0 0 0 1.7.47A5.2 5.2 0 0 0 213 45a9.2 9.2 0 0 0-.58 1.58 10.84 10.84 0 0 1-1.9.2c-2.94 0-4.7-1.7-4.7-4.42a6.76 6.76 0 0 1 6.76-7 6.18 6.18 0 0 1 2.1.37zM223.6 37.72a3.88 3.88 0 0 1-.63 2 4.67 4.67 0 0 1-1.92 1.64 10.34 10.34 0 0 1-4.38.78 3.7 3.7 0 0 0 .48 2.12 3 3 0 0 0 2.62 1.2 4.56 4.56 0 0 0 2.72-.84 6.23 6.23 0 0 0-.5 1.74 8.9 8.9 0 0 1-2.7.42c-3.17 0-4.7-1.74-4.7-4.44a8 8 0 0 1 1.7-4.78 5.84 5.84 0 0 1 4.47-2.26c1.88.02 2.84 1.05 2.84 2.42zm-5.4-.08a6.8 6.8 0 0 0-1.4 3.28c1.45 0 2.8 0 3.9-1.1a2.85 2.85 0 0 0 1-2 1.25 1.25 0 0 0-1.33-1.32 2.84 2.84 0 0 0-2.18 1.14zM232.78 41.74a24.68 24.68 0 0 0-.5 3.84 1.33 1.33 0 0 0 .3 1 5.86 5.86 0 0 0-1-.08c-.4 0-.8 0-1.26.08a17.93 17.93 0 0 1 .32-2.38c-.76 1.06-1.84 2.54-3.66 2.54-1.6 0-3-1.14-3-3.4a9.5 9.5 0 0 1 2-5.64 6 6 0 0 1 4.54-2.28 4.77 4.77 0 0 1 1.5.26c.38-2.12.38-2.48-.22-3.18a5.93 5.93 0 0 0 2.82-.52 35.75 35.75 0 0 0-.78 3.72zm-6.8.92c0 1.4.66 2.44 1.78 2.44a3 3 0 0 0 2.46-1.88c.58-1.16.82-2.38 1.6-6.32a4.87 4.87 0 0 0-1.48-.26c-3.5 0-4.34 4.74-4.34 6.02zM148 55c.64-3.48.54-3.62.28-4h4.68c2.14 0 3.9.7 3.9 3.16 0 1-.36 5.46-6.4 5.46a8.2 8.2 0 0 1-1.32-.08l-.64 3.76a5.07 5.07 0 0 0-.14 1.94 5.06 5.06 0 0 0-1.26-.12 6.2 6.2 0 0 0-1.38.12 20.8 20.8 0 0 0 1.15-4.24zm1.38 3.14a7.73 7.73 0 0 0 3.38-.4 3.9 3.9 0 0 0 1.92-3.46c0-2-1.84-2-2.88-2h-1.24c-.4 1.74-.44 1.94-.6 2.72zM165.67 56.4a3.87 3.87 0 0 1-.64 2 4.68 4.68 0 0 1-1.92 1.63 10.34 10.34 0 0 1-4.37.78 3.7 3.7 0 0 0 .47 2.2 3 3 0 0 0 2.62 1.2 4.55 4.55 0 0 0 2.72-.84 6.23 6.23 0 0 0-.5 1.74 8.9 8.9 0 0 1-2.68.42c-3.18 0-4.72-1.74-4.72-4.44a8 8 0 0 1 1.7-4.78 5.84 5.84 0 0 1 4.5-2.3c1.87 0 2.83 1 2.83 2.4zm-5.42-.1a6.8 6.8 0 0 0-1.38 3.3c1.44 0 2.78 0 3.9-1.1a2.85 2.85 0 0 0 1-2 1.25 1.25 0 0 0-1.34-1.33 2.84 2.84 0 0 0-2.2 1.14zM167.8 56.5h-1.57a9.57 9.57 0 0 0 .24-1.35h1.58a19.92 19.92 0 0 0 .5-3.74 10.5 10.5 0 0 0 2.22-.5 36.5 36.5 0 0 0-1 4.25c.84 0 1.06 0 1.94-.08a7 7 0 0 0-.33 1.46c-.8 0-1.42-.06-1.88-.06l-.75 3.76a14.24 14.24 0 0 0-.38 2.52 1 1 0 0 0 1.16 1.1 2.7 2.7 0 0 0 1.3-.38 10.6 10.6 0 0 0-.44 1.7 5.15 5.15 0 0 1-1.33.2 2.8 2.8 0 0 1-2.2-.78c-.48-.67-.44-1.33-.2-2.6zM185.92 50.77a9.33 9.33 0 0 1 2.92.52 6 6 0 0 0-.82 2 3.07 3.07 0 0 0-2.7-1c-4.28 0-5.94 4.2-5.94 7.5 0 2.55 1.2 4.37 4.14 4.37a5.27 5.27 0 0 0 2-.36 4.93 4.93 0 0 0 1.28-.73 19.1 19.1 0 0 0-.8 2.16 14.23 14.23 0 0 1-3.08.32c-2.08 0-3.94-.54-5-2.18a6.3 6.3 0 0 1-.84-3.42c.03-3.74 1.92-9.18 8.84-9.18zM198 54a27.52 27.52 0 0 0-1.08 4.74l-.36 2a14.76 14.76 0 0 0-.4 4.54 4.75 4.75 0 0 0-.84-.08c-.4 0-.78.06-1.06.08a17.74 17.74 0 0 1 .26-2.52c-.92 1.22-2.08 2.66-3.92 2.66-1.46 0-2.92-1.06-2.92-3.34a9 9 0 0 1 3.32-6.9 5.44 5.44 0 0 1 3.28-1.13 5.56 5.56 0 0 1 2.14.46zm-2.36 1.64a5.22 5.22 0 0 0-1.7-.32c-3.36 0-4.26 4.32-4.26 6 0 1.38.5 2.4 1.8 2.4a2.8 2.8 0 0 0 2.32-1.36 10.12 10.12 0 0 0 1.32-3.94zM199.84 57.75c.5-2.68.12-2.9-.32-3.22a6.54 6.54 0 0 0 2.92-.5c-.26.9-.28 1.16-.62 2.84a6.4 6.4 0 0 1 2-2.2 3.55 3.55 0 0 1 2.12-.7 18.83 18.83 0 0 0-.72 2 3.12 3.12 0 0 0-.56-.06c-1 0-2.48.75-3.14 3.13a34.33 34.33 0 0 0-.9 5.48 3.34 3.34 0 0 0 .08.75 5.24 5.24 0 0 0-1.26-.18 4.35 4.35 0 0 0-1.22.18 8.58 8.58 0 0 0 .66-2.12zM214.43 56.4a3.88 3.88 0 0 1-.64 2 4.68 4.68 0 0 1-1.93 1.63 10.34 10.34 0 0 1-4.38.78 3.7 3.7 0 0 0 .5 2.2 3 3 0 0 0 2.62 1.2 4.56 4.56 0 0 0 2.72-.84 6.27 6.27 0 0 0-.5 1.74 8.9 8.9 0 0 1-2.68.42c-3.18 0-4.72-1.74-4.72-4.44a8 8 0 0 1 1.7-4.78 5.84 5.84 0 0 1 4.45-2.3c1.87 0 2.83 1 2.83 2.4zm-5.43-.1a6.8 6.8 0 0 0-1.38 3.3c1.44 0 2.78 0 3.9-1.1a2.85 2.85 0 0 0 1-2 1.25 1.25 0 0 0-1.34-1.33A2.84 2.84 0 0 0 209 56.3z" fill="#070606"/><path fill="#fd0" d="M141.56 13.14L132.8 22H58.07v-4h73.04l16.82-17-6 31.58 14.78-27.43L160.16 18h76.07v4H157.1l-1.64-6.08-22.3 41.38 8.4-44.16"/><path d="M81.3 49.43c-2.2 2.33-5.14 4.38-13.06 4.38-1.52 0-2.83-.04-4.67-.15-1.57 7.58-1.68 9.1-1.9 13.15a24.55 24.55 0 0 0-4.6-.43 43 43 0 0 0-5.9.43A19.73 19.73 0 0 0 54 59.66c.68-3 3.62-19.2 4.62-25.87.68-4.34-.05-5-.58-5.85 4.3.27 6.46.38 9.87.38 2.48 0 4.3-.1 7.57-.1 4.72 0 6.82 1.34 8.14 2.7a9.5 9.5 0 0 1 2.4 6.65 17.74 17.74 0 0 1-4.7 11.85zM71.24 33.25c-1.1 0-2.26.1-3.4.22-.6 2.27-.8 3-1.32 5.8-.57 2.9-1.15 5.73-1.67 8.73 1.15.1 2.3.22 3.52.22 2.84 0 6.14-.65 7.88-4.65a13.78 13.78 0 0 0 .94-5.3c0-4-2.36-5.02-5.94-5.02zM104.7 52.62a24 24 0 0 1-11 2.38 6.2 6.2 0 0 0 1.46 4.92c.84.92 2.52 1.9 5.56 1.9a14.32 14.32 0 0 0 8.1-2.55 56.1 56.1 0 0 0-1.6 6.55 34.9 34.9 0 0 1-9.54 1.35A15.43 15.43 0 0 1 91 65.93c-5.62-2.7-5.62-9-5.62-10.5 0-8.12 4.15-19.26 16.8-19.26a12.78 12.78 0 0 1 5.46 1.08 5.78 5.78 0 0 1 3.36 5.7c0 4.37-2.47 7.67-6.3 9.67zm-2.48-5.52a5.4 5.4 0 0 0 1.78-3.78c0-2-1.37-2.54-3-2.54-4.94 0-6 6-6.62 9.2 2.86-.33 5.62-.66 7.85-2.88zM121.74 56.57c-.8 4.44 1.3 4.82 2.52 4.82a7.26 7.26 0 0 0 3-.7c-.63 2.37-.84 3.18-1.42 5.83a23.24 23.24 0 0 1-4.62.43c-6.93 0-9.08-1.73-8.35-6.6.37-2.38.95-6 2.84-16-1.67 0-2.25 0-3.77.05.3-1.88.47-2.8.84-4.9 1.1.04 1.84.04 3.78.04.67-3.54 1.45-7.54 1.3-8.54a58.8 58.8 0 0 0 9.45-2.54 100.55 100.55 0 0 0-2.42 11.15c2.2 0 2.9 0 4.78-.04-.52 2.1-.58 2.54-1 4.92-2-.05-2.4-.05-4.67-.05-.58 2.84-1.53 8.14-2.26 12.14z" fill="#fd0"/><path d="M57.32 89.87C57 92 56.55 94 56.14 96.1A49.17 49.17 0 0 0 55 104c0 .56.05 1.12.05 1.74a41.78 41.78 0 0 0-4.75-.36 45.6 45.6 0 0 0-5.3.36c.4-.66 1.52-2.4 2.44-7.46C49 90 49.4 87.78 50 84.76c2.76-13.13 1.53-14.87 1.28-15.48a45.57 45.57 0 0 0 5.42.36 44.9 44.9 0 0 0 5.3-.36c-1.12 2.56-1.43 3.53-2.45 9.15-.36 1.84-.72 3.68-1 5.52h12.87c1.12-5.67 1.8-9.5 1.8-12.37a12.3 12.3 0 0 0-.2-2.3 41.57 41.57 0 0 0 5.4.46 36.53 36.53 0 0 0 5.27-.46 30.6 30.6 0 0 0-2.3 6.44C80.05 81.4 78.56 90 77.13 98.15a29 29 0 0 0-.4 7.6 38.85 38.85 0 0 0-4.86-.4 48.28 48.28 0 0 0-5.42.4c1.53-3.26 2.2-6.53 3.83-15.88zM97.6 84.35a80.8 80.8 0 0 0 8.52-.2 5 5 0 0 0 3-1 50.64 50.64 0 0 0-1.33 7.2 4.78 4.78 0 0 0-2.57-.82 40.42 40.42 0 0 0-5.06-.26c-1.23 0-2.4.05-3.58.05-.52 2.55-1.13 5.93-1.4 7.92-.25 2.25.1 2.66.93 2.86a17.8 17.8 0 0 0 3.58.26 23.8 23.8 0 0 0 6.35-.72 7.4 7.4 0 0 0 3.53-1.8 53.26 53.26 0 0 0-2.25 7.83c-1.8-.2-6.4-.26-12-.26-4.2 0-8.58 0-10.83.27 1.07-1.18 1.43-3.63 1.84-5.32.77-3.22 4.65-23 4.65-28a5.7 5.7 0 0 0-.62-3c2 .05 4.85.3 11.5.3 4.7 0 8.6-.14 11.9-.3a54.53 54.53 0 0 0-1.57 6.9c-.55-.6-1-1-2.85-1.33a34.88 34.88 0 0 0-5.16-.26c-1.64 0-3.28.05-4.86.1zM120.44 96.72c-1.23 3-2 4.7-2.35 5.83a7.68 7.68 0 0 0-.68 3.17c-1.58-.15-3-.25-4.5-.25s-3.07.1-4.6.25c1.48-1.9 3.12-5.3 11.3-21.56 4.28-8.53 5.1-10.22 7-14.87 1.27.1 2.34.25 3.47.3s2.34.15 3.72.15a29.28 29.28 0 0 0 5-.46c0 1.27 0 2.1.05 3.77s.66 9 .82 11.14c.35 4.92 1.06 11.56 1.57 16a24.9 24.9 0 0 0 1.07 5.53 38.9 38.9 0 0 0-4.86-.36c-1.8 0-3.58.2-5.47.36a29.8 29.8 0 0 0 .2-3.53c0-1.58-.1-3.42-.1-5.47zm10.27-21.77l-7.6 15.94h8.74zM156.12 97.18c-.5 3.17-.5 3.37 4.75 3.37 4.5 0 5.78-.4 8.64-1.58a49.23 49.23 0 0 0-2.4 7c-1.68-.1-4.8-.36-12.05-.36-4.8 0-7.26.1-10.63.37a7 7 0 0 0 1.8-3.47c.15-.56 2.65-12.06 3.77-18.55 2.4-13.8 1.83-14.16 1.62-14.67a52.43 52.43 0 0 0 5.62.5 24.73 24.73 0 0 0 5.47-.5c-1.32 2.1-1.62 2.7-3.1 9.25-1.85 8.17-2.77 14.2-3.48 18.65zM179.17 74.7c-1.94 0-3.88.04-5.78.04-3 0-4.5.46-5.58 2.3.67-3.73.77-4.24 1.23-7.82 1.8.2 6.54.36 10.78.36 3.83 0 14.36-.05 20.65-.36-.6 2.55-.82 3.58-1.48 7.15a3.1 3.1 0 0 0-1.63-1c-2-.6-6.6-.66-9.1-.66-1.18 5.12-1.33 6-2.9 14.27a126.26 126.26 0 0 0-2.57 16.8c-1.74-.14-3.53-.3-5.26-.3s-3.22.15-4.85.3a14 14 0 0 0 1.22-3c1.12-4 2.15-9.34 3.12-14.3a114.43 114.43 0 0 0 2.13-13.78zM208 89.87c-.36 2.1-.77 4.14-1.17 6.23a49.14 49.14 0 0 0-1.13 7.9v1.74a41.7 41.7 0 0 0-4.75-.36 45.58 45.58 0 0 0-5.32.36c.4-.66 1.53-2.4 2.45-7.46 1.53-8.33 1.94-10.53 2.56-13.54 2.76-13.13 1.53-14.87 1.28-15.48a45.67 45.67 0 0 0 5.42.36 44.9 44.9 0 0 0 5.26-.36c-1.12 2.56-1.43 3.53-2.45 9.15-.36 1.85-.72 3.7-1 5.53h12.95c1.12-5.67 1.8-9.5 1.8-12.37a12.46 12.46 0 0 0-.2-2.3 41.5 41.5 0 0 0 5.4.46 36.55 36.55 0 0 0 5.27-.46 30.52 30.52 0 0 0-2.3 6.44c-1.33 5.67-2.8 14.26-4.24 22.43a29 29 0 0 0-.4 7.6 38.83 38.83 0 0 0-4.86-.4 48.3 48.3 0 0 0-5.42.4c1.53-3.26 2.2-6.53 3.83-15.88zM241.1 73.88h-1.38V69.5H238v-1.1h4.73v1.1h-1.65zm8.06 0h-1.36l.07-2.93a6.67 6.67 0 0 1 .1-1.12c-.12.46-.13.55-.24.9l-.93 3.15h-1.24l-1-3.17-.23-.83a10.33 10.33 0 0 1 .12 1.1l.07 2.92h-1.34v-5.5H245l1.25 4 1.17-4h1.77z" fill="#070606"/></svg>