<svg version="1.1" xmlns="http://www.w3.org/2000/svg" x="0px" y="0px" viewBox="0 0 288 108"><g><path fill="#1DCAD3" d="M103.21,82.28c-0.41,0.23-0.93,0.09-1.16-0.32c-0.2-0.35-0.13-0.79,0.17-1.06 c-0.69-0.33-1.26-0.87-1.65-1.53c-1.05-1.84-0.34-4.21,1.51-5.26c1.87-1.07,4.27-0.48,5.32,1.36c0.37,0.66,0.53,1.41,0.47,2.16 l2.57-1.46c0.41-0.24,0.94-0.09,1.17,0.32c0.24,0.41,0.09,0.94-0.32,1.17l-5.41,3.09h-0.01L103.21,82.28z M105.92,76.33 c-0.28-0.48-0.75-0.83-1.29-0.96c-0.57-0.15-1.18-0.06-1.69,0.24c-0.51,0.28-0.88,0.76-1.04,1.32c-0.17,0.53-0.1,1.11,0.17,1.6 c0.28,0.49,0.74,0.84,1.29,0.97c1.18,0.29,2.37-0.4,2.72-1.56C106.25,77.4,106.19,76.82,105.92,76.33L105.92,76.33z"/><path fill="#1DCAD3" d="M112.94,88.38l-2.82,2.49c-0.34,0.3-0.86,0.28-1.16-0.06c0,0,0,0,0,0c-0.29-0.35-0.26-0.87,0.07-1.18 l2.82-2.49c0.66-0.6,0.7-1.62,0.11-2.28c-0.57-0.65-1.56-0.71-2.21-0.14c-0.01,0.01-0.01,0.01-0.02,0.02l-2.82,2.49 c-0.04,0.04-0.09,0.07-0.14,0.08c-0.35,0.2-0.79,0.13-1.06-0.17c-0.31-0.34-0.28-0.87,0.07-1.17c0,0,0,0,0.01-0.01l2.82-2.49 l1.83-1.61c0.34-0.3,0.87-0.27,1.17,0.07c0,0,0,0,0,0c0.22,0.25,0.28,0.6,0.15,0.9c0.57,0.16,1.08,0.48,1.47,0.92 C114.4,85.11,114.28,87.18,112.94,88.38z"/><path fill="#1DCAD3" d="M120.68,95.19l-1.76,2.53c-0.27,0.38-0.78,0.47-1.16,0.21c-0.32-0.24-0.43-0.66-0.28-1.02 c-0.75,0.01-1.49-0.21-2.1-0.64c-0.83-0.58-1.39-1.47-1.53-2.47c-0.14-1.02,0.11-2.05,0.71-2.88c0.57-0.85,1.45-1.44,2.46-1.66 c0.99-0.22,2.03-0.02,2.87,0.56c0.61,0.43,1.08,1.05,1.32,1.76c0.29-0.28,0.73-0.32,1.07-0.1c0.38,0.27,0.47,0.79,0.2,1.17 c0,0,0,0.01-0.01,0.01L120.68,95.19z M119.32,94.24c0.35-0.48,0.51-1.09,0.42-1.68c-0.07-0.55-0.37-1.05-0.83-1.36 c-0.45-0.33-1.02-0.44-1.57-0.31c-0.58,0.13-1.09,0.49-1.42,0.99c-0.35,0.48-0.51,1.08-0.44,1.67c0.08,0.55,0.39,1.03,0.85,1.34 c0.45,0.32,1.01,0.44,1.55,0.34C118.48,95.09,118.98,94.73,119.32,94.24L119.32,94.24z"/><path fill="#1DCAD3" d="M135.28,99.62c0,0.02-0.01,0.03-0.01,0.05l-0.69,3.66c-0.09,0.45-0.52,0.75-0.97,0.66 c-0.45-0.09-0.75-0.52-0.68-0.98l0.69-3.66c0-0.02,0-0.03,0-0.05c0.15-0.87-0.43-1.7-1.31-1.85c-0.87-0.15-1.7,0.43-1.85,1.31l0,0 l-0.68,3.66c0,0.03-0.03,0.07-0.04,0.11l-0.01,0.05c-0.02,0.03-0.03,0.06-0.06,0.08c0,0.02-0.01,0.05-0.02,0.08 c-0.21,0.26-0.54,0.39-0.87,0.34c-0.06-0.01-0.11-0.04-0.15-0.04c-0.37-0.15-0.58-0.54-0.51-0.93l0.69-3.66v-0.02l0.45-2.39 c0.07-0.45,0.5-0.76,0.96-0.68c0.01,0,0.01,0,0.02,0c0.32,0.05,0.58,0.29,0.65,0.6c0.56-0.21,1.16-0.26,1.74-0.15 c0.93,0.16,1.74,0.72,2.22,1.52c0.75-0.57,1.7-0.8,2.63-0.61c1.78,0.34,2.95,2.07,2.6,3.85c0,0,0,0,0,0l-0.68,3.66 c-0.09,0.45-0.52,0.75-0.97,0.66c-0.46-0.09-0.76-0.52-0.68-0.98l0.69-3.66c0.17-0.87-0.39-1.71-1.26-1.89 C136.32,98.21,135.48,98.76,135.28,99.62z"/><path fill="#1DCAD3" d="M144.93,95.04c0.02,0.47-0.34,0.87-0.81,0.89c0,0-0.01,0-0.01,0c-0.47,0.01-0.86-0.36-0.88-0.83 c0,0,0-0.01,0-0.01l-0.01-0.33c-0.01-0.47,0.35-0.86,0.82-0.88c0.46-0.02,0.85,0.33,0.88,0.79c0,0.01,0,0.02,0,0.03L144.93,95.04z M145.03,97.88l0.2,6.13c0.02,0.46-0.33,0.85-0.8,0.87c-0.01,0-0.02,0-0.02,0c-0.47,0.01-0.86-0.35-0.88-0.82l-0.2-6.13 c-0.03-0.46,0.32-0.86,0.79-0.89c0.01,0,0.02,0,0.03,0c0.46-0.02,0.85,0.33,0.87,0.79C145.03,97.85,145.03,97.87,145.03,97.88 L145.03,97.88z"/><path fill="#1DCAD3" d="M152.81,96.94c0.06,0.45-0.25,0.88-0.71,0.94c-0.34,0.04-0.65,0.19-0.89,0.43 c-0.26,0.23-0.47,0.53-0.61,0.85c-0.22,0.44-0.37,0.91-0.45,1.4l0.43,2.96c0.06,0.47-0.27,0.89-0.74,0.95 c-0.45,0.06-0.87-0.25-0.94-0.71l-0.89-6.13c-0.06-0.45,0.25-0.87,0.7-0.93c0,0,0,0,0,0c0.46-0.08,0.89,0.23,0.97,0.68l0.02,0.11 c0.08-0.13,0.17-0.25,0.28-0.36c0.52-0.48,1.17-0.79,1.87-0.89c0.44-0.07,0.86,0.23,0.94,0.67 C152.81,96.93,152.81,96.94,152.81,96.94z"/><path fill="#1DCAD3" d="M162.09,97.38l0.98,2.92c0.14,0.44-0.09,0.91-0.52,1.06c-0.38,0.12-0.79-0.04-0.99-0.38 c-0.44,0.61-1.06,1.07-1.77,1.3c-0.96,0.32-2,0.24-2.9-0.24c-0.9-0.49-1.58-1.31-1.89-2.28c-0.34-0.97-0.29-2.03,0.13-2.96 c0.73-1.68,2.62-2.53,4.36-1.98c-0.05-0.4,0.18-0.78,0.56-0.92c0.44-0.14,0.91,0.1,1.06,0.54L162.09,97.38z M160.51,97.91 c-0.18-0.57-0.57-1.05-1.1-1.33c-0.49-0.28-1.07-0.33-1.59-0.15c-0.53,0.17-0.96,0.56-1.18,1.07c-0.24,0.55-0.26,1.17-0.05,1.73 c0.18,0.57,0.56,1.05,1.08,1.35c0.49,0.26,1.06,0.3,1.58,0.12c0.52-0.17,0.95-0.55,1.19-1.05 C160.68,99.09,160.71,98.47,160.51,97.91L160.51,97.91z"/><path fill="#1DCAD3" d="M164.66,96.24c-1.14-1.86-0.5-4.31,1.34-5.45c0.78-0.47,1.68-0.67,2.58-0.57c0.45,0.06,0.78,0.45,0.75,0.9 c-0.05,0.46-0.46,0.8-0.92,0.75c0,0,0,0-0.01,0c-0.54-0.05-1.07,0.07-1.53,0.35c-1.07,0.66-1.43,2.05-0.8,3.15 c0.63,1.03,2.07,1.36,3.16,0.7c0.46-0.29,0.81-0.71,1.01-1.21c0.18-0.43,0.66-0.64,1.1-0.47c0.41,0.19,0.61,0.66,0.46,1.08 c-0.34,0.83-0.94,1.54-1.7,2.02C168.27,98.63,165.79,98.08,164.66,96.24z"/><path fill="#1DCAD3" d="M168.68,84.97c0.36-0.32,0.91-0.28,1.23,0.08l6.04,7.04c0.3,0.38,0.24,0.93-0.13,1.23 c-0.36,0.29-0.88,0.25-1.19-0.09l-6.04-7.04C168.29,85.82,168.33,85.28,168.68,84.97z"/><path fill="#1DCAD3" d="M176.2,87.96c-1.63-1.39-1.93-3.81-0.54-5.47c1.31-1.57,3.52-1.83,5.23-0.56l0.06,0.05 c0.04,0.03,0.07,0.06,0.1,0.1c0.26,0.28,0.24,0.69-0.04,1.03l-3.21,3.83c0.35,0.19,0.74,0.28,1.14,0.26c0.57-0.05,1.1-0.3,1.51-0.7 c0.4-0.4,0.73-1.01,0.75-1.51c-0.05-0.48,0.4-0.94,0.72-0.93s0.76,0.17,0.78,0.66c0.05,1.05-0.3,1.97-1.02,2.82 C180.28,89.19,177.85,89.33,176.2,87.96z M176.71,86.16l2.86-3.41c-0.58-0.28-1.81-0.27-2.77,0.71 C175.99,84.52,176.3,85.64,176.71,86.16L176.71,86.16z"/><path fill="#1DCAD3" d="M184.04,80.61c-0.19-0.41,0-0.9,0.41-1.08c0.01-0.01,0.03-0.01,0.04-0.02c0.5-0.2,1.15-0.65,1.43-1.19 c0.18-0.33,0.26-0.71,0.24-1.08c-0.02-0.19-0.12-0.36-0.28-0.47c-0.05-0.03-0.1-0.04-0.16-0.03c-0.09,0-0.19,0.03-0.26,0.09 c-0.38,0.24-0.71,0.54-0.98,0.9l-0.01,0.01c-0.29,0.38-0.63,0.72-1.01,1.01c-0.38,0.29-0.84,0.47-1.32,0.52 c-0.35,0.02-0.69-0.06-1-0.23c-0.6-0.35-1-0.95-1.08-1.63c-0.07-0.69,0.07-1.38,0.4-1.98c0.51-0.96,1.33-1.39,1.87-1.67 c0.41-0.21,0.91-0.07,1.14,0.33c0.21,0.41,0.06,0.91-0.35,1.12c0,0-0.01,0-0.01,0c-0.53,0.29-0.96,0.56-1.19,1 c-0.17,0.29-0.24,0.63-0.2,0.97c0,0.16,0.07,0.3,0.2,0.39c0.04,0.03,0.08,0.04,0.13,0.03c0.08,0,0.16-0.03,0.22-0.08 c0.34-0.22,0.64-0.5,0.88-0.83h0.02v-0.01c0.31-0.4,0.68-0.77,1.09-1.07c0.38-0.31,0.85-0.5,1.35-0.54 c0.37-0.02,0.73,0.06,1.06,0.23c0.64,0.36,1.06,1.01,1.14,1.74c0.08,0.73-0.07,1.46-0.41,2.1c-0.59,1.07-1.53,1.63-2.28,1.95 C184.68,81.23,184.21,81.02,184.04,80.61z"/></g><g><path fill="#1DCAD3" d="M105.66,51.29L105.66,51.29c-1.29-1.36-3.45-1.42-4.82-0.13c0,0,0,0,0,0c-0.09,0.09-0.18,0.19-0.26,0.29 c-0.08-0.1-0.17-0.2-0.26-0.29c-1.31-1.35-3.46-1.4-4.82-0.09c-1.35,1.31-1.4,3.46-0.09,4.82c0.07,0.07,0.15,0.15,0.22,0.21 l0.1,0.11c0.19,0.19,0.55,0.56,0.98,1l2.07,2.16l0.8,0.83c0.2,0.21,0.32,0.33,0.32,0.33c0.24,0.25,0.64,0.26,0.9,0.02l4.72-4.45 C106.9,54.82,106.96,52.66,105.66,51.29z M100.07,55.3l0.01,0c0.07-0.23,0.15-0.45,0.25-0.67c0.08-0.18,0.17-0.37,0.26-0.56 l0.07,0.14c0.13,0.28,0.26,0.58,0.35,0.82c0.04,0.12,0.08,0.23,0.1,0.31c0.01,0.04,0.02,0.07,0.02,0.1v0.03 c0,0.3-0.24,0.54-0.53,0.54c0,0-0.01,0-0.01,0c-0.14,0-0.28-0.05-0.38-0.16c-0.11-0.1-0.17-0.24-0.17-0.39 C100.04,55.42,100.05,55.36,100.07,55.3z M104.65,55.19l-2.52,2.38c-0.57,0.53-1.11,1.05-1.52,1.43c-0.08,0.07-0.15,0.14-0.21,0.2 c-0.38-0.39-0.95-0.99-1.54-1.61c-0.51-0.53-1.03-1.08-1.46-1.51c-0.21-0.22-0.4-0.41-0.55-0.56c-0.07-0.07-0.14-0.14-0.19-0.2 c-0.05-0.06-0.1-0.09-0.13-0.13c-0.86-0.81-0.89-2.16-0.09-3.01c0.81-0.86,2.16-0.89,3.01-0.09c0.09,0.09,0.18,0.2,0.25,0.31 c0.05,0.08,0.11,0.17,0.17,0.27c-0.11,0.22-0.28,0.53-0.44,0.87s-0.3,0.66-0.43,0.98c-0.06,0.16-0.11,0.32-0.15,0.46 c-0.05,0.15-0.07,0.31-0.07,0.47c-0.01,1.01,0.8,1.83,1.8,1.84c1.01,0.01,1.83-0.8,1.84-1.8c0-0.17-0.02-0.35-0.07-0.51 c-0.08-0.28-0.18-0.56-0.3-0.83c-0.19-0.43-0.41-0.88-0.58-1.22c-0.05-0.1-0.1-0.19-0.14-0.27c0.06-0.1,0.11-0.19,0.17-0.27 c0.07-0.11,0.15-0.22,0.25-0.31c0.92-0.73,2.26-0.58,2.99,0.34C105.38,53.25,105.35,54.41,104.65,55.19z"/><path fill="#1DCAD3" d="M192.6,51.48L192.6,51.48L192.6,51.48c-1.29-1.37-3.45-1.43-4.82-0.14c0,0,0,0,0,0 c-0.09,0.09-0.18,0.19-0.26,0.29c-0.08-0.11-0.17-0.2-0.26-0.29c-1.35-1.31-3.5-1.29-4.82,0.06c-1.31,1.35-1.29,3.5,0.06,4.82 c0.02,0.02,0.05,0.05,0.07,0.07c0.02,0.02,0.05,0.06,0.11,0.11c0.19,0.19,0.54,0.56,0.97,1c0.64,0.66,1.44,1.49,2.07,2.16 c0.32,0.33,0.59,0.63,0.79,0.83l0.32,0.33c0.24,0.25,0.64,0.27,0.9,0.03c0,0,4.28-4.04,4.72-4.45 C193.83,55,193.9,52.85,192.6,51.48z M187.01,55.47L187.01,55.47c0.07-0.23,0.16-0.45,0.25-0.67c0.08-0.18,0.17-0.37,0.26-0.56 c0.02,0.05,0.05,0.09,0.07,0.14c0.13,0.28,0.26,0.58,0.35,0.82c0.04,0.12,0.08,0.23,0.1,0.31c0,0.04,0.02,0.07,0.02,0.1v0.02 c0,0.3-0.24,0.54-0.54,0.54c0,0,0,0-0.01,0c-0.14,0-0.28-0.06-0.38-0.16c-0.1-0.1-0.16-0.24-0.16-0.39 C186.98,55.59,187,55.53,187.01,55.47z M191.6,55.37l-0.02,0l-2.52,2.38c-0.56,0.53-1.11,1.05-1.52,1.43l-0.22,0.2 c-0.38-0.4-0.95-1-1.54-1.61c-0.51-0.53-1.03-1.08-1.46-1.51c-0.21-0.22-0.4-0.41-0.55-0.56c-0.07-0.07-0.13-0.14-0.19-0.2 l-0.13-0.13c-0.87-0.79-0.95-2.13-0.16-3.01s2.13-0.95,3.01-0.16c0.03,0.02,0.05,0.05,0.08,0.07c0.09,0.1,0.18,0.2,0.25,0.31 c0.05,0.08,0.11,0.17,0.17,0.27c-0.11,0.22-0.27,0.53-0.44,0.88c-0.17,0.34-0.3,0.66-0.43,0.98c-0.06,0.16-0.11,0.32-0.15,0.46 c-0.04,0.15-0.07,0.31-0.07,0.47c-0.01,1.01,0.8,1.83,1.8,1.84s1.83-0.8,1.84-1.8c0-0.17-0.02-0.35-0.07-0.51 c-0.08-0.28-0.18-0.56-0.3-0.83c-0.19-0.43-0.41-0.88-0.58-1.22c-0.05-0.1-0.1-0.19-0.14-0.27c0.06-0.1,0.11-0.19,0.17-0.27 c0.07-0.11,0.15-0.22,0.25-0.31c0.85-0.81,2.2-0.77,3.01,0.09C192.49,53.21,192.46,54.56,191.6,55.37z"/></g><g><path fill="#6F7AD3" d="M143.99,68.18c2.99-0.01,5.41-2.44,5.4-5.43c0-0.35-0.29-0.63-0.64-0.63l-9.55,0.04 c-0.35,0-0.63,0.29-0.63,0.64C138.59,65.77,141.01,68.17,143.99,68.18z"/><path fill="#1DCAD3" d="M148.7,60.13c-0.42,0-0.75-0.34-0.75-0.75v-2.51c-0.01-2.18-1.78-3.95-3.97-3.95h-0.02 c-2.19,0.01-3.96,1.79-3.95,3.98v2.47c0,0.42-0.34,0.75-0.76,0.75c-0.42,0-0.75-0.34-0.75-0.75V56.9 c-0.01-3.02,2.43-5.48,5.45-5.49h0.03c3.01,0,5.46,2.44,5.47,5.45v2.51C149.45,59.79,149.11,60.13,148.7,60.13z"/><path fill="#1DCAD3" d="M137.83,55.85c0-0.03,0-0.06,0-0.09v-8.98c0.02-0.42-0.3-0.77-0.72-0.79c-0.42-0.02-0.77,0.3-0.79,0.72 c0,0.02,0,0.05,0,0.07v5.33c-1.03-1.09-2.46-1.7-3.96-1.7h-0.03c-3.02,0.01-5.47,2.46-5.46,5.49c0.01,3.02,2.46,5.47,5.49,5.46 h0.02c1.54-0.01,3.01-0.67,4.04-1.82c0.2,0.37,0.65,0.5,1.02,0.31c0.24-0.13,0.4-0.39,0.4-0.66v-3.22 C137.82,55.92,137.83,55.88,137.83,55.85z M132.38,59.84h-0.02c-2.19,0-3.97-1.77-3.97-3.96c0-2.19,1.77-3.97,3.96-3.97 c2.16,0,3.93,1.72,3.97,3.88v0.14C136.29,58.09,134.53,59.83,132.38,59.84L132.38,59.84z"/><path fill="#1DCAD3" d="M132.35,53.9c-1.1,0-1.99,0.89-1.99,1.99c0,1.1,0.89,1.99,1.99,1.99c1.1,0,1.99-0.89,1.99-1.99 C134.35,54.79,133.45,53.9,132.35,53.9z"/><path fill="#1DCAD3" d="M160.88,55.87c0-0.18-0.01-0.36-0.03-0.53l-0.02-3.24c0-0.41-0.34-0.75-0.76-0.75l0,0 c-0.4,0-0.73,0.32-0.75,0.73c-1.03-1.06-2.44-1.67-3.92-1.67h-0.03c-3.02,0.01-5.47,2.46-5.46,5.49c0.01,3.02,2.46,5.47,5.49,5.46 h0.03c1.45-0.01,2.84-0.59,3.86-1.62c0.02-0.02,0.05-0.05,0.07-0.08v0.27c0,0.41,0.34,0.75,0.75,0.75l0,0 c0.41,0,0.75-0.34,0.75-0.75c0,0,0,0,0,0l-0.02-3.52C160.87,56.23,160.88,56.04,160.88,55.87z M158.22,58.68 c-0.74,0.75-1.75,1.17-2.8,1.17h-0.02c-2.19,0-3.97-1.77-3.97-3.97c0-2.19,1.77-3.97,3.97-3.97c2.01,0,3.7,1.5,3.94,3.5v0.9 C159.24,57.21,158.85,58.05,158.22,58.68z"/><path fill="#1DCAD3" d="M155.4,53.9c-1.1,0-1.99,0.89-1.99,1.99c0,1.1,0.89,1.99,1.99,1.99c1.1,0,1.99-0.89,1.99-1.99 C157.4,54.79,156.51,53.9,155.4,53.9z"/><path fill="#1DCAD3" d="M155.01,82.47c0.46,0.37,1.16,0.29,1.52-0.18c0.37-0.46,0.29-1.14-0.18-1.51 c-3.81-3.01-8.23-5.17-12.94-6.32c-7.04-1.67-18.85-7.49-19.18-18.71c0.33-11.22,12.15-17.04,19.18-18.72 c4.72-1.16,9.13-3.31,12.94-6.32c0.46-0.37,0.54-1.04,0.18-1.51c-0.37-0.46-1.04-0.54-1.51-0.18c-3.56,2.81-7.71,4.84-12.12,5.92 c-5.03,1.19-9.98,3.62-13.6,6.67c-4.62,3.89-7.1,8.77-7.24,14.14c0.14,5.36,2.62,10.25,7.24,14.14c3.61,3.04,8.57,5.47,13.6,6.67 C147.32,77.64,151.45,79.65,155.01,82.47z"/><path fill="#6F7AD3" d="M132.95,82.47c-0.46,0.37-1.14,0.29-1.5-0.18c-0.37-0.46-0.29-1.14,0.18-1.5 c3.81-3.01,8.23-5.17,12.94-6.32c7.04-1.67,18.85-7.49,19.18-18.71c-0.33-11.22-12.15-17.04-19.18-18.72 c-4.72-1.16-9.13-3.31-12.94-6.32c-0.46-0.37-0.54-1.04-0.18-1.5c0.37-0.46,1.04-0.37,1.5-0.01c3.57,2.81,7.71,4.67,12.12,5.75 c5.03,1.19,9.98,3.62,13.6,6.67c4.62,3.89,7.1,8.77,7.24,14.14c-0.14,5.36-2.62,10.25-7.24,14.14c-3.61,3.04-8.57,5.47-13.6,6.67 C140.66,77.64,136.52,79.65,132.95,82.47z"/></g><g><g><path fill="#1DCAD3" d="M108.56,32.35c0.41,0.23,0.55,0.75,0.32,1.16c-0.2,0.35-0.62,0.52-1,0.39c0.06,0.76-0.1,1.53-0.47,2.2 c-1.05,1.84-3.45,2.43-5.3,1.38c-1.87-1.07-2.59-3.43-1.53-5.28c0.37-0.66,0.94-1.18,1.62-1.51l-2.57-1.47 c-0.41-0.24-0.55-0.76-0.32-1.17c0.24-0.41,0.76-0.55,1.17-0.32l5.42,3.09h0.01L108.56,32.35z M102.06,33.05 c-0.27,0.49-0.34,1.07-0.17,1.61c0.17,0.57,0.55,1.05,1.07,1.33c0.5,0.29,1.1,0.37,1.67,0.22c0.55-0.13,1.01-0.48,1.29-0.97 c0.28-0.49,0.34-1.07,0.17-1.6c-0.16-0.56-0.53-1.03-1.04-1.32c-0.51-0.3-1.12-0.39-1.69-0.24 C102.8,32.21,102.33,32.56,102.06,33.05z"/><path fill="#1DCAD3" d="M112.02,22.33l2.8,2.51c0.34,0.3,0.38,0.82,0.08,1.17c-0.31,0.33-0.83,0.36-1.18,0.06l-2.8-2.51 c-0.67-0.58-1.69-0.51-2.28,0.16c-0.58,0.65-0.53,1.64,0.12,2.22c0,0,0.01,0.01,0.01,0.01l2.8,2.51c0.04,0.03,0.08,0.08,0.1,0.13 c0.24,0.33,0.22,0.77-0.05,1.07c-0.3,0.34-0.83,0.37-1.17,0.07c0,0,0,0-0.01-0.01l-2.81-2.51l-1.82-1.63 c-0.34-0.3-0.38-0.83-0.07-1.17c0,0,0-0.01,0.01-0.01c0.22-0.25,0.56-0.34,0.88-0.25c0.1-0.58,0.36-1.13,0.75-1.57 C108.59,21.25,110.67,21.13,112.02,22.33z"/><path fill="#1DCAD3" d="M120.71,16.43l1.78,2.52c0.26,0.38,0.18,0.89-0.2,1.16c-0.33,0.22-0.77,0.19-1.06-0.08 c-0.24,0.71-0.7,1.33-1.32,1.76c-0.82,0.59-1.85,0.81-2.85,0.61c-1-0.21-1.89-0.8-2.47-1.64c-0.61-0.83-0.87-1.86-0.73-2.87 c0.21-1.82,1.77-3.19,3.61-3.16c-0.17-0.37-0.06-0.8,0.27-1.04c0.38-0.26,0.91-0.17,1.17,0.21L120.71,16.43z M119.35,17.4 c-0.34-0.5-0.85-0.84-1.44-0.97c-0.54-0.12-1.11-0.01-1.57,0.32c-0.46,0.31-0.76,0.82-0.82,1.37c-0.07,0.59,0.09,1.19,0.45,1.67 c0.34,0.49,0.84,0.84,1.43,0.98c0.54,0.11,1.1-0.02,1.55-0.34c0.45-0.32,0.76-0.8,0.84-1.35C119.86,18.49,119.7,17.88,119.35,17.4 L119.35,17.4z"/><path fill="#1DCAD3" d="M135.1,10.32l0.01,0.05l0.74,3.65c0.08,0.45-0.2,0.88-0.65,0.98c-0.45,0.08-0.89-0.2-1-0.64l-0.74-3.65 c0-0.02,0-0.03,0-0.05c-0.22-0.86-1.09-1.38-1.95-1.16c-0.82,0.21-1.34,1.01-1.19,1.84l0.73,3.66c0,0.03,0,0.08,0,0.11 s0.01,0.05,0.01,0.05c0,0.04-0.01,0.07-0.03,0.1l0.02,0.08c-0.09,0.32-0.35,0.57-0.67,0.65c-0.06,0.01-0.11,0-0.16,0.02 c-0.39-0.01-0.73-0.28-0.82-0.66l-0.74-3.66v-0.02l-0.49-2.38c-0.1-0.45,0.18-0.89,0.63-0.99c0.01,0,0.01,0,0.02,0 c0.32-0.08,0.65,0.05,0.83,0.31c1.16-1.07,2.92-1.17,4.19-0.24c0.47-0.81,1.28-1.38,2.21-1.55c1.78-0.35,3.51,0.8,3.87,2.58 c0,0,0,0,0,0l0.74,3.65c0.09,0.45-0.2,0.89-0.65,0.98c-0.45,0.09-0.9-0.2-1-0.65l-0.74-3.66c-0.17-0.87-1.01-1.43-1.87-1.27 C135.53,8.61,134.96,9.44,135.1,10.32z"/><path fill="#1DCAD3" d="M145.33,7.12l-0.02,6.13c0,0.47-0.38,0.85-0.85,0.85s-0.85-0.38-0.85-0.85l0.02-6.13 c-0.01-0.46,0.35-0.85,0.82-0.86c0.01,0,0.02,0,0.03,0c0.46-0.01,0.84,0.35,0.85,0.81C145.33,7.09,145.33,7.1,145.33,7.12z M145.33,4.27c0.01,0.47-0.37,0.86-0.84,0.86c0,0-0.01,0-0.01,0c-0.47,0-0.86-0.39-0.85-0.87c0,0,0,0,0,0V3.94 c0-0.47,0.38-0.85,0.85-0.85c0.46-0.01,0.84,0.36,0.85,0.82c0,0.01,0,0.02,0,0.03V4.27z"/><path fill="#1DCAD3" d="M153.7,7.82c-0.06,0.45-0.47,0.78-0.93,0.73c-0.34-0.05-0.68,0.01-0.97,0.18 c-0.32,0.16-0.59,0.38-0.81,0.66c-0.33,0.37-0.6,0.78-0.8,1.23l-0.36,2.97c-0.07,0.47-0.5,0.79-0.96,0.72c0,0,0,0,0,0 c-0.46-0.06-0.78-0.47-0.73-0.93l0.76-6.15c0.06-0.45,0.48-0.77,0.93-0.71c0,0,0,0,0,0c0.46,0.05,0.8,0.46,0.76,0.92l-0.01,0.11 c0.11-0.1,0.23-0.2,0.37-0.27c0.63-0.33,1.34-0.46,2.04-0.37c0.45,0.05,0.78,0.45,0.73,0.9C153.7,7.81,153.7,7.82,153.7,7.82z"/><path fill="#1DCAD3" d="M161.87,13.38l-0.95,2.94c-0.14,0.44-0.61,0.68-1.05,0.54c-0.38-0.13-0.61-0.5-0.57-0.9 c-0.72,0.23-1.49,0.23-2.2,0c-0.96-0.31-1.76-1-2.19-1.92c-0.43-0.93-0.49-1.99-0.17-2.97c0.3-0.98,0.97-1.81,1.87-2.31 c1.59-0.92,3.61-0.48,4.69,1c0.19-0.35,0.61-0.52,0.99-0.41c0.44,0.15,0.67,0.63,0.53,1.07L161.87,13.38z M160.28,12.87 c0.2-0.57,0.17-1.19-0.09-1.73c-0.23-0.51-0.66-0.9-1.19-1.06c-0.53-0.18-1.11-0.12-1.59,0.17c-0.52,0.29-0.9,0.78-1.07,1.35 c-0.2,0.56-0.17,1.18,0.07,1.73c0.24,0.5,0.68,0.87,1.2,1.04c0.52,0.17,1.09,0.12,1.58-0.13 C159.72,13.92,160.1,13.44,160.28,12.87L160.28,12.87z"/><path fill="#1DCAD3" d="M164.79,14.69c1.16-1.85,3.63-2.37,5.48-1.23c0.77,0.49,1.35,1.21,1.67,2.06c0.15,0.43-0.06,0.9-0.47,1.08 c-0.43,0.16-0.91-0.05-1.08-0.48c0,0,0-0.01,0-0.01c-0.19-0.5-0.55-0.93-1-1.22c-1.08-0.68-2.54-0.34-3.18,0.68 s-0.3,2.47,0.78,3.14c0.46,0.28,1,0.41,1.53,0.36c0.46-0.03,0.87,0.31,0.91,0.77c0.02,0.45-0.32,0.84-0.76,0.9 c-0.9,0.07-1.8-0.15-2.56-0.62C164.26,18.98,163.65,16.52,164.79,14.69z"/><path fill="#1DCAD3" d="M178.5,15.8c0.36,0.32,0.4,0.87,0.08,1.23l-6.18,6.93c-0.33,0.35-0.88,0.37-1.24,0.04 c-0.34-0.32-0.37-0.84-0.07-1.2l6.18-6.93C177.6,15.52,178.14,15.49,178.5,15.8z"/><path fill="#1DCAD3" d="M176.5,23.56c1.69-1.31,4.14-1.11,5.47,0.59c1.26,1.61,1.07,3.83-0.53,5.24l-0.06,0.05 c-0.04,0.03-0.08,0.06-0.12,0.07c-0.33,0.2-0.73,0.09-1-0.25l-3.09-3.94c-0.26,0.3-0.43,0.67-0.49,1.06 c-0.07,0.57,0.06,1.15,0.38,1.63c0.31,0.47,0.84,0.92,1.32,1.04c0.48,0.05,0.84,0.58,0.77,0.9c-0.07,0.32-0.32,0.71-0.81,0.63 c-1.03-0.17-1.87-0.69-2.55-1.57C174.46,27.31,174.83,24.9,176.5,23.56z M178.17,24.43l2.75,3.5c0.4-0.51,0.63-1.72-0.13-2.86 C179.92,24.06,178.76,24.13,178.17,24.43z"/><path fill="#1DCAD3" d="M181.12,32.67c0.45,0.07,0.75,0.49,0.68,0.94c0,0.01,0,0.03-0.01,0.04c-0.11,0.52-0.1,1.32,0.21,1.85 c0.18,0.33,0.45,0.61,0.77,0.8c0.17,0.09,0.37,0.1,0.55,0.03c0.05-0.02,0.09-0.06,0.12-0.12c0.05-0.08,0.07-0.17,0.07-0.27 c0.01-0.45-0.06-0.9-0.21-1.32v-0.01c-0.15-0.45-0.25-0.92-0.29-1.4c-0.03-0.48,0.07-0.96,0.29-1.39c0.18-0.3,0.44-0.54,0.75-0.71 c0.62-0.31,1.34-0.31,1.96,0c0.61,0.32,1.11,0.82,1.43,1.43c0.51,0.96,0.42,1.88,0.35,2.49c-0.05,0.46-0.45,0.8-0.91,0.77 c-0.46-0.05-0.79-0.45-0.75-0.91c0,0,0-0.01,0-0.01c0.05-0.6,0.07-1.11-0.17-1.55c-0.15-0.3-0.4-0.54-0.7-0.7 c-0.13-0.09-0.29-0.11-0.44-0.05c-0.04,0.02-0.08,0.05-0.1,0.09c-0.04,0.07-0.06,0.15-0.06,0.23c-0.01,0.41,0.07,0.81,0.21,1.19 v0.02v0.01c0.17,0.49,0.26,0.99,0.29,1.51c0.05,0.49-0.05,0.99-0.29,1.42c-0.19,0.32-0.45,0.58-0.77,0.75 c-0.65,0.33-1.43,0.33-2.08-0.01c-0.65-0.33-1.19-0.86-1.53-1.5c-0.46-0.92-0.59-1.97-0.37-2.98 C180.24,32.88,180.67,32.59,181.12,32.67z"/></g><path fill="#1DCAD3" d="M192.28,37.7c0.53,1.11,0.07,2.44-1.04,2.97c-1.04,0.5-2.29,0.12-2.88-0.87c-0.58-1.08-0.18-2.43,0.9-3.02 s2.43-0.18,3.02,0.9V37.7z M191.87,37.88c-0.45-0.84-1.48-1.1-2.35-0.64c-0.84,0.42-1.19,1.44-0.77,2.28 c0.01,0.01,0.01,0.03,0.02,0.04c0.45,0.85,1.49,1.11,2.35,0.64c0.86-0.47,1.21-1.46,0.75-2.31L191.87,37.88z M189.14,38.97 l-0.22-0.41l1.95-1.05c0.17,0.21,0.31,0.43,0.44,0.67c0.19,0.35,0.21,0.55,0.19,0.74c-0.03,0.18-0.14,0.34-0.3,0.42 c-0.24,0.11-0.52,0.04-0.68-0.17l-0.02,0.01c0.04,0.24-0.07,0.41-0.3,0.62c-0.15,0.11-0.28,0.25-0.4,0.39l-0.23-0.44 c0.1-0.16,0.24-0.3,0.39-0.41c0.19-0.15,0.21-0.33,0.08-0.57l-0.12-0.21L189.14,38.97z M190.25,38.39l0.11,0.21 c0.14,0.25,0.33,0.4,0.53,0.29c0.17-0.09,0.22-0.28,0.06-0.57c-0.07-0.13-0.12-0.19-0.15-0.24L190.25,38.39z"/></g></svg>