<svg xmlns="http://www.w3.org/2000/svg" viewBox="0 0 288 108"><title>tls-us-hk-logo</title><path fill="#37afe4" d="M141.5 52.05h-.4l-5.95-18.02h1.94l4.7 14.54 3.5-9.72h1.52l3.38 9.72 4.8-14.54h1.96l-6.04 18.02h-1.32L146 42.02l-3.48 10.03h-1.02M168.22 51.95h-10.65V34.03h10.55v1.85h-8.7v6.24h8.5v1.74h-8.5v6.25h8.8v1.85M171.6 34.03h1.84v17.92h-1.84zM184.7 52.16a8.24 8.24 0 0 1-6.25-2.76 9.32 9.32 0 0 1-2.56-6.45 9.5 9.5 0 0 1 2.55-6.45 8.67 8.67 0 0 1 14.33 2.87l.3.92h-1.94l-.2-.42a6.72 6.72 0 0 0-6.35-4.2 6.6 6.6 0 0 0-4.92 2.15 7.56 7.56 0 0 0-2 5.12 7.2 7.2 0 0 0 2 5.12 6.6 6.6 0 0 0 4.9 2.15A7.12 7.12 0 0 0 191 45.6h-7v-1.84h9.2l-.1.82a6 6 0 0 1-.4 1.84 8.9 8.9 0 0 1-8 5.74zM207.33 52.05h-1.84v-8.2h-8.92v8.2h-1.74V34.03h1.74v8h8.9v-8h1.85v18.02M215.83 52.05h-1.74V35.88h-5.75v-1.85h13.2v1.85h-5.72v16.17M238.04 52.05H227.4V34.03h1.84V50.2h8.8v1.85M246.34 52.16a9.1 9.1 0 0 1-9.12-9.16 9 9 0 0 1 2.66-6.45 8.8 8.8 0 0 1 6.45-2.66 9 9 0 0 1 6.45 2.65 9.15 9.15 0 0 1 2.67 6.45 9 9 0 0 1-2.66 6.45 8.8 8.8 0 0 1-6.46 2.7zm0-16.48a7.38 7.38 0 0 0-5.12 12.6 7 7 0 0 0 5.12 2.14A7.34 7.34 0 0 0 253.7 43a7.28 7.28 0 0 0-2.14-5.22 7.28 7.28 0 0 0-5.22-2.1zM262.6 52.05c-2.86 0-5.93-1.64-6.34-4.7l-.1-.83 1.84-.2.1.82c.2 2.15 2.76 3.07 4.5 3.07a5.15 5.15 0 0 0 4-1.63 2.9 2.9 0 0 0 .6-2.56c-.4-1.63-1.94-1.94-4.5-2.14s-5.93-.6-6.24-4.5a4.88 4.88 0 0 1 .92-3.28c1.43-1.95 4.4-2.76 7.17-2.15a4.9 4.9 0 0 1 4.1 4v.2l.1.6-1.74.32-.1-.92a2.4 2.4 0 0 0-.7-1.43 4.66 4.66 0 0 0-3.5-1.23h-.1a4.77 4.77 0 0 0-3.78 1.64 3.25 3.25 0 0 0-.6 2c.2 2.26 1.83 2.57 4.7 2.77 2.56.2 5.43.5 6.14 3.58a4.88 4.88 0 0 1-.92 4.1 6.87 6.87 0 0 1-5.53 2.5zM276.43 52.05c-2.87 0-5.94-1.64-6.35-4.7l-.1-.83 1.84-.2.1.82c.2 2.15 2.76 3.07 4.5 3.07a5.15 5.15 0 0 0 4-1.63A2.9 2.9 0 0 0 281 46c-.4-1.64-1.95-1.95-4.5-2.15s-5.94-.6-6.25-4.5a4.88 4.88 0 0 1 .92-3.28c1.43-1.95 4.4-2.76 7.17-2.15a4.9 4.9 0 0 1 4.1 4v.2l.1.6-1.74.32-.1-.92a2.4 2.4 0 0 0-.7-1.42 4.4 4.4 0 0 0-3.58-1.23 4.77 4.77 0 0 0-3.8 1.64 3.25 3.25 0 0 0-.6 2c.2 2.26 1.84 2.57 4.7 2.77 2.57.2 5.44.5 6.15 3.58a4.88 4.88 0 0 1-.92 4.1 6.87 6.87 0 0 1-5.52 2.5zM144.57 79.3c-3.58 0-7.68-2-8.1-5.95l-.1-.92 1.96-.2.1.92c.3 3 3.8 4.3 6.25 4.3a7.38 7.38 0 0 0 5.43-2.25 4.08 4.08 0 0 0 .83-3.58c-.5-2.35-2.66-2.76-6.14-3.07s-7.7-.82-8-5.63a6.2 6.2 0 0 1 1.12-4.1c1.84-2.35 5.73-3.48 9.1-2.66 2.88.72 4.82 2.56 5.23 5v.3l.1.62-1.84.4-.1-1a4 4 0 0 0-1-1.94 6.68 6.68 0 0 0-4.9-1.74 6.82 6.82 0 0 0-5.12 2.15 4 4 0 0 0-.82 2.87c.2 3.17 2.56 3.48 6.35 3.9 3.3.3 7 .7 7.8 4.6a6 6 0 0 1-1.14 5.12 9.3 9.3 0 0 1-7 2.85zM166.07 79.4a11.37 11.37 0 0 1-8.3-3.5 11.86 11.86 0 0 1 0-16.78 11.54 11.54 0 0 1 8.3-3.48 11.88 11.88 0 0 1 0 23.75zm0-21.82a9.44 9.44 0 0 0-7 3 10.1 10.1 0 0 0-2.87 7 9.75 9.75 0 0 0 2.87 7 9.65 9.65 0 0 0 13.92 0 9.9 9.9 0 0 0 0-13.92 9.85 9.85 0 0 0-6.93-3.08zM193.5 79.08H180V56.05h1.94v21.2h11.57v1.83M202.82 79.4c-4 0-8.3-2.36-8.3-6.87V56h1.96v16.53c0 3.17 3.28 4.9 6.35 4.9s6.35-1.73 6.35-4.9V56h1.95v16.53a6.23 6.23 0 0 1-2.76 5.12 9.12 9.12 0 0 1-5.55 1.74zM223.5 79.08h-1.94v-21.1h-7.47v-1.93h16.88V58h-7.48v21.08M251.56 79.4a11.37 11.37 0 0 1-8.3-3.5 11.86 11.86 0 0 1 0-16.78 11.54 11.54 0 0 1 8.3-3.48 11.88 11.88 0 0 1 0 23.75zm0-21.82a9.44 9.44 0 0 0-7 3 10.1 10.1 0 0 0-2.87 7 9.93 9.93 0 0 0 2.86 7 9.65 9.65 0 0 0 13.92 0 9.93 9.93 0 0 0 2.87-7 9.75 9.75 0 0 0-2.87-7 10 10 0 0 0-6.92-3zM281.86 79.08h-.6l-13.22-19.04v19.04h-1.94V56.05h1.63l13.2 19.14V56.04h1.95v23.03h-1.02M234.36 56.05h1.84V79.1h-1.84zM38.1 36.5h15.04v42.58h2.36v-42.6h15.15v-2.45H38.1v2.46M75.97 34.03h-2.45v45.05h25.9v-2.35H75.97v-42.7M130.23 63.93c-1.54-7.37-8.5-8-15.15-8.7s-13-1.33-13.5-8.5a8.3 8.3 0 0 1 1.73-6.14c2.57-3.4 7.28-4.62 10.86-4.72 4.2-.1 8.1 1.33 10.34 3.8a8.5 8.5 0 0 1 2.15 4.4l.2 1.22 2.35-.5-.1-1.14c-.92-4.8-4.5-8.3-10-9.52-6.76-1.64-14.13.5-17.7 5.12A11.1 11.1 0 0 0 99.1 47c.62 9.2 8.5 10 15.57 10.75 6.14.6 11.88 1.23 13.1 6.76a9.3 9.3 0 0 1-1.77 7.93c-2.46 3-6.86 4.8-11.57 4.8a16.07 16.07 0 0 1-8.5-2.34 9.5 9.5 0 0 1-4.67-6.9l-.2-1.13-2.46.3.2 1.14a11.48 11.48 0 0 0 5.63 8.5 19.58 19.58 0 0 0 9.93 2.77c5.53 0 10.75-2.25 13.62-5.84a10.9 10.9 0 0 0 2.25-9.8zM35.84 28.1s-18.74 30.5.1 55.9c-7.37-8.7-24.16-31.95-.1-55.9z"/><ellipse cx="20.79" cy="31.58" rx="5.32" ry="7.47" fill="#37afe4"/><path d="M4.1 28s8.1 13.1 8.3 29.38A42.72 42.72 0 0 1 4 83.88C11.37 75.2 28.16 52 4.1 28zM130.56 33.62a2.76 2.76 0 1 1-2.76 2.76 2.74 2.74 0 0 1 2.76-2.76zm0 5.07a2.34 2.34 0 1 0-2.3-2.38 2.25 2.25 0 0 0 2.3 2.37zm-1.12-3.96h1.25c.78 0 1.1.33 1.1.92a.8.8 0 0 1-.85.86l.92 1.45h-.53l-.86-1.38H130V38h-.53zm.53 1.45h.53c.46 0 .86 0 .86-.54s-.4-.53-.72-.53H130z" fill="#37afe4"/></svg>