<svg data-name="Layer 1" xmlns="http://www.w3.org/2000/svg" viewBox="0 0 288 108"><title>autoworks-us-can-tw-logo</title><path fill="#0c0c0c" d="M15.53 81.72L4.44 96.65H271.9L283 81.72H15.53"/><path fill="#fff" d="M25.39 89.14h-5.22l-1.98 2.76h-2.01l4.45-6.16h2l-1.89 2.56h5.24l1.78-2.51h2.05L25.5 91.9h-2.07l1.96-2.76M28.98 91.9h-2.01l4.45-6.16h2l-4.44 6.16M40.54 90.76q-.61 1.14-3.41 1.14h-3.69q-2 0-2.23-.68a.63.63 0 0 1 0-.52L34 86.91a4.19 4.19 0 0 1 2.12-1.07 12.57 12.57 0 0 1 1.53-.09H44l-.78.82h-5.77A2.24 2.24 0 0 0 36 87l-2.82 3.81a.31.31 0 0 0 0 .15q0 .15.56.17h3.79a1.31 1.31 0 0 0 1-.31l1.25-1.62h-2.29l.66-.87h4.08l-.39.58zM50.23 89.14h-5.22l-1.98 2.76h-2.01l4.45-6.16h2l-1.89 2.56h5.24l1.78-2.51h2.05l-4.31 6.11h-2.07l1.96-2.76M61.34 89.14l-2 2.76h-2l3.56-5a4.19 4.19 0 0 1 2.12-1.07 12.57 12.57 0 0 1 1.53-.09h3.65a8.23 8.23 0 0 1 1.19.11 1 1 0 0 1 .73.77V87l-1 1.6a2.13 2.13 0 0 1-1.75.57zm6-2.58h-2.92A2.24 2.24 0 0 0 63 87l-1 1.34h4.31a1.56 1.56 0 0 0 1.35-.5l.57-.82a1 1 0 0 0-.92-.46zM75 86.56a2.24 2.24 0 0 0-1.46.39l-1 1.34h5.29l-.64.84H72l-1.2 1.62a.25.25 0 0 0 0 .11q0 .19.54.17h6.79l-.75.82H71q-2 0-2.23-.68a.63.63 0 0 1 0-.52l2.71-3.78a4.19 4.19 0 0 1 2.12-1.07 12.57 12.57 0 0 1 1.53-.09h6.31l-.73.82zM82.12 89.14l-2 2.76h-2l4.38-6.15H89a8.23 8.23 0 0 1 1.19.11 1 1 0 0 1 .73.77V87l-1 1.6a1.8 1.8 0 0 1-1.48.59h-.78v2.71h-2v-2.76zm6-2.58H84l-.3.39-1 1.34h4.6a1.22 1.22 0 0 0 1-.5l.57-.82a1 1 0 0 0-.78-.41zM95.9 86.56a2.24 2.24 0 0 0-1.46.39l-1 1.34h5.29l-.64.84h-5.26l-2 2.76h-2l3.58-5a4.19 4.19 0 0 1 2.12-1.07 12.57 12.57 0 0 1 1.53-.09h6.31l-.73.82zM108.87 90.76q-.61 1.14-3.41 1.14h-3.69q-2 0-2.23-.68a.63.63 0 0 1 0-.52l2.71-3.78a4.19 4.19 0 0 1 2.12-1.07 12.57 12.57 0 0 1 1.53-.09h3.62a8.24 8.24 0 0 1 1.19.11 1 1 0 0 1 .73.77V87zm-.19-4.19h-2.89a2.24 2.24 0 0 0-1.46.39l-2.82 3.81c-.05.18.13.29.54.32h3.77a1.31 1.31 0 0 0 1-.31L109.5 87a1 1 0 0 0-.82-.44zM113.45 89.14l-2 2.76h-2l4.38-6.15h6.43a8.24 8.24 0 0 1 1.19.11 1 1 0 0 1 .73.77V87l-1 1.6a1.8 1.8 0 0 1-1.48.59h-.78v2.71h-2v-2.76zm6-2.58h-4.06l-.3.39-1 1.34h4.6a1.22 1.22 0 0 0 1-.5l.57-.82a1 1 0 0 0-.84-.41zM127.27 87h-1.48l-3.62 4.95h-2l4.47-6.15h7.16q1.32.18 1.19 1.23l-3.44 4.92h-2.07l2.67-3.7.45-.62q.44-.63-.79-.63H129l-3.44 4.95h-1.75zM140.13 89.14h-5.22l-2 2.76h-2.07l3.69-5a4.19 4.19 0 0 1 2.12-1.07 12.57 12.57 0 0 1 1.53-.09h3.62a8.23 8.23 0 0 1 1.19.11 1 1 0 0 1 .73.77V87l-3.42 4.92h-2.12zm.75-2.58H138a2.24 2.24 0 0 0-1.46.39l-1 1.34h5.29l.87-1.29a1 1 0 0 0-.82-.44zM147.32 87l-3.62 4.95h-2l4.47-6.15h7.16q1.32.18 1.19 1.23L151 91.9h-2l3.11-4.32q.44-.63-.79-.63zM159.44 86.56A2.24 2.24 0 0 0 158 87l-2.82 3.81a.33.33 0 0 0 0 .19c0 .07.18.12.53.13h6.79l-.73.82h-6.29q-2 0-2.23-.68a.63.63 0 0 1 0-.52l2.75-3.84a4.19 4.19 0 0 1 2.12-1.07 12.57 12.57 0 0 1 1.53-.09H166l-.78.82zM169.5 86.56a2.24 2.24 0 0 0-1.5.44l-1 1.34h5.29l-.64.84h-5.22l-1.2 1.62a.25.25 0 0 0 0 .11q0 .19.54.17h6.79l-.75.82h-6.27q-2 0-2.23-.68a.63.63 0 0 1 0-.52l2.69-3.79a4.19 4.19 0 0 1 2.12-1.07 12.57 12.57 0 0 1 1.53-.09H176l-.73.82zM186.86 90.73l1.14-1.59h-5.22l-1.2 1.62a.25.25 0 0 0 0 .11l-.79 1h-2.07l1-1.21 2.71-3.78a4.19 4.19 0 0 1 2.12-1.07 12.57 12.57 0 0 1 1.53-.09h3.62a8.24 8.24 0 0 1 1.19.11 1 1 0 0 1 .73.77v.4l-2.32 3.4-.3.41-.8 1.12H186l.82-1.12zm1.87-4.17h-2.89a2.24 2.24 0 0 0-1.46.39l-1 1.34h5.29l.93-1.32a1 1 0 0 0-.88-.41zM199.62 90.76q-.65 1.12-3.41 1.14h-3.69q-2 0-2.23-.71v-.5l2.71-3.78.8-1.07h1.32c.5-.06.72 0 .66.11l-.75 1-2.82 3.81a.45.45 0 0 0-.05.2c0 .08.15.12.45.12h3.91a1.31 1.31 0 0 0 1-.31l2.73-3.77.71-1.16a7 7 0 0 1 1.28 0h.76l-.77 1.16zM208.82 86.56h-.45l-3.9 5.34h-1.91l3.83-5.34h-3.7l.6-.82h9.14l-.64.82H208.82M218.36 90.76q-.61 1.14-3.41 1.14h-3.69q-2 0-2.23-.68a.63.63 0 0 1 0-.52l2.71-3.78a4.19 4.19 0 0 1 2.12-1.07 12.57 12.57 0 0 1 1.53-.09h3.62a8.24 8.24 0 0 1 1.19.11 1 1 0 0 1 .73.77V87zm-.19-4.19h-2.89a2.24 2.24 0 0 0-1.46.39l-2.82 3.8c-.05.18.13.29.54.32h3.77a1.31 1.31 0 0 0 1-.31L219 87a1 1 0 0 0-.83-.44zM234.5 86.56h-2.9a2.24 2.24 0 0 0-1.46.39l-2.82 3.81a.33.33 0 0 0 0 .19c0 .07.18.12.53.13h6.79l-.73.82h-6.29q-2 0-2.23-.68a.63.63 0 0 1 0-.52l2.71-3.78a4.19 4.19 0 0 1 2.12-1.07 12.57 12.57 0 0 1 1.53-.09h6.36l-.78.82h-2.83zM242.81 90.73l1.12-1.59h-5.22l-1.2 1.62a.25.25 0 0 0 0 .11l-.79 1h-2.07l1-1.21 2.71-3.78a4.19 4.19 0 0 1 2.12-1.07 12.57 12.57 0 0 1 1.53-.09h3.62a8.23 8.23 0 0 1 1.19.11 1 1 0 0 1 .73.77v.4l-2.32 3.4-.3.41-.8 1.12h-2.12l.82-1.12zm1.87-4.17h-2.89a2.24 2.24 0 0 0-1.46.39l-1 1.34h5.29l.88-1.29a1 1 0 0 0-.82-.44zM252.1 89.14h-2.64l-1.2 1.62a.25.25 0 0 0 0 .11l-.72 1h-2l.82-1.21 3.56-4.95h6.43a8.24 8.24 0 0 1 1.19.11 1 1 0 0 1 .73.77V87l-1 1.6a1.8 1.8 0 0 1-1.48.59h-.78v2.71h-2v-2.76zm3.33-2.58h-4.06l-.3.39-1 1.34h4.6a1.22 1.22 0 0 0 1-.5l.57-.82a1 1 0 0 0-.82-.41zM266 86.56h-2.89a2.24 2.24 0 0 0-1.46.39l-1 1.34h5.29l-.64.84h-5.22l-1.2 1.62a.25.25 0 0 0 0 .11q0 .19.54.17h6.79l-.75.82h-6.27q-2 0-2.23-.68a.63.63 0 0 1 0-.52l2.71-3.78a4.19 4.19 0 0 1 2.12-1.07 12.57 12.57 0 0 1 1.53-.09h6.31l-.73.82z"/><path d="M99 28.82H67.41L55.15 45.49H42.62l22.31-30.17q4.68-4.68 12.81-6.47A76.78 76.78 0 0 1 87 8.3h21.9a50.06 50.06 0 0 1 7.1.7q3.86 1.24 4.41 4.68v2.07L99.78 45.49H87zm4.55-15.57H86a13.59 13.59 0 0 0-8.82 2.34l-6.34 8.13h32l5.65-8q-1.27-2.05-4.99-2.47zM147.55 40.63q-2.75 4.73-14.42 4.82h-15.62q-8.58-.19-9.45-3l.19-2.12L123.1 19.8h5.59q3.18-.39 2.8.48L116.4 40.63a1.86 1.86 0 0 0-.22.84q0 .51 1.91.51h16.54q2.94 0 4.1-1.3l14.46-21a30.46 30.46 0 0 1 5.4-.1h3.18zM188.57 22.88l-16.48 22.57h-8.1l16.2-22.57h-15.63l2.51-3.47h38.67l-2.7 3.47h-14.47M235.1 40.63q-2.6 4.82-14.42 4.82h-15.62q-8.53 0-9.45-2.89a2.68 2.68 0 0 1 .19-2.22l11.47-16a17.74 17.74 0 0 1 9-4.53 53.71 53.71 0 0 1 6.46-.39H238a35.09 35.09 0 0 1 5 .48 4 4 0 0 1 3.09 3.28v1.45zm-.82-17.74H222a9.5 9.5 0 0 0-6.17 1.64L204 40.63q-.34 1.16 2.27 1.35h16q2.94 0 4.1-1.3l11.47-16.1q-.96-1.41-3.56-1.7zM46 73h7.7l15.43-22.4h8.29C75.3 53.49 61.27 74 61.27 74q-2 2.41-6.12 2.41H25.06q-4.73 0-2.22-3.28l16-22.76h8.68S31.68 72.3 31.33 73h7.23l15.91-22.59h7.71zM107.65 71.62q-2.6 4.82-14.42 4.82H77.61q-8.53 0-9.45-2.89a2.68 2.68 0 0 1 .19-2.22l11.47-16a17.74 17.74 0 0 1 9-4.53 53.71 53.71 0 0 1 6.46-.39h15.33a35.09 35.09 0 0 1 5 .48 4 4 0 0 1 3.09 3.28v1.45zm-.82-17.74H94.58a9.5 9.5 0 0 0-6.17 1.64L76.5 71.62q-.34 1.16 2.27 1.35h16q2.94 0 4.1-1.3l11.47-16.1q-.91-1.4-3.51-1.69zM125.83 64.77l-8.29 11.67h-8.39l18.51-26h27.19a35.11 35.11 0 0 1 5 .48 4 4 0 0 1 3.09 3.28v1.45l-4.34 6.75q-1.83 2.41-6.27 2.51h-3.28v11.53h-8.29V64.77zm25.26-10.9h-17.17l-5.69 7.33h19.48a5.15 5.15 0 0 0 4.44-2.12l2.41-3.47q-.87-1.44-3.47-1.73zM172.01 64.77l-8.1 11.67h-8.77l18.99-26.03H183l-8.58 10.8 29.7-10.32h8.58l-33.65 12.82 15.52 12.73h-8.67l-13.89-11.67M233.15 71.52l4.72-6.75h-26.71q-4 0-1.74-3.18l4.63-6.27a12.32 12.32 0 0 1 9-4.53 53.71 53.71 0 0 1 6.46-.39h26.81l-2.8 3.47h-24.71a9.5 9.5 0 0 0-6.17 1.64l-4.44 5.69h26.71q4.34 0 2.12 3.09l-5.21 7.42q-2.56 4.73-14.37 4.73H199.2l3.28-3.44H229q2.94 0 4-1.3zM263.26 51.08l-3.3 4.52h-1.62l3.24-4.52h-3.12l.5-.69h7.73l-.54.69h-2.89M270 51.41h-1.25l-3.07 4.18h-1.72l3.78-5.21h6.05q1.12.15 1 1l-2.91 4.17h-1.78l2.63-3.65q.38-.53-.66-.53h-.6l-2.91 4.18h-1.48z" fill="#0c0c0c"/></svg>