<svg data-name="Layer 1" xmlns="http://www.w3.org/2000/svg" viewBox="0 0 288 108"><title>friction-free-3000-uscan-tw-logo</title><path d="M87.8 88.07a5.85 5.85 0 0 0 3.63 3.23 7 7 0 0 0 5.17-.88c3.55-1.92 4.23-5.1 3.05-7.27-2.32-4.3-6.9-1.6-9.8 0l-3.53-6.5c3-1.34 7-4.24 5.14-7.73-1.32-2.43-4.2-2-6.58-.75-2.85 1.55-4.23 4-3.14 6.84L70.8 80.9c-4.23-8.78 1.4-16.57 9.95-21.2 9.7-5.27 18-4.47 21.4 1.87a8.44 8.44 0 0 1-.77 9.94c4.44-.7 8.1.95 10.1 4.6 4.7 8.68-.07 16.95-11.06 22.9-9.54 5.18-19.2 4.6-24-4.76z" fill="#ead8ea"/><path d="M114.08 41.62c10.64-5.77 21.2-3.22 27.93 9.16 5.78 10.64 6.3 22.27-7 29.46s-22.72.55-28.52-10.14c-7.35-13.72-1.76-23.4 7.6-28.48zm16.15 16.3c-2.12-3.9-5.8-11.23-11.78-8-5.47 3-1.42 10.7.5 14.26 3.53 6.5 7 10.3 11.6 7.8 4.3-2.32 3.07-7.8-.32-14.05z" fill="#ead8ea"/><path d="M147.87 23.3c10.64-5.78 21.2-3.23 27.93 9.15 5.77 10.64 6.3 22.27-7 29.46s-22.73.56-28.53-10.13c-7.35-13.77-1.76-23.4 7.6-28.48zM164 39.6c-2.12-3.92-5.8-11.24-11.78-8-5.47 3-1.42 10.7.5 14.25 3.53 6.5 7 10.3 11.6 7.8 4.33-2.32 3.08-7.8-.32-14.05z" fill="#ead8ea"/><path d="M181.66 5c10.64-5.77 21.2-3.22 27.93 9.16 5.76 10.64 6.28 22.27-7 29.46s-22.74.55-28.54-10.14C166.7 19.72 172.3 10 181.66 5zm16.15 16.3C195.7 17.37 192 10 186 13.3c-5.47 3-1.42 10.7.5 14.25 3.53 6.5 7 10.3 11.6 7.8 4.34-2.33 3.1-7.8-.3-14.06z" fill="#ead8ea"/><path d="M203.6 4.8l-.24-.4 2.36-1.4.24.42-.9.53 1.2 2.1-.54.32-1.22-2.1zM207 2.3l1.76 1.4-.34-2.22.8-.46 1.46 2.52-.5.3-1.2-2 .43 2.47-.43.25-2-1.6 1.18 2-.5.3-1.48-2.52zM72.56 57.06a16.75 16.75 0 0 0 .63 2.22c.08.17.15.13 1.22-.27.27-.1.6-.24.64-.16s.27.6.08.7-1.57.55-2.4 1-1.86 1.27-2.15 1.46a.18.18 0 0 1-.25 0c-.1-.2-.23-.56-.07-.7l1-.77c.14-.1.12-.26-.12-1.2l-2.07-8.3a16.76 16.76 0 0 0-.63-2.23c-.1-.17-.16-.13-1.23.27-.27.1-.36.13-.4 0s-.27-.6-.08-.7.56-.23 1.1-.45a18.14 18.14 0 0 0 2-.93c.62-.34 1.43-.82 2.2-1.25s1.43-.84 1.82-1c.5.48 1.64 1.12 1.7 1.22s-.33.64-.4.68-.18 0-.37-.12c-.88-.43-1.28-.56-2.1-.1l-2.32 1.17c-.1.06-.1.27 0 .55l1.22 5L74 51.8c1.12-.6 1.32-.8 1.34-1.48s0-.74.07-.8.62-.2.68-.1 0 .57.37 1.75.4 1.5.3 1.55c-.37.2-.6.3-.67.15s-.1-.37-.22-.6-.5-.3-1.07 0l-3.07 1.65zM79.77 50.42a8.85 8.85 0 0 0-.3-1.07c-.06-.13-.16-.14-.24-.1a5.28 5.28 0 0 0-.64 1.22l-.44-.14c1.4-3.1 1.66-3.56 1.9-3.68a.3.3 0 0 1 .42.08 5.1 5.1 0 0 1 .3 1l.5 2.27c.13-1.3.86-4.28 1.74-4.75.13-.07.2 0 .27.07l.58 1.32c0 .08 0 .14-.08.2a5.8 5.8 0 0 0-2.3 4.12l1.1 4.34-1.5.7zM85.25 38.73a.8.8 0 0 1 1.1.3 1.54 1.54 0 0 1-.6 1.88.8.8 0 0 1-1.1-.3 1.45 1.45 0 0 1 .6-1.87zm-.65 8c1.74-3.28 1.83-3.46 2.07-3.58a.33.33 0 0 1 .45.17 3.26 3.26 0 0 1 .23.82l.9 4.36a6.65 6.65 0 0 0 .4 1.5.26.26 0 0 0 .37.12c.15-.08.33-.26.7-1.13l.4.16c-.78 1.74-1.47 3.1-2 3.38a.43.43 0 0 1-.63-.22 4.76 4.76 0 0 1-.35-1.13l-1.1-5a2.92 2.92 0 0 0-.17-.53c0-.08-.1-.1-.15-.07s-.14.14-.72 1.22zM97.24 45.3a7.15 7.15 0 0 1-2.66 3.8 2.4 2.4 0 0 1-3.45-1.2c-1.1-2.07-1-6.53 2.62-8.46.24-.13.92-.36 1-.2s-.16 1.15-.15 1.25a.24.24 0 0 1-.1.2 5.4 5.4 0 0 0-1.45.4c-1.5.82-1.5 3.85-.68 5.4.54 1 1.38 1.64 2.6 1a4.6 4.6 0 0 0 1.85-2.3zM95.83 38.76l1.34-.76-.3-1.4a.34.34 0 0 1 .06-.32A7.1 7.1 0 0 1 98 35.13c.07 0 .1 0 .14.05a1.6 1.6 0 0 1 .1.33l.38 1.77 1.4-.76.2 1.07-1.34.72.9 4a6.22 6.22 0 0 0 .5 1.6.42.42 0 0 0 .62.18c.18-.1.46-.38.9-1.3l.44.18c-.94 2.08-1.52 2.9-2 3.16a.8.8 0 0 1-1.17-.3 6.72 6.72 0 0 1-.47-1.54l-1.17-5.18-1.43.72zM101.88 29.82a.8.8 0 0 1 1.1.3 1.54 1.54 0 0 1-.6 1.88.8.8 0 0 1-1.1-.3 1.45 1.45 0 0 1 .6-1.88zm-.65 8c1.74-3.28 1.83-3.46 2.07-3.58a.32.32 0 0 1 .44.17 3.2 3.2 0 0 1 .23.83l.9 4.36a6.64 6.64 0 0 0 .4 1.56.26.26 0 0 0 .38.12c.15-.08.33-.26.7-1.14l.4.17c-.78 1.75-1.47 3.1-2 3.4a.43.43 0 0 1-.63-.23 4.72 4.72 0 0 1-.34-1.13l-1.1-5a2.8 2.8 0 0 0-.17-.52c0-.08-.1-.1-.14-.07s-.14.14-.72 1.22zM109.74 30.88a2.45 2.45 0 0 1 3.6 1.12c1.4 2.64.6 6.72-2 8.12a2.45 2.45 0 0 1-3.58-1.12c-1.4-2.64-.62-6.72 1.98-8.12zm1.7 8c2.1-1.12 1.45-4.28.67-5.73s-1.7-1.5-2.46-1.1c-2.1 1.13-1.44 4.3-.66 5.74s1.7 1.53 2.47 1.12zM116.1 31a8.52 8.52 0 0 0-.3-1.07c-.07-.13-.17-.14-.25-.1a5.24 5.24 0 0 0-.64 1.22l-.42-.14c1.4-3.1 1.66-3.55 1.9-3.68a.3.3 0 0 1 .42.08 5.1 5.1 0 0 1 .3 1l.73 3.28c1.1-3.6 2.14-6.14 2.9-6.55.5-.26.76-.2 1.06.38s.83 5.8 1.18 6.47a.32.32 0 0 0 .47.13 3.55 3.55 0 0 0 .92-1.42l.43.14c-1.1 2.22-1.7 3.15-2.3 3.47a.55.55 0 0 1-.8-.24c-.35-.63-.94-6-1.22-6.5a.24.24 0 0 0-.34-.1c-.42.24-1 1.3-2.1 5l.87 3.47-1.53.82zM133.35 24.5a16.63 16.63 0 0 0 .62 2.22c.1.17.16.13 1.23-.27.28-.1.6-.25.64-.17s.27.6.08.7-1.57.55-2.4 1-1.86 1.26-2.15 1.42a.18.18 0 0 1-.24 0c-.1-.2-.23-.56-.07-.7l1-.77c.14-.1.12-.26-.12-1.2l-2.07-8.3a16.67 16.67 0 0 0-.62-2.22c-.1-.16-.16-.12-1.22.28-.28.1-.36.13-.4 0s-.27-.6-.08-.7.56-.23 1.1-.45a18.3 18.3 0 0 0 2-.93c.62-.33 1.43-.8 2.2-1.24s1.43-.84 1.82-1c.5.48 1.64 1.12 1.7 1.22s-.33.64-.4.68-.18 0-.37-.12c-.9-.43-1.3-.56-2.12-.12L131.16 15c-.1.06-.1.27 0 .55l1.22 5 2.46-1.32c1.12-.6 1.32-.8 1.34-1.47s0-.74.07-.8.6-.2.67-.1 0 .57.37 1.75.38 1.52.3 1.56c-.4.2-.6.3-.68.15s-.1-.36-.22-.58-.5-.3-1.07 0l-3.06 1.64zM140.56 17.87a8.64 8.64 0 0 0-.3-1.07c-.06-.13-.16-.14-.24-.1a5.2 5.2 0 0 0-.64 1.22l-.43-.14c1.4-3.1 1.66-3.56 1.9-3.68a.3.3 0 0 1 .42.08 5.06 5.06 0 0 1 .3 1l.5 2.24c.13-1.3.86-4.28 1.74-4.75.14-.07.22 0 .28.07l.62 1.26c0 .08 0 .14-.08.2a5.8 5.8 0 0 0-2.3 4.12l1.1 4.34-1.53.83zM153.85 14.43c-.46 1.6-1.5 3.74-3.1 4.6a2.47 2.47 0 0 1-3.47-.9c-1.44-2.7-.6-7 2.1-8.47.7-.37 1.48-.45 1.84.22 1 1.85-1.45 4.93-3 6.2a4.3 4.3 0 0 0 .27.68 1.72 1.72 0 0 0 2.44.73 5.78 5.78 0 0 0 2.44-3.17zM149 10.77c-1.36.73-1.13 3.7-.85 4.84 1.1-.82 2.5-3.4 1.85-4.6a.74.74 0 0 0-1-.23zM161.66 10.24c-.46 1.6-1.5 3.74-3.1 4.6a2.47 2.47 0 0 1-3.47-.9c-1.45-2.7-.6-7 2.1-8.47.7-.37 1.47-.45 1.83.22 1 1.84-1.45 4.9-3 6.2a4.2 4.2 0 0 0 .27.67 1.7 1.7 0 0 0 2.45.73 5.77 5.77 0 0 0 2.44-3.16zM156.8 6.6c-1.36.72-1.13 3.7-.85 4.83 1.1-.83 2.5-3.42 1.85-4.6a.74.74 0 0 0-1-.24zM118.13 101.86l1.47-.8c.32-.16.4-.33.34-.5s-.07-.32.13-.43.24-.1.3 0 .12.38.24.6.23.28.33.46 0 .23-.08.3-.25.1-.34 0a.5.5 0 0 0-.68-.1l-1.5.8.74 1.36c.23.44.48.6 1.1.27l.85-.45c.48-.25.77-.47.72-.88s0-.37.17-.47.2-.1.27 0 .15.75.25 1.14c-.9.4-2 1-2.7 1.33s-1.35.85-1.68 1c-.13.07-.2 0-.24 0a.18.18 0 0 1 .06-.26c.46-.35.65-.5.4-1l-2-3.74a.3.3 0 0 0-.43-.1l-.5.2c-.06 0-.1 0-.17-.16s0-.15.08-.2.28-.13.53-.24a8.2 8.2 0 0 0 .95-.44l.37-.2 1.07-.6.9-.52h.1a7.3 7.3 0 0 0 .5.74c.07.12 0 .22-.17.3a.27.27 0 0 1-.38-.07.47.47 0 0 0-.7-.1l-1.35.72zM126.62 95.33c-.27-.5-.48-.44-1-.23-.1 0-.17 0-.23-.1s0-.15.1-.22.64-.23 1-.44.8-.56.93-.63.2 0 .23 0a.18.18 0 0 1 0 .25c-.5.37-.64.53-.4 1l2.27 4.2a.2.2 0 0 1-.08.32.75.75 0 0 1-.58 0l-6.4-1.47 1.7 3.14c.27.5.46.43 1 .23a.17.17 0 0 1 .24.1c0 .06 0 .14-.1.2s-.6.22-1 .43-.85.58-1 .66-.18 0-.22 0 0-.18 0-.24c.5-.4.64-.54.4-1l-2.24-4.14a.3.3 0 0 1 .12-.36.72.72 0 0 1 .56 0l6.35 1.6zM136.9 95.38a2.12 2.12 0 0 0-.32.13 2.16 2.16 0 0 0-.26.13l-.7.44c-.34.22-.72.45-1.07.64-2 1.06-4 .93-4.92-.75s-.13-3.34 2.08-4.53c.5-.26 1.52-.74 2.3-1.07.04.1.55.75.6.86s0 .16-.18.26-.3 0-.6-.27-1.26.2-1.72.46c-1.7.9-2.32 2.1-1.48 3.7.93 1.72 2.58 1.62 4 .86.32-.17 1.2-.73 1-1.1l-.37-.7c-.1-.18-.3-.13-.83.07 0 0-.07 0-.12-.12s-.06-.18 0-.22c.36-.2.78-.3 1.15-.5s.58-.43.8-.55.14 0 .2.1.07.16 0 .17c-.43.3-.44.42-.37.55zM136.62 90c-.27-.5-.46-.43-1.1-.2-.06 0-.12 0-.2-.12s0-.15.1-.22.66-.23 1.2-.52 1-.64 1.1-.7.2 0 .24 0 .05.18 0 .22c-.54.4-.7.53-.43 1l1.86 3.45c.26.5.45.44 1.08.2.07 0 .13 0 .2.13s0 .15-.1.22-.65.23-1.2.52-1 .64-1.1.7-.2 0-.23 0-.05-.18 0-.22c.54-.4.7-.53.43-1zM144.54 85.7c-.26-.5-.48-.45-1-.24-.1 0-.17 0-.22-.1s0-.15.1-.22.65-.23 1-.44.8-.56.94-.63.2 0 .23 0a.18.18 0 0 1 0 .24c-.52.38-.66.54-.4 1l2.26 4.2a.2.2 0 0 1-.08.33.75.75 0 0 1-.58 0l-6.36-1.57 1.7 3.13c.26.5.45.42 1 .22a.17.17 0 0 1 .23.1c0 .06 0 .14-.1.2s-.62.22-1 .43-.86.58-1 .66-.2 0-.23 0 0-.17 0-.23c.5-.4.64-.54.4-1l-2.24-4.14a.3.3 0 0 1 .12-.36.72.72 0 0 1 .56 0l6.35 1.6zM148.9 85.3l1.47-.8c.32-.16.4-.33.34-.5s-.06-.32.14-.43.24-.1.3 0 .12.38.24.6.22.28.32.46 0 .24-.08.3-.25.1-.33 0a.5.5 0 0 0-.7-.08l-1.5.8.74 1.35c.23.43.48.6 1.1.27l.85-.46c.46-.24.76-.46.7-.87s0-.37.17-.47.22-.1.28 0 .15.75.25 1.14c-.9.4-2 1-2.7 1.33s-1.35.85-1.68 1c-.13.07-.2 0-.24 0a.18.18 0 0 1 .06-.25c.46-.35.65-.5.4-1L147 84a.3.3 0 0 0-.42-.1l-.5.2c-.06 0-.1 0-.17-.16s0-.15.1-.2l.52-.24a8.2 8.2 0 0 0 .95-.44l.37-.2 1.08-.6.9-.52h.1a7.37 7.37 0 0 0 .5.74c.07.12 0 .22-.17.3a.27.27 0 0 1-.38-.07.47.47 0 0 0-.7-.1l-1.35.72zM156.64 78.63l-1.44.77c-.83.44-.73.83-1.1 1a.1.1 0 0 1-.1 0 .8.8 0 0 1-.07-.24l-.1-.57c0-.1 0-.16.1-.22s.37 0 .65-.15l4.65-2.5c.5-.28.52-.5.7-.58s.13 0 .16 0 .1.5.15.87c0 .06 0 .1-.08.13s-.45-.2-1.1.15l-1.53.82 2.1 3.88c.26.5.45.43 1.08.2.07 0 .13 0 .2.12s0 .15-.1.22-.65.23-1.2.52-1 .63-1.1.7-.2 0-.23 0-.06-.18 0-.22c.53-.4.7-.53.42-1zM164.37 79.48c.27.5.46.43 1.1.2.06 0 .12 0 .2.12s0 .15-.1.22-.66.23-1.2.52-1 .63-1.1.7-.2 0-.24 0S163 81 163 81c.54-.4.7-.53.43-1l-2-3.74a.3.3 0 0 0-.42-.1l-.48.2c-.07 0-.1 0-.18-.16s0-.15.08-.2.28-.13.5-.22a5.17 5.17 0 0 0 .7-.3l.76-.45.8-.45c.84-.46 2-.66 2.44.24a1.9 1.9 0 0 1-.37 2l2.76.84a4.76 4.76 0 0 0 1.53.25c0 .1 0 .14-.32.3-.75.42-1.53.4-2.94-.07l-1.8-.6c-.3.2-.6.36-.9.53zm-1-1.8l.44-.23c1.42-.76 1.15-1.62.94-2s-.77-.83-1.8-.28c-.7.37-.7.38-.62.55z" fill="#141212"/><path d="M169.6 74.16l1.47-.8c.32-.16.4-.33.34-.5s-.06-.32.14-.43.24-.1.3 0 .12.38.24.6.22.28.32.46 0 .23-.08.3-.25.1-.33 0a.5.5 0 0 0-.7-.1l-1.5.8.74 1.36c.23.44.48.6 1.1.27l.85-.45c.46-.25.76-.47.7-.88s0-.37.17-.47.22-.1.28 0 .15.75.25 1.14c-.9.4-2 1-2.7 1.33s-1.35.85-1.68 1c-.13.07-.2 0-.24 0a.18.18 0 0 1 .06-.26c.46-.35.65-.5.38-1l-2-3.74a.3.3 0 0 0-.42-.1l-.5.2c-.06 0-.1 0-.17-.16s0-.15.08-.2.3-.13.54-.24a8.28 8.28 0 0 0 .95-.44l.36-.2 1.08-.6.9-.52h.1a7.67 7.67 0 0 0 .5.74c.07.12 0 .22-.17.3a.27.27 0 0 1-.38-.07.47.47 0 0 0-.7-.1l-1.36.72zM175.7 73.37a1.1 1.1 0 0 0 .06.47c.1.18.55-.05.66-.06a.17.17 0 0 1 .14.1c.06.1.07.18-.06.25s-.53.16-1 .4-.74.52-.9.6-.15 0-.2-.1 0-.15 0-.18c.4-.33.62-.5.6-1l.05-5.55a.3.3 0 0 1 .53-.28l4.75 3.2c.2.14.47.07.92-.08.05 0 .1 0 .16.13s0 .16 0 .2a8 8 0 0 0-1.04.45c-.45.24-.93.62-1 .7s-.14 0-.2-.12a.15.15 0 0 1 0-.2c.17-.13.4-.27.32-.43a1.22 1.22 0 0 0-.38-.32l-1.15-.8L175.7 72zm0-4.16v2.25l1.8-1zM180.82 65.6l-1.44.78c-.83.44-.73.83-1.1 1a.1.1 0 0 1-.1 0 .8.8 0 0 1-.07-.24l-.1-.57c0-.1 0-.15.1-.2s.38 0 .66-.16l4.65-2.5c.5-.27.53-.48.7-.57s.14 0 .17 0 .1.5.16.87a.12.12 0 0 1-.08.13c-.13.07-.45-.2-1.1.15l-1.53.82 2.1 3.9c.25.5.45.43 1.08.2.07 0 .13 0 .2.12s0 .15-.1.22-.65.23-1.2.52-1 .63-1.1.7-.2 0-.23 0-.05-.18 0-.22c.54-.4.7-.53.43-1zM191.4 59.63a.4.4 0 0 1 .2-.44.24.24 0 0 1 .33.07l3 3.78a.74.74 0 0 0 1 .23c.1 0 .17 0 .23.06s.07.18-.08.26a11.27 11.27 0 0 0-1.12.48c-.5.26-.94.63-1.06.7s-.2.08-.26 0-.08-.2 0-.26c.5-.32.6-.52.5-.74a5.2 5.2 0 0 0-.37-.53l-1.85-2.47-.36 4.88a.28.28 0 0 1-.15.2c-.13.08-.2.06-.5-.08l-4.2-2.16 1.22 3a2.57 2.57 0 0 0 .12.24c.2.37.47.36 1 .15.1 0 .18-.06.26.1s0 .17-.1.24-.55.17-1 .43-.76.52-.9.6-.17.05-.22-.06-.07-.16 0-.2c.37-.26.5-.4.34-.85l-1.7-4.42c-.12-.3-.06-.4.08-.46a.36.36 0 0 1 .33 0l4.9 2.45zM196.7 59.57l1.48-.8c.32-.16.4-.33.34-.5s-.07-.32.13-.43.24-.1.3 0 .12.38.24.6.2.28.3.46 0 .24-.07.3-.25.1-.33 0a.5.5 0 0 0-.7-.08l-1.48.8.73 1.35c.23.44.48.6 1.1.27l.85-.45c.47-.26.77-.48.7-.9s0-.36.18-.46.22-.1.28 0 .15.75.25 1.14c-.9.4-2 1-2.7 1.33s-1.34.86-1.67 1c-.13.08-.2 0-.24 0a.18.18 0 0 1 .05-.25c.46-.35.65-.5.4-1l-2-3.74a.3.3 0 0 0-.43-.1l-.5.2c-.06 0-.1 0-.17-.15s0-.15.08-.2.28-.13.53-.24a8.22 8.22 0 0 0 .95-.43l.38-.2 1.08-.6.9-.52h.1a7.37 7.37 0 0 0 .5.74c.07.1 0 .2-.17.28a.27.27 0 0 1-.4-.06.47.47 0 0 0-.7-.12l-1.34.73zM205.2 53c-.26-.5-.47-.44-1-.23-.1 0-.16 0-.22-.1s0-.15.1-.22.65-.23 1-.44.8-.55.94-.62.2 0 .23 0a.18.18 0 0 1 0 .24c-.5.37-.64.53-.4 1l2.27 4.2a.2.2 0 0 1-.08.32.75.75 0 0 1-.58 0l-6.36-1.57 1.7 3.14c.26.5.45.44 1 .24a.17.17 0 0 1 .23.1c0 .06 0 .14-.1.2s-.62.22-1 .43-.86.58-1 .66-.2 0-.23 0 0-.18 0-.24c.5-.4.64-.55.4-1l-2.2-4.1a.3.3 0 0 1 .12-.36.72.72 0 0 1 .56 0l6.35 1.6zM209.3 50.28l-1.43.77c-.83.44-.73.83-1.1 1a.1.1 0 0 1-.1 0 .8.8 0 0 1-.07-.24l-.1-.56c0-.1 0-.15.1-.2s.37 0 .65-.16l4.65-2.5c.5-.28.52-.5.7-.58s.13 0 .16 0 .1.5.16.87a.12.12 0 0 1-.08.13c-.13.07-.45-.2-1.1.15l-1.53.82 2.1 3.88c.26.5.46.43 1.1.2.06 0 .12 0 .2.12s0 .15-.1.22-.66.22-1.2.5-1 .64-1.1.72-.2 0-.24 0-.05-.2 0-.23c.54-.4.7-.54.43-1z" fill="#141212"/><path fill="#fff200" d="M94.05 105.7L220.6 37.62l.7 1.3L94.76 107z"/></svg>