<svg data-name="Layer 1" xmlns="http://www.w3.org/2000/svg" viewBox="0 0 288 108"><title>conquer-us-logo</title><path fill="#161414" d="M170 75.7h4.7v1.26h-2.93v1.37h2.76v1.27h-2.76v1.5h3.03v1.26H170V75.7M177.82 75.7h2.26l2.25 4.52h.02l-.03-4.52h1.62v6.66h-2.2l-2.33-4.55.05 4.56h-1.63V75.7M188.27 77.02h-1.64V75.7h5.06v1.32h-1.65v5.34h-1.78v-5.34M194.3 75.7h4.7v1.26h-2.93v1.37h2.76v1.27h-2.76v1.5h3.03v1.26h-4.8V75.7M202 75.7h3.17c1.18 0 2.15.53 2.15 1.68a1.56 1.56 0 0 1-1.28 1.68c.57.15.6.66.94 1.47l.65 1.8h-1.85l-.38-1.2c-.36-1.14-.6-1.42-1.25-1.42h-.37v2.64H202zm1.78 2.77h.47c.57 0 1.3 0 1.3-.77s-.55-.7-1.27-.7h-.47zM211.34 77.02h-1.64V75.7h5.06v1.32h-1.65v5.34h-1.76v-5.34M218.7 75.7h2.17l2.57 6.66h-1.95l-.5-1.42h-2.5l-.5 1.42h-1.8zm1.08 1.38l-.86 2.6h1.67zM226.13 75.7h1.78v6.66h-1.77zM231.17 75.7h2.26l2.25 4.52h.02l-.03-4.52h1.63v6.66h-2.2l-2.34-4.55h-.02l.06 4.56h-1.63V75.7M240.43 75.7h2.8l1.4 4.43h.03l1.48-4.43h2.7v6.66h-1.75l.02-5.1h-.02l-1.7 5.1h-1.63l-1.62-5.1h-.02l.04 5.1h-1.74V75.7M251.88 75.7h4.7v1.26h-2.92v1.37h2.76v1.27h-2.76v1.5h3.03v1.26h-4.82V75.7M259.7 75.7h2.27l2.25 4.52h.02l-.03-4.52h1.63v6.66h-2.2l-2.33-4.55h-.02l.06 4.56h-1.63V75.7M270.16 77.02h-1.64V75.7h5.06v1.32h-1.64v5.34h-1.78v-5.34"/><path fill="#161414" d="M170 75.7h4.7v1.26h-2.93v1.37h2.76v1.27h-2.76v1.5h3.03v1.26H170V75.7M177.82 75.7h2.26l2.25 4.52h.02l-.03-4.52h1.62v6.66h-2.2l-2.33-4.55.05 4.56h-1.63V75.7M188.27 77.02h-1.64V75.7h5.06v1.32h-1.65v5.34h-1.78v-5.34M194.3 75.7h4.7v1.26h-2.93v1.37h2.76v1.27h-2.76v1.5h3.03v1.26h-4.8V75.7M202 75.7h3.17c1.18 0 2.15.53 2.15 1.68a1.56 1.56 0 0 1-1.28 1.68c.57.15.6.66.94 1.47l.65 1.8h-1.85l-.38-1.2c-.36-1.14-.6-1.42-1.25-1.42h-.37v2.64H202zm1.78 2.77h.47c.57 0 1.3 0 1.3-.77s-.55-.7-1.27-.7h-.47zM211.34 77.02h-1.64V75.7h5.06v1.32h-1.65v5.34h-1.76v-5.34M218.7 75.7h2.17l2.57 6.66h-1.95l-.5-1.42h-2.5l-.5 1.42h-1.8zm1.08 1.38l-.86 2.6h1.67zM226.13 75.7h1.78v6.66h-1.77zM231.17 75.7h2.26l2.25 4.52h.02l-.03-4.52h1.63v6.66h-2.2l-2.34-4.55h-.02l.06 4.56h-1.63V75.7M240.43 75.7h2.8l1.4 4.43h.03l1.48-4.43h2.7v6.66h-1.75l.02-5.1h-.02l-1.7 5.1h-1.63l-1.62-5.1h-.02l.04 5.1h-1.74V75.7M251.88 75.7h4.7v1.26h-2.92v1.37h2.76v1.27h-2.76v1.5h3.03v1.26h-4.82V75.7M259.7 75.7h2.27l2.25 4.52h.02l-.03-4.52h1.63v6.66h-2.2l-2.33-4.55h-.02l.06 4.56h-1.63V75.7M270.16 77.02h-1.64V75.7h5.06v1.32h-1.64v5.34h-1.78v-5.34M226.54 65.26a.9.9 0 0 0 .87-.64 52.53 52.53 0 0 1 1.94-5.2c.74-1.72 1.53-3.45 2.34-5.13a.9.9 0 0 0-.3-1.14l-.93-.68a1 1 0 0 0-.73-.15.9.9 0 0 0-.6.44 17.55 17.55 0 0 1-6.3 6.7 18.45 18.45 0 0 1-11.48 2 17 17 0 0 1-1.85-.32V48.3a17.16 17.16 0 0 1 4.2.28 5.5 5.5 0 0 1 1.92.9 5.9 5.9 0 0 1 1.5 1.68 8.9 8.9 0 0 1 1 2.74.92.92 0 0 0 .9.72c.5 0 1.24.13 1.64-.28a.9.9 0 0 0 .26-.66q0-1.76-.12-3.5-.15-3.4 0-6.84l.12-3.46a.9.9 0 0 0-.9-.94c-.68 0-1.68-.17-1.9.7a7.64 7.64 0 0 1-1.04 2.56 5.87 5.87 0 0 1-1.6 1.63 6.58 6.58 0 0 1-2 .9 9.18 9.18 0 0 1-2.3.3h-1.68V35c3.77 0 8.46-.62 11.67 1.7a9.73 9.73 0 0 1 3.46 5.1.93.93 0 0 0 1 .63l1.1-.2a.9.9 0 0 0 .72-1.1 12.3 12.3 0 0 1-.32-2.5V35.7v-3.4a.9.9 0 0 0-.25-.7c-.36-.36-.9-.26-1.37-.26l-2.6.05-6.42.12c-4.86.1-9.74.2-14.6 0l-2.54-.1a1 1 0 0 0-.47-.1l-.76.05c-.53 0-1.4-.22-1.9.12h-.33a54.3 54.3 0 0 1-6.54 0c-1.14-.07-2.1-.14-2.82-.2a.9.9 0 0 0-1 .9c0 .56-.15 1.4.28 1.82s1.1.26 1.62.3a6.22 6.22 0 0 1 1.54.3 2.6 2.6 0 0 1 1.3 1 5.08 5.08 0 0 1 .74 2.1 25.05 25.05 0 0 1 .24 3.84v6.78c0 2.54.3 5.34-.4 7.8a6.8 6.8 0 0 1-1.4 2.53 7.9 7.9 0 0 1-2.75 2 12.1 12.1 0 0 1-8.5.24 7.5 7.5 0 0 1-2.56-1.46 5.46 5.46 0 0 1-1.4-2 6 6 0 0 1-.45-2.26V40.34a27.27 27.27 0 0 1 .14-3.84 2.3 2.3 0 0 1 .45-1.2 2.26 2.26 0 0 1 1.14-.6 13.67 13.67 0 0 1 2.7-.36.9.9 0 0 0 .85-.8l.15-1.16a.92.92 0 0 0-.24-.74.94.94 0 0 0-.72-.3 128.64 128.64 0 0 1-17.34 0 .94.94 0 0 0-.68.26.9.9 0 0 0-.3.67c0 .72-.2 2 .87 2.08a9.9 9.9 0 0 1 2.77.45 2.8 2.8 0 0 1 1.26.82 2.7 2.7 0 0 1 .52 1.28 15.1 15.1 0 0 1 .14 2.17v15a11 11 0 0 0 1 4.9 10.6 10.6 0 0 0 2.9 3.58 15 15 0 0 0 4.8 2.52c5.44 1.8 12.87 1.5 17.2-2.64 2.52-2.4 3.8-5.78 3.8-10.07v-7.53a72.1 72.1 0 0 1 .1-8.36 2.3 2.3 0 0 1 .43-1.18 2 2 0 0 1 1-.62l.5-.13a7.3 7.3 0 0 1 2 .33 2.54 2.54 0 0 1 1.17.76 2.75 2.75 0 0 1 .53 1.28 13.56 13.56 0 0 1 .16 2.23V56a23.67 23.67 0 0 1-.17 4 2.6 2.6 0 0 1-.52 1.25 2.35 2.35 0 0 1-1.12.7 10.83 10.83 0 0 1-2.48.36.9.9 0 0 0-.86.92c0 .55-.16 1.4.3 1.83a.9.9 0 0 0 .66.25l2.4-.1c1 0 2.05-.06 3.3-.07h16.3c2.48 0 5.06.08 7.67.15z"/><path d="M168.23 66.22l-1.08-.84a.93.93 0 0 0-1.26.13 12.4 12.4 0 0 1-4 3.3c-3.08 1.46-6.86 1.14-10 .17-1.84-.56-3.72-1.18-5.6-1.86-1-.36-2.06-.72-3.1-1.07a25.5 25.5 0 0 0 7.6-1.18 16.9 16.9 0 0 0 10.5-9.05 19.08 19.08 0 0 0 0-14.9 15.47 15.47 0 0 0-4.15-5.6 18.75 18.75 0 0 0-6.33-3.44 26.43 26.43 0 0 0-16 0 18.75 18.75 0 0 0-6.33 3.45 15.44 15.44 0 0 0-4.17 5.6 19.05 19.05 0 0 0 0 14.9 15.46 15.46 0 0 0 4.16 5.6 18.25 18.25 0 0 0 5 3 24.6 24.6 0 0 0-3 .4 12.8 12.8 0 0 0-4.6 1.9.9.9 0 0 0-.32 1.13l.48 1.1a.93.93 0 0 0 .56.5 1 1 0 0 0 .75-.08 8 8 0 0 1 2.23-.85 10.33 10.33 0 0 1 6 .24 23.6 23.6 0 0 1 3.42 1.55c1.16.63 2.35 1.32 3.5 2.05s2.45 1.45 3.73 2.12a25.27 25.27 0 0 0 4.05 1.67 14 14 0 0 0 9.1-.15 15.46 15.46 0 0 0 3.82-2.14 17.22 17.22 0 0 0 3-3 28.38 28.38 0 0 0 2.3-3.4.9.9 0 0 0-.3-1.24zm-30.34-4.86a9.8 9.8 0 0 1-3.42-3 13.73 13.73 0 0 1-2-4.52 22.8 22.8 0 0 1 0-10.95 13.72 13.72 0 0 1 2-4.5 9.77 9.77 0 0 1 3.4-3 11 11 0 0 1 9.8 0 9.8 9.8 0 0 1 3.42 3 13.8 13.8 0 0 1 2 4.5 22.3 22.3 0 0 1 0 10.94 13.83 13.83 0 0 1-2 4.52 9.8 9.8 0 0 1-3.4 3 11 11 0 0 1-9.8 0zM88.57 40.9a15.45 15.45 0 0 0-4.16-5.6 18.77 18.77 0 0 0-6.32-3.44 26.43 26.43 0 0 0-16 0 18.76 18.76 0 0 0-6.33 3.45 15.46 15.46 0 0 0-4.16 5.6 19.06 19.06 0 0 0 0 14.9q.18.42.4.83l-1.37-1.4a.9.9 0 0 0-1.4.14 36.36 36.36 0 0 1-2.6 3.36 18.9 18.9 0 0 1-3.33 3 17 17 0 0 1-16.53 1.7 13.6 13.6 0 0 1-5-3.54 15.56 15.56 0 0 1-3-5.45 25.23 25.23 0 0 1-.4-13 17.4 17.4 0 0 1 2.2-5.56 12.68 12.68 0 0 1 4-4 11.9 11.9 0 0 1 11.13-.43 15.3 15.3 0 0 1 4.3 3.1A18.2 18.2 0 0 1 43.1 39a17.93 17.93 0 0 1 1.7 5.32.9.9 0 0 0 .9.77c.65 0 1.83.22 2.3-.32a.92.92 0 0 0 .23-.72c-.2-1.75-.38-3.5-.5-5.24a58.48 58.48 0 0 1-.14-7.6c0-.78.43-2.68-.3-3.22a.94.94 0 0 0-.82-.13 2.1 2.1 0 0 1-.44 0 18.26 18.26 0 0 1-1.9-.33l-4.06-.8c-1.53-.3-3.12-.56-4.76-.8a29.35 29.35 0 0 0-14.18 1.3 23.06 23.06 0 0 0-7.72 4.6A21 21 0 0 0 8.37 39a24.6 24.6 0 0 0-.07 18.7 21 21 0 0 0 4.85 7.17c7.64 7.34 20.8 8.2 29.74 2.78a27.92 27.92 0 0 0 9.4-9.73.87.87 0 0 0 .1-.5 15.26 15.26 0 0 0 3.34 4 18.7 18.7 0 0 0 6.33 3.45 26.43 26.43 0 0 0 16 0 18.7 18.7 0 0 0 6.33-3.47 15.44 15.44 0 0 0 4.16-5.6A18.27 18.27 0 0 0 90 48.35a18.26 18.26 0 0 0-1.43-7.44zM80.4 53.83a13.76 13.76 0 0 1-2 4.52 9.78 9.78 0 0 1-3.4 3 11 11 0 0 1-9.8 0 9.73 9.73 0 0 1-3.4-3 13.77 13.77 0 0 1-2-4.52 22.35 22.35 0 0 1 0-10.95 13.73 13.73 0 0 1 2-4.5 9.8 9.8 0 0 1 3.4-3 11 11 0 0 1 9.8 0 9.77 9.77 0 0 1 3.4 3 13.76 13.76 0 0 1 2 4.5 22.3 22.3 0 0 1 0 10.95z" fill="#161414"/><path d="M126 31.6a.9.9 0 0 0-.7-.25 74.05 74.05 0 0 1-10.25.2l-2.56-.15c-.52 0-1.2-.2-1.62.2a.9.9 0 0 0-.28.65c0 .7-.2 1.9.76 2.07a20 20 0 0 1 2.06.44 4.87 4.87 0 0 1 1.44.65 3.15 3.15 0 0 1 .94 1 5.12 5.12 0 0 1 .56 1.78 35.4 35.4 0 0 1 .43 4c.1 1.6.16 3.26.2 4.93s.08 3.33.08 4.92v1.4c-2.68-3.42-5.47-6.77-8.3-10-3.37-3.8-6.74-7.75-10-11.74a.9.9 0 0 0-.78-.33 57.7 57.7 0 0 1-9.2.2l-2.6-.2a.9.9 0 0 0-.7.24.92.92 0 0 0-.3.66c0 .7-.2 1.82.7 2l1.85.5a16.35 16.35 0 0 1 1.74.6 9.28 9.28 0 0 1 1.55.83 6.28 6.28 0 0 1 1 .85l-.2 18.56a24 24 0 0 1-.17 3.4 3.18 3.18 0 0 1-.68 1.66 3.27 3.27 0 0 1-1.6.9 27.74 27.74 0 0 1-3.55.7.9.9 0 0 0-.78.9c0 .56-.16 1.4.28 1.84a.9.9 0 0 0 .63.25c1.4-.07 2.76-.1 4-.15 2.55-.06 5.1-.07 7.64 0 1.15 0 2.37.08 3.6.14A.9.9 0 0 0 102 65a.92.92 0 0 0 .28-.66c0-.7.2-1.9-.77-2.07a22.85 22.85 0 0 1-3.33-.72 3 3 0 0 1-1.5-1 4.05 4.05 0 0 1-.67-1.9 31.05 31.05 0 0 1-.2-3.83v-14.2l1.2 1.32 3.57 4c1.25 1.42 2.6 3 4 4.65s2.78 3.3 4.15 5 2.67 3.36 3.92 5.04S115 63.9 116 65.4a.92.92 0 0 0 .76.4c.88 0 3.84.5 3.84-.9V44c0-1.92 0-3.84.17-5.75a6.28 6.28 0 0 1 .63-2.4 2.3 2.3 0 0 1 1.24-1.04 9.47 9.47 0 0 1 2.8-.47.9.9 0 0 0 .87-.9c-.02-.56.14-1.43-.3-1.84zM274.6 67.13a12.38 12.38 0 0 1-5.27-2.42 33.8 33.8 0 0 1-5.06-4.7 57.16 57.16 0 0 1-4.35-5.6c-1-1.46-1.9-2.8-2.66-4a17.63 17.63 0 0 0 2.74-1 12.17 12.17 0 0 0 3.27-2.22 9.94 9.94 0 0 0 2.24-3.2 12 12 0 0 0-.25-9.43 12.37 12.37 0 0 0-3.13-4.2 14.8 14.8 0 0 0-4.88-2.8c-4.3-1.53-9.2-1.05-13.67-.8-4 .2-8.05.23-12.08.12-1.5 0-3.08-.1-4.66-.2a.92.92 0 0 0-.68.26.9.9 0 0 0-.3.66c0 .74-.25 2.2.85 2.3a15.3 15.3 0 0 1 3.56.6 3.36 3.36 0 0 1 1.64 1.06 3.77 3.77 0 0 1 .7 1.8 21.72 21.72 0 0 1 .18 3.08v22.13a35.7 35.7 0 0 1-.2 5.22 3 3 0 0 1-.58 1.6 3.13 3.13 0 0 1-1.6.83 22.9 22.9 0 0 1-3.63.5.9.9 0 0 0-.84.92c0 .6-.2 1.72.28 2.18a.9.9 0 0 0 .68.25c1.9-.08 3.85-.15 5.8-.2 3.75-.07 7.5-.08 11.27 0 1.78 0 3.43.12 4.9.2a.93.93 0 0 0 .68-.25.92.92 0 0 0 .3-.66c0-.76.28-2.33-.85-2.43a20 20 0 0 1-3.38-.5 3.06 3.06 0 0 1-1.53-.84 2.87 2.87 0 0 1-.6-1.6 29.42 29.42 0 0 1-.16-3.36v-9.52a9.52 9.52 0 0 0 1 .24c.75.14 1.45.25 2.1.33a90 90 0 0 0 6.12 9.36 96.08 96.08 0 0 0 7.58 8.93.94.94 0 0 0 .73.27c1-.08 2.12-.15 3.2-.2 2.25-.08 4.52-.07 6.8 0 1.17 0 2.38.12 3.6.2a.9.9 0 0 0 1-.9c-.06-.7.14-1.88-.82-2.04zM252.93 45a9.72 9.72 0 0 1-9.67 1.47V31.1a10.1 10.1 0 0 1 1.7-.34 11.38 11.38 0 0 1 5.67.5A7.38 7.38 0 0 1 253.1 33a7.56 7.56 0 0 1 1.57 2.6c1.1 2.98.76 7.13-1.75 9.4zM280.16 76.12a.74.74 0 0 0 .6-.68.73.73 0 0 0-.3-.62 1.53 1.53 0 0 0-1-.23 7.85 7.85 0 0 0-1.1.08v2.88h.64v-1.18h.32c.37 0 .55.14.6.44a2.28 2.28 0 0 0 .23.7h.7a2.74 2.74 0 0 1-.2-.7c-.07-.38-.2-.6-.5-.7zm-.8-.2H279v-.84a1.47 1.47 0 0 1 .37 0c.42 0 .62.18.62.44s-.27.4-.63.4z" fill="#161414"/><path d="M279.5 73.15a2.9 2.9 0 1 0 2.94 2.85 2.9 2.9 0 0 0-2.93-2.85zm0 5.2a2.3 2.3 0 1 1 2.2-2.35 2.2 2.2 0 0 1-2.2 2.33z" fill="#161414"/></svg>