<svg data-name="Layer 1" xmlns="http://www.w3.org/2000/svg" viewBox="0 0 288 108"><defs><linearGradient id="a" x1="142.22" y1="39.28" x2="142.22" y2="62.67" gradientUnits="userSpaceOnUse"><stop offset="0" stop-color="#fff"/><stop offset="1" stop-color="#c2b59b"/></linearGradient></defs><title>stealth-radar-shield-uscan-tw-sg-mys-logo</title><path d="M45.55 56.7A11.9 11.9 0 0 1 45 61q-1.18 2.62-5.1 2.62H16.47a6.38 6.38 0 0 1-3.6-1.15 3.28 3.28 0 0 1-1.78-2.73v-2.37q2-.2 5.16-.75v3.73h24.3V53.2H17.7q-3.76 0-4.95-2.82a10.87 10.87 0 0 1-.47-3.77 9.64 9.64 0 0 1 .65-4.08Q14.2 40 18.22 40h20.7a8.13 8.13 0 0 1 4 1 3.1 3.1 0 0 1 1.9 2.66v2q-1.54.3-4.45.9v-3.32h-23v6.6h22.6q3.88 0 5.1 2.76a11.4 11.4 0 0 1 .48 4.1zM84.9 42.4H69.5v20.27h-5.3V42.4h-15v-3.25h35.7z" fill="#6d6e71"/><path d="M119.1 62.67h-32V39.15h31.72v3.2H92.4v6.37h16.2V52H92.4v7.5h26.72zM195.88 62.67h-30.45V39.33h5.23v20.12h25.2zM233.84 42.3h-15.38v20.26h-5.3V42.3h-15V39h35.68zM272.78 62.67h-5.17V52h-26.2v10.67h-5.32V39.33h5.24v9.43h26.15v-9.43h5.3z" fill="#636466"/><path fill="url(#a)" d="M121.22 62.67l20.82-23.4 21.18 23.37h-5.67L142.12 45.1l-15.5 17.57h-5.4"/><path d="M133.37 73.58h-2.62l-4.67-3h-2.74v3h-2.16V65.7h9.26a1.68 1.68 0 0 1 1.78 1 5.68 5.68 0 0 1 .12 1.47 6.1 6.1 0 0 1-.1 1.43 1.3 1.3 0 0 1-.93.8 10 10 0 0 1-2.7.22zm-3.15-5.4a4.28 4.28 0 0 0 0-.66q-.13-.6-.64-.6h-6.2v2.53h6q.87 0 .87-.83v-.44z" fill="#c2b59b"/><path d="M147.9 73.58h-.74a2.8 2.8 0 0 1-1.73-.48c-.08-.06-.5-.5-1.24-1.35h-7.48a18.1 18.1 0 0 0-1.4 1.83h-2.12l6.3-7.85h1.92q2.1 2.63 6.48 7.85zm-4.55-3l-2.9-3.62-2.88 3.62zM163.44 69.67a3.3 3.3 0 0 1-1.87 3 7.77 7.77 0 0 1-4 1h-7.34V65.7h7.44a7.12 7.12 0 0 1 4.1 1.1 3.37 3.37 0 0 1 1.67 2.87zm-2.13-.07a2.27 2.27 0 0 0-1-1.94 4.75 4.75 0 0 0-2.78-.74h-5.1v5.43h5a5.17 5.17 0 0 0 2.8-.67 2.33 2.33 0 0 0 1.1-2.08zM178.15 73.58h-.74a2.8 2.8 0 0 1-1.72-.48c-.08-.06-.5-.5-1.24-1.35H167a18.1 18.1 0 0 0-1.4 1.83h-2.12l6.3-7.85h1.92q2.08 2.63 6.45 7.85zm-4.55-3l-2.9-3.62-2.88 3.62zM191.86 73.58h-2.62l-4.67-3h-2.74v3h-2.15V65.7h9.26a1.68 1.68 0 0 1 1.78 1 5.67 5.67 0 0 1 .12 1.47 6.24 6.24 0 0 1-.1 1.43 1.3 1.3 0 0 1-.93.8 10 10 0 0 1-2.7.22zm-3.16-5.4a4.57 4.57 0 0 0 0-.66c-.1-.4-.3-.6-.64-.6h-6.2v2.53h6c.58 0 .87-.28.87-.83v-.44zM212.5 71.23a4 4 0 0 1-.18 1.4 1.68 1.68 0 0 1-1.7.96h-8.3a2.06 2.06 0 0 1-1.2-.43 1.13 1.13 0 0 1-.58-.87v-.8l1.8-.3v1.15h8.34v-2.17h-8a1.57 1.57 0 0 1-1.63-.93 3.6 3.6 0 0 1-.16-1.28 3.34 3.34 0 0 1 .22-1.44 1.8 1.8 0 0 1 1.76-.84h7.38a2.6 2.6 0 0 1 1.33.35c.44.26.66.55.66.88v.7a13.56 13.56 0 0 0-1.8.3v-1h-7.73v2h7.84a1.66 1.66 0 0 1 1.73 1 4 4 0 0 1 .2 1.3zM227.46 73.58h-2.12V70.1h-8.7v3.48h-2.16v-7.8h2.13v3.1h8.7v-3.1h2.17zM231.57 73.58h-2.13v-7.8h2.13zM244.94 73.58H233.8V65.7h11v1.2h-8.92v2h5.36v1.2h-5.36v2.24h9zM257.22 73.58H246.6v-7.8h2.12v6.56h8.5zM272.9 69.67a3.3 3.3 0 0 1-1.86 3 7.77 7.77 0 0 1-4 1h-7.34V65.7h7.44a7.1 7.1 0 0 1 4.1 1.1 3.36 3.36 0 0 1 1.66 2.87zm-2.13-.07a2.27 2.27 0 0 0-1-1.94 4.75 4.75 0 0 0-2.8-.74h-5.1v5.43h5a5.18 5.18 0 0 0 2.8-.67 2.34 2.34 0 0 0 1.1-2.08z" fill="#c2b59b"/><path d="M274.36 68.1v-2h-.76v-.36h1.93v.35h-.77v2zm1.43 0v-2.37h.57l.6 1.88.57-1.87h.57v2.36h-.35v-2l-.6 2h-.37l-.63-2v2z" fill="#636466"/></svg>