<svg xmlns="http://www.w3.org/2000/svg" viewBox="0 0 400 100"><path d="M133.1,89v4.9h-1.9V78.7h1.9v.9a3.69,3.69,0,0,1,2.7-1.1,4.33,4.33,0,0,1,3.6,1.5,7.43,7.43,0,0,1,0,8.4,4.52,4.52,0,0,1-3.8,1.6,7.72,7.72,0,0,1-1.5-.2C133.5,89.4,133.2,89.2,133.1,89Zm0-8v6.4a1.23,1.23,0,0,0,.8.5,2.66,2.66,0,0,0,1.2.3c2.4,0,3.6-1.4,3.6-4.1a4.14,4.14,0,0,0-.9-3,3.7,3.7,0,0,0-2.7-1,2.24,2.24,0,0,0-1,.3A2.89,2.89,0,0,0,133.1,81Z" fill="#545871"/><path d="M141.5,84.1a6,6,0,0,1,1.4-4.1,4.68,4.68,0,0,1,3.6-1.6,4.33,4.33,0,0,1,3.6,1.5,6,6,0,0,1,1.3,4.2,6,6,0,0,1-1.3,4.2,4.61,4.61,0,0,1-3.6,1.5,4.33,4.33,0,0,1-3.6-1.5A6.25,6.25,0,0,1,141.5,84.1Zm2.1,0c0,2.7,1,4.1,2.9,4.1a2.48,2.48,0,0,0,2.1-1.1,5.1,5.1,0,0,0,.8-3c0-2.7-1-4.1-2.9-4.1a2.48,2.48,0,0,0-2.1,1.1A5.33,5.33,0,0,0,143.6,84.1Z" fill="#545871"/><path d="M163.1,89.8h-.5l-3.2-7.4-3.2,7.4h-.5l-3.9-11.2h2.1l2.3,7.2,2.9-7.2h.5l3,7.2,2.5-7.2H167Z" fill="#545871"/><path d="M177.3,84.3h-7.9a4.08,4.08,0,0,0,1.1,3,3.24,3.24,0,0,0,2.4.9,4,4,0,0,0,2.8-1l.8,1.4a3.69,3.69,0,0,1-1.4.8,7.1,7.1,0,0,1-2.6.4,5,5,0,0,1-3.5-1.4,5.28,5.28,0,0,1-1.6-4.1A5.58,5.58,0,0,1,169,80a4.69,4.69,0,0,1,3.5-1.5,4.92,4.92,0,0,1,3.7,1.3,4.38,4.38,0,0,1,1.3,3.4C177.4,83.6,177.4,84,177.3,84.3Zm-4.7-4.2a3.29,3.29,0,0,0-2.2.8,2.52,2.52,0,0,0-.9,2h6.1a2.88,2.88,0,0,0-.7-2A3.78,3.78,0,0,0,172.6,80.1Z" fill="#545871"/><path d="M184.9,80.5a2,2,0,0,0-1.3-.4,2.27,2.27,0,0,0-1.8.9,3.57,3.57,0,0,0-.8,2.3v6.3h-1.9V78.7H181v1.7a3.5,3.5,0,0,1,3.2-2c.3,0,.8.1,1.5.2Z" fill="#545871"/><path d="M195.8,84.3h-7.9a4.08,4.08,0,0,0,1.1,3,3.24,3.24,0,0,0,2.4.9,4,4,0,0,0,2.8-1l.8,1.4a3.69,3.69,0,0,1-1.4.8,7.1,7.1,0,0,1-2.6.4,5,5,0,0,1-3.5-1.4,5.28,5.28,0,0,1-1.6-4.1,5.58,5.58,0,0,1,1.6-4.3,4.69,4.69,0,0,1,3.5-1.5,4.92,4.92,0,0,1,3.7,1.3,4.38,4.38,0,0,1,1.3,3.4A3.59,3.59,0,0,1,195.8,84.3Zm-4.7-4.2a3.29,3.29,0,0,0-2.2.8,3,3,0,0,0-1,2H194a2.88,2.88,0,0,0-.7-2A3.11,3.11,0,0,0,191.1,80.1Z" fill="#545871"/><path d="M204.4,89.6v-.8a4,4,0,0,1-2.9,1,4,4,0,0,1-3.3-1.5,5.58,5.58,0,0,1-1.3-3.9,6.36,6.36,0,0,1,1.5-4.2,4.26,4.26,0,0,1,3.5-1.7,4,4,0,0,1,2.6.8V74.2h1.9V89.6Zm0-8.4a2.43,2.43,0,0,0-2-1.1,3,3,0,0,0-2.5,1.2,4.91,4.91,0,0,0-1,3c0,2.6,1.2,4,3.6,4a2.61,2.61,0,0,0,1.1-.3,1.83,1.83,0,0,0,.8-.6V81.2Z" fill="#545871"/><path d="M216.1,88.8l-.7,1h-1V74.2h1.9v5.3a2,2,0,0,1,1-.7,4,4,0,0,1,1.5-.3,4.38,4.38,0,0,1,3.6,1.6,5.64,5.64,0,0,1,1.4,3.9,6.35,6.35,0,0,1-1.4,4.3,5,5,0,0,1-3.8,1.6,4,4,0,0,1-1.5-.3A8.74,8.74,0,0,1,216.1,88.8Zm.3-7.8v6.3c0,.1.2.3.7.5a2.43,2.43,0,0,0,1.1.4,3.3,3.3,0,0,0,2.8-1,4.53,4.53,0,0,0,.9-3.2,4,4,0,0,0-1-2.9,3.62,3.62,0,0,0-2.7-1,2.65,2.65,0,0,0-1,.3A1.83,1.83,0,0,0,216.4,81Z" fill="#545871"/><path d="M229.8,91.5a3.29,3.29,0,0,1-1.6,1.7,5,5,0,0,1-2.7.7V92.2a3.7,3.7,0,0,0,2.1-.6,1.62,1.62,0,0,0,.9-1.4,5.66,5.66,0,0,0-.3-1.8c-.2-.6-.5-1.3-.8-2.2l-3-7.6h2l3.2,8.5,2.9-8.5h2Z" fill="#545871"/><path d="M253.9,89.6V82.7c0-1.7-.7-2.6-2.2-2.6a2,2,0,0,0-1.3.4,1.89,1.89,0,0,0-.8,1v8.1h-1.9V81.8a1.61,1.61,0,0,0-.6-1.3,2.54,2.54,0,0,0-1.6-.5,1.92,1.92,0,0,0-1.2.4,2.13,2.13,0,0,0-.9,1v8.1h-1.9V78.7h1.3l.6,1.3a3.47,3.47,0,0,1,2.8-1.5,3.53,3.53,0,0,1,3.3,1.5,2,2,0,0,1,1.2-1,3.92,3.92,0,0,1,1.8-.4,3.25,3.25,0,0,1,2.6,1,4.1,4.1,0,0,1,.9,2.8v7.3h-2.1Z" fill="#545871"/><path d="M264.3,88.4a4.33,4.33,0,0,1-3.6,1.5,2.94,2.94,0,0,1-2.2-.9,3.17,3.17,0,0,1-.9-2.3,3.47,3.47,0,0,1,1.5-2.8,5.62,5.62,0,0,1,3.7-1.1,3.93,3.93,0,0,1,1.4.3q0-2.7-2.4-2.7a3.71,3.71,0,0,0-2.8,1l-.8-1.6a5.3,5.3,0,0,1,1.5-.8,6.8,6.8,0,0,1,1.9-.3,5.05,5.05,0,0,1,3.5,1.1,4.78,4.78,0,0,1,1.1,3.4v3.9a1.88,1.88,0,0,0,.9,1.9v1a4.18,4.18,0,0,1-1.8-.3C264.7,89.2,264.4,88.9,264.3,88.4Zm-.2-4.2a10.5,10.5,0,0,0-1.3-.2,3.65,3.65,0,0,0-2.4.8,2.27,2.27,0,0,0-.9,1.8c0,1.1.7,1.7,2,1.7a3.43,3.43,0,0,0,2.6-1.4V84.2Z" fill="#545871"/><path d="M274.5,80.5a2,2,0,0,0-1.3-.4,2.27,2.27,0,0,0-1.8.9,3.57,3.57,0,0,0-.8,2.3v6.3h-1.9V78.7h1.9v1.7a3.5,3.5,0,0,1,3.2-2c.3,0,.8.1,1.5.2Z" fill="#545871"/><path d="M283.3,89.6l-3.4-5.5-1.7,1.7v3.7h-1.9V74.2h1.9v9.6l4.2-5.1h2.3l-3.5,4.2,4.3,6.8h-2.2Z" fill="#545871"/><path d="M295.5,84.3h-7.9a4.08,4.08,0,0,0,1.1,3,3.24,3.24,0,0,0,2.4.9,4,4,0,0,0,2.8-1l.8,1.4a3.69,3.69,0,0,1-1.4.8,7.1,7.1,0,0,1-2.6.4,5,5,0,0,1-3.5-1.4,5.28,5.28,0,0,1-1.6-4.1,5.58,5.58,0,0,1,1.6-4.3,4.69,4.69,0,0,1,3.5-1.5,4.92,4.92,0,0,1,3.7,1.3,4.38,4.38,0,0,1,1.3,3.4C295.6,83.6,295.6,84,295.5,84.3Zm-4.7-4.2a3.29,3.29,0,0,0-2.2.8,3,3,0,0,0-1,2h6.1a2.88,2.88,0,0,0-.7-2A3.29,3.29,0,0,0,290.8,80.1Z" fill="#545871"/><path d="M297.9,80.2h-1.3V78.7h1.3V76.4l1.9-.7v3h3v1.5h-3v5.4a3.44,3.44,0,0,0,.5,2,1.75,1.75,0,0,0,1.5.6,2.82,2.82,0,0,0,1.5-.4l.3,1.7a10.9,10.9,0,0,1-2.6.3,2.7,2.7,0,0,1-2.2-1,3.41,3.41,0,0,1-.9-2.4V80.2Z" fill="#545871"/><path d="M311.1,88.4a4.33,4.33,0,0,1-3.6,1.5,2.94,2.94,0,0,1-2.2-.9,3.17,3.17,0,0,1-.9-2.3,3.47,3.47,0,0,1,1.5-2.8,5.62,5.62,0,0,1,3.7-1.1,3.93,3.93,0,0,1,1.4.3q0-2.7-2.4-2.7a3.71,3.71,0,0,0-2.8,1l-.8-1.6a5.3,5.3,0,0,1,1.5-.8,6.28,6.28,0,0,1,1.9-.3,5.05,5.05,0,0,1,3.5,1.1,4.78,4.78,0,0,1,1.1,3.4v3.9a1.88,1.88,0,0,0,.9,1.9v1a4.18,4.18,0,0,1-1.8-.3A3.79,3.79,0,0,1,311.1,88.4Zm-.1-4.2a10.5,10.5,0,0,0-1.3-.2,3.65,3.65,0,0,0-2.4.8,2.27,2.27,0,0,0-.9,1.8c0,1.1.7,1.7,2,1.7a3.43,3.43,0,0,0,2.6-1.4V84.2Z" fill="#00a8ca"/><path d="M328.1,89.6V82.7c0-1.7-.7-2.6-2.2-2.6a2,2,0,0,0-1.3.4,1.89,1.89,0,0,0-.8,1v8.1h-1.9V81.8a1.61,1.61,0,0,0-.6-1.3,2.54,2.54,0,0,0-1.6-.5,1.92,1.92,0,0,0-1.2.4,2.13,2.13,0,0,0-.9,1v8.1h-1.9V78.7H317l.6,1.3a3.34,3.34,0,0,1,2.8-1.5,3.53,3.53,0,0,1,3.3,1.5,2,2,0,0,1,1.2-1,3.92,3.92,0,0,1,1.8-.4,3.25,3.25,0,0,1,2.6,1,4.1,4.1,0,0,1,.9,2.8v7.3h-2.1Z" fill="#00a8ca"/><path d="M341.5,84.3h-7.9a3.72,3.72,0,0,0,1.1,3,3.24,3.24,0,0,0,2.4.9,4,4,0,0,0,2.8-1l.8,1.4a3.69,3.69,0,0,1-1.4.8,7.1,7.1,0,0,1-2.6.4,5,5,0,0,1-3.5-1.4,5.28,5.28,0,0,1-1.6-4.1,5.58,5.58,0,0,1,1.6-4.3,4.69,4.69,0,0,1,3.5-1.5,4.92,4.92,0,0,1,3.7,1.3,4.38,4.38,0,0,1,1.3,3.4A3.59,3.59,0,0,1,341.5,84.3Zm-4.7-4.2a3.29,3.29,0,0,0-2.2.8,2.52,2.52,0,0,0-.9,2h6.1a2.88,2.88,0,0,0-.7-2A3.57,3.57,0,0,0,336.8,80.1Z" fill="#00a8ca"/><path d="M349.2,80.5a2,2,0,0,0-1.3-.4,2.27,2.27,0,0,0-1.8.9,3.57,3.57,0,0,0-.8,2.3v6.3h-1.9V78.7h1.9v1.7a3.5,3.5,0,0,1,3.2-2c.3,0,.8.1,1.5.2Z" fill="#00a8ca"/><path d="M351.8,89.6V80.3h-1.5V78.7h3.4V89.6Zm1-15.1a1.22,1.22,0,0,1,.9.4,1.23,1.23,0,0,1,.4.8,1.22,1.22,0,0,1-.4.9,1.27,1.27,0,0,1-.9.4.91.91,0,0,1-.8-.4,1.27,1.27,0,0,1-.4-.9,1.14,1.14,0,0,1,.3-.8A1.22,1.22,0,0,1,352.8,74.5Z" fill="#00a8ca"/><path d="M364.6,79.6l-1,1.4a2.89,2.89,0,0,0-1-.6,4,4,0,0,0-1.5-.3,3.1,3.1,0,0,0-2.5,1.1,4.66,4.66,0,0,0-.9,3,4,4,0,0,0,.9,2.9,3.25,3.25,0,0,0,2.6,1,3.88,3.88,0,0,0,2.6-1l.8,1.6a6.65,6.65,0,0,1-3.9,1,5,5,0,0,1-3.7-1.5,5.59,5.59,0,0,1-1.5-4.1,6,6,0,0,1,1.5-4.2,5.36,5.36,0,0,1,4.2-1.6,3.92,3.92,0,0,1,1.8.4A10.06,10.06,0,0,1,364.6,79.6Z" fill="#00a8ca"/><path d="M372.3,88.4a4.33,4.33,0,0,1-3.6,1.5,2.94,2.94,0,0,1-2.2-.9,3.17,3.17,0,0,1-.9-2.3,3.47,3.47,0,0,1,1.5-2.8,5.62,5.62,0,0,1,3.7-1.1,3.93,3.93,0,0,1,1.4.3q0-2.7-2.4-2.7a3.71,3.71,0,0,0-2.8,1l-.8-1.6a5.3,5.3,0,0,1,1.5-.8,6.8,6.8,0,0,1,1.9-.3,5.05,5.05,0,0,1,3.5,1.1,4.78,4.78,0,0,1,1.1,3.4v3.9a1.88,1.88,0,0,0,.9,1.9v1a4.18,4.18,0,0,1-1.8-.3A3.79,3.79,0,0,1,372.3,88.4Zm-.1-4.2a10.5,10.5,0,0,0-1.3-.2,3.65,3.65,0,0,0-2.4.8,2.27,2.27,0,0,0-.9,1.8c0,1.1.7,1.7,2,1.7a3.43,3.43,0,0,0,2.6-1.4V84.2Z" fill="#00a8ca"/><path d="M27.8,24.5c-.8-5.7-4.1-9.2-9.2-9.2-6.8,0-8.7,4.5-8.7,7.8,0,3.6,2.3,5.9,7,7.7L23,33.1c7.7,2.9,11.2,7.3,11.2,13.2,0,7.8-6.2,13.4-15.4,13.4C10,59.6,3.8,55,3,45.4H9.1c.5,5.3,3.2,8.9,9.9,8.9,5.3,0,9.1-3.4,9.1-7.6,0-3.7-3.1-6.1-7.5-7.9l-6.1-2.4c-7.2-2.8-10.7-7-10.7-13.2C3.8,15,10.7,10,18.6,10s14.2,4.7,14.9,14.5Z" fill="#545871"/><path d="M73.4,10.8h6.1V58.9H73.4V37.1H48.3V58.9H42.2V10.8h6.1V31.4H73.4Z" fill="#545871"/><path d="M113.6,10c16.3,0,25.5,12.9,25.5,24.8s-9.2,24.8-25.5,24.8S88.1,46.7,88.1,34.8,97.2,10,113.6,10Zm0,43.9A19.1,19.1,0,1,0,94.5,34.8,18.94,18.94,0,0,0,113.6,53.9Z" fill="#545871"/><path d="M147.7,10.8H161c10.2,0,16.3,7.8,16.3,15.9S171.2,42.5,161,42.5h-7.2V58.9h-6.1Zm12,26.3c7.3,0,11.5-3.5,11.5-10.5S167,16,159.7,16h-6V37.1Z" fill="#545871"/><path d="M253.7,20.9A18.45,18.45,0,0,0,241.3,16a19.1,19.1,0,0,0,0,38.2,18.14,18.14,0,0,0,12.8-5.1l3.9,4.4A25.77,25.77,0,0,1,241.3,60c-16.3,0-25.5-12.9-25.5-24.8s9.2-24.8,25.5-24.8a25.37,25.37,0,0,1,16.5,6.1Z" fill="#545871"/><path d="M288.8,10.3c16.3,0,25.5,12.9,25.5,24.8s-9.2,24.8-25.5,24.8S263.3,47,263.3,35.1,272.5,10.3,288.8,10.3Zm0,43.9a19.1,19.1,0,1,0-19.1-19.1A19,19,0,0,0,288.8,54.2Z" fill="#545871"/><path d="M368.1,11h6.1V59.1h-6.1V23.5H368L348.6,59.6,329.2,23.5H329V59.1h-6V11h6.1l19.6,36.3Z" fill="#545871"/><path d="M205.8,34.1a9.5,9.5,0,1,1-9.5-9.5A9.63,9.63,0,0,1,205.8,34.1Z" fill="#00a8ca"/><path d="M380,19.5a8.16,8.16,0,0,1,2.5-6,8.45,8.45,0,0,1,12,0,8.16,8.16,0,0,1,2.5,6,8.16,8.16,0,0,1-2.5,6,8.45,8.45,0,0,1-12,0A7.85,7.85,0,0,1,380,19.5Zm15.6,0a6.72,6.72,0,0,0-2.1-5,6.88,6.88,0,0,0-5-2.1,6.72,6.72,0,0,0-5,2.1,6.88,6.88,0,0,0-2.1,5,6.72,6.72,0,0,0,2.1,5,6.88,6.88,0,0,0,5,2.1,6.72,6.72,0,0,0,5-2.1A6.57,6.57,0,0,0,395.6,19.5Zm-4.4,5.1-2.7-4.5H387v4.5h-1.5V14.2h2.7c2.5,0,3.8,1,3.8,2.9a2.88,2.88,0,0,1-2,2.8l2.9,4.7ZM387,15.5V19h1a3.32,3.32,0,0,0,2-.4,1.67,1.67,0,0,0,.5-1.4c0-1.2-.8-1.7-2.3-1.7H387Z" fill="#545871"/></svg>