<svg xmlns="http://www.w3.org/2000/svg" viewBox="0 0 84 15.22"><polygon points="11.06 9.4 16 5.81 9.89 5.81 8 0 6.11 5.81 0 5.81 4.94 9.4 3.06 15.22 8 11.63 12.94 15.22 11.06 9.4"/><polygon points="28.06 9.4 33 5.81 26.89 5.81 25 0 23.11 5.81 17 5.81 21.94 9.4 20.06 15.22 25 11.63 29.94 15.22 28.06 9.4"/><polygon points="45.06 9.4 50 5.81 43.89 5.81 42 0 40.11 5.81 34 5.81 38.94 9.4 37.06 15.22 42 11.63 46.94 15.22 45.06 9.4"/><polygon points="62.06 9.4 67 5.81 60.89 5.81 59 0 57.11 5.81 51 5.81 55.94 9.4 54.06 15.22 59 11.63 63.94 15.22 62.06 9.4"/><polygon points="79.06 9.4 84 5.81 77.89 5.81 76 0 74.11 5.81 68 5.81 72.94 9.4 71.06 15.22 76 11.63 80.94 15.22 79.06 9.4"/></svg>