<svg xmlns="http://www.w3.org/2000/svg" viewBox="0 0 30 30"><circle cx="15" cy="15" r="14.5" fill="#09a79d"/><path d="M22.31,17.59c0-3.38-3.13-4-6.07-4.39V9.34a2.62,2.62,0,0,1,2.22,2.14h3.31c-.31-3.38-3.23-4.35-5.57-4.62V4.25H13.76V6.78C10.53,7,8,8.31,8,11.37s2.9,3.86,5.8,4.23V20a2.89,2.89,0,0,1-2.7-2.75H7.69c0,2.81,1.8,4.8,6.07,5.15v3.15h2.48V22.37C19.16,22.15,22.31,21,22.31,17.59Zm-11-6.48c0-1.16,1-1.79,2.47-1.93v3.69C12.31,12.62,11.27,12.2,11.27,11.11Zm5,8.92V16c1.56.29,2.7.77,2.7,1.93S17.73,19.83,16.24,20Z" fill="#fff"/></svg>